G04 (created by PCBNEW (2013-07-07 BZR 4022)-stable) date 15/08/2017 00:06:55*
%MOIN*%
G04 Gerber Fmt 3.4, Leading zero omitted, Abs format*
%FSLAX34Y34*%
G01*
G70*
G90*
G04 APERTURE LIST*
%ADD10C,0.00590551*%
%ADD11R,0.06X0.06*%
%ADD12C,0.06*%
%ADD13R,0.055X0.055*%
%ADD14C,0.055*%
%ADD15C,0.1*%
%ADD16R,0.1X0.1*%
%ADD17C,0.02*%
%ADD18C,0.03*%
%ADD19C,0.012*%
%ADD20C,0.006*%
%ADD21C,0.02*%
%ADD22C,0.01*%
G04 APERTURE END LIST*
G54D10*
G54D11*
X25500Y-10250D03*
G54D12*
X26500Y-10250D03*
X25500Y-11250D03*
X26500Y-11250D03*
X25500Y-12250D03*
X26500Y-12250D03*
X25500Y-13250D03*
X26500Y-13250D03*
G54D11*
X26500Y-17250D03*
G54D12*
X25500Y-17250D03*
X26500Y-16250D03*
X25500Y-16250D03*
X26500Y-15250D03*
X25500Y-15250D03*
X26500Y-14250D03*
X25500Y-14250D03*
G54D11*
X28500Y-19250D03*
G54D12*
X27500Y-19250D03*
X26500Y-19250D03*
X25500Y-19250D03*
G54D11*
X27500Y-10250D03*
G54D12*
X28500Y-10250D03*
G54D11*
X37885Y-9645D03*
G54D12*
X38885Y-9645D03*
G54D13*
X40846Y-12787D03*
G54D14*
X40846Y-13787D03*
G54D13*
X40346Y-9645D03*
G54D14*
X41346Y-9645D03*
G54D13*
X40748Y-16625D03*
G54D14*
X40748Y-17625D03*
G54D15*
X43799Y-14929D03*
X43799Y-16929D03*
X43799Y-18929D03*
G54D16*
X43799Y-10417D03*
G54D15*
X43799Y-12417D03*
G54D17*
X40866Y-10708D03*
X40511Y-10708D03*
X40275Y-10944D03*
X39960Y-11141D03*
X39645Y-11141D03*
X39370Y-11141D03*
X39488Y-11417D03*
X39881Y-11377D03*
X40236Y-11377D03*
X40551Y-11377D03*
X40905Y-11377D03*
X40748Y-11062D03*
X39488Y-19212D03*
X39488Y-19527D03*
X39488Y-19881D03*
X39842Y-19881D03*
X39842Y-19527D03*
X39842Y-19204D03*
X40196Y-19212D03*
X40196Y-19527D03*
X40196Y-19881D03*
X40551Y-19881D03*
X40551Y-19527D03*
X40551Y-19204D03*
X40905Y-19527D03*
X40905Y-19881D03*
X40551Y-15826D03*
X40551Y-15433D03*
X40905Y-15433D03*
X40905Y-15866D03*
X39448Y-15826D03*
X39842Y-15826D03*
X39842Y-15433D03*
X40196Y-15433D03*
X40196Y-15826D03*
X39448Y-15433D03*
X31070Y-18094D03*
X30779Y-18098D03*
X28799Y-13562D03*
X29921Y-14212D03*
X28759Y-14488D03*
X28759Y-15137D03*
X29980Y-15255D03*
X28759Y-14803D03*
X29940Y-14960D03*
X29940Y-15551D03*
X29988Y-15889D03*
X28700Y-13307D03*
X29940Y-12893D03*
X28937Y-13070D03*
X37992Y-11181D03*
X37716Y-11535D03*
X37244Y-10984D03*
X37572Y-11167D03*
X36811Y-11023D03*
X37086Y-11259D03*
X37283Y-10669D03*
X36732Y-10669D03*
X36299Y-10669D03*
X37797Y-10667D03*
X31889Y-13287D03*
X36417Y-11023D03*
X34355Y-11023D03*
X38267Y-14527D03*
X38694Y-14505D03*
X38031Y-14763D03*
X38267Y-15000D03*
X37834Y-15669D03*
X37777Y-14505D03*
X36667Y-14867D03*
X37480Y-15505D03*
X37598Y-15944D03*
X37086Y-15944D03*
X36811Y-15551D03*
X36377Y-15275D03*
X36259Y-14921D03*
X36299Y-14527D03*
X37050Y-15250D03*
X34380Y-13100D03*
X33210Y-14270D03*
X38346Y-19015D03*
X38346Y-18700D03*
X38346Y-18346D03*
X38740Y-18346D03*
X37204Y-19015D03*
X37598Y-19251D03*
X37598Y-18779D03*
X37598Y-18385D03*
X37244Y-19685D03*
X37637Y-19685D03*
X36850Y-19291D03*
X36850Y-18779D03*
X36811Y-19685D03*
X36850Y-18385D03*
X36338Y-19685D03*
X36338Y-19291D03*
X36299Y-18779D03*
X36299Y-18385D03*
X36600Y-16620D03*
X33160Y-15400D03*
X34360Y-15060D03*
X35039Y-12795D03*
X34547Y-17125D03*
X33250Y-14760D03*
X35540Y-14760D03*
X33180Y-15880D03*
X35620Y-17220D03*
X28740Y-12598D03*
X28661Y-11220D03*
X30748Y-17421D03*
X29212Y-17992D03*
X27775Y-13275D03*
X31496Y-12992D03*
X31496Y-13385D03*
X31496Y-13779D03*
X30314Y-12992D03*
X30314Y-13385D03*
X30314Y-13779D03*
X30314Y-14173D03*
X30314Y-14566D03*
X30314Y-14960D03*
X30708Y-14960D03*
X30708Y-14566D03*
X30708Y-14173D03*
X30708Y-13779D03*
X30708Y-13385D03*
X30708Y-12992D03*
X31102Y-12992D03*
X31102Y-13385D03*
X31102Y-13779D03*
X31102Y-14173D03*
X31102Y-14566D03*
X31102Y-14960D03*
X35545Y-9875D03*
X35545Y-10275D03*
X38070Y-13188D03*
X38503Y-13287D03*
X37598Y-13858D03*
X37913Y-13858D03*
X38070Y-13543D03*
X37362Y-13740D03*
X37795Y-12913D03*
X37614Y-17224D03*
X37834Y-17244D03*
X37834Y-16968D03*
X37598Y-16968D03*
X37362Y-16948D03*
X37834Y-16692D03*
X37598Y-16692D03*
X37362Y-16692D03*
X33220Y-13338D03*
X33444Y-17578D03*
X37614Y-13385D03*
X37106Y-17814D03*
X34842Y-18897D03*
X34870Y-9340D03*
X34870Y-9920D03*
X34870Y-9640D03*
X27751Y-13976D03*
X29921Y-13877D03*
X34355Y-11712D03*
X38270Y-12180D03*
X38118Y-19681D03*
X34520Y-15560D03*
X34909Y-19492D03*
X34355Y-16437D03*
X38694Y-16005D03*
X34370Y-13790D03*
G54D18*
X39094Y-20045D02*
X39325Y-20045D01*
X39325Y-20045D02*
X39488Y-19881D01*
X41181Y-10708D02*
X41181Y-10787D01*
X41181Y-10787D02*
X41732Y-11338D01*
X41732Y-11338D02*
X41850Y-11338D01*
X41023Y-10944D02*
X41023Y-10866D01*
X41023Y-10866D02*
X41181Y-10708D01*
X41181Y-10708D02*
X41377Y-10511D01*
X41377Y-10511D02*
X41377Y-10629D01*
X41377Y-10629D02*
X41614Y-10866D01*
X41614Y-10866D02*
X41614Y-11141D01*
X41614Y-11141D02*
X41496Y-11259D01*
X41496Y-11259D02*
X41299Y-11259D01*
X41299Y-11259D02*
X41220Y-11181D01*
X41220Y-11181D02*
X41220Y-10944D01*
X40275Y-10824D02*
X40510Y-10589D01*
X40510Y-10589D02*
X40985Y-10589D01*
X40985Y-10589D02*
X41259Y-10314D01*
X41259Y-10314D02*
X41456Y-10314D01*
X41456Y-10314D02*
X41850Y-10708D01*
X41850Y-10708D02*
X41850Y-11338D01*
X41850Y-11338D02*
X41850Y-11451D01*
X41850Y-11451D02*
X40708Y-11451D01*
X40708Y-11451D02*
X40708Y-11259D01*
X40708Y-11259D02*
X40708Y-11181D01*
X40826Y-10905D02*
X40472Y-10905D01*
X40472Y-10905D02*
X40472Y-11023D01*
X40393Y-10705D02*
X40627Y-10705D01*
X40627Y-10705D02*
X40826Y-10905D01*
X40826Y-10905D02*
X40866Y-10944D01*
X39606Y-11141D02*
X39921Y-11141D01*
X39921Y-11141D02*
X40039Y-11259D01*
X40039Y-11259D02*
X40472Y-11259D01*
X40472Y-11259D02*
X40708Y-11023D01*
X40708Y-11023D02*
X40472Y-11023D01*
X40472Y-11023D02*
X40551Y-11023D01*
X40551Y-11023D02*
X40314Y-11259D01*
X40314Y-11259D02*
X40039Y-11259D01*
X40039Y-11259D02*
X40039Y-11141D01*
X39370Y-11141D02*
X39606Y-11141D01*
X39606Y-11141D02*
X40039Y-11141D01*
X40039Y-11141D02*
X39957Y-11141D01*
X39957Y-11141D02*
X40275Y-10824D01*
X40275Y-10824D02*
X40393Y-10705D01*
X40950Y-10556D02*
X41023Y-10629D01*
X41023Y-10629D02*
X41023Y-10944D01*
X41023Y-10944D02*
X41023Y-11451D01*
X41023Y-11451D02*
X39291Y-11451D01*
X39291Y-11451D02*
X39291Y-11141D01*
X39291Y-11141D02*
X39325Y-11108D01*
X39325Y-11108D02*
X39991Y-11108D01*
X39991Y-11108D02*
X40215Y-10884D01*
X40215Y-10884D02*
X40275Y-10944D01*
X40866Y-10708D02*
X40511Y-10708D01*
X40275Y-10944D02*
X40078Y-11141D01*
X40078Y-11141D02*
X39960Y-11141D01*
X39645Y-11141D02*
X39370Y-11141D01*
X39370Y-11141D02*
X39370Y-11141D01*
X39488Y-11417D02*
X39527Y-11377D01*
X39527Y-11377D02*
X39881Y-11377D01*
X40236Y-11377D02*
X40551Y-11377D01*
X40905Y-11377D02*
X40708Y-11181D01*
X40708Y-11181D02*
X40748Y-11220D01*
X40748Y-11220D02*
X40748Y-11062D01*
X39527Y-19645D02*
X39803Y-19645D01*
X39803Y-19645D02*
X40078Y-19921D01*
X40078Y-19921D02*
X40078Y-19881D01*
X39330Y-19370D02*
X39330Y-19448D01*
X39330Y-19448D02*
X39527Y-19645D01*
X39527Y-19645D02*
X39527Y-19645D01*
X39527Y-19645D02*
X40511Y-19645D01*
X40511Y-19645D02*
X40748Y-19881D01*
X40748Y-19881D02*
X41062Y-19881D01*
X41062Y-19881D02*
X40629Y-19448D01*
X40629Y-19448D02*
X39566Y-19448D01*
X39566Y-19448D02*
X39488Y-19448D01*
X39488Y-19212D02*
X40790Y-19212D01*
X40790Y-19212D02*
X41299Y-19721D01*
X41299Y-19721D02*
X41299Y-20039D01*
X41299Y-20039D02*
X41259Y-20078D01*
X41259Y-20078D02*
X39370Y-20078D01*
X39370Y-20078D02*
X39330Y-20039D01*
X39330Y-20039D02*
X39330Y-19370D01*
X39330Y-19370D02*
X39330Y-19283D01*
X39330Y-19283D02*
X39409Y-19204D01*
X39409Y-19204D02*
X40748Y-19204D01*
X39488Y-19212D02*
X39488Y-19448D01*
X39488Y-19448D02*
X39488Y-19527D01*
X39488Y-19881D02*
X39842Y-19881D01*
X39842Y-19527D02*
X39842Y-19204D01*
X40196Y-19212D02*
X40196Y-19527D01*
X40196Y-19881D02*
X40078Y-19881D01*
X40078Y-19881D02*
X40551Y-19881D01*
X40551Y-19527D02*
X40551Y-19204D01*
X40905Y-19527D02*
X40905Y-19881D01*
X40551Y-16102D02*
X40748Y-16102D01*
X40748Y-16102D02*
X40944Y-16299D01*
X40944Y-16299D02*
X40944Y-16417D01*
X39448Y-16062D02*
X40275Y-16062D01*
X40275Y-16062D02*
X40629Y-16417D01*
X40629Y-16417D02*
X40944Y-16417D01*
X40944Y-16417D02*
X41023Y-16417D01*
X41023Y-16417D02*
X41299Y-16141D01*
X41299Y-16141D02*
X41299Y-15787D01*
X41299Y-15787D02*
X41141Y-15629D01*
X41141Y-15629D02*
X41141Y-15944D01*
X41141Y-15944D02*
X40984Y-16102D01*
X40984Y-16102D02*
X40551Y-16102D01*
X40551Y-16102D02*
X40511Y-16102D01*
X40039Y-15360D02*
X39285Y-15360D01*
X39285Y-15360D02*
X39212Y-15433D01*
X39212Y-15433D02*
X39212Y-16181D01*
X39212Y-16181D02*
X39291Y-16259D01*
X39291Y-16259D02*
X39606Y-16259D01*
X39448Y-15433D02*
X39448Y-15354D01*
X39448Y-15354D02*
X39448Y-16062D01*
X39448Y-16062D02*
X39448Y-16259D01*
X39448Y-16259D02*
X39606Y-16259D01*
X39606Y-16259D02*
X40196Y-16259D01*
X40196Y-16259D02*
X40590Y-16653D01*
X40590Y-16653D02*
X41102Y-16653D01*
X41102Y-16653D02*
X41574Y-16181D01*
X41574Y-16181D02*
X41574Y-15705D01*
X41574Y-15705D02*
X41228Y-15360D01*
X41228Y-15360D02*
X40039Y-15360D01*
X40039Y-15360D02*
X39409Y-15360D01*
X39409Y-15360D02*
X39448Y-15399D01*
X39448Y-15399D02*
X39448Y-15669D01*
X39448Y-15669D02*
X39448Y-15629D01*
X39448Y-15629D02*
X39448Y-15629D01*
X39448Y-15629D02*
X40748Y-15629D01*
X40748Y-15629D02*
X40787Y-15590D01*
X39448Y-15433D02*
X40944Y-15433D01*
X40944Y-15433D02*
X40944Y-15826D01*
X40944Y-15826D02*
X40905Y-15866D01*
X40905Y-15866D02*
X39448Y-15866D01*
X39448Y-15866D02*
X39448Y-15629D01*
X39448Y-15629D02*
X39448Y-15511D01*
X40196Y-15826D02*
X40551Y-15826D01*
X40551Y-15433D02*
X40905Y-15433D01*
X39448Y-15433D02*
X39448Y-15511D01*
X39448Y-15511D02*
X39448Y-15826D01*
X39842Y-15826D02*
X39842Y-15433D01*
X40196Y-15433D02*
X40196Y-15826D01*
X31070Y-18106D02*
X31070Y-18094D01*
X40059Y-19629D02*
X39643Y-20045D01*
X39643Y-20045D02*
X39094Y-20045D01*
X39094Y-20045D02*
X33009Y-20045D01*
X33009Y-20045D02*
X31070Y-18106D01*
X31070Y-18106D02*
X31062Y-18098D01*
X31062Y-18098D02*
X30779Y-18098D01*
G54D19*
X28799Y-13562D02*
X28562Y-13562D01*
X28562Y-13562D02*
X28031Y-13031D01*
X28031Y-13031D02*
X27598Y-13031D01*
X27598Y-13031D02*
X26889Y-13740D01*
X26889Y-13740D02*
X25984Y-13740D01*
X25984Y-13740D02*
X25511Y-13267D01*
X25511Y-13267D02*
X25500Y-13250D01*
X26500Y-14250D02*
X26501Y-14251D01*
X29881Y-14251D02*
X29921Y-14212D01*
X26501Y-14251D02*
X29881Y-14251D01*
X26005Y-14744D02*
X25500Y-15250D01*
X28503Y-14744D02*
X26005Y-14744D01*
X28759Y-14488D02*
X28503Y-14744D01*
X26001Y-15748D02*
X25500Y-16250D01*
X28149Y-15748D02*
X26001Y-15748D01*
X28759Y-15137D02*
X28149Y-15748D01*
X29980Y-15255D02*
X29370Y-15255D01*
X29370Y-15255D02*
X29291Y-15334D01*
X25500Y-17236D02*
X26003Y-16732D01*
X26003Y-16732D02*
X27893Y-16732D01*
X27893Y-16732D02*
X29291Y-15334D01*
X25500Y-17236D02*
X25500Y-17250D01*
X26500Y-15250D02*
X28312Y-15250D01*
X28312Y-15250D02*
X28759Y-14803D01*
X29212Y-15059D02*
X29311Y-14960D01*
X28021Y-16250D02*
X29212Y-15059D01*
X26500Y-16250D02*
X28021Y-16250D01*
X29311Y-14960D02*
X29940Y-14960D01*
X29940Y-15551D02*
X28242Y-17250D01*
X28242Y-17250D02*
X26500Y-17250D01*
X25500Y-19250D02*
X26468Y-18281D01*
X26468Y-18281D02*
X28600Y-18281D01*
X28600Y-18281D02*
X28728Y-18153D01*
X28728Y-18153D02*
X28728Y-17149D01*
X28728Y-17149D02*
X29988Y-15889D01*
X29055Y-12834D02*
X28543Y-12834D01*
X28543Y-12834D02*
X28228Y-12519D01*
X28228Y-12519D02*
X26769Y-12519D01*
X26769Y-12519D02*
X26500Y-12250D01*
X28700Y-13307D02*
X29055Y-13307D01*
X29055Y-13307D02*
X29173Y-13188D01*
X29173Y-13188D02*
X29173Y-12913D01*
X29173Y-12913D02*
X29094Y-12834D01*
X29094Y-12834D02*
X29055Y-12834D01*
X26500Y-11250D02*
X26879Y-11250D01*
X26879Y-11250D02*
X27480Y-11850D01*
X27480Y-11850D02*
X28897Y-11850D01*
X28897Y-11850D02*
X29940Y-12893D01*
G54D20*
X29448Y-12401D02*
X29940Y-12893D01*
G54D19*
X25984Y-12734D02*
X28049Y-12734D01*
X28049Y-12734D02*
X28385Y-13070D01*
X28385Y-13070D02*
X28937Y-13070D01*
X25500Y-12250D02*
X25984Y-12734D01*
X25984Y-12734D02*
X25944Y-12694D01*
X25944Y-12694D02*
X25944Y-12694D01*
X25944Y-12694D02*
X25966Y-12716D01*
G54D18*
X42677Y-12125D02*
X42362Y-11811D01*
X42362Y-11811D02*
X39133Y-11811D01*
X39133Y-11811D02*
X38622Y-11299D01*
X38622Y-11299D02*
X37913Y-11299D01*
X37913Y-11299D02*
X37322Y-10708D01*
X37322Y-10708D02*
X37322Y-10629D01*
X37598Y-11338D02*
X37755Y-11496D01*
X37755Y-11496D02*
X38700Y-11496D01*
X38700Y-11496D02*
X39173Y-11968D01*
X39173Y-11968D02*
X42165Y-11968D01*
X42165Y-11968D02*
X42362Y-12165D01*
X42362Y-12165D02*
X42401Y-12165D01*
X42125Y-12283D02*
X42047Y-12204D01*
X42047Y-12204D02*
X39094Y-12204D01*
X39094Y-12204D02*
X38622Y-11732D01*
X38622Y-11732D02*
X37992Y-11732D01*
X43799Y-14929D02*
X43787Y-14929D01*
X43787Y-14929D02*
X42125Y-13267D01*
X42125Y-13267D02*
X42125Y-12283D01*
X42125Y-12283D02*
X42125Y-12322D01*
X37992Y-11732D02*
X37598Y-11338D01*
X37598Y-11338D02*
X37244Y-10984D01*
X37716Y-11535D02*
X37755Y-11535D01*
X37755Y-11535D02*
X37834Y-11456D01*
X42401Y-12204D02*
X42401Y-12165D01*
X42401Y-12165D02*
X42401Y-13149D01*
X42401Y-13149D02*
X43622Y-14370D01*
X43622Y-14370D02*
X43622Y-14685D01*
X43622Y-14685D02*
X43799Y-14929D01*
X42677Y-12086D02*
X42677Y-12125D01*
X42677Y-12125D02*
X42677Y-13031D01*
X42677Y-13031D02*
X43818Y-14173D01*
X43818Y-14173D02*
X43818Y-14960D01*
X43818Y-14960D02*
X43799Y-14929D01*
X37572Y-11167D02*
X37559Y-11181D01*
X37086Y-11102D02*
X37086Y-11259D01*
X37086Y-11259D02*
X37086Y-11102D01*
X37086Y-11102D02*
X37086Y-10866D01*
X37086Y-10866D02*
X37322Y-10629D01*
X37322Y-10629D02*
X37283Y-10669D01*
X37797Y-10667D02*
X37795Y-10669D01*
X34355Y-11023D02*
X33316Y-11023D01*
X33316Y-11023D02*
X32720Y-11620D01*
X32720Y-11620D02*
X32720Y-12457D01*
X32720Y-12457D02*
X31889Y-13287D01*
X36417Y-11023D02*
X34355Y-11023D01*
G54D19*
X32720Y-12444D02*
X32720Y-12401D01*
X31889Y-13287D02*
X32720Y-12457D01*
X32720Y-12457D02*
X32720Y-12444D01*
G54D21*
X34355Y-11023D02*
X36417Y-11023D01*
G54D19*
X33065Y-11275D02*
X32720Y-11620D01*
X32720Y-11620D02*
X32720Y-12401D01*
X33320Y-11020D02*
X33065Y-11275D01*
X33065Y-11275D02*
X33060Y-11280D01*
X34351Y-11020D02*
X33320Y-11020D01*
X34351Y-11020D02*
X34355Y-11023D01*
G54D18*
X39409Y-14505D02*
X41671Y-14505D01*
X41671Y-14505D02*
X42303Y-15137D01*
X42027Y-15255D02*
X41535Y-14763D01*
X41535Y-14763D02*
X39330Y-14763D01*
X39173Y-15000D02*
X41377Y-15000D01*
X41377Y-15000D02*
X42755Y-16377D01*
X38267Y-14527D02*
X38267Y-14505D01*
X38694Y-14505D02*
X38700Y-14505D01*
X38031Y-14763D02*
X38267Y-15000D01*
X38110Y-14505D02*
X38110Y-14685D01*
X38110Y-14685D02*
X38031Y-14763D01*
X43799Y-16929D02*
X43307Y-16929D01*
X43307Y-16929D02*
X42755Y-16377D01*
X42755Y-16377D02*
X41889Y-15511D01*
X39173Y-15000D02*
X38267Y-15000D01*
X37777Y-14505D02*
X37777Y-14509D01*
X37777Y-14509D02*
X38031Y-14763D01*
X38031Y-14763D02*
X39330Y-14763D01*
X42007Y-15236D02*
X42027Y-15255D01*
X42027Y-15255D02*
X43700Y-16929D01*
X43700Y-16929D02*
X43799Y-16929D01*
X37777Y-14505D02*
X38110Y-14505D01*
X38110Y-14505D02*
X38267Y-14505D01*
X38267Y-14505D02*
X38700Y-14505D01*
X38700Y-14505D02*
X39409Y-14505D01*
X39409Y-14505D02*
X39427Y-14505D01*
X42125Y-14960D02*
X42303Y-15137D01*
X42303Y-15137D02*
X43976Y-16811D01*
X43976Y-16811D02*
X43976Y-16929D01*
X43976Y-16929D02*
X43799Y-16929D01*
X37777Y-14505D02*
X37795Y-14488D01*
X37480Y-15505D02*
X37480Y-15511D01*
X37559Y-16023D02*
X37559Y-15984D01*
X37559Y-15984D02*
X37598Y-15944D01*
X36299Y-14527D02*
X36313Y-14513D01*
X34380Y-13100D02*
X33210Y-14270D01*
X33210Y-14270D02*
X36070Y-14270D01*
X36070Y-14270D02*
X36313Y-14513D01*
X36313Y-14513D02*
X36667Y-14867D01*
X36667Y-14867D02*
X37050Y-15250D01*
G54D19*
X33210Y-14270D02*
X36070Y-14270D01*
X36070Y-14270D02*
X37050Y-15250D01*
X33210Y-14270D02*
X34380Y-13100D01*
G54D18*
X43799Y-18929D02*
X43531Y-18661D01*
X43531Y-18661D02*
X41535Y-18661D01*
X43799Y-18929D02*
X43818Y-18948D01*
X43818Y-18948D02*
X43818Y-19370D01*
X43818Y-19370D02*
X43740Y-19448D01*
X43740Y-19448D02*
X43307Y-19448D01*
X40629Y-18346D02*
X38346Y-18346D01*
X38346Y-18346D02*
X38346Y-19015D01*
X38346Y-19015D02*
X38517Y-18844D01*
X38517Y-18844D02*
X38517Y-18529D01*
X38517Y-18529D02*
X41009Y-18529D01*
X41009Y-18529D02*
X41102Y-18622D01*
X38346Y-19015D02*
X38517Y-18844D01*
X38517Y-18844D02*
X39108Y-18844D01*
X38346Y-18844D02*
X39108Y-18844D01*
X39108Y-18844D02*
X40931Y-18844D01*
X40931Y-18844D02*
X41535Y-19448D01*
X41535Y-19448D02*
X43307Y-19448D01*
X43307Y-19448D02*
X43799Y-18956D01*
X43799Y-18956D02*
X43799Y-18929D01*
X43799Y-18929D02*
X43799Y-18956D01*
X43799Y-18956D02*
X43543Y-19212D01*
X43543Y-19212D02*
X41692Y-19212D01*
X41692Y-19212D02*
X41102Y-18622D01*
X41102Y-18622D02*
X38346Y-18700D01*
X38740Y-18346D02*
X38346Y-18346D01*
X43799Y-18929D02*
X41803Y-18929D01*
X41803Y-18929D02*
X41535Y-18661D01*
X41535Y-18661D02*
X41220Y-18346D01*
X41220Y-18346D02*
X40629Y-18346D01*
X40629Y-18346D02*
X38740Y-18346D01*
X37598Y-18779D02*
X37440Y-18779D01*
X37440Y-18779D02*
X37204Y-19015D01*
X37598Y-18779D02*
X37598Y-19251D01*
X37598Y-18385D02*
X37598Y-18779D01*
X37637Y-19685D02*
X37244Y-19685D01*
X36811Y-19685D02*
X37637Y-19685D01*
X36850Y-18779D02*
X36850Y-19291D01*
X36850Y-18385D02*
X36850Y-18779D01*
X36929Y-18346D02*
X36889Y-18346D01*
X36889Y-18346D02*
X36850Y-18385D01*
X36600Y-16620D02*
X36600Y-16140D01*
X36600Y-16140D02*
X35620Y-15160D01*
X35620Y-15160D02*
X34460Y-15160D01*
X34460Y-15160D02*
X34360Y-15060D01*
G54D21*
X35720Y-15260D02*
X35620Y-15160D01*
X35620Y-15160D02*
X35340Y-15160D01*
X35340Y-15160D02*
X35240Y-15060D01*
X35240Y-15060D02*
X34360Y-15060D01*
X36600Y-16620D02*
X36600Y-16412D01*
X36600Y-16412D02*
X36600Y-16140D01*
X36600Y-16140D02*
X35720Y-15260D01*
G54D18*
X33160Y-15400D02*
X33500Y-15060D01*
X33500Y-15060D02*
X34360Y-15060D01*
G54D19*
X33110Y-13854D02*
X32933Y-14031D01*
X32933Y-14031D02*
X32038Y-14031D01*
X32038Y-14031D02*
X31872Y-14196D01*
X35039Y-12795D02*
X34169Y-12795D01*
X34169Y-12795D02*
X33110Y-13854D01*
X33110Y-13854D02*
X33103Y-13861D01*
X34547Y-17125D02*
X32045Y-17125D01*
X32045Y-17125D02*
X31872Y-16953D01*
X31872Y-14196D02*
X31872Y-16953D01*
G54D18*
X33250Y-14760D02*
X33330Y-14680D01*
X33330Y-14680D02*
X34720Y-14680D01*
X34720Y-14680D02*
X35460Y-14680D01*
X35460Y-14680D02*
X35540Y-14760D01*
X33180Y-15880D02*
X35000Y-15880D01*
X35000Y-15880D02*
X35620Y-16500D01*
X35620Y-16500D02*
X35620Y-17220D01*
G54D19*
X28740Y-12598D02*
X28346Y-12204D01*
X28346Y-12204D02*
X27244Y-12204D01*
X27244Y-12204D02*
X26712Y-11673D01*
X26712Y-11673D02*
X25923Y-11673D01*
X25923Y-11673D02*
X25500Y-11250D01*
G54D20*
X25914Y-11664D02*
X25923Y-11673D01*
X25914Y-11664D02*
X25500Y-11250D01*
G54D19*
X25998Y-10748D02*
X25500Y-10250D01*
X27007Y-10748D02*
X25998Y-10748D01*
X27480Y-11220D02*
X27007Y-10748D01*
X28661Y-11220D02*
X27480Y-11220D01*
G54D20*
X25500Y-10250D02*
X25500Y-10303D01*
X27480Y-11220D02*
X28661Y-11220D01*
X27007Y-10748D02*
X27480Y-11220D01*
X25944Y-10748D02*
X27007Y-10748D01*
X25500Y-10303D02*
X25944Y-10748D01*
G54D18*
X30748Y-17421D02*
X30728Y-17401D01*
X30728Y-17401D02*
X29803Y-17401D01*
X29803Y-17401D02*
X29212Y-17992D01*
X34870Y-9640D02*
X32289Y-9640D01*
X32289Y-9640D02*
X31102Y-10826D01*
X31102Y-10826D02*
X31102Y-12992D01*
X43799Y-10417D02*
X44196Y-10417D01*
X44196Y-10417D02*
X44763Y-10984D01*
X44763Y-10984D02*
X44763Y-16653D01*
X40748Y-17625D02*
X42232Y-17625D01*
X42232Y-17625D02*
X42480Y-17874D01*
X42480Y-17874D02*
X44330Y-17874D01*
X44330Y-17874D02*
X44763Y-17440D01*
X44763Y-17440D02*
X44763Y-16653D01*
X44763Y-16653D02*
X44763Y-16496D01*
X44763Y-16496D02*
X44173Y-15905D01*
X44173Y-15905D02*
X43579Y-15905D01*
X43579Y-15905D02*
X41461Y-13787D01*
X41461Y-13787D02*
X40846Y-13787D01*
X43799Y-10417D02*
X42118Y-10417D01*
X42118Y-10417D02*
X41346Y-9645D01*
X41346Y-9645D02*
X41692Y-9645D01*
X41692Y-9645D02*
X42204Y-10157D01*
X42204Y-10157D02*
X43539Y-10157D01*
X43539Y-10157D02*
X43799Y-10417D01*
G54D19*
X31692Y-14307D02*
X31692Y-14122D01*
X31692Y-14122D02*
X31963Y-13851D01*
X31963Y-13851D02*
X32858Y-13851D01*
X32858Y-13851D02*
X34162Y-12547D01*
X34162Y-12547D02*
X34401Y-12547D01*
X34401Y-12547D02*
X34401Y-12472D01*
X29736Y-13299D02*
X30618Y-13299D01*
X30618Y-13299D02*
X30673Y-13354D01*
X30673Y-13354D02*
X30673Y-13393D01*
X27775Y-13275D02*
X27933Y-13275D01*
X27933Y-13275D02*
X28440Y-13783D01*
X28440Y-13783D02*
X29251Y-13783D01*
X29251Y-13783D02*
X29736Y-13299D01*
X29736Y-13299D02*
X29767Y-13267D01*
X29767Y-13267D02*
X30716Y-13267D01*
X30716Y-13267D02*
X30708Y-13267D01*
X27775Y-13275D02*
X28391Y-13891D01*
X28391Y-13891D02*
X29289Y-13891D01*
X29289Y-13891D02*
X29787Y-13393D01*
X29787Y-13393D02*
X30673Y-13393D01*
X30673Y-13393D02*
X30720Y-13393D01*
X30720Y-13393D02*
X30708Y-13385D01*
X31496Y-12992D02*
X31496Y-13385D01*
X30314Y-12992D02*
X30314Y-13385D01*
X30314Y-13779D02*
X30314Y-14173D01*
X30314Y-14566D02*
X30314Y-14960D01*
X30708Y-14960D02*
X30708Y-14566D01*
X30708Y-14173D02*
X30708Y-13779D01*
X30708Y-13385D02*
X30708Y-13267D01*
X30708Y-13267D02*
X30708Y-12992D01*
X31102Y-12992D02*
X31102Y-13385D01*
X31102Y-13779D02*
X31102Y-14173D01*
X31102Y-14566D02*
X31102Y-14960D01*
G54D18*
X37677Y-10196D02*
X37952Y-10196D01*
X37952Y-10196D02*
X38503Y-10748D01*
X38503Y-10748D02*
X39842Y-10748D01*
X39842Y-10748D02*
X40393Y-10196D01*
X37834Y-10196D02*
X38267Y-10196D01*
X38267Y-10196D02*
X38543Y-10472D01*
X38543Y-10472D02*
X40039Y-10472D01*
X35545Y-9875D02*
X35590Y-9921D01*
X35590Y-9921D02*
X38267Y-9921D01*
X38267Y-9921D02*
X38543Y-10196D01*
X35545Y-10275D02*
X35624Y-10196D01*
X35624Y-10196D02*
X37677Y-10196D01*
X37677Y-10196D02*
X37834Y-10196D01*
X37834Y-10196D02*
X38543Y-10196D01*
X38543Y-10196D02*
X40393Y-10196D01*
X40393Y-10196D02*
X40826Y-10196D01*
X40826Y-10196D02*
X41338Y-9685D01*
X41338Y-9685D02*
X41346Y-9645D01*
X37795Y-12913D02*
X38070Y-13188D01*
X38070Y-13188D02*
X38070Y-13700D01*
X38070Y-13700D02*
X37913Y-13858D01*
X37913Y-13858D02*
X37598Y-13858D01*
X38464Y-13149D02*
X38425Y-13188D01*
X38425Y-13188D02*
X38425Y-13582D01*
X37952Y-13070D02*
X38031Y-13149D01*
X38031Y-13149D02*
X38464Y-13149D01*
X40118Y-13031D02*
X40000Y-13149D01*
X40000Y-13149D02*
X38464Y-13149D01*
X38464Y-13149D02*
X38070Y-13543D01*
X37795Y-12913D02*
X37952Y-13070D01*
X37952Y-13070D02*
X38070Y-13188D01*
X38503Y-13287D02*
X40137Y-13287D01*
X40137Y-13287D02*
X40433Y-13582D01*
X37598Y-13858D02*
X37913Y-13858D01*
X38070Y-13543D02*
X38110Y-13582D01*
X38110Y-13582D02*
X38425Y-13582D01*
X38425Y-13582D02*
X40433Y-13582D01*
X40433Y-13582D02*
X40641Y-13582D01*
X40641Y-13582D02*
X40846Y-13787D01*
X37362Y-13740D02*
X37480Y-13858D01*
X37480Y-13858D02*
X40551Y-13858D01*
X40551Y-13858D02*
X40748Y-13661D01*
X40748Y-13661D02*
X40846Y-13787D01*
X37795Y-12913D02*
X39960Y-12913D01*
X39960Y-12913D02*
X40000Y-12913D01*
X40000Y-12913D02*
X40118Y-13031D01*
X40118Y-13031D02*
X40826Y-13740D01*
X40826Y-13740D02*
X40846Y-13787D01*
X40027Y-17625D02*
X40196Y-17795D01*
X40196Y-17795D02*
X40787Y-17795D01*
X40787Y-17795D02*
X40826Y-17755D01*
X40826Y-17755D02*
X40748Y-17625D01*
X40748Y-17625D02*
X40027Y-17625D01*
X40027Y-17625D02*
X39645Y-17244D01*
X39645Y-17244D02*
X37834Y-17244D01*
X40748Y-17625D02*
X40381Y-17625D01*
X40381Y-17625D02*
X39724Y-16968D01*
X39724Y-16968D02*
X37834Y-16968D01*
X37614Y-17224D02*
X37614Y-17220D01*
X37614Y-17220D02*
X37598Y-17204D01*
X37834Y-16692D02*
X37834Y-16968D01*
X37598Y-16692D02*
X37598Y-16968D01*
X37362Y-16948D02*
X37362Y-16929D01*
X37362Y-16692D02*
X37598Y-16692D01*
X40748Y-17625D02*
X39814Y-16692D01*
X39814Y-16692D02*
X37834Y-16692D01*
X37834Y-16692D02*
X37362Y-16692D01*
X33220Y-13338D02*
X33224Y-13338D01*
X33224Y-13338D02*
X34090Y-12472D01*
X34090Y-12472D02*
X34401Y-12472D01*
X34401Y-12472D02*
X36700Y-12472D01*
X36700Y-12472D02*
X37614Y-13385D01*
G54D19*
X33220Y-13338D02*
X34059Y-12500D01*
X34059Y-12500D02*
X34326Y-12500D01*
X31692Y-14307D02*
X31692Y-17027D01*
X31692Y-17027D02*
X31971Y-17305D01*
X31971Y-17305D02*
X33172Y-17305D01*
X33172Y-17305D02*
X33444Y-17578D01*
X37614Y-13385D02*
X36728Y-12500D01*
X36728Y-12500D02*
X34326Y-12500D01*
X34326Y-12500D02*
X34251Y-12500D01*
X35925Y-17814D02*
X37106Y-17814D01*
X34842Y-18897D02*
X35925Y-17814D01*
G54D18*
X34870Y-9640D02*
X34870Y-9340D01*
X34870Y-9920D02*
X34870Y-9640D01*
X37885Y-9645D02*
X34875Y-9645D01*
X34875Y-9645D02*
X34870Y-9640D01*
G54D19*
X27751Y-13976D02*
X27846Y-14071D01*
X27846Y-14071D02*
X29550Y-14071D01*
X29550Y-14071D02*
X29740Y-13881D01*
X29740Y-13881D02*
X29940Y-13881D01*
X29940Y-13881D02*
X29940Y-13877D01*
G54D21*
X29940Y-13877D02*
X29929Y-13877D01*
X29929Y-13877D02*
X29921Y-13877D01*
G54D18*
X34355Y-11712D02*
X37072Y-11712D01*
X37072Y-11712D02*
X37540Y-12180D01*
X37540Y-12180D02*
X38270Y-12180D01*
G54D19*
X37540Y-12180D02*
X38270Y-12180D01*
X37072Y-11712D02*
X37540Y-12180D01*
X37072Y-11712D02*
X34355Y-11712D01*
G54D21*
X38118Y-19681D02*
X38000Y-19562D01*
X38000Y-19562D02*
X38000Y-19377D01*
X38000Y-19377D02*
X38000Y-19377D01*
X38000Y-18180D02*
X38000Y-19377D01*
X38000Y-19377D02*
X38000Y-19417D01*
X36160Y-16340D02*
X36160Y-17000D01*
X36160Y-17000D02*
X36500Y-17340D01*
X36500Y-17340D02*
X37160Y-17340D01*
X34520Y-15560D02*
X34540Y-15540D01*
X34540Y-15540D02*
X35360Y-15540D01*
X35360Y-15540D02*
X36160Y-16340D01*
X37160Y-17340D02*
X37921Y-18101D01*
X37921Y-18101D02*
X38000Y-18180D01*
G54D18*
X34960Y-16660D02*
X34967Y-16660D01*
X34967Y-16660D02*
X35157Y-16850D01*
X35157Y-16850D02*
X35157Y-17992D01*
X35157Y-17992D02*
X34921Y-18228D01*
X34909Y-19492D02*
X34748Y-19492D01*
X34748Y-19492D02*
X34448Y-19192D01*
X34737Y-16437D02*
X34960Y-16660D01*
X34960Y-16660D02*
X34940Y-16640D01*
X34355Y-16437D02*
X34737Y-16437D01*
X34448Y-18700D02*
X34448Y-19192D01*
X34940Y-18208D02*
X34921Y-18228D01*
X34921Y-18228D02*
X34448Y-18700D01*
X34370Y-13790D02*
X36478Y-13790D01*
X36478Y-13790D02*
X38694Y-16005D01*
G54D21*
X38694Y-16005D02*
X36478Y-13790D01*
X36478Y-13790D02*
X34370Y-13790D01*
G54D10*
G36*
X39000Y-16392D02*
X37834Y-16392D01*
X37598Y-16392D01*
X37362Y-16392D01*
X37247Y-16415D01*
X37150Y-16480D01*
X37085Y-16578D01*
X37072Y-16642D01*
X36895Y-16642D01*
X36900Y-16620D01*
X36900Y-16140D01*
X36877Y-16025D01*
X36812Y-15927D01*
X36812Y-15927D01*
X36112Y-15228D01*
X36112Y-14090D01*
X36354Y-14090D01*
X38482Y-16218D01*
X38580Y-16283D01*
X38694Y-16305D01*
X38809Y-16283D01*
X38907Y-16218D01*
X38916Y-16203D01*
X38935Y-16295D01*
X39000Y-16392D01*
X39000Y-16392D01*
G37*
G54D22*
X39000Y-16392D02*
X37834Y-16392D01*
X37598Y-16392D01*
X37362Y-16392D01*
X37247Y-16415D01*
X37150Y-16480D01*
X37085Y-16578D01*
X37072Y-16642D01*
X36895Y-16642D01*
X36900Y-16620D01*
X36900Y-16140D01*
X36877Y-16025D01*
X36812Y-15927D01*
X36812Y-15927D01*
X36112Y-15228D01*
X36112Y-14090D01*
X36354Y-14090D01*
X38482Y-16218D01*
X38580Y-16283D01*
X38694Y-16305D01*
X38809Y-16283D01*
X38907Y-16218D01*
X38916Y-16203D01*
X38935Y-16295D01*
X39000Y-16392D01*
G54D10*
G36*
X39044Y-15176D02*
X39000Y-15220D01*
X38935Y-15318D01*
X38912Y-15433D01*
X38912Y-15802D01*
X38907Y-15793D01*
X36982Y-13868D01*
X37094Y-13868D01*
X37150Y-13952D01*
X37268Y-14070D01*
X37365Y-14135D01*
X37480Y-14158D01*
X37598Y-14158D01*
X37913Y-14158D01*
X39044Y-14158D01*
X39044Y-15176D01*
X39044Y-15176D01*
G37*
G54D22*
X39044Y-15176D02*
X39000Y-15220D01*
X38935Y-15318D01*
X38912Y-15433D01*
X38912Y-15802D01*
X38907Y-15793D01*
X36982Y-13868D01*
X37094Y-13868D01*
X37150Y-13952D01*
X37268Y-14070D01*
X37365Y-14135D01*
X37480Y-14158D01*
X37598Y-14158D01*
X37913Y-14158D01*
X39044Y-14158D01*
X39044Y-15176D01*
G54D10*
G36*
X39044Y-12613D02*
X37795Y-12613D01*
X37680Y-12636D01*
X37583Y-12701D01*
X37527Y-12784D01*
X37501Y-12784D01*
X36871Y-12154D01*
X36112Y-12154D01*
X36112Y-12012D01*
X36948Y-12012D01*
X37327Y-12392D01*
X37327Y-12392D01*
X37425Y-12457D01*
X37540Y-12480D01*
X38270Y-12480D01*
X38384Y-12457D01*
X38482Y-12392D01*
X38547Y-12294D01*
X38570Y-12180D01*
X38547Y-12065D01*
X38482Y-11967D01*
X38384Y-11902D01*
X38270Y-11880D01*
X37664Y-11880D01*
X37284Y-11500D01*
X37187Y-11435D01*
X37072Y-11412D01*
X36112Y-11412D01*
X36112Y-10496D01*
X37677Y-10496D01*
X37828Y-10496D01*
X38291Y-10960D01*
X38291Y-10960D01*
X38389Y-11025D01*
X38503Y-11048D01*
X38503Y-11048D01*
X39009Y-11048D01*
X38991Y-11141D01*
X38991Y-11451D01*
X39014Y-11565D01*
X39044Y-11611D01*
X39044Y-12613D01*
X39044Y-12613D01*
G37*
G54D22*
X39044Y-12613D02*
X37795Y-12613D01*
X37680Y-12636D01*
X37583Y-12701D01*
X37527Y-12784D01*
X37501Y-12784D01*
X36871Y-12154D01*
X36112Y-12154D01*
X36112Y-12012D01*
X36948Y-12012D01*
X37327Y-12392D01*
X37327Y-12392D01*
X37425Y-12457D01*
X37540Y-12480D01*
X38270Y-12480D01*
X38384Y-12457D01*
X38482Y-12392D01*
X38547Y-12294D01*
X38570Y-12180D01*
X38547Y-12065D01*
X38482Y-11967D01*
X38384Y-11902D01*
X38270Y-11880D01*
X37664Y-11880D01*
X37284Y-11500D01*
X37187Y-11435D01*
X37072Y-11412D01*
X36112Y-11412D01*
X36112Y-10496D01*
X37677Y-10496D01*
X37828Y-10496D01*
X38291Y-10960D01*
X38291Y-10960D01*
X38389Y-11025D01*
X38503Y-11048D01*
X38503Y-11048D01*
X39009Y-11048D01*
X38991Y-11141D01*
X38991Y-11451D01*
X39014Y-11565D01*
X39044Y-11611D01*
X39044Y-12613D01*
G54D10*
G36*
X37828Y-19745D02*
X36073Y-19745D01*
X36073Y-18024D01*
X36962Y-18024D01*
X36964Y-18026D01*
X36977Y-18031D01*
X37026Y-18081D01*
X37225Y-18081D01*
X37372Y-17934D01*
X37372Y-17906D01*
X37745Y-18278D01*
X37750Y-18284D01*
X37750Y-19375D01*
X37750Y-19377D01*
X37750Y-19562D01*
X37769Y-19658D01*
X37823Y-19739D01*
X37828Y-19745D01*
X37828Y-19745D01*
G37*
G54D22*
X37828Y-19745D02*
X36073Y-19745D01*
X36073Y-18024D01*
X36962Y-18024D01*
X36964Y-18026D01*
X36977Y-18031D01*
X37026Y-18081D01*
X37225Y-18081D01*
X37372Y-17934D01*
X37372Y-17906D01*
X37745Y-18278D01*
X37750Y-18284D01*
X37750Y-19375D01*
X37750Y-19377D01*
X37750Y-19562D01*
X37769Y-19658D01*
X37823Y-19739D01*
X37828Y-19745D01*
G54D10*
G36*
X39044Y-19213D02*
X39030Y-19283D01*
X39030Y-19370D01*
X39030Y-19448D01*
X39030Y-19745D01*
X38362Y-19745D01*
X38368Y-19731D01*
X38368Y-19681D01*
X38368Y-19681D01*
X38368Y-19681D01*
X38368Y-19631D01*
X38349Y-19585D01*
X38349Y-19585D01*
X38349Y-19585D01*
X38330Y-19539D01*
X38294Y-19504D01*
X38294Y-19504D01*
X38294Y-19504D01*
X38259Y-19469D01*
X38259Y-19469D01*
X38250Y-19459D01*
X38250Y-19420D01*
X38250Y-19417D01*
X38250Y-19377D01*
X38250Y-18180D01*
X38250Y-18180D01*
X38250Y-18180D01*
X38246Y-18161D01*
X38231Y-18084D01*
X38231Y-18084D01*
X38177Y-18003D01*
X38177Y-18003D01*
X38098Y-17925D01*
X37703Y-17530D01*
X37765Y-17530D01*
X37834Y-17544D01*
X39044Y-17544D01*
X39044Y-19213D01*
X39044Y-19213D01*
G37*
G54D22*
X39044Y-19213D02*
X39030Y-19283D01*
X39030Y-19370D01*
X39030Y-19448D01*
X39030Y-19745D01*
X38362Y-19745D01*
X38368Y-19731D01*
X38368Y-19681D01*
X38368Y-19681D01*
X38368Y-19681D01*
X38368Y-19631D01*
X38349Y-19585D01*
X38349Y-19585D01*
X38349Y-19585D01*
X38330Y-19539D01*
X38294Y-19504D01*
X38294Y-19504D01*
X38294Y-19504D01*
X38259Y-19469D01*
X38259Y-19469D01*
X38250Y-19459D01*
X38250Y-19420D01*
X38250Y-19417D01*
X38250Y-19377D01*
X38250Y-18180D01*
X38250Y-18180D01*
X38250Y-18180D01*
X38246Y-18161D01*
X38231Y-18084D01*
X38231Y-18084D01*
X38177Y-18003D01*
X38177Y-18003D01*
X38098Y-17925D01*
X37703Y-17530D01*
X37765Y-17530D01*
X37834Y-17544D01*
X39044Y-17544D01*
X39044Y-19213D01*
G54D10*
G36*
X26163Y-13950D02*
X26118Y-13994D01*
X26050Y-14160D01*
X26049Y-14339D01*
X26118Y-14504D01*
X26147Y-14534D01*
X26005Y-14534D01*
X25925Y-14550D01*
X25898Y-14568D01*
X25857Y-14595D01*
X25857Y-14595D01*
X25855Y-14597D01*
X25855Y-14283D01*
X25841Y-14145D01*
X25815Y-14082D01*
X25776Y-14044D01*
X25705Y-14115D01*
X25705Y-13973D01*
X25667Y-13934D01*
X25533Y-13894D01*
X25395Y-13908D01*
X25332Y-13934D01*
X25294Y-13973D01*
X25500Y-14179D01*
X25705Y-13973D01*
X25705Y-14115D01*
X25570Y-14250D01*
X25776Y-14455D01*
X25815Y-14417D01*
X25855Y-14283D01*
X25855Y-14597D01*
X25705Y-14747D01*
X25705Y-14526D01*
X25500Y-14320D01*
X25294Y-14526D01*
X25332Y-14565D01*
X25466Y-14605D01*
X25604Y-14591D01*
X25667Y-14565D01*
X25705Y-14526D01*
X25705Y-14747D01*
X25634Y-14818D01*
X25589Y-14800D01*
X25410Y-14799D01*
X25245Y-14868D01*
X25169Y-14943D01*
X25169Y-14380D01*
X25184Y-14417D01*
X25223Y-14455D01*
X25429Y-14250D01*
X25223Y-14044D01*
X25184Y-14082D01*
X25169Y-14133D01*
X25169Y-13556D01*
X25244Y-13631D01*
X25410Y-13699D01*
X25589Y-13700D01*
X25630Y-13683D01*
X25835Y-13888D01*
X25903Y-13934D01*
X25903Y-13934D01*
X25984Y-13950D01*
X26163Y-13950D01*
X26163Y-13950D01*
G37*
G54D22*
X26163Y-13950D02*
X26118Y-13994D01*
X26050Y-14160D01*
X26049Y-14339D01*
X26118Y-14504D01*
X26147Y-14534D01*
X26005Y-14534D01*
X25925Y-14550D01*
X25898Y-14568D01*
X25857Y-14595D01*
X25857Y-14595D01*
X25855Y-14597D01*
X25855Y-14283D01*
X25841Y-14145D01*
X25815Y-14082D01*
X25776Y-14044D01*
X25705Y-14115D01*
X25705Y-13973D01*
X25667Y-13934D01*
X25533Y-13894D01*
X25395Y-13908D01*
X25332Y-13934D01*
X25294Y-13973D01*
X25500Y-14179D01*
X25705Y-13973D01*
X25705Y-14115D01*
X25570Y-14250D01*
X25776Y-14455D01*
X25815Y-14417D01*
X25855Y-14283D01*
X25855Y-14597D01*
X25705Y-14747D01*
X25705Y-14526D01*
X25500Y-14320D01*
X25294Y-14526D01*
X25332Y-14565D01*
X25466Y-14605D01*
X25604Y-14591D01*
X25667Y-14565D01*
X25705Y-14526D01*
X25705Y-14747D01*
X25634Y-14818D01*
X25589Y-14800D01*
X25410Y-14799D01*
X25245Y-14868D01*
X25169Y-14943D01*
X25169Y-14380D01*
X25184Y-14417D01*
X25223Y-14455D01*
X25429Y-14250D01*
X25223Y-14044D01*
X25184Y-14082D01*
X25169Y-14133D01*
X25169Y-13556D01*
X25244Y-13631D01*
X25410Y-13699D01*
X25589Y-13700D01*
X25630Y-13683D01*
X25835Y-13888D01*
X25903Y-13934D01*
X25903Y-13934D01*
X25984Y-13950D01*
X26163Y-13950D01*
G54D10*
G36*
X27388Y-12944D02*
X26855Y-13477D01*
X26855Y-13283D01*
X26841Y-13145D01*
X26815Y-13082D01*
X26776Y-13044D01*
X26570Y-13250D01*
X26776Y-13455D01*
X26815Y-13417D01*
X26855Y-13283D01*
X26855Y-13477D01*
X26802Y-13530D01*
X26701Y-13530D01*
X26705Y-13526D01*
X26500Y-13320D01*
X26429Y-13391D01*
X26429Y-13250D01*
X26223Y-13044D01*
X26184Y-13082D01*
X26144Y-13216D01*
X26158Y-13354D01*
X26184Y-13417D01*
X26223Y-13455D01*
X26429Y-13250D01*
X26429Y-13391D01*
X26294Y-13526D01*
X26298Y-13530D01*
X26071Y-13530D01*
X25929Y-13388D01*
X25949Y-13339D01*
X25950Y-13160D01*
X25881Y-12995D01*
X25755Y-12868D01*
X25589Y-12800D01*
X25410Y-12799D01*
X25245Y-12868D01*
X25169Y-12943D01*
X25169Y-12556D01*
X25244Y-12631D01*
X25410Y-12699D01*
X25589Y-12700D01*
X25634Y-12681D01*
X25796Y-12843D01*
X25796Y-12843D01*
X25835Y-12882D01*
X25903Y-12928D01*
X25903Y-12928D01*
X25984Y-12944D01*
X26323Y-12944D01*
X26294Y-12973D01*
X26500Y-13179D01*
X26705Y-12973D01*
X26676Y-12944D01*
X27388Y-12944D01*
X27388Y-12944D01*
G37*
G54D22*
X27388Y-12944D02*
X26855Y-13477D01*
X26855Y-13283D01*
X26841Y-13145D01*
X26815Y-13082D01*
X26776Y-13044D01*
X26570Y-13250D01*
X26776Y-13455D01*
X26815Y-13417D01*
X26855Y-13283D01*
X26855Y-13477D01*
X26802Y-13530D01*
X26701Y-13530D01*
X26705Y-13526D01*
X26500Y-13320D01*
X26429Y-13391D01*
X26429Y-13250D01*
X26223Y-13044D01*
X26184Y-13082D01*
X26144Y-13216D01*
X26158Y-13354D01*
X26184Y-13417D01*
X26223Y-13455D01*
X26429Y-13250D01*
X26429Y-13391D01*
X26294Y-13526D01*
X26298Y-13530D01*
X26071Y-13530D01*
X25929Y-13388D01*
X25949Y-13339D01*
X25950Y-13160D01*
X25881Y-12995D01*
X25755Y-12868D01*
X25589Y-12800D01*
X25410Y-12799D01*
X25245Y-12868D01*
X25169Y-12943D01*
X25169Y-12556D01*
X25244Y-12631D01*
X25410Y-12699D01*
X25589Y-12700D01*
X25634Y-12681D01*
X25796Y-12843D01*
X25796Y-12843D01*
X25835Y-12882D01*
X25903Y-12928D01*
X25903Y-12928D01*
X25984Y-12944D01*
X26323Y-12944D01*
X26294Y-12973D01*
X26500Y-13179D01*
X26705Y-12973D01*
X26676Y-12944D01*
X27388Y-12944D01*
G54D10*
G36*
X45080Y-20080D02*
X41591Y-20080D01*
X41599Y-20039D01*
X41599Y-20039D01*
X41599Y-19748D01*
X43307Y-19748D01*
X43740Y-19748D01*
X43740Y-19748D01*
X43854Y-19725D01*
X43854Y-19725D01*
X43952Y-19660D01*
X44031Y-19582D01*
X44031Y-19582D01*
X44073Y-19519D01*
X44166Y-19480D01*
X44349Y-19297D01*
X44449Y-19058D01*
X44449Y-18800D01*
X44350Y-18561D01*
X44167Y-18378D01*
X43929Y-18279D01*
X43670Y-18279D01*
X43471Y-18361D01*
X41659Y-18361D01*
X41432Y-18134D01*
X41335Y-18069D01*
X41220Y-18046D01*
X41078Y-18046D01*
X41078Y-17653D01*
X41063Y-17525D01*
X41042Y-17473D01*
X41006Y-17438D01*
X40935Y-17509D01*
X40935Y-17367D01*
X40900Y-17331D01*
X40775Y-17295D01*
X40647Y-17310D01*
X40595Y-17331D01*
X40560Y-17367D01*
X40748Y-17555D01*
X40935Y-17367D01*
X40935Y-17509D01*
X40818Y-17625D01*
X41006Y-17813D01*
X41042Y-17778D01*
X41078Y-17653D01*
X41078Y-18046D01*
X40935Y-18046D01*
X40935Y-17884D01*
X40748Y-17696D01*
X40677Y-17767D01*
X40677Y-17625D01*
X40489Y-17438D01*
X40453Y-17473D01*
X40417Y-17598D01*
X40432Y-17726D01*
X40453Y-17778D01*
X40489Y-17813D01*
X40677Y-17625D01*
X40677Y-17767D01*
X40560Y-17884D01*
X40595Y-17920D01*
X40720Y-17956D01*
X40848Y-17941D01*
X40900Y-17920D01*
X40935Y-17884D01*
X40935Y-18046D01*
X40629Y-18046D01*
X39301Y-18046D01*
X39301Y-16559D01*
X39448Y-16559D01*
X39606Y-16559D01*
X40072Y-16559D01*
X40323Y-16810D01*
X40323Y-16930D01*
X40345Y-16985D01*
X40387Y-17028D01*
X40443Y-17050D01*
X40502Y-17051D01*
X41052Y-17051D01*
X41107Y-17028D01*
X41150Y-16986D01*
X41169Y-16940D01*
X41169Y-16940D01*
X41217Y-16930D01*
X41217Y-16930D01*
X41314Y-16865D01*
X41786Y-16393D01*
X41786Y-16393D01*
X41851Y-16295D01*
X41874Y-16181D01*
X41874Y-16181D01*
X41874Y-15921D01*
X42543Y-16590D01*
X42543Y-16590D01*
X42543Y-16590D01*
X43094Y-17141D01*
X43094Y-17141D01*
X43192Y-17206D01*
X43212Y-17210D01*
X43247Y-17296D01*
X43430Y-17479D01*
X43669Y-17579D01*
X43927Y-17579D01*
X44166Y-17480D01*
X44349Y-17297D01*
X44449Y-17058D01*
X44449Y-16800D01*
X44350Y-16561D01*
X44167Y-16378D01*
X43929Y-16279D01*
X43868Y-16279D01*
X42515Y-14925D01*
X42515Y-14925D01*
X42515Y-14925D01*
X42338Y-14748D01*
X41883Y-14293D01*
X41786Y-14228D01*
X41671Y-14205D01*
X41176Y-14205D01*
X41176Y-13815D01*
X41162Y-13686D01*
X41140Y-13635D01*
X41104Y-13600D01*
X41033Y-13670D01*
X41033Y-13529D01*
X40998Y-13493D01*
X40874Y-13457D01*
X40745Y-13471D01*
X40694Y-13493D01*
X40659Y-13529D01*
X40846Y-13716D01*
X41033Y-13529D01*
X41033Y-13670D01*
X40917Y-13787D01*
X41104Y-13974D01*
X41140Y-13939D01*
X41176Y-13815D01*
X41176Y-14205D01*
X41033Y-14205D01*
X41033Y-14045D01*
X40846Y-13858D01*
X40775Y-13928D01*
X40775Y-13787D01*
X40588Y-13600D01*
X40552Y-13635D01*
X40516Y-13759D01*
X40530Y-13888D01*
X40552Y-13939D01*
X40588Y-13974D01*
X40775Y-13787D01*
X40775Y-13928D01*
X40659Y-14045D01*
X40694Y-14081D01*
X40818Y-14117D01*
X40947Y-14103D01*
X40998Y-14081D01*
X41033Y-14045D01*
X41033Y-14205D01*
X39427Y-14205D01*
X39409Y-14205D01*
X39301Y-14205D01*
X39301Y-12504D01*
X40421Y-12504D01*
X40421Y-12542D01*
X40421Y-13092D01*
X40444Y-13147D01*
X40486Y-13189D01*
X40541Y-13212D01*
X40601Y-13212D01*
X41151Y-13212D01*
X41206Y-13189D01*
X41248Y-13147D01*
X41271Y-13092D01*
X41271Y-13032D01*
X41271Y-12504D01*
X41825Y-12504D01*
X41825Y-13267D01*
X41848Y-13382D01*
X41913Y-13479D01*
X43173Y-14739D01*
X43149Y-14799D01*
X43149Y-15057D01*
X43247Y-15296D01*
X43430Y-15479D01*
X43669Y-15579D01*
X43927Y-15579D01*
X44166Y-15480D01*
X44349Y-15297D01*
X44449Y-15058D01*
X44449Y-14800D01*
X44449Y-12288D01*
X44350Y-12049D01*
X44349Y-12048D01*
X44349Y-10927D01*
X44349Y-9907D01*
X44341Y-9889D01*
X44327Y-9874D01*
X44309Y-9867D01*
X44289Y-9867D01*
X43861Y-9867D01*
X43849Y-9879D01*
X43849Y-10367D01*
X44336Y-10367D01*
X44349Y-10354D01*
X44349Y-9907D01*
X44349Y-10927D01*
X44349Y-10479D01*
X44336Y-10467D01*
X43849Y-10467D01*
X43849Y-10954D01*
X43861Y-10967D01*
X44289Y-10967D01*
X44309Y-10967D01*
X44327Y-10959D01*
X44341Y-10945D01*
X44349Y-10927D01*
X44349Y-12048D01*
X44167Y-11866D01*
X43929Y-11767D01*
X43749Y-11767D01*
X43749Y-10954D01*
X43749Y-10467D01*
X43749Y-10367D01*
X43749Y-9879D01*
X43736Y-9867D01*
X43309Y-9867D01*
X43289Y-9867D01*
X43270Y-9874D01*
X43256Y-9889D01*
X43249Y-9907D01*
X43249Y-10354D01*
X43261Y-10367D01*
X43749Y-10367D01*
X43749Y-10467D01*
X43261Y-10467D01*
X43249Y-10479D01*
X43249Y-10927D01*
X43256Y-10945D01*
X43270Y-10959D01*
X43289Y-10967D01*
X43309Y-10967D01*
X43736Y-10967D01*
X43749Y-10954D01*
X43749Y-11767D01*
X43670Y-11767D01*
X43431Y-11865D01*
X43248Y-12048D01*
X43149Y-12287D01*
X43149Y-12546D01*
X43247Y-12785D01*
X43430Y-12968D01*
X43669Y-13067D01*
X43927Y-13067D01*
X44166Y-12968D01*
X44349Y-12785D01*
X44449Y-12547D01*
X44449Y-12288D01*
X44449Y-14800D01*
X44350Y-14561D01*
X44167Y-14378D01*
X44118Y-14358D01*
X44118Y-14173D01*
X44096Y-14058D01*
X44031Y-13961D01*
X44031Y-13961D01*
X42977Y-12907D01*
X42977Y-12125D01*
X42977Y-12086D01*
X42954Y-11971D01*
X42889Y-11874D01*
X42791Y-11809D01*
X42783Y-11807D01*
X42574Y-11598D01*
X42477Y-11533D01*
X42362Y-11511D01*
X42138Y-11511D01*
X42150Y-11451D01*
X42150Y-11338D01*
X42150Y-10708D01*
X42127Y-10593D01*
X42062Y-10496D01*
X42062Y-10496D01*
X41676Y-10110D01*
X41676Y-9673D01*
X41662Y-9545D01*
X41640Y-9493D01*
X41604Y-9458D01*
X41533Y-9529D01*
X41533Y-9387D01*
X41498Y-9351D01*
X41374Y-9315D01*
X41245Y-9329D01*
X41194Y-9351D01*
X41159Y-9387D01*
X41346Y-9574D01*
X41533Y-9387D01*
X41533Y-9529D01*
X41417Y-9645D01*
X41604Y-9832D01*
X41640Y-9797D01*
X41676Y-9673D01*
X41676Y-10110D01*
X41668Y-10102D01*
X41571Y-10037D01*
X41533Y-10030D01*
X41533Y-9903D01*
X41346Y-9716D01*
X41275Y-9787D01*
X41275Y-9645D01*
X41088Y-9458D01*
X41052Y-9493D01*
X41016Y-9617D01*
X41030Y-9746D01*
X41052Y-9797D01*
X41088Y-9832D01*
X41275Y-9645D01*
X41275Y-9787D01*
X41159Y-9903D01*
X41194Y-9940D01*
X41318Y-9975D01*
X41447Y-9961D01*
X41498Y-9940D01*
X41533Y-9903D01*
X41533Y-10030D01*
X41456Y-10014D01*
X41259Y-10014D01*
X41145Y-10037D01*
X41047Y-10102D01*
X40879Y-10270D01*
X40835Y-10279D01*
X40821Y-10289D01*
X40771Y-10289D01*
X40771Y-9890D01*
X40771Y-9340D01*
X40748Y-9285D01*
X40706Y-9243D01*
X40651Y-9220D01*
X40591Y-9220D01*
X40041Y-9220D01*
X39986Y-9243D01*
X39944Y-9285D01*
X39921Y-9340D01*
X39921Y-9400D01*
X39921Y-9950D01*
X39944Y-10005D01*
X39986Y-10047D01*
X40041Y-10070D01*
X40101Y-10070D01*
X40651Y-10070D01*
X40706Y-10047D01*
X40748Y-10005D01*
X40771Y-9950D01*
X40771Y-9890D01*
X40771Y-10289D01*
X40510Y-10289D01*
X40395Y-10312D01*
X40298Y-10377D01*
X40063Y-10611D01*
X40003Y-10672D01*
X40003Y-10672D01*
X39867Y-10808D01*
X39325Y-10808D01*
X39301Y-10812D01*
X39301Y-9984D01*
X39254Y-9913D01*
X39267Y-9900D01*
X39335Y-9735D01*
X39335Y-9556D01*
X39267Y-9391D01*
X39141Y-9264D01*
X38975Y-9195D01*
X38796Y-9195D01*
X38631Y-9263D01*
X38504Y-9390D01*
X38435Y-9555D01*
X38435Y-9734D01*
X38475Y-9831D01*
X38235Y-9831D01*
X38235Y-9355D01*
X38235Y-9335D01*
X38228Y-9317D01*
X38214Y-9303D01*
X38195Y-9295D01*
X37948Y-9295D01*
X37935Y-9308D01*
X37935Y-9595D01*
X38223Y-9595D01*
X38235Y-9583D01*
X38235Y-9355D01*
X38235Y-9831D01*
X38235Y-9831D01*
X38235Y-9708D01*
X38223Y-9695D01*
X37935Y-9695D01*
X37935Y-9703D01*
X37835Y-9703D01*
X37835Y-9695D01*
X37835Y-9595D01*
X37835Y-9308D01*
X37823Y-9295D01*
X37575Y-9295D01*
X37557Y-9303D01*
X37543Y-9317D01*
X37535Y-9335D01*
X37535Y-9355D01*
X37535Y-9583D01*
X37548Y-9595D01*
X37835Y-9595D01*
X37835Y-9695D01*
X37548Y-9695D01*
X37535Y-9708D01*
X37535Y-9831D01*
X35963Y-9831D01*
X35816Y-9979D01*
X35816Y-10723D01*
X34355Y-10723D01*
X33316Y-10723D01*
X33201Y-10746D01*
X33104Y-10811D01*
X32507Y-11407D01*
X32442Y-11505D01*
X32420Y-11620D01*
X32420Y-12332D01*
X31677Y-13075D01*
X31612Y-13172D01*
X31589Y-13287D01*
X31612Y-13402D01*
X31677Y-13499D01*
X31774Y-13564D01*
X31889Y-13587D01*
X32004Y-13564D01*
X32101Y-13499D01*
X32932Y-12669D01*
X32932Y-12669D01*
X32997Y-12571D01*
X33019Y-12457D01*
X33020Y-12457D01*
X33020Y-11744D01*
X33440Y-11323D01*
X34355Y-11323D01*
X35816Y-11323D01*
X35816Y-11412D01*
X34355Y-11412D01*
X34240Y-11435D01*
X34142Y-11500D01*
X34077Y-11597D01*
X34055Y-11712D01*
X34077Y-11827D01*
X34142Y-11924D01*
X34240Y-11989D01*
X34355Y-12012D01*
X35816Y-12012D01*
X35816Y-12154D01*
X35354Y-12154D01*
X33916Y-12154D01*
X32956Y-13114D01*
X32863Y-13207D01*
X32863Y-13522D01*
X32759Y-13626D01*
X32735Y-13650D01*
X31968Y-13650D01*
X31908Y-13650D01*
X31485Y-14073D01*
X31485Y-17107D01*
X31869Y-17490D01*
X33089Y-17490D01*
X33178Y-17579D01*
X33178Y-17697D01*
X33325Y-17845D01*
X33564Y-17845D01*
X33750Y-17658D01*
X33750Y-17380D01*
X33705Y-17335D01*
X34403Y-17335D01*
X34405Y-17337D01*
X34497Y-17375D01*
X34596Y-17376D01*
X34688Y-17338D01*
X34759Y-17267D01*
X34797Y-17175D01*
X34797Y-17076D01*
X34759Y-16984D01*
X34689Y-16914D01*
X34597Y-16876D01*
X34497Y-16875D01*
X34405Y-16913D01*
X34403Y-16915D01*
X32132Y-16915D01*
X32082Y-16866D01*
X32082Y-14283D01*
X32125Y-14241D01*
X32915Y-14241D01*
X32910Y-14270D01*
X32932Y-14384D01*
X32997Y-14482D01*
X33061Y-14524D01*
X33061Y-14524D01*
X33037Y-14547D01*
X32972Y-14645D01*
X32950Y-14760D01*
X32972Y-14874D01*
X33037Y-14972D01*
X33113Y-15022D01*
X32947Y-15187D01*
X32882Y-15285D01*
X32860Y-15400D01*
X32882Y-15514D01*
X32947Y-15612D01*
X32999Y-15646D01*
X32967Y-15667D01*
X32902Y-15765D01*
X32880Y-15880D01*
X32902Y-15994D01*
X32967Y-16092D01*
X33065Y-16157D01*
X33180Y-16180D01*
X34210Y-16180D01*
X34142Y-16224D01*
X34077Y-16322D01*
X34055Y-16437D01*
X34077Y-16551D01*
X34142Y-16649D01*
X34240Y-16714D01*
X34355Y-16737D01*
X34612Y-16737D01*
X34728Y-16853D01*
X34748Y-16872D01*
X34748Y-16872D01*
X34769Y-16887D01*
X34769Y-16887D01*
X34857Y-16974D01*
X34857Y-17867D01*
X34728Y-17996D01*
X34728Y-17996D01*
X34709Y-18016D01*
X34709Y-18016D01*
X34236Y-18488D01*
X34171Y-18585D01*
X34148Y-18700D01*
X34148Y-19192D01*
X34171Y-19307D01*
X34236Y-19405D01*
X34535Y-19704D01*
X34535Y-19704D01*
X34596Y-19745D01*
X33133Y-19745D01*
X31306Y-17917D01*
X31282Y-17882D01*
X31185Y-17817D01*
X31070Y-17794D01*
X31051Y-17798D01*
X30779Y-17798D01*
X30664Y-17821D01*
X30567Y-17886D01*
X30502Y-17983D01*
X30479Y-18098D01*
X30502Y-18213D01*
X30567Y-18310D01*
X30664Y-18375D01*
X30779Y-18398D01*
X30938Y-18398D01*
X32620Y-20080D01*
X28850Y-20080D01*
X28850Y-19540D01*
X28850Y-18959D01*
X28849Y-18940D01*
X28842Y-18921D01*
X28828Y-18907D01*
X28809Y-18899D01*
X28562Y-18900D01*
X28550Y-18912D01*
X28550Y-19200D01*
X28837Y-19200D01*
X28850Y-19187D01*
X28850Y-18959D01*
X28850Y-19540D01*
X28850Y-19312D01*
X28837Y-19300D01*
X28550Y-19300D01*
X28550Y-19587D01*
X28562Y-19600D01*
X28809Y-19600D01*
X28828Y-19592D01*
X28842Y-19578D01*
X28849Y-19559D01*
X28850Y-19540D01*
X28850Y-20080D01*
X28450Y-20080D01*
X28450Y-19587D01*
X28450Y-19300D01*
X28450Y-19200D01*
X28450Y-18912D01*
X28437Y-18900D01*
X28190Y-18899D01*
X28171Y-18907D01*
X28157Y-18921D01*
X28150Y-18940D01*
X28149Y-18959D01*
X28150Y-19187D01*
X28162Y-19200D01*
X28450Y-19200D01*
X28450Y-19300D01*
X28162Y-19300D01*
X28150Y-19312D01*
X28149Y-19540D01*
X28150Y-19559D01*
X28157Y-19578D01*
X28171Y-19592D01*
X28190Y-19600D01*
X28437Y-19600D01*
X28450Y-19587D01*
X28450Y-20080D01*
X27950Y-20080D01*
X27950Y-19160D01*
X27881Y-18995D01*
X27755Y-18868D01*
X27589Y-18800D01*
X27410Y-18799D01*
X27245Y-18868D01*
X27118Y-18994D01*
X27050Y-19160D01*
X27049Y-19339D01*
X27118Y-19504D01*
X27244Y-19631D01*
X27410Y-19699D01*
X27589Y-19700D01*
X27754Y-19631D01*
X27881Y-19505D01*
X27949Y-19339D01*
X27950Y-19160D01*
X27950Y-20080D01*
X26950Y-20080D01*
X26950Y-19160D01*
X26881Y-18995D01*
X26755Y-18868D01*
X26589Y-18800D01*
X26410Y-18799D01*
X26245Y-18868D01*
X26118Y-18994D01*
X26050Y-19160D01*
X26049Y-19339D01*
X26118Y-19504D01*
X26244Y-19631D01*
X26410Y-19699D01*
X26589Y-19700D01*
X26754Y-19631D01*
X26881Y-19505D01*
X26949Y-19339D01*
X26950Y-19160D01*
X26950Y-20080D01*
X25169Y-20080D01*
X25169Y-20000D01*
X25169Y-19556D01*
X25244Y-19631D01*
X25410Y-19699D01*
X25589Y-19700D01*
X25754Y-19631D01*
X25881Y-19505D01*
X25949Y-19339D01*
X25950Y-19160D01*
X25931Y-19115D01*
X26555Y-18491D01*
X28600Y-18491D01*
X28680Y-18475D01*
X28748Y-18429D01*
X28876Y-18302D01*
X28876Y-18302D01*
X28876Y-18302D01*
X28904Y-18261D01*
X28922Y-18233D01*
X28922Y-18233D01*
X28938Y-18153D01*
X28938Y-17236D01*
X30035Y-16139D01*
X30037Y-16139D01*
X30129Y-16101D01*
X30200Y-16031D01*
X30238Y-15939D01*
X30238Y-15840D01*
X30200Y-15748D01*
X30148Y-15696D01*
X30152Y-15692D01*
X30190Y-15601D01*
X30190Y-15501D01*
X30160Y-15428D01*
X30192Y-15397D01*
X30230Y-15305D01*
X30230Y-15206D01*
X30192Y-15114D01*
X30160Y-15082D01*
X30190Y-15010D01*
X30190Y-14911D01*
X30153Y-14819D01*
X30082Y-14748D01*
X29990Y-14710D01*
X29891Y-14710D01*
X29799Y-14748D01*
X29797Y-14750D01*
X29311Y-14750D01*
X29230Y-14766D01*
X29203Y-14784D01*
X29162Y-14812D01*
X29162Y-14812D01*
X29064Y-14910D01*
X28973Y-15000D01*
X28971Y-14996D01*
X28946Y-14970D01*
X28971Y-14944D01*
X29009Y-14853D01*
X29009Y-14753D01*
X28971Y-14661D01*
X28955Y-14645D01*
X28971Y-14629D01*
X29009Y-14538D01*
X29009Y-14461D01*
X29869Y-14461D01*
X29871Y-14462D01*
X29970Y-14462D01*
X30062Y-14424D01*
X30133Y-14354D01*
X30171Y-14262D01*
X30171Y-14163D01*
X30133Y-14071D01*
X30117Y-14055D01*
X30117Y-14054D01*
X30171Y-13973D01*
X30190Y-13877D01*
X30171Y-13782D01*
X30117Y-13701D01*
X30036Y-13646D01*
X29998Y-13639D01*
X29971Y-13627D01*
X29941Y-13627D01*
X29940Y-13627D01*
X29929Y-13627D01*
X29921Y-13627D01*
X29921Y-13627D01*
X29871Y-13627D01*
X29825Y-13646D01*
X29825Y-13646D01*
X29825Y-13646D01*
X29779Y-13665D01*
X29773Y-13671D01*
X29740Y-13671D01*
X29659Y-13687D01*
X29632Y-13706D01*
X29591Y-13733D01*
X29591Y-13733D01*
X29463Y-13861D01*
X27974Y-13861D01*
X27963Y-13834D01*
X27892Y-13764D01*
X27801Y-13726D01*
X27701Y-13726D01*
X27609Y-13764D01*
X27539Y-13834D01*
X27501Y-13926D01*
X27501Y-14025D01*
X27507Y-14041D01*
X26900Y-14041D01*
X26881Y-13995D01*
X26836Y-13950D01*
X26889Y-13950D01*
X26970Y-13934D01*
X27038Y-13888D01*
X27685Y-13241D01*
X27944Y-13241D01*
X28414Y-13711D01*
X28482Y-13757D01*
X28482Y-13757D01*
X28562Y-13772D01*
X28655Y-13772D01*
X28657Y-13774D01*
X28749Y-13812D01*
X28848Y-13813D01*
X28940Y-13775D01*
X29011Y-13704D01*
X29049Y-13612D01*
X29049Y-13517D01*
X29055Y-13517D01*
X29135Y-13501D01*
X29203Y-13455D01*
X29321Y-13337D01*
X29367Y-13269D01*
X29383Y-13188D01*
X29383Y-12913D01*
X29383Y-12913D01*
X29383Y-12913D01*
X29380Y-12897D01*
X29367Y-12833D01*
X29367Y-12833D01*
X29321Y-12764D01*
X29321Y-12764D01*
X29242Y-12686D01*
X29174Y-12640D01*
X29094Y-12624D01*
X29055Y-12624D01*
X28990Y-12624D01*
X28990Y-12548D01*
X28952Y-12456D01*
X28881Y-12386D01*
X28790Y-12348D01*
X28787Y-12348D01*
X28499Y-12060D01*
X28810Y-12060D01*
X29690Y-12940D01*
X29690Y-12943D01*
X29728Y-13035D01*
X29799Y-13105D01*
X29890Y-13143D01*
X29990Y-13143D01*
X30082Y-13105D01*
X30152Y-13035D01*
X30190Y-12943D01*
X30190Y-12844D01*
X30153Y-12752D01*
X30082Y-12681D01*
X29990Y-12643D01*
X29987Y-12643D01*
X29046Y-11701D01*
X28978Y-11656D01*
X28897Y-11640D01*
X27567Y-11640D01*
X27028Y-11101D01*
X26960Y-11055D01*
X26901Y-11044D01*
X26881Y-10995D01*
X26844Y-10958D01*
X26920Y-10958D01*
X27331Y-11368D01*
X27399Y-11414D01*
X27399Y-11414D01*
X27480Y-11430D01*
X28517Y-11430D01*
X28519Y-11432D01*
X28611Y-11470D01*
X28710Y-11470D01*
X28802Y-11432D01*
X28873Y-11362D01*
X28911Y-11270D01*
X28911Y-11170D01*
X28873Y-11079D01*
X28855Y-11060D01*
X28855Y-10283D01*
X28841Y-10145D01*
X28815Y-10082D01*
X28776Y-10044D01*
X28705Y-10115D01*
X28705Y-9973D01*
X28667Y-9934D01*
X28533Y-9894D01*
X28395Y-9908D01*
X28332Y-9934D01*
X28294Y-9973D01*
X28500Y-10179D01*
X28705Y-9973D01*
X28705Y-10115D01*
X28570Y-10250D01*
X28776Y-10455D01*
X28815Y-10417D01*
X28855Y-10283D01*
X28855Y-11060D01*
X28803Y-11008D01*
X28711Y-10970D01*
X28705Y-10970D01*
X28705Y-10526D01*
X28500Y-10320D01*
X28429Y-10391D01*
X28429Y-10250D01*
X28223Y-10044D01*
X28184Y-10082D01*
X28144Y-10216D01*
X28158Y-10354D01*
X28184Y-10417D01*
X28223Y-10455D01*
X28429Y-10250D01*
X28429Y-10391D01*
X28294Y-10526D01*
X28332Y-10565D01*
X28466Y-10605D01*
X28604Y-10591D01*
X28667Y-10565D01*
X28705Y-10526D01*
X28705Y-10970D01*
X28611Y-10970D01*
X28519Y-11008D01*
X28517Y-11010D01*
X27567Y-11010D01*
X27256Y-10700D01*
X27829Y-10700D01*
X27884Y-10677D01*
X27927Y-10635D01*
X27949Y-10579D01*
X27950Y-10520D01*
X27950Y-9920D01*
X27927Y-9865D01*
X27885Y-9822D01*
X27829Y-9800D01*
X27770Y-9799D01*
X27170Y-9799D01*
X27115Y-9822D01*
X27072Y-9864D01*
X27050Y-9920D01*
X27049Y-9979D01*
X27049Y-10546D01*
X27007Y-10538D01*
X26848Y-10538D01*
X26881Y-10505D01*
X26949Y-10339D01*
X26950Y-10160D01*
X26881Y-9995D01*
X26755Y-9868D01*
X26589Y-9800D01*
X26410Y-9799D01*
X26245Y-9868D01*
X26118Y-9994D01*
X26050Y-10160D01*
X26049Y-10339D01*
X26118Y-10504D01*
X26151Y-10538D01*
X26085Y-10538D01*
X25950Y-10403D01*
X25950Y-9920D01*
X25927Y-9865D01*
X25885Y-9822D01*
X25829Y-9800D01*
X25770Y-9799D01*
X25170Y-9799D01*
X25169Y-9800D01*
X25169Y-9169D01*
X35000Y-9169D01*
X45080Y-9169D01*
X45080Y-20080D01*
X45080Y-20080D01*
G37*
G54D22*
X45080Y-20080D02*
X41591Y-20080D01*
X41599Y-20039D01*
X41599Y-20039D01*
X41599Y-19748D01*
X43307Y-19748D01*
X43740Y-19748D01*
X43740Y-19748D01*
X43854Y-19725D01*
X43854Y-19725D01*
X43952Y-19660D01*
X44031Y-19582D01*
X44031Y-19582D01*
X44073Y-19519D01*
X44166Y-19480D01*
X44349Y-19297D01*
X44449Y-19058D01*
X44449Y-18800D01*
X44350Y-18561D01*
X44167Y-18378D01*
X43929Y-18279D01*
X43670Y-18279D01*
X43471Y-18361D01*
X41659Y-18361D01*
X41432Y-18134D01*
X41335Y-18069D01*
X41220Y-18046D01*
X41078Y-18046D01*
X41078Y-17653D01*
X41063Y-17525D01*
X41042Y-17473D01*
X41006Y-17438D01*
X40935Y-17509D01*
X40935Y-17367D01*
X40900Y-17331D01*
X40775Y-17295D01*
X40647Y-17310D01*
X40595Y-17331D01*
X40560Y-17367D01*
X40748Y-17555D01*
X40935Y-17367D01*
X40935Y-17509D01*
X40818Y-17625D01*
X41006Y-17813D01*
X41042Y-17778D01*
X41078Y-17653D01*
X41078Y-18046D01*
X40935Y-18046D01*
X40935Y-17884D01*
X40748Y-17696D01*
X40677Y-17767D01*
X40677Y-17625D01*
X40489Y-17438D01*
X40453Y-17473D01*
X40417Y-17598D01*
X40432Y-17726D01*
X40453Y-17778D01*
X40489Y-17813D01*
X40677Y-17625D01*
X40677Y-17767D01*
X40560Y-17884D01*
X40595Y-17920D01*
X40720Y-17956D01*
X40848Y-17941D01*
X40900Y-17920D01*
X40935Y-17884D01*
X40935Y-18046D01*
X40629Y-18046D01*
X39301Y-18046D01*
X39301Y-16559D01*
X39448Y-16559D01*
X39606Y-16559D01*
X40072Y-16559D01*
X40323Y-16810D01*
X40323Y-16930D01*
X40345Y-16985D01*
X40387Y-17028D01*
X40443Y-17050D01*
X40502Y-17051D01*
X41052Y-17051D01*
X41107Y-17028D01*
X41150Y-16986D01*
X41169Y-16940D01*
X41169Y-16940D01*
X41217Y-16930D01*
X41217Y-16930D01*
X41314Y-16865D01*
X41786Y-16393D01*
X41786Y-16393D01*
X41851Y-16295D01*
X41874Y-16181D01*
X41874Y-16181D01*
X41874Y-15921D01*
X42543Y-16590D01*
X42543Y-16590D01*
X42543Y-16590D01*
X43094Y-17141D01*
X43094Y-17141D01*
X43192Y-17206D01*
X43212Y-17210D01*
X43247Y-17296D01*
X43430Y-17479D01*
X43669Y-17579D01*
X43927Y-17579D01*
X44166Y-17480D01*
X44349Y-17297D01*
X44449Y-17058D01*
X44449Y-16800D01*
X44350Y-16561D01*
X44167Y-16378D01*
X43929Y-16279D01*
X43868Y-16279D01*
X42515Y-14925D01*
X42515Y-14925D01*
X42515Y-14925D01*
X42338Y-14748D01*
X41883Y-14293D01*
X41786Y-14228D01*
X41671Y-14205D01*
X41176Y-14205D01*
X41176Y-13815D01*
X41162Y-13686D01*
X41140Y-13635D01*
X41104Y-13600D01*
X41033Y-13670D01*
X41033Y-13529D01*
X40998Y-13493D01*
X40874Y-13457D01*
X40745Y-13471D01*
X40694Y-13493D01*
X40659Y-13529D01*
X40846Y-13716D01*
X41033Y-13529D01*
X41033Y-13670D01*
X40917Y-13787D01*
X41104Y-13974D01*
X41140Y-13939D01*
X41176Y-13815D01*
X41176Y-14205D01*
X41033Y-14205D01*
X41033Y-14045D01*
X40846Y-13858D01*
X40775Y-13928D01*
X40775Y-13787D01*
X40588Y-13600D01*
X40552Y-13635D01*
X40516Y-13759D01*
X40530Y-13888D01*
X40552Y-13939D01*
X40588Y-13974D01*
X40775Y-13787D01*
X40775Y-13928D01*
X40659Y-14045D01*
X40694Y-14081D01*
X40818Y-14117D01*
X40947Y-14103D01*
X40998Y-14081D01*
X41033Y-14045D01*
X41033Y-14205D01*
X39427Y-14205D01*
X39409Y-14205D01*
X39301Y-14205D01*
X39301Y-12504D01*
X40421Y-12504D01*
X40421Y-12542D01*
X40421Y-13092D01*
X40444Y-13147D01*
X40486Y-13189D01*
X40541Y-13212D01*
X40601Y-13212D01*
X41151Y-13212D01*
X41206Y-13189D01*
X41248Y-13147D01*
X41271Y-13092D01*
X41271Y-13032D01*
X41271Y-12504D01*
X41825Y-12504D01*
X41825Y-13267D01*
X41848Y-13382D01*
X41913Y-13479D01*
X43173Y-14739D01*
X43149Y-14799D01*
X43149Y-15057D01*
X43247Y-15296D01*
X43430Y-15479D01*
X43669Y-15579D01*
X43927Y-15579D01*
X44166Y-15480D01*
X44349Y-15297D01*
X44449Y-15058D01*
X44449Y-14800D01*
X44449Y-12288D01*
X44350Y-12049D01*
X44349Y-12048D01*
X44349Y-10927D01*
X44349Y-9907D01*
X44341Y-9889D01*
X44327Y-9874D01*
X44309Y-9867D01*
X44289Y-9867D01*
X43861Y-9867D01*
X43849Y-9879D01*
X43849Y-10367D01*
X44336Y-10367D01*
X44349Y-10354D01*
X44349Y-9907D01*
X44349Y-10927D01*
X44349Y-10479D01*
X44336Y-10467D01*
X43849Y-10467D01*
X43849Y-10954D01*
X43861Y-10967D01*
X44289Y-10967D01*
X44309Y-10967D01*
X44327Y-10959D01*
X44341Y-10945D01*
X44349Y-10927D01*
X44349Y-12048D01*
X44167Y-11866D01*
X43929Y-11767D01*
X43749Y-11767D01*
X43749Y-10954D01*
X43749Y-10467D01*
X43749Y-10367D01*
X43749Y-9879D01*
X43736Y-9867D01*
X43309Y-9867D01*
X43289Y-9867D01*
X43270Y-9874D01*
X43256Y-9889D01*
X43249Y-9907D01*
X43249Y-10354D01*
X43261Y-10367D01*
X43749Y-10367D01*
X43749Y-10467D01*
X43261Y-10467D01*
X43249Y-10479D01*
X43249Y-10927D01*
X43256Y-10945D01*
X43270Y-10959D01*
X43289Y-10967D01*
X43309Y-10967D01*
X43736Y-10967D01*
X43749Y-10954D01*
X43749Y-11767D01*
X43670Y-11767D01*
X43431Y-11865D01*
X43248Y-12048D01*
X43149Y-12287D01*
X43149Y-12546D01*
X43247Y-12785D01*
X43430Y-12968D01*
X43669Y-13067D01*
X43927Y-13067D01*
X44166Y-12968D01*
X44349Y-12785D01*
X44449Y-12547D01*
X44449Y-12288D01*
X44449Y-14800D01*
X44350Y-14561D01*
X44167Y-14378D01*
X44118Y-14358D01*
X44118Y-14173D01*
X44096Y-14058D01*
X44031Y-13961D01*
X44031Y-13961D01*
X42977Y-12907D01*
X42977Y-12125D01*
X42977Y-12086D01*
X42954Y-11971D01*
X42889Y-11874D01*
X42791Y-11809D01*
X42783Y-11807D01*
X42574Y-11598D01*
X42477Y-11533D01*
X42362Y-11511D01*
X42138Y-11511D01*
X42150Y-11451D01*
X42150Y-11338D01*
X42150Y-10708D01*
X42127Y-10593D01*
X42062Y-10496D01*
X42062Y-10496D01*
X41676Y-10110D01*
X41676Y-9673D01*
X41662Y-9545D01*
X41640Y-9493D01*
X41604Y-9458D01*
X41533Y-9529D01*
X41533Y-9387D01*
X41498Y-9351D01*
X41374Y-9315D01*
X41245Y-9329D01*
X41194Y-9351D01*
X41159Y-9387D01*
X41346Y-9574D01*
X41533Y-9387D01*
X41533Y-9529D01*
X41417Y-9645D01*
X41604Y-9832D01*
X41640Y-9797D01*
X41676Y-9673D01*
X41676Y-10110D01*
X41668Y-10102D01*
X41571Y-10037D01*
X41533Y-10030D01*
X41533Y-9903D01*
X41346Y-9716D01*
X41275Y-9787D01*
X41275Y-9645D01*
X41088Y-9458D01*
X41052Y-9493D01*
X41016Y-9617D01*
X41030Y-9746D01*
X41052Y-9797D01*
X41088Y-9832D01*
X41275Y-9645D01*
X41275Y-9787D01*
X41159Y-9903D01*
X41194Y-9940D01*
X41318Y-9975D01*
X41447Y-9961D01*
X41498Y-9940D01*
X41533Y-9903D01*
X41533Y-10030D01*
X41456Y-10014D01*
X41259Y-10014D01*
X41145Y-10037D01*
X41047Y-10102D01*
X40879Y-10270D01*
X40835Y-10279D01*
X40821Y-10289D01*
X40771Y-10289D01*
X40771Y-9890D01*
X40771Y-9340D01*
X40748Y-9285D01*
X40706Y-9243D01*
X40651Y-9220D01*
X40591Y-9220D01*
X40041Y-9220D01*
X39986Y-9243D01*
X39944Y-9285D01*
X39921Y-9340D01*
X39921Y-9400D01*
X39921Y-9950D01*
X39944Y-10005D01*
X39986Y-10047D01*
X40041Y-10070D01*
X40101Y-10070D01*
X40651Y-10070D01*
X40706Y-10047D01*
X40748Y-10005D01*
X40771Y-9950D01*
X40771Y-9890D01*
X40771Y-10289D01*
X40510Y-10289D01*
X40395Y-10312D01*
X40298Y-10377D01*
X40063Y-10611D01*
X40003Y-10672D01*
X40003Y-10672D01*
X39867Y-10808D01*
X39325Y-10808D01*
X39301Y-10812D01*
X39301Y-9984D01*
X39254Y-9913D01*
X39267Y-9900D01*
X39335Y-9735D01*
X39335Y-9556D01*
X39267Y-9391D01*
X39141Y-9264D01*
X38975Y-9195D01*
X38796Y-9195D01*
X38631Y-9263D01*
X38504Y-9390D01*
X38435Y-9555D01*
X38435Y-9734D01*
X38475Y-9831D01*
X38235Y-9831D01*
X38235Y-9355D01*
X38235Y-9335D01*
X38228Y-9317D01*
X38214Y-9303D01*
X38195Y-9295D01*
X37948Y-9295D01*
X37935Y-9308D01*
X37935Y-9595D01*
X38223Y-9595D01*
X38235Y-9583D01*
X38235Y-9355D01*
X38235Y-9831D01*
X38235Y-9831D01*
X38235Y-9708D01*
X38223Y-9695D01*
X37935Y-9695D01*
X37935Y-9703D01*
X37835Y-9703D01*
X37835Y-9695D01*
X37835Y-9595D01*
X37835Y-9308D01*
X37823Y-9295D01*
X37575Y-9295D01*
X37557Y-9303D01*
X37543Y-9317D01*
X37535Y-9335D01*
X37535Y-9355D01*
X37535Y-9583D01*
X37548Y-9595D01*
X37835Y-9595D01*
X37835Y-9695D01*
X37548Y-9695D01*
X37535Y-9708D01*
X37535Y-9831D01*
X35963Y-9831D01*
X35816Y-9979D01*
X35816Y-10723D01*
X34355Y-10723D01*
X33316Y-10723D01*
X33201Y-10746D01*
X33104Y-10811D01*
X32507Y-11407D01*
X32442Y-11505D01*
X32420Y-11620D01*
X32420Y-12332D01*
X31677Y-13075D01*
X31612Y-13172D01*
X31589Y-13287D01*
X31612Y-13402D01*
X31677Y-13499D01*
X31774Y-13564D01*
X31889Y-13587D01*
X32004Y-13564D01*
X32101Y-13499D01*
X32932Y-12669D01*
X32932Y-12669D01*
X32997Y-12571D01*
X33019Y-12457D01*
X33020Y-12457D01*
X33020Y-11744D01*
X33440Y-11323D01*
X34355Y-11323D01*
X35816Y-11323D01*
X35816Y-11412D01*
X34355Y-11412D01*
X34240Y-11435D01*
X34142Y-11500D01*
X34077Y-11597D01*
X34055Y-11712D01*
X34077Y-11827D01*
X34142Y-11924D01*
X34240Y-11989D01*
X34355Y-12012D01*
X35816Y-12012D01*
X35816Y-12154D01*
X35354Y-12154D01*
X33916Y-12154D01*
X32956Y-13114D01*
X32863Y-13207D01*
X32863Y-13522D01*
X32759Y-13626D01*
X32735Y-13650D01*
X31968Y-13650D01*
X31908Y-13650D01*
X31485Y-14073D01*
X31485Y-17107D01*
X31869Y-17490D01*
X33089Y-17490D01*
X33178Y-17579D01*
X33178Y-17697D01*
X33325Y-17845D01*
X33564Y-17845D01*
X33750Y-17658D01*
X33750Y-17380D01*
X33705Y-17335D01*
X34403Y-17335D01*
X34405Y-17337D01*
X34497Y-17375D01*
X34596Y-17376D01*
X34688Y-17338D01*
X34759Y-17267D01*
X34797Y-17175D01*
X34797Y-17076D01*
X34759Y-16984D01*
X34689Y-16914D01*
X34597Y-16876D01*
X34497Y-16875D01*
X34405Y-16913D01*
X34403Y-16915D01*
X32132Y-16915D01*
X32082Y-16866D01*
X32082Y-14283D01*
X32125Y-14241D01*
X32915Y-14241D01*
X32910Y-14270D01*
X32932Y-14384D01*
X32997Y-14482D01*
X33061Y-14524D01*
X33061Y-14524D01*
X33037Y-14547D01*
X32972Y-14645D01*
X32950Y-14760D01*
X32972Y-14874D01*
X33037Y-14972D01*
X33113Y-15022D01*
X32947Y-15187D01*
X32882Y-15285D01*
X32860Y-15400D01*
X32882Y-15514D01*
X32947Y-15612D01*
X32999Y-15646D01*
X32967Y-15667D01*
X32902Y-15765D01*
X32880Y-15880D01*
X32902Y-15994D01*
X32967Y-16092D01*
X33065Y-16157D01*
X33180Y-16180D01*
X34210Y-16180D01*
X34142Y-16224D01*
X34077Y-16322D01*
X34055Y-16437D01*
X34077Y-16551D01*
X34142Y-16649D01*
X34240Y-16714D01*
X34355Y-16737D01*
X34612Y-16737D01*
X34728Y-16853D01*
X34748Y-16872D01*
X34748Y-16872D01*
X34769Y-16887D01*
X34769Y-16887D01*
X34857Y-16974D01*
X34857Y-17867D01*
X34728Y-17996D01*
X34728Y-17996D01*
X34709Y-18016D01*
X34709Y-18016D01*
X34236Y-18488D01*
X34171Y-18585D01*
X34148Y-18700D01*
X34148Y-19192D01*
X34171Y-19307D01*
X34236Y-19405D01*
X34535Y-19704D01*
X34535Y-19704D01*
X34596Y-19745D01*
X33133Y-19745D01*
X31306Y-17917D01*
X31282Y-17882D01*
X31185Y-17817D01*
X31070Y-17794D01*
X31051Y-17798D01*
X30779Y-17798D01*
X30664Y-17821D01*
X30567Y-17886D01*
X30502Y-17983D01*
X30479Y-18098D01*
X30502Y-18213D01*
X30567Y-18310D01*
X30664Y-18375D01*
X30779Y-18398D01*
X30938Y-18398D01*
X32620Y-20080D01*
X28850Y-20080D01*
X28850Y-19540D01*
X28850Y-18959D01*
X28849Y-18940D01*
X28842Y-18921D01*
X28828Y-18907D01*
X28809Y-18899D01*
X28562Y-18900D01*
X28550Y-18912D01*
X28550Y-19200D01*
X28837Y-19200D01*
X28850Y-19187D01*
X28850Y-18959D01*
X28850Y-19540D01*
X28850Y-19312D01*
X28837Y-19300D01*
X28550Y-19300D01*
X28550Y-19587D01*
X28562Y-19600D01*
X28809Y-19600D01*
X28828Y-19592D01*
X28842Y-19578D01*
X28849Y-19559D01*
X28850Y-19540D01*
X28850Y-20080D01*
X28450Y-20080D01*
X28450Y-19587D01*
X28450Y-19300D01*
X28450Y-19200D01*
X28450Y-18912D01*
X28437Y-18900D01*
X28190Y-18899D01*
X28171Y-18907D01*
X28157Y-18921D01*
X28150Y-18940D01*
X28149Y-18959D01*
X28150Y-19187D01*
X28162Y-19200D01*
X28450Y-19200D01*
X28450Y-19300D01*
X28162Y-19300D01*
X28150Y-19312D01*
X28149Y-19540D01*
X28150Y-19559D01*
X28157Y-19578D01*
X28171Y-19592D01*
X28190Y-19600D01*
X28437Y-19600D01*
X28450Y-19587D01*
X28450Y-20080D01*
X27950Y-20080D01*
X27950Y-19160D01*
X27881Y-18995D01*
X27755Y-18868D01*
X27589Y-18800D01*
X27410Y-18799D01*
X27245Y-18868D01*
X27118Y-18994D01*
X27050Y-19160D01*
X27049Y-19339D01*
X27118Y-19504D01*
X27244Y-19631D01*
X27410Y-19699D01*
X27589Y-19700D01*
X27754Y-19631D01*
X27881Y-19505D01*
X27949Y-19339D01*
X27950Y-19160D01*
X27950Y-20080D01*
X26950Y-20080D01*
X26950Y-19160D01*
X26881Y-18995D01*
X26755Y-18868D01*
X26589Y-18800D01*
X26410Y-18799D01*
X26245Y-18868D01*
X26118Y-18994D01*
X26050Y-19160D01*
X26049Y-19339D01*
X26118Y-19504D01*
X26244Y-19631D01*
X26410Y-19699D01*
X26589Y-19700D01*
X26754Y-19631D01*
X26881Y-19505D01*
X26949Y-19339D01*
X26950Y-19160D01*
X26950Y-20080D01*
X25169Y-20080D01*
X25169Y-20000D01*
X25169Y-19556D01*
X25244Y-19631D01*
X25410Y-19699D01*
X25589Y-19700D01*
X25754Y-19631D01*
X25881Y-19505D01*
X25949Y-19339D01*
X25950Y-19160D01*
X25931Y-19115D01*
X26555Y-18491D01*
X28600Y-18491D01*
X28680Y-18475D01*
X28748Y-18429D01*
X28876Y-18302D01*
X28876Y-18302D01*
X28876Y-18302D01*
X28904Y-18261D01*
X28922Y-18233D01*
X28922Y-18233D01*
X28938Y-18153D01*
X28938Y-17236D01*
X30035Y-16139D01*
X30037Y-16139D01*
X30129Y-16101D01*
X30200Y-16031D01*
X30238Y-15939D01*
X30238Y-15840D01*
X30200Y-15748D01*
X30148Y-15696D01*
X30152Y-15692D01*
X30190Y-15601D01*
X30190Y-15501D01*
X30160Y-15428D01*
X30192Y-15397D01*
X30230Y-15305D01*
X30230Y-15206D01*
X30192Y-15114D01*
X30160Y-15082D01*
X30190Y-15010D01*
X30190Y-14911D01*
X30153Y-14819D01*
X30082Y-14748D01*
X29990Y-14710D01*
X29891Y-14710D01*
X29799Y-14748D01*
X29797Y-14750D01*
X29311Y-14750D01*
X29230Y-14766D01*
X29203Y-14784D01*
X29162Y-14812D01*
X29162Y-14812D01*
X29064Y-14910D01*
X28973Y-15000D01*
X28971Y-14996D01*
X28946Y-14970D01*
X28971Y-14944D01*
X29009Y-14853D01*
X29009Y-14753D01*
X28971Y-14661D01*
X28955Y-14645D01*
X28971Y-14629D01*
X29009Y-14538D01*
X29009Y-14461D01*
X29869Y-14461D01*
X29871Y-14462D01*
X29970Y-14462D01*
X30062Y-14424D01*
X30133Y-14354D01*
X30171Y-14262D01*
X30171Y-14163D01*
X30133Y-14071D01*
X30117Y-14055D01*
X30117Y-14054D01*
X30171Y-13973D01*
X30190Y-13877D01*
X30171Y-13782D01*
X30117Y-13701D01*
X30036Y-13646D01*
X29998Y-13639D01*
X29971Y-13627D01*
X29941Y-13627D01*
X29940Y-13627D01*
X29929Y-13627D01*
X29921Y-13627D01*
X29921Y-13627D01*
X29871Y-13627D01*
X29825Y-13646D01*
X29825Y-13646D01*
X29825Y-13646D01*
X29779Y-13665D01*
X29773Y-13671D01*
X29740Y-13671D01*
X29659Y-13687D01*
X29632Y-13706D01*
X29591Y-13733D01*
X29591Y-13733D01*
X29463Y-13861D01*
X27974Y-13861D01*
X27963Y-13834D01*
X27892Y-13764D01*
X27801Y-13726D01*
X27701Y-13726D01*
X27609Y-13764D01*
X27539Y-13834D01*
X27501Y-13926D01*
X27501Y-14025D01*
X27507Y-14041D01*
X26900Y-14041D01*
X26881Y-13995D01*
X26836Y-13950D01*
X26889Y-13950D01*
X26970Y-13934D01*
X27038Y-13888D01*
X27685Y-13241D01*
X27944Y-13241D01*
X28414Y-13711D01*
X28482Y-13757D01*
X28482Y-13757D01*
X28562Y-13772D01*
X28655Y-13772D01*
X28657Y-13774D01*
X28749Y-13812D01*
X28848Y-13813D01*
X28940Y-13775D01*
X29011Y-13704D01*
X29049Y-13612D01*
X29049Y-13517D01*
X29055Y-13517D01*
X29135Y-13501D01*
X29203Y-13455D01*
X29321Y-13337D01*
X29367Y-13269D01*
X29383Y-13188D01*
X29383Y-12913D01*
X29383Y-12913D01*
X29383Y-12913D01*
X29380Y-12897D01*
X29367Y-12833D01*
X29367Y-12833D01*
X29321Y-12764D01*
X29321Y-12764D01*
X29242Y-12686D01*
X29174Y-12640D01*
X29094Y-12624D01*
X29055Y-12624D01*
X28990Y-12624D01*
X28990Y-12548D01*
X28952Y-12456D01*
X28881Y-12386D01*
X28790Y-12348D01*
X28787Y-12348D01*
X28499Y-12060D01*
X28810Y-12060D01*
X29690Y-12940D01*
X29690Y-12943D01*
X29728Y-13035D01*
X29799Y-13105D01*
X29890Y-13143D01*
X29990Y-13143D01*
X30082Y-13105D01*
X30152Y-13035D01*
X30190Y-12943D01*
X30190Y-12844D01*
X30153Y-12752D01*
X30082Y-12681D01*
X29990Y-12643D01*
X29987Y-12643D01*
X29046Y-11701D01*
X28978Y-11656D01*
X28897Y-11640D01*
X27567Y-11640D01*
X27028Y-11101D01*
X26960Y-11055D01*
X26901Y-11044D01*
X26881Y-10995D01*
X26844Y-10958D01*
X26920Y-10958D01*
X27331Y-11368D01*
X27399Y-11414D01*
X27399Y-11414D01*
X27480Y-11430D01*
X28517Y-11430D01*
X28519Y-11432D01*
X28611Y-11470D01*
X28710Y-11470D01*
X28802Y-11432D01*
X28873Y-11362D01*
X28911Y-11270D01*
X28911Y-11170D01*
X28873Y-11079D01*
X28855Y-11060D01*
X28855Y-10283D01*
X28841Y-10145D01*
X28815Y-10082D01*
X28776Y-10044D01*
X28705Y-10115D01*
X28705Y-9973D01*
X28667Y-9934D01*
X28533Y-9894D01*
X28395Y-9908D01*
X28332Y-9934D01*
X28294Y-9973D01*
X28500Y-10179D01*
X28705Y-9973D01*
X28705Y-10115D01*
X28570Y-10250D01*
X28776Y-10455D01*
X28815Y-10417D01*
X28855Y-10283D01*
X28855Y-11060D01*
X28803Y-11008D01*
X28711Y-10970D01*
X28705Y-10970D01*
X28705Y-10526D01*
X28500Y-10320D01*
X28429Y-10391D01*
X28429Y-10250D01*
X28223Y-10044D01*
X28184Y-10082D01*
X28144Y-10216D01*
X28158Y-10354D01*
X28184Y-10417D01*
X28223Y-10455D01*
X28429Y-10250D01*
X28429Y-10391D01*
X28294Y-10526D01*
X28332Y-10565D01*
X28466Y-10605D01*
X28604Y-10591D01*
X28667Y-10565D01*
X28705Y-10526D01*
X28705Y-10970D01*
X28611Y-10970D01*
X28519Y-11008D01*
X28517Y-11010D01*
X27567Y-11010D01*
X27256Y-10700D01*
X27829Y-10700D01*
X27884Y-10677D01*
X27927Y-10635D01*
X27949Y-10579D01*
X27950Y-10520D01*
X27950Y-9920D01*
X27927Y-9865D01*
X27885Y-9822D01*
X27829Y-9800D01*
X27770Y-9799D01*
X27170Y-9799D01*
X27115Y-9822D01*
X27072Y-9864D01*
X27050Y-9920D01*
X27049Y-9979D01*
X27049Y-10546D01*
X27007Y-10538D01*
X26848Y-10538D01*
X26881Y-10505D01*
X26949Y-10339D01*
X26950Y-10160D01*
X26881Y-9995D01*
X26755Y-9868D01*
X26589Y-9800D01*
X26410Y-9799D01*
X26245Y-9868D01*
X26118Y-9994D01*
X26050Y-10160D01*
X26049Y-10339D01*
X26118Y-10504D01*
X26151Y-10538D01*
X26085Y-10538D01*
X25950Y-10403D01*
X25950Y-9920D01*
X25927Y-9865D01*
X25885Y-9822D01*
X25829Y-9800D01*
X25770Y-9799D01*
X25170Y-9799D01*
X25169Y-9800D01*
X25169Y-9169D01*
X35000Y-9169D01*
X45080Y-9169D01*
X45080Y-20080D01*
M02*
