G04 (created by PCBNEW (2013-07-07 BZR 4022)-stable) date 15/08/2017 00:06:55*
%MOIN*%
G04 Gerber Fmt 3.4, Leading zero omitted, Abs format*
%FSLAX34Y34*%
G01*
G70*
G90*
G04 APERTURE LIST*
%ADD10C,0.00590551*%
%ADD11R,0.0610236X0.011811*%
%ADD12R,0.142126X0.25*%
%ADD13R,0.181102X0.181102*%
%ADD14R,0.0590551X0.0314961*%
%ADD15R,0.08X0.14*%
%ADD16R,0.06X0.08*%
%ADD17R,0.06X0.06*%
%ADD18C,0.06*%
%ADD19R,0.055X0.055*%
%ADD20C,0.055*%
%ADD21C,0.1*%
%ADD22R,0.1X0.1*%
%ADD23R,0.025X0.045*%
%ADD24C,0.02*%
%ADD25C,0.012*%
%ADD26C,0.03*%
%ADD27C,0.02*%
%ADD28C,0.006*%
%ADD29C,0.01*%
G04 APERTURE END LIST*
G54D10*
G54D11*
X29429Y-11318D03*
X29429Y-11515D03*
X29429Y-11712D03*
X29429Y-11909D03*
X29429Y-12106D03*
X29429Y-12303D03*
X29429Y-12500D03*
X29429Y-12696D03*
X29429Y-12893D03*
X29429Y-13090D03*
X29429Y-13287D03*
X29429Y-13484D03*
X29429Y-13681D03*
X29429Y-13877D03*
X29429Y-14074D03*
X29429Y-14271D03*
X29429Y-14468D03*
X29429Y-14665D03*
X29429Y-14862D03*
X29429Y-15059D03*
X29429Y-15255D03*
X29429Y-15452D03*
X29429Y-15649D03*
X29429Y-15846D03*
X29429Y-16043D03*
X29429Y-16240D03*
X29429Y-16437D03*
X29429Y-16633D03*
X32381Y-16633D03*
X32381Y-16437D03*
X32381Y-16240D03*
X32381Y-16043D03*
X32381Y-15846D03*
X32381Y-15649D03*
X32381Y-15452D03*
X32381Y-15255D03*
X32381Y-15059D03*
X32381Y-14862D03*
X32381Y-14665D03*
X32381Y-14468D03*
X32381Y-14271D03*
X32381Y-14074D03*
X32381Y-13877D03*
X32381Y-13681D03*
X32381Y-13484D03*
X32381Y-13287D03*
X32381Y-13090D03*
X32381Y-12893D03*
X32381Y-12696D03*
X32381Y-12500D03*
X32381Y-12303D03*
X32381Y-12106D03*
X32381Y-11909D03*
X32381Y-11712D03*
X32381Y-11515D03*
X32381Y-11318D03*
G54D12*
X30905Y-13976D03*
G54D13*
X37027Y-15255D03*
G54D14*
X35545Y-16005D03*
X35545Y-15505D03*
X35545Y-15005D03*
X35545Y-14505D03*
G54D13*
X40177Y-15255D03*
G54D14*
X38694Y-16005D03*
X38694Y-15505D03*
X38694Y-15005D03*
X38694Y-14505D03*
G54D13*
X40177Y-19094D03*
G54D14*
X38694Y-19844D03*
X38694Y-19344D03*
X38694Y-18844D03*
X38694Y-18344D03*
G54D13*
X37027Y-19094D03*
G54D14*
X35545Y-19844D03*
X35545Y-19344D03*
X35545Y-18844D03*
X35545Y-18344D03*
G54D13*
X37027Y-11417D03*
G54D14*
X35545Y-12167D03*
X35545Y-11667D03*
X35545Y-11167D03*
X35545Y-10667D03*
G54D13*
X40177Y-11417D03*
G54D14*
X38694Y-12167D03*
X38694Y-11667D03*
X38694Y-11167D03*
X38694Y-10667D03*
G54D15*
X35614Y-13385D03*
X37614Y-13385D03*
X35614Y-17224D03*
X37614Y-17224D03*
G54D16*
X39823Y-17224D03*
X38523Y-17224D03*
X36772Y-9645D03*
X35472Y-9645D03*
X39823Y-13287D03*
X38523Y-13287D03*
G54D17*
X25500Y-10250D03*
G54D18*
X26500Y-10250D03*
X25500Y-11250D03*
X26500Y-11250D03*
X25500Y-12250D03*
X26500Y-12250D03*
X25500Y-13250D03*
X26500Y-13250D03*
G54D17*
X26500Y-17250D03*
G54D18*
X25500Y-17250D03*
X26500Y-16250D03*
X25500Y-16250D03*
X26500Y-15250D03*
X25500Y-15250D03*
X26500Y-14250D03*
X25500Y-14250D03*
G54D17*
X28500Y-19250D03*
G54D18*
X27500Y-19250D03*
X26500Y-19250D03*
X25500Y-19250D03*
G54D17*
X27500Y-10250D03*
G54D18*
X28500Y-10250D03*
G54D17*
X37885Y-9645D03*
G54D18*
X38885Y-9645D03*
G54D19*
X40846Y-12787D03*
G54D20*
X40846Y-13787D03*
G54D19*
X40346Y-9645D03*
G54D20*
X41346Y-9645D03*
G54D19*
X40748Y-16625D03*
G54D20*
X40748Y-17625D03*
G54D21*
X43799Y-14929D03*
X43799Y-16929D03*
X43799Y-18929D03*
G54D22*
X43799Y-10417D03*
G54D21*
X43799Y-12417D03*
G54D23*
X27751Y-17421D03*
X28351Y-17421D03*
X27751Y-13287D03*
X28351Y-13287D03*
X28351Y-13976D03*
X27751Y-13976D03*
X33755Y-15059D03*
X34355Y-15059D03*
X33755Y-13090D03*
X34355Y-13090D03*
X34355Y-17814D03*
X33755Y-17814D03*
X33755Y-19192D03*
X34355Y-19192D03*
X27751Y-15354D03*
X28351Y-15354D03*
X33755Y-11023D03*
X34355Y-11023D03*
X28351Y-14665D03*
X27751Y-14665D03*
X31599Y-17421D03*
X30999Y-17421D03*
X29916Y-17421D03*
X30516Y-17421D03*
X28833Y-17421D03*
X29433Y-17421D03*
X27751Y-11220D03*
X28351Y-11220D03*
X33755Y-14370D03*
X34355Y-14370D03*
X33755Y-15748D03*
X34355Y-15748D03*
X33755Y-16437D03*
X34355Y-16437D03*
X33755Y-17125D03*
X34355Y-17125D03*
X33755Y-12401D03*
X34355Y-12401D03*
X33755Y-11712D03*
X34355Y-11712D03*
X33755Y-18503D03*
X34355Y-18503D03*
X28351Y-16732D03*
X27751Y-16732D03*
X27751Y-11909D03*
X28351Y-11909D03*
X33755Y-13779D03*
X34355Y-13779D03*
X27751Y-12598D03*
X28351Y-12598D03*
X27751Y-16043D03*
X28351Y-16043D03*
G54D24*
X40866Y-10708D03*
X40511Y-10708D03*
X40275Y-10944D03*
X39960Y-11141D03*
X39645Y-11141D03*
X39370Y-11141D03*
X39488Y-11417D03*
X39881Y-11377D03*
X40236Y-11377D03*
X40551Y-11377D03*
X40905Y-11377D03*
X40748Y-11062D03*
X39488Y-19212D03*
X39488Y-19527D03*
X39488Y-19881D03*
X39842Y-19881D03*
X39842Y-19527D03*
X39842Y-19204D03*
X40196Y-19212D03*
X40196Y-19527D03*
X40196Y-19881D03*
X40551Y-19881D03*
X40551Y-19527D03*
X40551Y-19204D03*
X40905Y-19527D03*
X40905Y-19881D03*
X40551Y-15826D03*
X40551Y-15433D03*
X40905Y-15433D03*
X40905Y-15866D03*
X39448Y-15826D03*
X39842Y-15826D03*
X39842Y-15433D03*
X40196Y-15433D03*
X40196Y-15826D03*
X39448Y-15433D03*
X31070Y-18094D03*
X30779Y-18098D03*
X28799Y-13562D03*
X29921Y-14212D03*
X28759Y-14488D03*
X28759Y-15137D03*
X29980Y-15255D03*
X28759Y-14803D03*
X29940Y-14960D03*
X29940Y-15551D03*
X29988Y-15889D03*
X28700Y-13307D03*
X29940Y-12893D03*
X28937Y-13070D03*
X37992Y-11181D03*
X37716Y-11535D03*
X37244Y-10984D03*
X37572Y-11167D03*
X36811Y-11023D03*
X37086Y-11259D03*
X37283Y-10669D03*
X36732Y-10669D03*
X36299Y-10669D03*
X37797Y-10667D03*
X31889Y-13287D03*
X36417Y-11023D03*
X34355Y-11023D03*
X38267Y-14527D03*
X38694Y-14505D03*
X38031Y-14763D03*
X38267Y-15000D03*
X37834Y-15669D03*
X37777Y-14505D03*
X36667Y-14867D03*
X37480Y-15505D03*
X37598Y-15944D03*
X37086Y-15944D03*
X36811Y-15551D03*
X36377Y-15275D03*
X36259Y-14921D03*
X36299Y-14527D03*
X37050Y-15250D03*
X34380Y-13100D03*
X33210Y-14270D03*
X38346Y-19015D03*
X38346Y-18700D03*
X38346Y-18346D03*
X38740Y-18346D03*
X37204Y-19015D03*
X37598Y-19251D03*
X37598Y-18779D03*
X37598Y-18385D03*
X37244Y-19685D03*
X37637Y-19685D03*
X36850Y-19291D03*
X36850Y-18779D03*
X36811Y-19685D03*
X36850Y-18385D03*
X36338Y-19685D03*
X36338Y-19291D03*
X36299Y-18779D03*
X36299Y-18385D03*
X36600Y-16620D03*
X33160Y-15400D03*
X34360Y-15060D03*
X35039Y-12795D03*
X34547Y-17125D03*
X33250Y-14760D03*
X35540Y-14760D03*
X33180Y-15880D03*
X35620Y-17220D03*
X28740Y-12598D03*
X28661Y-11220D03*
X30748Y-17421D03*
X29212Y-17992D03*
X27775Y-13275D03*
X31496Y-12992D03*
X31496Y-13385D03*
X31496Y-13779D03*
X30314Y-12992D03*
X30314Y-13385D03*
X30314Y-13779D03*
X30314Y-14173D03*
X30314Y-14566D03*
X30314Y-14960D03*
X30708Y-14960D03*
X30708Y-14566D03*
X30708Y-14173D03*
X30708Y-13779D03*
X30708Y-13385D03*
X30708Y-12992D03*
X31102Y-12992D03*
X31102Y-13385D03*
X31102Y-13779D03*
X31102Y-14173D03*
X31102Y-14566D03*
X31102Y-14960D03*
X35545Y-9875D03*
X35545Y-10275D03*
X38070Y-13188D03*
X38503Y-13287D03*
X37598Y-13858D03*
X37913Y-13858D03*
X38070Y-13543D03*
X37362Y-13740D03*
X37795Y-12913D03*
X37614Y-17224D03*
X37834Y-17244D03*
X37834Y-16968D03*
X37598Y-16968D03*
X37362Y-16948D03*
X37834Y-16692D03*
X37598Y-16692D03*
X37362Y-16692D03*
X33220Y-13338D03*
X33444Y-17578D03*
X37614Y-13385D03*
X37106Y-17814D03*
X34842Y-18897D03*
X34870Y-9340D03*
X34870Y-9920D03*
X34870Y-9640D03*
X27751Y-13976D03*
X29921Y-13877D03*
X34355Y-11712D03*
X38270Y-12180D03*
X38118Y-19681D03*
X34520Y-15560D03*
X34909Y-19492D03*
X34355Y-16437D03*
X38694Y-16005D03*
X34370Y-13790D03*
G54D25*
X27500Y-10250D02*
X27500Y-10969D01*
X27500Y-10969D02*
X27751Y-11220D01*
X27751Y-11909D02*
X27751Y-11220D01*
X32830Y-12401D02*
X32830Y-10782D01*
X32830Y-10782D02*
X31594Y-9547D01*
X31594Y-9547D02*
X27755Y-9547D01*
X27755Y-9547D02*
X27500Y-9803D01*
X27500Y-9803D02*
X27500Y-10250D01*
X32381Y-12696D02*
X32763Y-12696D01*
X32830Y-12629D02*
X32830Y-12401D01*
X32830Y-12401D02*
X32830Y-12380D01*
X32763Y-12696D02*
X32830Y-12629D01*
G54D26*
X39823Y-17224D02*
X39823Y-19508D01*
X39823Y-19508D02*
X39842Y-19527D01*
X39842Y-19527D02*
X40177Y-19094D01*
X40177Y-11417D02*
X40177Y-11397D01*
X40177Y-11397D02*
X40866Y-10708D01*
X40511Y-10708D02*
X40275Y-10944D01*
X39960Y-11141D02*
X39645Y-11141D01*
X39370Y-11141D02*
X39488Y-11259D01*
X39488Y-11259D02*
X39488Y-11417D01*
X39881Y-11377D02*
X40236Y-11377D01*
X40551Y-11377D02*
X40905Y-11377D01*
X40748Y-11062D02*
X40177Y-11417D01*
X40177Y-19094D02*
X39606Y-19094D01*
X39606Y-19094D02*
X39488Y-19212D01*
X39488Y-19527D02*
X39488Y-19881D01*
X39842Y-19881D02*
X39842Y-19527D01*
X39842Y-19204D02*
X39850Y-19212D01*
X39850Y-19212D02*
X40196Y-19212D01*
X40196Y-19527D02*
X40196Y-19881D01*
X40551Y-19881D02*
X40551Y-19527D01*
X40551Y-19204D02*
X40874Y-19527D01*
X40874Y-19527D02*
X40905Y-19527D01*
X40905Y-19881D02*
X40177Y-19094D01*
X40551Y-15826D02*
X40551Y-15433D01*
X40905Y-15433D02*
X40905Y-15866D01*
X39448Y-15826D02*
X39842Y-15826D01*
X39842Y-15433D02*
X40196Y-15433D01*
X40196Y-15826D02*
X40177Y-15255D01*
X40177Y-15255D02*
X39625Y-15255D01*
X39625Y-15255D02*
X39448Y-15433D01*
X40846Y-12787D02*
X41031Y-12787D01*
X41031Y-12787D02*
X41181Y-12637D01*
X41181Y-12637D02*
X43578Y-12637D01*
X43578Y-12637D02*
X43799Y-12417D01*
X43799Y-12417D02*
X43488Y-12417D01*
X43488Y-12417D02*
X43425Y-12480D01*
X43425Y-12480D02*
X41153Y-12480D01*
X41153Y-12480D02*
X40846Y-12787D01*
X40846Y-12787D02*
X43429Y-12787D01*
X43429Y-12787D02*
X43799Y-12417D01*
X31070Y-18094D02*
X31070Y-18110D01*
X40177Y-19094D02*
X40059Y-19212D01*
X40059Y-19212D02*
X40059Y-19629D01*
X30779Y-18098D02*
X30779Y-18110D01*
X36772Y-9645D02*
X36772Y-10020D01*
X36772Y-10020D02*
X36944Y-10192D01*
X36944Y-10192D02*
X38338Y-10192D01*
X38338Y-10192D02*
X38885Y-9645D01*
X38885Y-9645D02*
X40346Y-9645D01*
X40346Y-9645D02*
X40346Y-11248D01*
X40346Y-11248D02*
X40177Y-11417D01*
X40846Y-12787D02*
X40846Y-12086D01*
X40846Y-12086D02*
X40177Y-11417D01*
X39823Y-13287D02*
X39823Y-14901D01*
X39823Y-14901D02*
X40177Y-15255D01*
X39823Y-13287D02*
X39823Y-11771D01*
X39823Y-11771D02*
X40177Y-11417D01*
X39823Y-17224D02*
X39823Y-15609D01*
X39823Y-15609D02*
X40177Y-15255D01*
X39823Y-17224D02*
X39823Y-18740D01*
X39823Y-18740D02*
X40177Y-19094D01*
X40748Y-16625D02*
X40421Y-16625D01*
X40421Y-16625D02*
X39823Y-17224D01*
G54D27*
X31599Y-17421D02*
X31599Y-17908D01*
X31599Y-17908D02*
X31397Y-18110D01*
X31397Y-18110D02*
X31070Y-18110D01*
X31070Y-18110D02*
X30779Y-18110D01*
X30779Y-18110D02*
X30118Y-18110D01*
X29916Y-17421D02*
X29916Y-17908D01*
X29916Y-17908D02*
X30118Y-18110D01*
G54D25*
X32381Y-16633D02*
X31889Y-16633D01*
X31889Y-16633D02*
X31599Y-16924D01*
X31599Y-16924D02*
X31599Y-17421D01*
X27751Y-16043D02*
X27681Y-16043D01*
X27681Y-16043D02*
X27082Y-16641D01*
X27082Y-16641D02*
X27082Y-18645D01*
X27082Y-18645D02*
X26507Y-19220D01*
X26507Y-19220D02*
X26500Y-19250D01*
X28351Y-14665D02*
X28275Y-14665D01*
X28275Y-14665D02*
X28051Y-14889D01*
X28051Y-14889D02*
X28051Y-15771D01*
X28051Y-15771D02*
X27783Y-16039D01*
X27783Y-16039D02*
X27751Y-16043D01*
X27500Y-19250D02*
X27751Y-18998D01*
X27751Y-18998D02*
X27751Y-17381D01*
X27751Y-17381D02*
X27751Y-17421D01*
X27751Y-17421D02*
X27751Y-16732D01*
G54D28*
X28877Y-13484D02*
X29429Y-13484D01*
X28799Y-13562D02*
X28877Y-13484D01*
G54D25*
X29429Y-14254D02*
X29429Y-14271D01*
X29879Y-14254D02*
X29429Y-14254D01*
X29921Y-14212D02*
X29879Y-14254D01*
X32381Y-13090D02*
X32878Y-13090D01*
X33297Y-11712D02*
X33755Y-11712D01*
X33190Y-11819D02*
X33297Y-11712D01*
X33190Y-12779D02*
X33190Y-11819D01*
X32878Y-13090D02*
X33190Y-12779D01*
X32381Y-14074D02*
X33094Y-14074D01*
X33389Y-13779D02*
X33755Y-13779D01*
X33094Y-14074D02*
X33389Y-13779D01*
X32381Y-15059D02*
X32894Y-15059D01*
X32894Y-15059D02*
X33005Y-15170D01*
X33005Y-15170D02*
X33250Y-15170D01*
X33250Y-15170D02*
X33420Y-15340D01*
X33420Y-15340D02*
X33420Y-15460D01*
X33420Y-15460D02*
X33708Y-15748D01*
X33708Y-15748D02*
X33755Y-15748D01*
X33290Y-12933D02*
X32739Y-13484D01*
X32739Y-13484D02*
X32381Y-13484D01*
X33755Y-12401D02*
X33498Y-12401D01*
X33370Y-12853D02*
X33290Y-12933D01*
X33370Y-12530D02*
X33370Y-12853D01*
X33498Y-12401D02*
X33370Y-12530D01*
X32381Y-14468D02*
X33078Y-14468D01*
X33078Y-14468D02*
X33130Y-14520D01*
X33130Y-14520D02*
X33605Y-14520D01*
X33605Y-14520D02*
X33755Y-14370D01*
X32381Y-15452D02*
X32779Y-15452D01*
X32779Y-15452D02*
X32966Y-15640D01*
X32966Y-15640D02*
X33300Y-15640D01*
X33300Y-15640D02*
X33420Y-15760D01*
X33420Y-15760D02*
X33420Y-16100D01*
X33420Y-16100D02*
X33755Y-16435D01*
X33755Y-16435D02*
X33755Y-16437D01*
X29429Y-14468D02*
X28779Y-14468D01*
X28779Y-14468D02*
X28759Y-14488D01*
X29429Y-14862D02*
X29035Y-14862D01*
X29035Y-14862D02*
X28759Y-15137D01*
X29822Y-15255D02*
X29980Y-15255D01*
X29429Y-15255D02*
X29822Y-15255D01*
X29822Y-15255D02*
X29862Y-15255D01*
X28897Y-14665D02*
X29429Y-14665D01*
X28759Y-14803D02*
X28897Y-14665D01*
X29842Y-15059D02*
X29429Y-15059D01*
X29940Y-14960D02*
X29842Y-15059D01*
X29429Y-15452D02*
X29842Y-15452D01*
X29842Y-15452D02*
X29940Y-15551D01*
X29988Y-15889D02*
X29944Y-15846D01*
X29944Y-15846D02*
X29397Y-15846D01*
X29397Y-15846D02*
X29429Y-15846D01*
X29429Y-13287D02*
X29035Y-13287D01*
X29035Y-13287D02*
X29015Y-13307D01*
X29015Y-13307D02*
X28700Y-13307D01*
X29940Y-12893D02*
X29429Y-12893D01*
G54D28*
X29940Y-12893D02*
X29429Y-12893D01*
G54D25*
X29429Y-13090D02*
X28956Y-13090D01*
X28956Y-13090D02*
X28937Y-13070D01*
G54D26*
X37992Y-11181D02*
X37992Y-11167D01*
X37716Y-11535D02*
X37716Y-11667D01*
X37716Y-11667D02*
X37027Y-11417D01*
X37244Y-10984D02*
X37223Y-10963D01*
X37223Y-10963D02*
X37182Y-10963D01*
X37182Y-10963D02*
X37027Y-11417D01*
X37027Y-11417D02*
X37322Y-11417D01*
X37322Y-11417D02*
X37572Y-11167D01*
X37027Y-11417D02*
X37027Y-11240D01*
X37027Y-11240D02*
X36811Y-11023D01*
X37086Y-11259D02*
X37085Y-11258D01*
X37085Y-11258D02*
X37081Y-11258D01*
X37081Y-11258D02*
X37027Y-11417D01*
X37283Y-10669D02*
X37027Y-11417D01*
X37027Y-11417D02*
X37027Y-10964D01*
X37027Y-10964D02*
X36732Y-10669D01*
X37027Y-11417D02*
X37027Y-10964D01*
X37027Y-10964D02*
X36732Y-10669D01*
X36732Y-10669D02*
X36299Y-10669D01*
X37027Y-11417D02*
X37047Y-11417D01*
X37047Y-11417D02*
X37797Y-10667D01*
G54D25*
X32381Y-13287D02*
X31889Y-13287D01*
G54D27*
X36417Y-11023D02*
X36811Y-11417D01*
X36811Y-11417D02*
X37027Y-11417D01*
G54D26*
X38694Y-11167D02*
X38694Y-11667D01*
X38694Y-10667D02*
X38694Y-11167D01*
X38694Y-10667D02*
X37777Y-10667D01*
X37777Y-10667D02*
X37027Y-11417D01*
X38694Y-11167D02*
X37992Y-11167D01*
X37992Y-11167D02*
X37277Y-11167D01*
X37277Y-11167D02*
X37027Y-11417D01*
X38694Y-11667D02*
X37277Y-11667D01*
X37277Y-11667D02*
X37027Y-11417D01*
X38694Y-14505D02*
X38289Y-14505D01*
X38289Y-14505D02*
X38267Y-14527D01*
X38031Y-14763D02*
X37204Y-14763D01*
X37204Y-14763D02*
X37027Y-15255D01*
X38267Y-15000D02*
X38267Y-15005D01*
X37027Y-15255D02*
X37421Y-15255D01*
X37421Y-15255D02*
X37834Y-15669D01*
X37027Y-15255D02*
X37777Y-14505D01*
X36667Y-14867D02*
X36653Y-14881D01*
X36653Y-14881D02*
X37027Y-15255D01*
X37027Y-15255D02*
X37230Y-15255D01*
X37230Y-15255D02*
X37480Y-15505D01*
X37598Y-15944D02*
X37027Y-15255D01*
X37027Y-15255D02*
X37027Y-15885D01*
X37027Y-15885D02*
X37086Y-15944D01*
X36811Y-15551D02*
X37027Y-15255D01*
X37027Y-15255D02*
X36397Y-15255D01*
X36397Y-15255D02*
X36377Y-15275D01*
X37027Y-15255D02*
X36594Y-15255D01*
X36594Y-15255D02*
X36259Y-14921D01*
X37027Y-15255D02*
X36299Y-14527D01*
X38694Y-14505D02*
X38694Y-15505D01*
X38694Y-15505D02*
X37277Y-15505D01*
X37277Y-15505D02*
X37027Y-15255D01*
X38694Y-15005D02*
X38267Y-15005D01*
X38267Y-15005D02*
X37277Y-15005D01*
X37277Y-15005D02*
X37027Y-15255D01*
X38694Y-14505D02*
X37777Y-14505D01*
X37777Y-14505D02*
X37027Y-15255D01*
G54D25*
X37044Y-15255D02*
X37027Y-15255D01*
X37050Y-15250D02*
X37044Y-15255D01*
X32381Y-14271D02*
X33208Y-14271D01*
X34370Y-13090D02*
X34355Y-13090D01*
X34380Y-13100D02*
X34370Y-13090D01*
X33208Y-14271D02*
X33210Y-14270D01*
G54D26*
X38346Y-18818D02*
X38346Y-19015D01*
X38346Y-18700D02*
X38346Y-18346D01*
X38346Y-18700D02*
X38346Y-18818D01*
X38346Y-18818D02*
X38346Y-18844D01*
X38346Y-18346D02*
X38740Y-18346D01*
X38740Y-18346D02*
X38694Y-18344D01*
X38740Y-18346D02*
X38694Y-18346D01*
X38694Y-18346D02*
X38694Y-18344D01*
X37204Y-19015D02*
X37147Y-19073D01*
X37147Y-19073D02*
X37147Y-19146D01*
X37598Y-19251D02*
X37598Y-19344D01*
X37598Y-19344D02*
X37027Y-19094D01*
X37598Y-18779D02*
X37598Y-18844D01*
X37598Y-18844D02*
X37027Y-19094D01*
X37027Y-19094D02*
X37027Y-18956D01*
X37027Y-18956D02*
X37598Y-18385D01*
X37244Y-19685D02*
X37027Y-19094D01*
X37637Y-19685D02*
X37027Y-19094D01*
X36850Y-19291D02*
X36791Y-19232D01*
X36791Y-19232D02*
X37027Y-19094D01*
X36850Y-18779D02*
X36873Y-18756D01*
X36873Y-18756D02*
X36941Y-18756D01*
X36941Y-18756D02*
X37027Y-19094D01*
X37027Y-19094D02*
X37027Y-19468D01*
X37027Y-19468D02*
X36811Y-19685D01*
X37027Y-19094D02*
X37027Y-18842D01*
X37027Y-18842D02*
X36941Y-18756D01*
X36850Y-18385D02*
X36848Y-18388D01*
X36848Y-18388D02*
X37027Y-19094D01*
X37027Y-19094D02*
X36929Y-19094D01*
X36929Y-19094D02*
X36338Y-19685D01*
X37027Y-19094D02*
X36535Y-19094D01*
X36535Y-19094D02*
X36338Y-19291D01*
X37027Y-19094D02*
X36338Y-19094D01*
X37027Y-19094D02*
X36338Y-19094D01*
X36338Y-19094D02*
X36299Y-19133D01*
X36299Y-19133D02*
X37027Y-19094D01*
X37027Y-19094D02*
X36614Y-19094D01*
X36614Y-19094D02*
X36299Y-18779D01*
X37027Y-19094D02*
X37007Y-19094D01*
X37007Y-19094D02*
X36299Y-18385D01*
X37027Y-19094D02*
X37027Y-18567D01*
X37027Y-18567D02*
X36600Y-18140D01*
X36600Y-18140D02*
X36600Y-16620D01*
X38694Y-18344D02*
X38694Y-19344D01*
X38694Y-18344D02*
X37777Y-18344D01*
X37777Y-18344D02*
X37027Y-19094D01*
X38694Y-18844D02*
X38346Y-18844D01*
X38346Y-18844D02*
X37277Y-18844D01*
X37277Y-18844D02*
X37027Y-19094D01*
X38694Y-19344D02*
X37277Y-19344D01*
X37277Y-19344D02*
X37027Y-19094D01*
G54D25*
X32381Y-15255D02*
X32836Y-15255D01*
X32836Y-15255D02*
X32980Y-15400D01*
X32980Y-15400D02*
X33160Y-15400D01*
G54D27*
X34360Y-15060D02*
X34359Y-15059D01*
X34359Y-15059D02*
X34355Y-15059D01*
G54D26*
X35545Y-15005D02*
X35545Y-15505D01*
G54D25*
X34355Y-17125D02*
X34547Y-17125D01*
G54D28*
X35614Y-13370D02*
X35039Y-12795D01*
X35614Y-13370D02*
X35614Y-13385D01*
G54D25*
X32381Y-14665D02*
X33015Y-14665D01*
X33015Y-14665D02*
X33110Y-14760D01*
X33110Y-14760D02*
X33250Y-14760D01*
G54D27*
X35540Y-14760D02*
X35545Y-14765D01*
X35545Y-14765D02*
X35545Y-15005D01*
G54D26*
X35614Y-13385D02*
X35340Y-13660D01*
X35340Y-13660D02*
X35340Y-15300D01*
X35340Y-15300D02*
X35545Y-15505D01*
X35614Y-13385D02*
X35780Y-13551D01*
X35780Y-15271D02*
X35545Y-15505D01*
X35780Y-13551D02*
X35780Y-15271D01*
X35545Y-14505D02*
X35545Y-13454D01*
X35545Y-13454D02*
X35614Y-13385D01*
X35545Y-14505D02*
X35545Y-15505D01*
X35545Y-19344D02*
X35545Y-18844D01*
G54D25*
X34355Y-18503D02*
X34645Y-18503D01*
X34645Y-18503D02*
X35614Y-17535D01*
X35614Y-17535D02*
X35614Y-17224D01*
G54D28*
X35614Y-17535D02*
X35614Y-17224D01*
X34645Y-18503D02*
X35614Y-17535D01*
G54D26*
X35614Y-17224D02*
X35760Y-17370D01*
X35760Y-17370D02*
X35760Y-19129D01*
X35760Y-19129D02*
X35545Y-19344D01*
X35614Y-17224D02*
X35360Y-17478D01*
X35360Y-17478D02*
X35360Y-19100D01*
X35360Y-19100D02*
X35360Y-19159D01*
X35360Y-19159D02*
X35545Y-19344D01*
X35545Y-18344D02*
X35614Y-18275D01*
X35614Y-18275D02*
X35614Y-17224D01*
X35545Y-19344D02*
X35545Y-18344D01*
G54D25*
X32381Y-15649D02*
X32721Y-15649D01*
X32721Y-15649D02*
X32951Y-15880D01*
X32951Y-15880D02*
X33180Y-15880D01*
G54D27*
X35620Y-17220D02*
X35618Y-17220D01*
X35618Y-17220D02*
X35614Y-17224D01*
G54D25*
X34355Y-17814D02*
X34355Y-17725D01*
X34355Y-17725D02*
X33755Y-17125D01*
X33207Y-16141D02*
X33070Y-16141D01*
G54D28*
X33110Y-16141D02*
X33070Y-16141D01*
X33070Y-16141D02*
X32959Y-16030D01*
X33011Y-16043D02*
X33011Y-16152D01*
X32878Y-16019D02*
X33011Y-16152D01*
X33011Y-16152D02*
X33040Y-16181D01*
X33040Y-16181D02*
X33246Y-16181D01*
X33246Y-16181D02*
X33246Y-16141D01*
X33110Y-16141D02*
X33011Y-16043D01*
X33011Y-16043D02*
X32998Y-16030D01*
X32889Y-16030D02*
X32878Y-16019D01*
X32878Y-16019D02*
X32706Y-15846D01*
X32998Y-16030D02*
X32959Y-16030D01*
X32959Y-16030D02*
X32889Y-16030D01*
G54D25*
X33755Y-17125D02*
X33464Y-16835D01*
G54D28*
X32706Y-15846D02*
X32381Y-15846D01*
G54D25*
X33464Y-16399D02*
X33207Y-16141D01*
X33464Y-16835D02*
X33464Y-16399D01*
G54D28*
X32915Y-16423D02*
X32763Y-16271D01*
X32763Y-16271D02*
X32688Y-16271D01*
G54D25*
X33755Y-18503D02*
X33755Y-19192D01*
G54D28*
X33618Y-18448D02*
X33700Y-18448D01*
X33700Y-18448D02*
X33755Y-18503D01*
X32381Y-16240D02*
X32692Y-16240D01*
X32915Y-16423D02*
X33086Y-16594D01*
X33086Y-16594D02*
X33086Y-17070D01*
X33086Y-17070D02*
X33137Y-17122D01*
X33137Y-17122D02*
X33137Y-17708D01*
X33137Y-17708D02*
X33362Y-17933D01*
X33362Y-17933D02*
X33362Y-18192D01*
X33362Y-18192D02*
X33618Y-18448D01*
X32381Y-16240D02*
X32760Y-16240D01*
X32760Y-16240D02*
X33137Y-16617D01*
X33137Y-16617D02*
X33137Y-17049D01*
X33137Y-17049D02*
X33194Y-17106D01*
X33194Y-17106D02*
X33194Y-17687D01*
X33194Y-17687D02*
X33417Y-17909D01*
X33417Y-17909D02*
X33417Y-18173D01*
X33417Y-18173D02*
X33748Y-18503D01*
X33748Y-18503D02*
X33755Y-18503D01*
G54D25*
X29429Y-12696D02*
X28838Y-12696D01*
X28838Y-12696D02*
X28740Y-12598D01*
X26500Y-10250D02*
X26500Y-10318D01*
X26500Y-10318D02*
X27244Y-11062D01*
X27244Y-11062D02*
X27244Y-12047D01*
X27244Y-12047D02*
X27440Y-12244D01*
X29429Y-12303D02*
X29053Y-12303D01*
X29053Y-12303D02*
X28932Y-12182D01*
X28932Y-12182D02*
X28623Y-12182D01*
X28623Y-12182D02*
X28351Y-11909D01*
G54D28*
X27244Y-11456D02*
X27244Y-12047D01*
X26500Y-10318D02*
X27244Y-11062D01*
X27244Y-11062D02*
X27244Y-11456D01*
X26500Y-10250D02*
X26500Y-10318D01*
X28351Y-12042D02*
X28351Y-11909D01*
X28149Y-12244D02*
X28351Y-12042D01*
X27440Y-12244D02*
X28149Y-12244D01*
X27244Y-12047D02*
X27440Y-12244D01*
G54D25*
X29429Y-12106D02*
X29822Y-12106D01*
X29822Y-12106D02*
X29881Y-12047D01*
X29881Y-12047D02*
X29881Y-11220D01*
X29881Y-11220D02*
X29763Y-11102D01*
X29763Y-11102D02*
X28779Y-11102D01*
X28779Y-11102D02*
X28661Y-11220D01*
G54D28*
X28661Y-11220D02*
X28622Y-11220D01*
X28622Y-11220D02*
X28351Y-11220D01*
G54D26*
X29212Y-17992D02*
X28833Y-17613D01*
X28833Y-17613D02*
X28833Y-17421D01*
X41346Y-9645D02*
X41692Y-9645D01*
X41692Y-9645D02*
X42204Y-10157D01*
X42204Y-10157D02*
X43539Y-10157D01*
X43539Y-10157D02*
X43799Y-10417D01*
X43799Y-10417D02*
X42118Y-10417D01*
X42118Y-10417D02*
X41346Y-9645D01*
G54D25*
X28351Y-17421D02*
X28500Y-17570D01*
X28500Y-17570D02*
X28500Y-19220D01*
X28500Y-19220D02*
X28500Y-19250D01*
X27751Y-14665D02*
X27590Y-14665D01*
X27590Y-14665D02*
X27259Y-14334D01*
X27259Y-14334D02*
X27259Y-13318D01*
X27259Y-13318D02*
X27259Y-13250D01*
X27751Y-14665D02*
X27751Y-15385D01*
X27751Y-15385D02*
X27755Y-15389D01*
X27755Y-15389D02*
X27751Y-15354D01*
X27751Y-13287D02*
X27763Y-13287D01*
X27763Y-13287D02*
X27775Y-13275D01*
G54D27*
X27751Y-13287D02*
X27751Y-12660D01*
X27751Y-12660D02*
X27736Y-12645D01*
X27736Y-12645D02*
X27751Y-12598D01*
X26500Y-13250D02*
X27259Y-13250D01*
X27259Y-13250D02*
X27722Y-13250D01*
X27722Y-13250D02*
X27732Y-13240D01*
X27732Y-13240D02*
X27751Y-13287D01*
X25500Y-14250D02*
X25500Y-14196D01*
X25500Y-14196D02*
X26484Y-13212D01*
X26484Y-13212D02*
X26500Y-13250D01*
X28500Y-10250D02*
X29935Y-10250D01*
X29935Y-10250D02*
X30708Y-11023D01*
X30708Y-11023D02*
X30708Y-13385D01*
X30708Y-13385D02*
X30905Y-13976D01*
G54D25*
X30905Y-13976D02*
X30905Y-13582D01*
X30905Y-13582D02*
X31496Y-12992D01*
X31496Y-13385D02*
X31496Y-13779D01*
X30905Y-13976D02*
X30905Y-13582D01*
X30905Y-13582D02*
X30314Y-12992D01*
X30314Y-13385D02*
X30314Y-13779D01*
X30314Y-14173D02*
X30314Y-14566D01*
X30314Y-14960D02*
X30708Y-14960D01*
X30708Y-14566D02*
X30708Y-14173D01*
X30708Y-13779D02*
X30708Y-13385D01*
X30708Y-12992D02*
X31102Y-12992D01*
X31102Y-13385D02*
X31102Y-13779D01*
X31102Y-14173D02*
X31102Y-14566D01*
X31102Y-14960D02*
X30905Y-13976D01*
X28833Y-17421D02*
X28351Y-17421D01*
X29429Y-16633D02*
X29291Y-16633D01*
X29291Y-16633D02*
X28833Y-17091D01*
X28833Y-17091D02*
X28833Y-17421D01*
G54D26*
X34870Y-9920D02*
X35501Y-9920D01*
X35501Y-9920D02*
X35545Y-9875D01*
X34870Y-9920D02*
X34870Y-9992D01*
X34870Y-9992D02*
X35153Y-10275D01*
X35153Y-10275D02*
X35545Y-10275D01*
X38070Y-13188D02*
X38169Y-13287D01*
X38169Y-13287D02*
X38503Y-13287D01*
X37614Y-13385D02*
X37614Y-13842D01*
X37614Y-13842D02*
X37598Y-13858D01*
X37913Y-13858D02*
X38070Y-13700D01*
X38070Y-13700D02*
X38070Y-13543D01*
X37614Y-13385D02*
X37362Y-13637D01*
X37362Y-13637D02*
X37362Y-13740D01*
X37614Y-13385D02*
X37795Y-13204D01*
X37795Y-13204D02*
X37795Y-12913D01*
X37614Y-17224D02*
X37633Y-17244D01*
X37633Y-17244D02*
X37834Y-17244D01*
X37834Y-16968D02*
X37834Y-17003D01*
X37834Y-17003D02*
X37614Y-17224D01*
X37598Y-16968D02*
X37606Y-16968D01*
X37606Y-16968D02*
X37606Y-16968D01*
X37606Y-16968D02*
X37614Y-17224D01*
X37614Y-17224D02*
X37362Y-16972D01*
X37362Y-16972D02*
X37362Y-16948D01*
X37614Y-17224D02*
X37834Y-17003D01*
X37834Y-17003D02*
X37834Y-16692D01*
X37598Y-16692D02*
X37614Y-17224D01*
X37362Y-16692D02*
X37362Y-16948D01*
X37362Y-16948D02*
X37637Y-17224D01*
X37637Y-17224D02*
X37614Y-17224D01*
G54D25*
X32381Y-13681D02*
X32797Y-13681D01*
X32797Y-13681D02*
X33139Y-13338D01*
X33139Y-13338D02*
X33220Y-13338D01*
X32381Y-11515D02*
X31397Y-11515D01*
X31397Y-11515D02*
X30905Y-12007D01*
X30905Y-12007D02*
X30905Y-13976D01*
G54D27*
X30516Y-17421D02*
X30748Y-17421D01*
X30748Y-17421D02*
X30999Y-17421D01*
X30516Y-17421D02*
X30516Y-14365D01*
X30516Y-14365D02*
X30905Y-13976D01*
X30905Y-13976D02*
X30999Y-14070D01*
X30999Y-14070D02*
X30999Y-17421D01*
G54D25*
X33444Y-17578D02*
X33421Y-17602D01*
X33421Y-17602D02*
X33374Y-17602D01*
G54D28*
X32381Y-16437D02*
X32681Y-16437D01*
X32681Y-16437D02*
X32913Y-16669D01*
X32913Y-16669D02*
X32913Y-17145D01*
X32913Y-17145D02*
X32968Y-17200D01*
X32968Y-17200D02*
X32968Y-17779D01*
X32968Y-17779D02*
X33188Y-18000D01*
X33188Y-18000D02*
X33188Y-18267D01*
X33188Y-18267D02*
X33366Y-18444D01*
X33366Y-18444D02*
X33366Y-19515D01*
X33366Y-19515D02*
X33535Y-19685D01*
X33535Y-19685D02*
X34043Y-19685D01*
X34043Y-19685D02*
X34355Y-19373D01*
X34355Y-19373D02*
X34355Y-19192D01*
X32381Y-16437D02*
X32759Y-16437D01*
X32759Y-16437D02*
X32966Y-16644D01*
X32966Y-16644D02*
X32966Y-17120D01*
X32966Y-17120D02*
X33017Y-17171D01*
X33017Y-17171D02*
X33017Y-17758D01*
X33017Y-17758D02*
X33242Y-17982D01*
X33242Y-17982D02*
X33242Y-18242D01*
X33242Y-18242D02*
X33421Y-18421D01*
X33421Y-18421D02*
X33421Y-19496D01*
X33421Y-19496D02*
X33555Y-19629D01*
X33555Y-19629D02*
X34027Y-19629D01*
X34027Y-19629D02*
X34355Y-19302D01*
X34355Y-19302D02*
X34355Y-19192D01*
X33062Y-16303D02*
X33062Y-16314D01*
X33062Y-16314D02*
X33271Y-16523D01*
X33271Y-16523D02*
X33271Y-16480D01*
X33271Y-16480D02*
X33118Y-16326D01*
X33118Y-16326D02*
X33110Y-16326D01*
X33110Y-16326D02*
X33110Y-16303D01*
X32774Y-16084D02*
X33257Y-16567D01*
X33257Y-16567D02*
X33257Y-16999D01*
X33257Y-16999D02*
X33374Y-17116D01*
X33374Y-17116D02*
X33374Y-17129D01*
X33374Y-17267D02*
X33374Y-17559D01*
X33374Y-17559D02*
X33314Y-17618D01*
X33374Y-17570D02*
X33362Y-17570D01*
X33362Y-17570D02*
X33314Y-17618D01*
X33314Y-17618D02*
X33314Y-17637D01*
X33314Y-16720D02*
X33314Y-16964D01*
X33314Y-16964D02*
X33374Y-17023D01*
X33374Y-17023D02*
X33374Y-17129D01*
X33374Y-17129D02*
X33374Y-17267D01*
X33374Y-17267D02*
X33374Y-17570D01*
X33374Y-17570D02*
X33374Y-17602D01*
X33374Y-17602D02*
X33374Y-17618D01*
X33374Y-17618D02*
X33515Y-17759D01*
X33515Y-17759D02*
X33622Y-17759D01*
X33755Y-17814D02*
X33492Y-17814D01*
X33492Y-17814D02*
X33314Y-17637D01*
X33314Y-17637D02*
X33314Y-17637D01*
X33314Y-17637D02*
X33314Y-17271D01*
X32381Y-16043D02*
X32733Y-16043D01*
X32733Y-16043D02*
X32774Y-16084D01*
X32774Y-16084D02*
X32993Y-16303D01*
X32993Y-16303D02*
X33062Y-16303D01*
X33062Y-16303D02*
X33110Y-16303D01*
X33110Y-16303D02*
X33156Y-16303D01*
X33156Y-16303D02*
X33314Y-16461D01*
X33314Y-16461D02*
X33314Y-16720D01*
X33314Y-16720D02*
X33314Y-17271D01*
G54D26*
X38523Y-13287D02*
X37712Y-13287D01*
X37614Y-13385D02*
X37712Y-13287D01*
G54D25*
X34355Y-19192D02*
X34547Y-19192D01*
X37614Y-17307D02*
X37614Y-17224D01*
X37106Y-17814D02*
X37614Y-17307D01*
X34547Y-19192D02*
X34842Y-18897D01*
G54D26*
X38523Y-17224D02*
X37614Y-17224D01*
X35160Y-9640D02*
X35350Y-9830D01*
X35350Y-11472D02*
X35545Y-11667D01*
X35350Y-9830D02*
X35350Y-11472D01*
X34870Y-9640D02*
X35160Y-9640D01*
X35160Y-9640D02*
X35466Y-9640D01*
X35466Y-9640D02*
X35472Y-9645D01*
X34870Y-9920D02*
X35197Y-9920D01*
X35197Y-9920D02*
X35472Y-9645D01*
X34870Y-9340D02*
X35166Y-9340D01*
X35166Y-9340D02*
X35472Y-9645D01*
X34870Y-9340D02*
X34870Y-9640D01*
X34870Y-9640D02*
X34870Y-9920D01*
X35545Y-10667D02*
X35545Y-9718D01*
X35545Y-9718D02*
X35472Y-9645D01*
X35545Y-11167D02*
X35545Y-11667D01*
X35545Y-10667D02*
X35545Y-11167D01*
G54D25*
X28937Y-15669D02*
X28740Y-15472D01*
X28351Y-15354D02*
X28464Y-15354D01*
X28464Y-15354D02*
X28779Y-15669D01*
X28779Y-15669D02*
X28937Y-15669D01*
X28351Y-15354D02*
X28622Y-15354D01*
X28622Y-15354D02*
X28740Y-15472D01*
X28740Y-15472D02*
X28877Y-15472D01*
X28877Y-15472D02*
X29055Y-15649D01*
X28351Y-15354D02*
X28351Y-15378D01*
X28937Y-15767D02*
X29055Y-15649D01*
X28740Y-15767D02*
X28937Y-15767D01*
X28351Y-15378D02*
X28740Y-15767D01*
X29429Y-15649D02*
X29055Y-15649D01*
G54D27*
X35545Y-12167D02*
X34892Y-12167D01*
X34658Y-12401D02*
X34355Y-12401D01*
X34892Y-12167D02*
X34658Y-12401D01*
G54D25*
X33030Y-14940D02*
X33080Y-14990D01*
X33080Y-14990D02*
X33170Y-14990D01*
X32952Y-14862D02*
X33030Y-14940D01*
X33170Y-14990D02*
X33686Y-14990D01*
X33686Y-14990D02*
X33755Y-15059D01*
X32381Y-14862D02*
X32952Y-14862D01*
X29429Y-13877D02*
X29921Y-13877D01*
X38694Y-12167D02*
X38282Y-12167D01*
X38270Y-12180D02*
X38282Y-12167D01*
X32381Y-12893D02*
X32820Y-12893D01*
X33010Y-11329D02*
X33190Y-11150D01*
X33010Y-12704D02*
X33010Y-11329D01*
X32820Y-12893D02*
X33010Y-12704D01*
X33316Y-11023D02*
X33755Y-11023D01*
X33060Y-11280D02*
X33190Y-11150D01*
X33190Y-11150D02*
X33316Y-11023D01*
X33036Y-13877D02*
X32381Y-13877D01*
X33755Y-13090D02*
X33519Y-13090D01*
X33470Y-13444D02*
X33036Y-13877D01*
X33470Y-13140D02*
X33470Y-13444D01*
X33519Y-13090D02*
X33470Y-13140D01*
G54D27*
X38694Y-19844D02*
X38281Y-19844D01*
X38281Y-19844D02*
X38118Y-19681D01*
X34355Y-15748D02*
X34355Y-15724D01*
X34355Y-15724D02*
X34520Y-15560D01*
X38720Y-19840D02*
X38715Y-19844D01*
X38715Y-19844D02*
X38694Y-19844D01*
X35545Y-16005D02*
X35135Y-16005D01*
X35135Y-16005D02*
X35010Y-15880D01*
X35010Y-15880D02*
X35010Y-14610D01*
X35010Y-14610D02*
X34770Y-14370D01*
X34770Y-14370D02*
X34355Y-14370D01*
X35545Y-19844D02*
X35261Y-19844D01*
X35261Y-19844D02*
X34909Y-19492D01*
G54D26*
X35560Y-19840D02*
X35555Y-19844D01*
X35555Y-19844D02*
X35545Y-19844D01*
G54D25*
X28937Y-13976D02*
X28397Y-13976D01*
X28397Y-13976D02*
X28374Y-14000D01*
X28374Y-14000D02*
X28351Y-13976D01*
X29035Y-14074D02*
X28956Y-14153D01*
X28528Y-14153D02*
X28351Y-13976D01*
X28956Y-14153D02*
X28528Y-14153D01*
X29429Y-14074D02*
X29035Y-14074D01*
X29035Y-14074D02*
X28937Y-13976D01*
X28937Y-13976D02*
X28937Y-13976D01*
X29429Y-14074D02*
X28449Y-14074D01*
X28449Y-14074D02*
X28351Y-13976D01*
G54D27*
X34370Y-13790D02*
X34359Y-13779D01*
X34359Y-13779D02*
X34355Y-13779D01*
G54D28*
X29429Y-13681D02*
X28996Y-13681D01*
X28351Y-13429D02*
X28351Y-13287D01*
X28700Y-13779D02*
X28351Y-13429D01*
X28897Y-13779D02*
X28700Y-13779D01*
X28996Y-13681D02*
X28897Y-13779D01*
G54D25*
X29433Y-17421D02*
X29433Y-17062D01*
X29433Y-17062D02*
X29606Y-16889D01*
X29606Y-16889D02*
X29783Y-16889D01*
X29783Y-16889D02*
X29901Y-16771D01*
X29901Y-16771D02*
X29901Y-16515D01*
X29901Y-16515D02*
X29805Y-16420D01*
X29805Y-16420D02*
X29429Y-16420D01*
X29429Y-16420D02*
X29429Y-16437D01*
X29429Y-16043D02*
X28351Y-16043D01*
X29429Y-16240D02*
X28877Y-16240D01*
X28877Y-16240D02*
X28385Y-16732D01*
X28385Y-16732D02*
X28351Y-16732D01*
X29429Y-12500D02*
X28996Y-12500D01*
X28996Y-12500D02*
X28858Y-12362D01*
X28858Y-12362D02*
X28587Y-12362D01*
X28587Y-12362D02*
X28351Y-12598D01*
G54D28*
X28508Y-12440D02*
X28351Y-12598D01*
G54D10*
G36*
X32620Y-11109D02*
X32047Y-11109D01*
X31991Y-11132D01*
X31949Y-11174D01*
X31926Y-11229D01*
X31926Y-11289D01*
X31926Y-11407D01*
X31949Y-11462D01*
X31991Y-11505D01*
X32017Y-11515D01*
X31991Y-11526D01*
X31949Y-11568D01*
X31926Y-11623D01*
X31926Y-11683D01*
X31926Y-11801D01*
X31930Y-11810D01*
X31926Y-11820D01*
X31926Y-11880D01*
X31926Y-11998D01*
X31930Y-12007D01*
X31926Y-12017D01*
X31926Y-12076D01*
X31926Y-12195D01*
X31930Y-12204D01*
X31926Y-12214D01*
X31926Y-12273D01*
X31926Y-12391D01*
X31930Y-12401D01*
X31926Y-12410D01*
X31926Y-12470D01*
X31926Y-12588D01*
X31930Y-12598D01*
X31926Y-12607D01*
X31926Y-12667D01*
X31926Y-12785D01*
X31930Y-12795D01*
X31926Y-12804D01*
X31926Y-12864D01*
X31926Y-12982D01*
X31930Y-12992D01*
X31926Y-13001D01*
X31926Y-13037D01*
X31840Y-13037D01*
X31748Y-13075D01*
X31677Y-13145D01*
X31666Y-13174D01*
X31666Y-12716D01*
X31658Y-12698D01*
X31644Y-12684D01*
X31626Y-12676D01*
X31606Y-12676D01*
X30968Y-12676D01*
X30955Y-12688D01*
X30955Y-13926D01*
X31653Y-13926D01*
X31666Y-13913D01*
X31666Y-13400D01*
X31677Y-13428D01*
X31747Y-13499D01*
X31839Y-13537D01*
X31926Y-13537D01*
X31926Y-13573D01*
X31949Y-13628D01*
X31991Y-13670D01*
X32017Y-13681D01*
X31991Y-13691D01*
X31949Y-13733D01*
X31926Y-13788D01*
X31926Y-13848D01*
X31926Y-13966D01*
X31930Y-13976D01*
X31926Y-13985D01*
X31926Y-14045D01*
X31926Y-14163D01*
X31930Y-14173D01*
X31926Y-14182D01*
X31926Y-14242D01*
X31926Y-14360D01*
X31930Y-14370D01*
X31926Y-14379D01*
X31926Y-14439D01*
X31926Y-14557D01*
X31930Y-14566D01*
X31926Y-14576D01*
X31926Y-14636D01*
X31926Y-14754D01*
X31930Y-14763D01*
X31926Y-14773D01*
X31926Y-14832D01*
X31926Y-14950D01*
X31930Y-14960D01*
X31926Y-14970D01*
X31926Y-15029D01*
X31926Y-15147D01*
X31930Y-15157D01*
X31926Y-15166D01*
X31926Y-15226D01*
X31926Y-15344D01*
X31930Y-15354D01*
X31926Y-15363D01*
X31926Y-15423D01*
X31926Y-15541D01*
X31930Y-15551D01*
X31926Y-15560D01*
X31926Y-15620D01*
X31926Y-15738D01*
X31930Y-15747D01*
X31926Y-15757D01*
X31926Y-15817D01*
X31926Y-15855D01*
X31918Y-15855D01*
X31918Y-16231D01*
X31926Y-16231D01*
X31926Y-16288D01*
X31879Y-16288D01*
X31879Y-16425D01*
X31809Y-16439D01*
X31741Y-16485D01*
X31741Y-16485D01*
X31666Y-16560D01*
X31666Y-15236D01*
X31666Y-14038D01*
X31653Y-14026D01*
X30955Y-14026D01*
X30955Y-15263D01*
X30968Y-15276D01*
X31606Y-15276D01*
X31626Y-15276D01*
X31644Y-15268D01*
X31658Y-15254D01*
X31666Y-15236D01*
X31666Y-16560D01*
X31450Y-16775D01*
X31405Y-16844D01*
X31389Y-16924D01*
X31389Y-17069D01*
X31347Y-17111D01*
X31324Y-17166D01*
X31324Y-17225D01*
X31324Y-17675D01*
X31346Y-17731D01*
X31349Y-17733D01*
X31349Y-17805D01*
X31294Y-17860D01*
X31249Y-17860D01*
X31185Y-17817D01*
X31174Y-17815D01*
X31174Y-17636D01*
X31174Y-17206D01*
X31174Y-17186D01*
X31166Y-17167D01*
X31152Y-17153D01*
X31134Y-17146D01*
X31061Y-17146D01*
X31049Y-17158D01*
X31049Y-17371D01*
X31161Y-17371D01*
X31174Y-17358D01*
X31174Y-17206D01*
X31174Y-17636D01*
X31174Y-17483D01*
X31161Y-17471D01*
X31049Y-17471D01*
X31049Y-17683D01*
X31061Y-17696D01*
X31134Y-17696D01*
X31152Y-17688D01*
X31166Y-17674D01*
X31174Y-17656D01*
X31174Y-17636D01*
X31174Y-17815D01*
X31070Y-17794D01*
X30956Y-17817D01*
X30949Y-17821D01*
X30949Y-17683D01*
X30949Y-17471D01*
X30949Y-17371D01*
X30949Y-17158D01*
X30936Y-17146D01*
X30864Y-17146D01*
X30845Y-17153D01*
X30831Y-17167D01*
X30824Y-17186D01*
X30824Y-17206D01*
X30824Y-17358D01*
X30836Y-17371D01*
X30949Y-17371D01*
X30949Y-17471D01*
X30836Y-17471D01*
X30824Y-17483D01*
X30824Y-17636D01*
X30824Y-17656D01*
X30831Y-17674D01*
X30845Y-17688D01*
X30864Y-17696D01*
X30936Y-17696D01*
X30949Y-17683D01*
X30949Y-17821D01*
X30922Y-17839D01*
X30894Y-17821D01*
X30779Y-17798D01*
X30691Y-17815D01*
X30691Y-17636D01*
X30691Y-17206D01*
X30691Y-17186D01*
X30683Y-17167D01*
X30669Y-17153D01*
X30651Y-17146D01*
X30579Y-17146D01*
X30566Y-17158D01*
X30566Y-17371D01*
X30679Y-17371D01*
X30691Y-17358D01*
X30691Y-17206D01*
X30691Y-17636D01*
X30691Y-17483D01*
X30679Y-17471D01*
X30566Y-17471D01*
X30566Y-17683D01*
X30579Y-17696D01*
X30651Y-17696D01*
X30669Y-17688D01*
X30683Y-17674D01*
X30691Y-17656D01*
X30691Y-17636D01*
X30691Y-17815D01*
X30664Y-17821D01*
X30606Y-17860D01*
X30466Y-17860D01*
X30466Y-17683D01*
X30466Y-17471D01*
X30466Y-17371D01*
X30466Y-17158D01*
X30454Y-17146D01*
X30381Y-17146D01*
X30363Y-17153D01*
X30349Y-17167D01*
X30341Y-17186D01*
X30341Y-17206D01*
X30341Y-17358D01*
X30354Y-17371D01*
X30466Y-17371D01*
X30466Y-17471D01*
X30354Y-17471D01*
X30341Y-17483D01*
X30341Y-17636D01*
X30341Y-17656D01*
X30349Y-17674D01*
X30363Y-17688D01*
X30381Y-17696D01*
X30454Y-17696D01*
X30466Y-17683D01*
X30466Y-17860D01*
X30221Y-17860D01*
X30166Y-17805D01*
X30166Y-17733D01*
X30168Y-17731D01*
X30191Y-17676D01*
X30191Y-17616D01*
X30191Y-17166D01*
X30168Y-17111D01*
X30126Y-17069D01*
X30071Y-17046D01*
X30011Y-17046D01*
X29920Y-17046D01*
X29931Y-17038D01*
X30050Y-16920D01*
X30095Y-16852D01*
X30111Y-16771D01*
X30111Y-16515D01*
X30095Y-16435D01*
X30095Y-16435D01*
X30050Y-16367D01*
X29954Y-16271D01*
X29886Y-16226D01*
X29884Y-16225D01*
X29884Y-16151D01*
X29880Y-16141D01*
X29884Y-16132D01*
X29884Y-16117D01*
X29938Y-16139D01*
X30037Y-16139D01*
X30129Y-16101D01*
X30200Y-16031D01*
X30238Y-15939D01*
X30238Y-15840D01*
X30200Y-15748D01*
X30148Y-15696D01*
X30152Y-15692D01*
X30190Y-15601D01*
X30190Y-15501D01*
X30160Y-15428D01*
X30192Y-15397D01*
X30230Y-15305D01*
X30230Y-15276D01*
X30843Y-15276D01*
X30855Y-15263D01*
X30855Y-14026D01*
X30847Y-14026D01*
X30847Y-13926D01*
X30855Y-13926D01*
X30855Y-12688D01*
X30843Y-12676D01*
X30204Y-12676D01*
X30184Y-12676D01*
X30166Y-12684D01*
X30152Y-12698D01*
X30144Y-12716D01*
X30144Y-12744D01*
X30082Y-12681D01*
X29990Y-12643D01*
X29891Y-12643D01*
X29884Y-12646D01*
X29884Y-12608D01*
X29880Y-12598D01*
X29884Y-12589D01*
X29884Y-12529D01*
X29884Y-12411D01*
X29880Y-12401D01*
X29884Y-12392D01*
X29884Y-12332D01*
X29884Y-12304D01*
X29903Y-12300D01*
X29971Y-12254D01*
X30030Y-12195D01*
X30075Y-12127D01*
X30091Y-12047D01*
X30091Y-11220D01*
X30075Y-11140D01*
X30030Y-11071D01*
X29912Y-10953D01*
X29844Y-10908D01*
X29763Y-10892D01*
X28855Y-10892D01*
X28855Y-10283D01*
X28841Y-10145D01*
X28815Y-10082D01*
X28776Y-10044D01*
X28705Y-10115D01*
X28705Y-9973D01*
X28667Y-9934D01*
X28533Y-9894D01*
X28395Y-9908D01*
X28332Y-9934D01*
X28294Y-9973D01*
X28500Y-10179D01*
X28705Y-9973D01*
X28705Y-10115D01*
X28570Y-10250D01*
X28776Y-10455D01*
X28815Y-10417D01*
X28855Y-10283D01*
X28855Y-10892D01*
X28779Y-10892D01*
X28705Y-10907D01*
X28705Y-10526D01*
X28500Y-10320D01*
X28429Y-10391D01*
X28429Y-10250D01*
X28223Y-10044D01*
X28184Y-10082D01*
X28144Y-10216D01*
X28158Y-10354D01*
X28184Y-10417D01*
X28223Y-10455D01*
X28429Y-10250D01*
X28429Y-10391D01*
X28294Y-10526D01*
X28332Y-10565D01*
X28466Y-10605D01*
X28604Y-10591D01*
X28667Y-10565D01*
X28705Y-10526D01*
X28705Y-10907D01*
X28699Y-10908D01*
X28631Y-10953D01*
X28624Y-10960D01*
X28603Y-10910D01*
X28561Y-10868D01*
X28506Y-10845D01*
X28446Y-10845D01*
X28196Y-10845D01*
X28141Y-10868D01*
X28099Y-10910D01*
X28076Y-10965D01*
X28076Y-11025D01*
X28076Y-11475D01*
X28098Y-11530D01*
X28133Y-11564D01*
X28099Y-11599D01*
X28076Y-11654D01*
X28076Y-11714D01*
X28076Y-12062D01*
X28075Y-12064D01*
X28026Y-12064D01*
X28026Y-11654D01*
X28003Y-11599D01*
X27968Y-11564D01*
X28003Y-11530D01*
X28026Y-11475D01*
X28026Y-11415D01*
X28026Y-10965D01*
X28003Y-10910D01*
X27961Y-10868D01*
X27906Y-10845D01*
X27846Y-10845D01*
X27710Y-10845D01*
X27710Y-10700D01*
X27829Y-10700D01*
X27884Y-10677D01*
X27927Y-10635D01*
X27949Y-10579D01*
X27950Y-10520D01*
X27950Y-9920D01*
X27927Y-9865D01*
X27885Y-9822D01*
X27829Y-9800D01*
X27800Y-9800D01*
X27842Y-9757D01*
X31507Y-9757D01*
X32620Y-10869D01*
X32620Y-11109D01*
X32620Y-11109D01*
G37*
G54D29*
X32620Y-11109D02*
X32047Y-11109D01*
X31991Y-11132D01*
X31949Y-11174D01*
X31926Y-11229D01*
X31926Y-11289D01*
X31926Y-11407D01*
X31949Y-11462D01*
X31991Y-11505D01*
X32017Y-11515D01*
X31991Y-11526D01*
X31949Y-11568D01*
X31926Y-11623D01*
X31926Y-11683D01*
X31926Y-11801D01*
X31930Y-11810D01*
X31926Y-11820D01*
X31926Y-11880D01*
X31926Y-11998D01*
X31930Y-12007D01*
X31926Y-12017D01*
X31926Y-12076D01*
X31926Y-12195D01*
X31930Y-12204D01*
X31926Y-12214D01*
X31926Y-12273D01*
X31926Y-12391D01*
X31930Y-12401D01*
X31926Y-12410D01*
X31926Y-12470D01*
X31926Y-12588D01*
X31930Y-12598D01*
X31926Y-12607D01*
X31926Y-12667D01*
X31926Y-12785D01*
X31930Y-12795D01*
X31926Y-12804D01*
X31926Y-12864D01*
X31926Y-12982D01*
X31930Y-12992D01*
X31926Y-13001D01*
X31926Y-13037D01*
X31840Y-13037D01*
X31748Y-13075D01*
X31677Y-13145D01*
X31666Y-13174D01*
X31666Y-12716D01*
X31658Y-12698D01*
X31644Y-12684D01*
X31626Y-12676D01*
X31606Y-12676D01*
X30968Y-12676D01*
X30955Y-12688D01*
X30955Y-13926D01*
X31653Y-13926D01*
X31666Y-13913D01*
X31666Y-13400D01*
X31677Y-13428D01*
X31747Y-13499D01*
X31839Y-13537D01*
X31926Y-13537D01*
X31926Y-13573D01*
X31949Y-13628D01*
X31991Y-13670D01*
X32017Y-13681D01*
X31991Y-13691D01*
X31949Y-13733D01*
X31926Y-13788D01*
X31926Y-13848D01*
X31926Y-13966D01*
X31930Y-13976D01*
X31926Y-13985D01*
X31926Y-14045D01*
X31926Y-14163D01*
X31930Y-14173D01*
X31926Y-14182D01*
X31926Y-14242D01*
X31926Y-14360D01*
X31930Y-14370D01*
X31926Y-14379D01*
X31926Y-14439D01*
X31926Y-14557D01*
X31930Y-14566D01*
X31926Y-14576D01*
X31926Y-14636D01*
X31926Y-14754D01*
X31930Y-14763D01*
X31926Y-14773D01*
X31926Y-14832D01*
X31926Y-14950D01*
X31930Y-14960D01*
X31926Y-14970D01*
X31926Y-15029D01*
X31926Y-15147D01*
X31930Y-15157D01*
X31926Y-15166D01*
X31926Y-15226D01*
X31926Y-15344D01*
X31930Y-15354D01*
X31926Y-15363D01*
X31926Y-15423D01*
X31926Y-15541D01*
X31930Y-15551D01*
X31926Y-15560D01*
X31926Y-15620D01*
X31926Y-15738D01*
X31930Y-15747D01*
X31926Y-15757D01*
X31926Y-15817D01*
X31926Y-15855D01*
X31918Y-15855D01*
X31918Y-16231D01*
X31926Y-16231D01*
X31926Y-16288D01*
X31879Y-16288D01*
X31879Y-16425D01*
X31809Y-16439D01*
X31741Y-16485D01*
X31741Y-16485D01*
X31666Y-16560D01*
X31666Y-15236D01*
X31666Y-14038D01*
X31653Y-14026D01*
X30955Y-14026D01*
X30955Y-15263D01*
X30968Y-15276D01*
X31606Y-15276D01*
X31626Y-15276D01*
X31644Y-15268D01*
X31658Y-15254D01*
X31666Y-15236D01*
X31666Y-16560D01*
X31450Y-16775D01*
X31405Y-16844D01*
X31389Y-16924D01*
X31389Y-17069D01*
X31347Y-17111D01*
X31324Y-17166D01*
X31324Y-17225D01*
X31324Y-17675D01*
X31346Y-17731D01*
X31349Y-17733D01*
X31349Y-17805D01*
X31294Y-17860D01*
X31249Y-17860D01*
X31185Y-17817D01*
X31174Y-17815D01*
X31174Y-17636D01*
X31174Y-17206D01*
X31174Y-17186D01*
X31166Y-17167D01*
X31152Y-17153D01*
X31134Y-17146D01*
X31061Y-17146D01*
X31049Y-17158D01*
X31049Y-17371D01*
X31161Y-17371D01*
X31174Y-17358D01*
X31174Y-17206D01*
X31174Y-17636D01*
X31174Y-17483D01*
X31161Y-17471D01*
X31049Y-17471D01*
X31049Y-17683D01*
X31061Y-17696D01*
X31134Y-17696D01*
X31152Y-17688D01*
X31166Y-17674D01*
X31174Y-17656D01*
X31174Y-17636D01*
X31174Y-17815D01*
X31070Y-17794D01*
X30956Y-17817D01*
X30949Y-17821D01*
X30949Y-17683D01*
X30949Y-17471D01*
X30949Y-17371D01*
X30949Y-17158D01*
X30936Y-17146D01*
X30864Y-17146D01*
X30845Y-17153D01*
X30831Y-17167D01*
X30824Y-17186D01*
X30824Y-17206D01*
X30824Y-17358D01*
X30836Y-17371D01*
X30949Y-17371D01*
X30949Y-17471D01*
X30836Y-17471D01*
X30824Y-17483D01*
X30824Y-17636D01*
X30824Y-17656D01*
X30831Y-17674D01*
X30845Y-17688D01*
X30864Y-17696D01*
X30936Y-17696D01*
X30949Y-17683D01*
X30949Y-17821D01*
X30922Y-17839D01*
X30894Y-17821D01*
X30779Y-17798D01*
X30691Y-17815D01*
X30691Y-17636D01*
X30691Y-17206D01*
X30691Y-17186D01*
X30683Y-17167D01*
X30669Y-17153D01*
X30651Y-17146D01*
X30579Y-17146D01*
X30566Y-17158D01*
X30566Y-17371D01*
X30679Y-17371D01*
X30691Y-17358D01*
X30691Y-17206D01*
X30691Y-17636D01*
X30691Y-17483D01*
X30679Y-17471D01*
X30566Y-17471D01*
X30566Y-17683D01*
X30579Y-17696D01*
X30651Y-17696D01*
X30669Y-17688D01*
X30683Y-17674D01*
X30691Y-17656D01*
X30691Y-17636D01*
X30691Y-17815D01*
X30664Y-17821D01*
X30606Y-17860D01*
X30466Y-17860D01*
X30466Y-17683D01*
X30466Y-17471D01*
X30466Y-17371D01*
X30466Y-17158D01*
X30454Y-17146D01*
X30381Y-17146D01*
X30363Y-17153D01*
X30349Y-17167D01*
X30341Y-17186D01*
X30341Y-17206D01*
X30341Y-17358D01*
X30354Y-17371D01*
X30466Y-17371D01*
X30466Y-17471D01*
X30354Y-17471D01*
X30341Y-17483D01*
X30341Y-17636D01*
X30341Y-17656D01*
X30349Y-17674D01*
X30363Y-17688D01*
X30381Y-17696D01*
X30454Y-17696D01*
X30466Y-17683D01*
X30466Y-17860D01*
X30221Y-17860D01*
X30166Y-17805D01*
X30166Y-17733D01*
X30168Y-17731D01*
X30191Y-17676D01*
X30191Y-17616D01*
X30191Y-17166D01*
X30168Y-17111D01*
X30126Y-17069D01*
X30071Y-17046D01*
X30011Y-17046D01*
X29920Y-17046D01*
X29931Y-17038D01*
X30050Y-16920D01*
X30095Y-16852D01*
X30111Y-16771D01*
X30111Y-16515D01*
X30095Y-16435D01*
X30095Y-16435D01*
X30050Y-16367D01*
X29954Y-16271D01*
X29886Y-16226D01*
X29884Y-16225D01*
X29884Y-16151D01*
X29880Y-16141D01*
X29884Y-16132D01*
X29884Y-16117D01*
X29938Y-16139D01*
X30037Y-16139D01*
X30129Y-16101D01*
X30200Y-16031D01*
X30238Y-15939D01*
X30238Y-15840D01*
X30200Y-15748D01*
X30148Y-15696D01*
X30152Y-15692D01*
X30190Y-15601D01*
X30190Y-15501D01*
X30160Y-15428D01*
X30192Y-15397D01*
X30230Y-15305D01*
X30230Y-15276D01*
X30843Y-15276D01*
X30855Y-15263D01*
X30855Y-14026D01*
X30847Y-14026D01*
X30847Y-13926D01*
X30855Y-13926D01*
X30855Y-12688D01*
X30843Y-12676D01*
X30204Y-12676D01*
X30184Y-12676D01*
X30166Y-12684D01*
X30152Y-12698D01*
X30144Y-12716D01*
X30144Y-12744D01*
X30082Y-12681D01*
X29990Y-12643D01*
X29891Y-12643D01*
X29884Y-12646D01*
X29884Y-12608D01*
X29880Y-12598D01*
X29884Y-12589D01*
X29884Y-12529D01*
X29884Y-12411D01*
X29880Y-12401D01*
X29884Y-12392D01*
X29884Y-12332D01*
X29884Y-12304D01*
X29903Y-12300D01*
X29971Y-12254D01*
X30030Y-12195D01*
X30075Y-12127D01*
X30091Y-12047D01*
X30091Y-11220D01*
X30075Y-11140D01*
X30030Y-11071D01*
X29912Y-10953D01*
X29844Y-10908D01*
X29763Y-10892D01*
X28855Y-10892D01*
X28855Y-10283D01*
X28841Y-10145D01*
X28815Y-10082D01*
X28776Y-10044D01*
X28705Y-10115D01*
X28705Y-9973D01*
X28667Y-9934D01*
X28533Y-9894D01*
X28395Y-9908D01*
X28332Y-9934D01*
X28294Y-9973D01*
X28500Y-10179D01*
X28705Y-9973D01*
X28705Y-10115D01*
X28570Y-10250D01*
X28776Y-10455D01*
X28815Y-10417D01*
X28855Y-10283D01*
X28855Y-10892D01*
X28779Y-10892D01*
X28705Y-10907D01*
X28705Y-10526D01*
X28500Y-10320D01*
X28429Y-10391D01*
X28429Y-10250D01*
X28223Y-10044D01*
X28184Y-10082D01*
X28144Y-10216D01*
X28158Y-10354D01*
X28184Y-10417D01*
X28223Y-10455D01*
X28429Y-10250D01*
X28429Y-10391D01*
X28294Y-10526D01*
X28332Y-10565D01*
X28466Y-10605D01*
X28604Y-10591D01*
X28667Y-10565D01*
X28705Y-10526D01*
X28705Y-10907D01*
X28699Y-10908D01*
X28631Y-10953D01*
X28624Y-10960D01*
X28603Y-10910D01*
X28561Y-10868D01*
X28506Y-10845D01*
X28446Y-10845D01*
X28196Y-10845D01*
X28141Y-10868D01*
X28099Y-10910D01*
X28076Y-10965D01*
X28076Y-11025D01*
X28076Y-11475D01*
X28098Y-11530D01*
X28133Y-11564D01*
X28099Y-11599D01*
X28076Y-11654D01*
X28076Y-11714D01*
X28076Y-12062D01*
X28075Y-12064D01*
X28026Y-12064D01*
X28026Y-11654D01*
X28003Y-11599D01*
X27968Y-11564D01*
X28003Y-11530D01*
X28026Y-11475D01*
X28026Y-11415D01*
X28026Y-10965D01*
X28003Y-10910D01*
X27961Y-10868D01*
X27906Y-10845D01*
X27846Y-10845D01*
X27710Y-10845D01*
X27710Y-10700D01*
X27829Y-10700D01*
X27884Y-10677D01*
X27927Y-10635D01*
X27949Y-10579D01*
X27950Y-10520D01*
X27950Y-9920D01*
X27927Y-9865D01*
X27885Y-9822D01*
X27829Y-9800D01*
X27800Y-9800D01*
X27842Y-9757D01*
X31507Y-9757D01*
X32620Y-10869D01*
X32620Y-11109D01*
G54D10*
G36*
X33260Y-13357D02*
X32949Y-13667D01*
X32835Y-13667D01*
X32887Y-13632D01*
X33260Y-13260D01*
X33260Y-13357D01*
X33260Y-13357D01*
G37*
G54D29*
X33260Y-13357D02*
X32949Y-13667D01*
X32835Y-13667D01*
X32887Y-13632D01*
X33260Y-13260D01*
X33260Y-13357D01*
G54D10*
G36*
X34137Y-18159D02*
X34103Y-18193D01*
X34080Y-18248D01*
X34080Y-18308D01*
X34080Y-18758D01*
X34102Y-18813D01*
X34136Y-18847D01*
X34083Y-18847D01*
X34083Y-19349D01*
X34030Y-19403D01*
X34030Y-19388D01*
X34030Y-18938D01*
X34007Y-18883D01*
X33972Y-18848D01*
X34007Y-18814D01*
X34030Y-18758D01*
X34030Y-18699D01*
X34030Y-18249D01*
X34007Y-18194D01*
X33965Y-18151D01*
X33930Y-18137D01*
X33930Y-18030D01*
X33930Y-17877D01*
X33917Y-17864D01*
X33805Y-17864D01*
X33805Y-18077D01*
X33817Y-18089D01*
X33890Y-18089D01*
X33908Y-18082D01*
X33922Y-18068D01*
X33930Y-18049D01*
X33930Y-18030D01*
X33930Y-18137D01*
X33910Y-18128D01*
X33850Y-18128D01*
X33627Y-18128D01*
X33597Y-18098D01*
X33597Y-18077D01*
X33601Y-18082D01*
X33620Y-18089D01*
X33692Y-18089D01*
X33705Y-18077D01*
X33705Y-17864D01*
X33705Y-17764D01*
X33705Y-17552D01*
X33692Y-17539D01*
X33620Y-17539D01*
X33601Y-17547D01*
X33587Y-17561D01*
X33580Y-17579D01*
X33580Y-17599D01*
X33580Y-17752D01*
X33592Y-17764D01*
X33705Y-17764D01*
X33705Y-17864D01*
X33592Y-17864D01*
X33589Y-17868D01*
X33583Y-17840D01*
X33544Y-17782D01*
X33544Y-17782D01*
X33374Y-17612D01*
X33374Y-17106D01*
X33374Y-17106D01*
X33360Y-17037D01*
X33360Y-17037D01*
X33347Y-17018D01*
X33343Y-17011D01*
X33480Y-17147D01*
X33480Y-17380D01*
X33502Y-17435D01*
X33545Y-17478D01*
X33600Y-17500D01*
X33659Y-17501D01*
X33833Y-17501D01*
X33872Y-17539D01*
X33817Y-17539D01*
X33805Y-17552D01*
X33805Y-17764D01*
X33917Y-17764D01*
X33930Y-17752D01*
X33930Y-17599D01*
X33930Y-17597D01*
X34080Y-17747D01*
X34080Y-18069D01*
X34102Y-18124D01*
X34137Y-18159D01*
X34137Y-18159D01*
G37*
G54D29*
X34137Y-18159D02*
X34103Y-18193D01*
X34080Y-18248D01*
X34080Y-18308D01*
X34080Y-18758D01*
X34102Y-18813D01*
X34136Y-18847D01*
X34083Y-18847D01*
X34083Y-19349D01*
X34030Y-19403D01*
X34030Y-19388D01*
X34030Y-18938D01*
X34007Y-18883D01*
X33972Y-18848D01*
X34007Y-18814D01*
X34030Y-18758D01*
X34030Y-18699D01*
X34030Y-18249D01*
X34007Y-18194D01*
X33965Y-18151D01*
X33930Y-18137D01*
X33930Y-18030D01*
X33930Y-17877D01*
X33917Y-17864D01*
X33805Y-17864D01*
X33805Y-18077D01*
X33817Y-18089D01*
X33890Y-18089D01*
X33908Y-18082D01*
X33922Y-18068D01*
X33930Y-18049D01*
X33930Y-18030D01*
X33930Y-18137D01*
X33910Y-18128D01*
X33850Y-18128D01*
X33627Y-18128D01*
X33597Y-18098D01*
X33597Y-18077D01*
X33601Y-18082D01*
X33620Y-18089D01*
X33692Y-18089D01*
X33705Y-18077D01*
X33705Y-17864D01*
X33705Y-17764D01*
X33705Y-17552D01*
X33692Y-17539D01*
X33620Y-17539D01*
X33601Y-17547D01*
X33587Y-17561D01*
X33580Y-17579D01*
X33580Y-17599D01*
X33580Y-17752D01*
X33592Y-17764D01*
X33705Y-17764D01*
X33705Y-17864D01*
X33592Y-17864D01*
X33589Y-17868D01*
X33583Y-17840D01*
X33544Y-17782D01*
X33544Y-17782D01*
X33374Y-17612D01*
X33374Y-17106D01*
X33374Y-17106D01*
X33360Y-17037D01*
X33360Y-17037D01*
X33347Y-17018D01*
X33343Y-17011D01*
X33480Y-17147D01*
X33480Y-17380D01*
X33502Y-17435D01*
X33545Y-17478D01*
X33600Y-17500D01*
X33659Y-17501D01*
X33833Y-17501D01*
X33872Y-17539D01*
X33817Y-17539D01*
X33805Y-17552D01*
X33805Y-17764D01*
X33917Y-17764D01*
X33930Y-17752D01*
X33930Y-17599D01*
X33930Y-17597D01*
X34080Y-17747D01*
X34080Y-18069D01*
X34102Y-18124D01*
X34137Y-18159D01*
G54D10*
G36*
X36010Y-10411D02*
X35994Y-10426D01*
X35972Y-10481D01*
X35972Y-10541D01*
X35972Y-11935D01*
X35967Y-11924D01*
X35925Y-11882D01*
X35874Y-11861D01*
X35882Y-11853D01*
X35890Y-11834D01*
X35890Y-11499D01*
X35890Y-11334D01*
X35890Y-10999D01*
X35890Y-10834D01*
X35890Y-10499D01*
X35882Y-10481D01*
X35868Y-10467D01*
X35850Y-10459D01*
X35830Y-10459D01*
X35822Y-10459D01*
X35822Y-10035D01*
X35822Y-9255D01*
X35822Y-9235D01*
X35814Y-9217D01*
X35800Y-9203D01*
X35781Y-9195D01*
X35534Y-9195D01*
X35522Y-9208D01*
X35522Y-9595D01*
X35809Y-9595D01*
X35822Y-9583D01*
X35822Y-9255D01*
X35822Y-10035D01*
X35822Y-9708D01*
X35809Y-9695D01*
X35522Y-9695D01*
X35522Y-10083D01*
X35534Y-10095D01*
X35781Y-10095D01*
X35800Y-10088D01*
X35814Y-10074D01*
X35822Y-10055D01*
X35822Y-10035D01*
X35822Y-10459D01*
X35607Y-10459D01*
X35595Y-10472D01*
X35595Y-10617D01*
X35878Y-10617D01*
X35890Y-10604D01*
X35890Y-10499D01*
X35890Y-10834D01*
X35890Y-10729D01*
X35878Y-10717D01*
X35595Y-10717D01*
X35595Y-10862D01*
X35607Y-10874D01*
X35830Y-10874D01*
X35850Y-10874D01*
X35868Y-10867D01*
X35882Y-10853D01*
X35890Y-10834D01*
X35890Y-10999D01*
X35882Y-10981D01*
X35868Y-10967D01*
X35850Y-10959D01*
X35830Y-10959D01*
X35607Y-10959D01*
X35595Y-10972D01*
X35595Y-11117D01*
X35878Y-11117D01*
X35890Y-11104D01*
X35890Y-10999D01*
X35890Y-11334D01*
X35890Y-11229D01*
X35878Y-11217D01*
X35595Y-11217D01*
X35595Y-11362D01*
X35607Y-11374D01*
X35830Y-11374D01*
X35850Y-11374D01*
X35868Y-11367D01*
X35882Y-11353D01*
X35890Y-11334D01*
X35890Y-11499D01*
X35882Y-11481D01*
X35868Y-11467D01*
X35850Y-11459D01*
X35830Y-11459D01*
X35607Y-11459D01*
X35595Y-11472D01*
X35595Y-11617D01*
X35878Y-11617D01*
X35890Y-11604D01*
X35890Y-11499D01*
X35890Y-11834D01*
X35890Y-11729D01*
X35878Y-11717D01*
X35595Y-11717D01*
X35595Y-11725D01*
X35495Y-11725D01*
X35495Y-11717D01*
X35495Y-11617D01*
X35495Y-11472D01*
X35495Y-11362D01*
X35495Y-11217D01*
X35495Y-11117D01*
X35495Y-10972D01*
X35495Y-10862D01*
X35495Y-10717D01*
X35495Y-10617D01*
X35495Y-10472D01*
X35482Y-10459D01*
X35422Y-10459D01*
X35422Y-10083D01*
X35422Y-9695D01*
X35422Y-9595D01*
X35422Y-9208D01*
X35409Y-9195D01*
X35162Y-9195D01*
X35143Y-9203D01*
X35129Y-9217D01*
X35122Y-9235D01*
X35122Y-9255D01*
X35122Y-9583D01*
X35134Y-9595D01*
X35422Y-9595D01*
X35422Y-9695D01*
X35134Y-9695D01*
X35122Y-9708D01*
X35122Y-10035D01*
X35122Y-10055D01*
X35129Y-10074D01*
X35143Y-10088D01*
X35162Y-10095D01*
X35409Y-10095D01*
X35422Y-10083D01*
X35422Y-10459D01*
X35259Y-10459D01*
X35240Y-10459D01*
X35221Y-10467D01*
X35207Y-10481D01*
X35199Y-10499D01*
X35200Y-10604D01*
X35212Y-10617D01*
X35495Y-10617D01*
X35495Y-10717D01*
X35212Y-10717D01*
X35200Y-10729D01*
X35199Y-10834D01*
X35207Y-10853D01*
X35221Y-10867D01*
X35240Y-10874D01*
X35259Y-10874D01*
X35482Y-10874D01*
X35495Y-10862D01*
X35495Y-10972D01*
X35482Y-10959D01*
X35259Y-10959D01*
X35240Y-10959D01*
X35221Y-10967D01*
X35207Y-10981D01*
X35199Y-10999D01*
X35200Y-11104D01*
X35212Y-11117D01*
X35495Y-11117D01*
X35495Y-11217D01*
X35212Y-11217D01*
X35200Y-11229D01*
X35199Y-11334D01*
X35207Y-11353D01*
X35221Y-11367D01*
X35240Y-11374D01*
X35259Y-11374D01*
X35482Y-11374D01*
X35495Y-11362D01*
X35495Y-11472D01*
X35482Y-11459D01*
X35259Y-11459D01*
X35240Y-11459D01*
X35221Y-11467D01*
X35207Y-11481D01*
X35199Y-11499D01*
X35200Y-11604D01*
X35212Y-11617D01*
X35495Y-11617D01*
X35495Y-11717D01*
X35212Y-11717D01*
X35200Y-11729D01*
X35199Y-11834D01*
X35207Y-11853D01*
X35216Y-11861D01*
X35165Y-11882D01*
X35130Y-11917D01*
X34892Y-11917D01*
X34797Y-11936D01*
X34715Y-11990D01*
X34609Y-12096D01*
X34607Y-12091D01*
X34572Y-12057D01*
X34607Y-12022D01*
X34630Y-11967D01*
X34630Y-11907D01*
X34630Y-11457D01*
X34607Y-11402D01*
X34572Y-11368D01*
X34607Y-11333D01*
X34630Y-11278D01*
X34630Y-11218D01*
X34630Y-10768D01*
X34607Y-10713D01*
X34565Y-10671D01*
X34510Y-10648D01*
X34450Y-10648D01*
X34200Y-10648D01*
X34145Y-10671D01*
X34103Y-10713D01*
X34080Y-10768D01*
X34080Y-10828D01*
X34080Y-11278D01*
X34102Y-11333D01*
X34137Y-11368D01*
X34103Y-11402D01*
X34080Y-11457D01*
X34080Y-11517D01*
X34080Y-11967D01*
X34102Y-12022D01*
X34137Y-12057D01*
X34103Y-12091D01*
X34080Y-12146D01*
X34080Y-12206D01*
X34080Y-12656D01*
X34102Y-12711D01*
X34137Y-12746D01*
X34103Y-12780D01*
X34080Y-12835D01*
X34080Y-12895D01*
X34080Y-13345D01*
X34102Y-13400D01*
X34137Y-13435D01*
X34103Y-13469D01*
X34080Y-13524D01*
X34080Y-13584D01*
X34080Y-14034D01*
X34096Y-14074D01*
X34080Y-14115D01*
X34080Y-14174D01*
X34080Y-14624D01*
X34102Y-14679D01*
X34137Y-14714D01*
X34103Y-14748D01*
X34080Y-14804D01*
X34080Y-14863D01*
X34080Y-15313D01*
X34102Y-15368D01*
X34137Y-15403D01*
X34103Y-15437D01*
X34080Y-15493D01*
X34080Y-15552D01*
X34080Y-16002D01*
X34102Y-16057D01*
X34137Y-16092D01*
X34103Y-16126D01*
X34080Y-16182D01*
X34080Y-16241D01*
X34080Y-16691D01*
X34102Y-16746D01*
X34137Y-16781D01*
X34103Y-16815D01*
X34080Y-16871D01*
X34080Y-16930D01*
X34080Y-17153D01*
X34030Y-17104D01*
X34030Y-16871D01*
X34007Y-16816D01*
X33972Y-16781D01*
X34007Y-16747D01*
X34030Y-16691D01*
X34030Y-16632D01*
X34030Y-16182D01*
X34007Y-16127D01*
X33972Y-16092D01*
X34007Y-16058D01*
X34030Y-16002D01*
X34030Y-15943D01*
X34030Y-15493D01*
X34007Y-15438D01*
X33972Y-15403D01*
X34007Y-15369D01*
X34030Y-15314D01*
X34030Y-15254D01*
X34030Y-14804D01*
X34007Y-14749D01*
X33972Y-14714D01*
X34007Y-14680D01*
X34030Y-14625D01*
X34030Y-14565D01*
X34030Y-14115D01*
X34013Y-14074D01*
X34030Y-14034D01*
X34030Y-13974D01*
X34030Y-13524D01*
X34007Y-13469D01*
X33972Y-13435D01*
X34007Y-13400D01*
X34030Y-13345D01*
X34030Y-13285D01*
X34030Y-12835D01*
X34007Y-12780D01*
X33972Y-12746D01*
X34007Y-12711D01*
X34030Y-12656D01*
X34030Y-12596D01*
X34030Y-12146D01*
X34007Y-12091D01*
X33972Y-12057D01*
X34007Y-12022D01*
X34030Y-11967D01*
X34030Y-11907D01*
X34030Y-11457D01*
X34007Y-11402D01*
X33972Y-11368D01*
X34007Y-11333D01*
X34030Y-11278D01*
X34030Y-11218D01*
X34030Y-10768D01*
X34007Y-10713D01*
X33965Y-10671D01*
X33910Y-10648D01*
X33850Y-10648D01*
X33600Y-10648D01*
X33545Y-10671D01*
X33503Y-10713D01*
X33480Y-10768D01*
X33480Y-10813D01*
X33316Y-10813D01*
X33236Y-10829D01*
X33167Y-10875D01*
X33167Y-10875D01*
X33041Y-11001D01*
X33041Y-11001D01*
X33040Y-11003D01*
X33040Y-10782D01*
X33024Y-10702D01*
X32978Y-10634D01*
X31742Y-9398D01*
X31674Y-9353D01*
X31594Y-9337D01*
X27755Y-9337D01*
X27755Y-9337D01*
X27739Y-9340D01*
X27675Y-9353D01*
X27607Y-9398D01*
X27607Y-9398D01*
X27351Y-9654D01*
X27305Y-9722D01*
X27290Y-9799D01*
X27170Y-9799D01*
X27115Y-9822D01*
X27072Y-9864D01*
X27050Y-9920D01*
X27049Y-9979D01*
X27049Y-10571D01*
X26911Y-10433D01*
X26949Y-10339D01*
X26950Y-10160D01*
X26881Y-9995D01*
X26755Y-9868D01*
X26589Y-9800D01*
X26410Y-9799D01*
X26245Y-9868D01*
X26118Y-9994D01*
X26050Y-10160D01*
X26049Y-10339D01*
X26118Y-10504D01*
X26244Y-10631D01*
X26410Y-10699D01*
X26584Y-10700D01*
X26751Y-10867D01*
X26589Y-10800D01*
X26410Y-10799D01*
X26245Y-10868D01*
X26118Y-10994D01*
X26050Y-11160D01*
X26049Y-11339D01*
X26118Y-11504D01*
X26244Y-11631D01*
X26410Y-11699D01*
X26589Y-11700D01*
X26754Y-11631D01*
X26881Y-11505D01*
X26949Y-11339D01*
X26950Y-11160D01*
X26883Y-10999D01*
X27034Y-11149D01*
X27034Y-12047D01*
X27050Y-12127D01*
X27095Y-12195D01*
X27292Y-12392D01*
X27360Y-12438D01*
X27440Y-12454D01*
X27521Y-12438D01*
X27542Y-12424D01*
X27576Y-12424D01*
X27576Y-12535D01*
X27588Y-12548D01*
X27701Y-12548D01*
X27701Y-12540D01*
X27801Y-12540D01*
X27801Y-12548D01*
X27913Y-12548D01*
X27926Y-12535D01*
X27926Y-12424D01*
X28076Y-12424D01*
X28076Y-12853D01*
X28098Y-12908D01*
X28133Y-12942D01*
X28099Y-12977D01*
X28076Y-13032D01*
X28076Y-13092D01*
X28076Y-13542D01*
X28098Y-13597D01*
X28133Y-13631D01*
X28099Y-13666D01*
X28076Y-13721D01*
X28076Y-13781D01*
X28076Y-14231D01*
X28098Y-14286D01*
X28133Y-14320D01*
X28099Y-14355D01*
X28076Y-14410D01*
X28076Y-14470D01*
X28076Y-14567D01*
X28026Y-14617D01*
X28026Y-14171D01*
X28026Y-13721D01*
X28003Y-13666D01*
X27961Y-13624D01*
X27926Y-13609D01*
X27926Y-13502D01*
X27926Y-13072D01*
X27926Y-12813D01*
X27926Y-12660D01*
X27913Y-12648D01*
X27801Y-12648D01*
X27801Y-12860D01*
X27813Y-12873D01*
X27886Y-12873D01*
X27904Y-12865D01*
X27918Y-12851D01*
X27926Y-12833D01*
X27926Y-12813D01*
X27926Y-13072D01*
X27926Y-13052D01*
X27918Y-13034D01*
X27904Y-13019D01*
X27886Y-13012D01*
X27813Y-13012D01*
X27801Y-13024D01*
X27801Y-13237D01*
X27913Y-13237D01*
X27926Y-13224D01*
X27926Y-13072D01*
X27926Y-13502D01*
X27926Y-13349D01*
X27913Y-13337D01*
X27801Y-13337D01*
X27801Y-13549D01*
X27813Y-13562D01*
X27886Y-13562D01*
X27904Y-13554D01*
X27918Y-13540D01*
X27926Y-13522D01*
X27926Y-13502D01*
X27926Y-13609D01*
X27906Y-13601D01*
X27846Y-13601D01*
X27701Y-13601D01*
X27701Y-13549D01*
X27701Y-13337D01*
X27701Y-13237D01*
X27701Y-13024D01*
X27701Y-12860D01*
X27701Y-12648D01*
X27588Y-12648D01*
X27576Y-12660D01*
X27576Y-12813D01*
X27576Y-12833D01*
X27583Y-12851D01*
X27597Y-12865D01*
X27616Y-12873D01*
X27688Y-12873D01*
X27701Y-12860D01*
X27701Y-13024D01*
X27688Y-13012D01*
X27616Y-13012D01*
X27597Y-13019D01*
X27583Y-13034D01*
X27576Y-13052D01*
X27576Y-13072D01*
X27576Y-13224D01*
X27588Y-13237D01*
X27701Y-13237D01*
X27701Y-13337D01*
X27588Y-13337D01*
X27576Y-13349D01*
X27576Y-13502D01*
X27576Y-13522D01*
X27583Y-13540D01*
X27597Y-13554D01*
X27616Y-13562D01*
X27688Y-13562D01*
X27701Y-13549D01*
X27701Y-13601D01*
X27596Y-13601D01*
X27541Y-13624D01*
X27499Y-13666D01*
X27476Y-13721D01*
X27476Y-13781D01*
X27476Y-14231D01*
X27498Y-14286D01*
X27541Y-14328D01*
X27596Y-14351D01*
X27655Y-14351D01*
X27905Y-14351D01*
X27961Y-14328D01*
X28003Y-14286D01*
X28026Y-14231D01*
X28026Y-14171D01*
X28026Y-14617D01*
X27926Y-14717D01*
X27926Y-14450D01*
X27926Y-14430D01*
X27918Y-14411D01*
X27904Y-14397D01*
X27886Y-14390D01*
X27813Y-14390D01*
X27801Y-14402D01*
X27801Y-14615D01*
X27913Y-14615D01*
X27926Y-14602D01*
X27926Y-14450D01*
X27926Y-14717D01*
X27921Y-14722D01*
X27913Y-14715D01*
X27801Y-14715D01*
X27801Y-14927D01*
X27813Y-14940D01*
X27841Y-14940D01*
X27841Y-15079D01*
X27813Y-15079D01*
X27801Y-15091D01*
X27801Y-15304D01*
X27809Y-15304D01*
X27809Y-15404D01*
X27801Y-15404D01*
X27801Y-15616D01*
X27813Y-15629D01*
X27841Y-15629D01*
X27841Y-15668D01*
X27701Y-15668D01*
X27701Y-15616D01*
X27701Y-15404D01*
X27701Y-15304D01*
X27701Y-15091D01*
X27701Y-14927D01*
X27701Y-14715D01*
X27701Y-14615D01*
X27701Y-14402D01*
X27688Y-14390D01*
X27616Y-14390D01*
X27597Y-14397D01*
X27583Y-14411D01*
X27576Y-14430D01*
X27576Y-14450D01*
X27576Y-14602D01*
X27588Y-14615D01*
X27701Y-14615D01*
X27701Y-14715D01*
X27588Y-14715D01*
X27576Y-14727D01*
X27576Y-14880D01*
X27576Y-14900D01*
X27583Y-14918D01*
X27597Y-14932D01*
X27616Y-14940D01*
X27688Y-14940D01*
X27701Y-14927D01*
X27701Y-15091D01*
X27688Y-15079D01*
X27616Y-15079D01*
X27597Y-15086D01*
X27583Y-15100D01*
X27576Y-15119D01*
X27576Y-15139D01*
X27576Y-15291D01*
X27588Y-15304D01*
X27701Y-15304D01*
X27701Y-15404D01*
X27588Y-15404D01*
X27576Y-15416D01*
X27576Y-15569D01*
X27576Y-15589D01*
X27583Y-15607D01*
X27597Y-15621D01*
X27616Y-15629D01*
X27688Y-15629D01*
X27701Y-15616D01*
X27701Y-15668D01*
X27596Y-15668D01*
X27541Y-15691D01*
X27499Y-15733D01*
X27476Y-15788D01*
X27476Y-15848D01*
X27476Y-15951D01*
X26950Y-16477D01*
X26950Y-16160D01*
X26950Y-15160D01*
X26950Y-14160D01*
X26950Y-12160D01*
X26881Y-11995D01*
X26755Y-11868D01*
X26589Y-11800D01*
X26410Y-11799D01*
X26245Y-11868D01*
X26118Y-11994D01*
X26050Y-12160D01*
X26049Y-12339D01*
X26118Y-12504D01*
X26244Y-12631D01*
X26410Y-12699D01*
X26589Y-12700D01*
X26754Y-12631D01*
X26881Y-12505D01*
X26949Y-12339D01*
X26950Y-12160D01*
X26950Y-14160D01*
X26881Y-13995D01*
X26855Y-13968D01*
X26855Y-13283D01*
X26841Y-13145D01*
X26815Y-13082D01*
X26776Y-13044D01*
X26705Y-13115D01*
X26705Y-12973D01*
X26667Y-12934D01*
X26533Y-12894D01*
X26395Y-12908D01*
X26332Y-12934D01*
X26294Y-12973D01*
X26500Y-13179D01*
X26705Y-12973D01*
X26705Y-13115D01*
X26570Y-13250D01*
X26776Y-13455D01*
X26815Y-13417D01*
X26855Y-13283D01*
X26855Y-13968D01*
X26755Y-13868D01*
X26705Y-13848D01*
X26705Y-13526D01*
X26500Y-13320D01*
X26429Y-13391D01*
X26429Y-13250D01*
X26223Y-13044D01*
X26184Y-13082D01*
X26144Y-13216D01*
X26158Y-13354D01*
X26184Y-13417D01*
X26223Y-13455D01*
X26429Y-13250D01*
X26429Y-13391D01*
X26294Y-13526D01*
X26332Y-13565D01*
X26466Y-13605D01*
X26604Y-13591D01*
X26667Y-13565D01*
X26705Y-13526D01*
X26705Y-13848D01*
X26589Y-13800D01*
X26410Y-13799D01*
X26245Y-13868D01*
X26118Y-13994D01*
X26050Y-14160D01*
X26049Y-14339D01*
X26118Y-14504D01*
X26244Y-14631D01*
X26410Y-14699D01*
X26589Y-14700D01*
X26754Y-14631D01*
X26881Y-14505D01*
X26949Y-14339D01*
X26950Y-14160D01*
X26950Y-15160D01*
X26881Y-14995D01*
X26755Y-14868D01*
X26589Y-14800D01*
X26410Y-14799D01*
X26245Y-14868D01*
X26118Y-14994D01*
X26050Y-15160D01*
X26049Y-15339D01*
X26118Y-15504D01*
X26244Y-15631D01*
X26410Y-15699D01*
X26589Y-15700D01*
X26754Y-15631D01*
X26881Y-15505D01*
X26949Y-15339D01*
X26950Y-15160D01*
X26950Y-16160D01*
X26881Y-15995D01*
X26755Y-15868D01*
X26589Y-15800D01*
X26410Y-15799D01*
X26245Y-15868D01*
X26118Y-15994D01*
X26050Y-16160D01*
X26049Y-16339D01*
X26118Y-16504D01*
X26244Y-16631D01*
X26410Y-16699D01*
X26589Y-16700D01*
X26754Y-16631D01*
X26881Y-16505D01*
X26949Y-16339D01*
X26950Y-16160D01*
X26950Y-16477D01*
X26934Y-16493D01*
X26888Y-16561D01*
X26872Y-16641D01*
X26872Y-16817D01*
X26829Y-16800D01*
X26770Y-16799D01*
X26170Y-16799D01*
X26115Y-16822D01*
X26072Y-16864D01*
X26050Y-16920D01*
X26049Y-16979D01*
X26049Y-17579D01*
X26072Y-17634D01*
X26114Y-17677D01*
X26170Y-17699D01*
X26229Y-17700D01*
X26829Y-17700D01*
X26872Y-17682D01*
X26872Y-18558D01*
X26619Y-18812D01*
X26589Y-18800D01*
X26410Y-18799D01*
X26245Y-18868D01*
X26118Y-18994D01*
X26050Y-19160D01*
X26049Y-19339D01*
X26118Y-19504D01*
X26244Y-19631D01*
X26410Y-19699D01*
X26589Y-19700D01*
X26754Y-19631D01*
X26881Y-19505D01*
X26949Y-19339D01*
X26950Y-19160D01*
X26925Y-19100D01*
X27231Y-18794D01*
X27231Y-18794D01*
X27231Y-18794D01*
X27276Y-18726D01*
X27276Y-18726D01*
X27289Y-18661D01*
X27292Y-18645D01*
X27292Y-18645D01*
X27292Y-18645D01*
X27292Y-16728D01*
X27476Y-16545D01*
X27476Y-16986D01*
X27498Y-17042D01*
X27533Y-17076D01*
X27499Y-17111D01*
X27476Y-17166D01*
X27476Y-17225D01*
X27476Y-17675D01*
X27498Y-17731D01*
X27541Y-17773D01*
X27541Y-17773D01*
X27541Y-18800D01*
X27410Y-18799D01*
X27245Y-18868D01*
X27118Y-18994D01*
X27050Y-19160D01*
X27049Y-19339D01*
X27118Y-19504D01*
X27244Y-19631D01*
X27410Y-19699D01*
X27589Y-19700D01*
X27754Y-19631D01*
X27881Y-19505D01*
X27949Y-19339D01*
X27950Y-19160D01*
X27927Y-19106D01*
X27945Y-19078D01*
X27945Y-19078D01*
X27961Y-18998D01*
X27961Y-17772D01*
X28003Y-17731D01*
X28026Y-17676D01*
X28026Y-17616D01*
X28026Y-17166D01*
X28003Y-17111D01*
X27968Y-17076D01*
X28003Y-17042D01*
X28026Y-16987D01*
X28026Y-16927D01*
X28026Y-16477D01*
X28003Y-16422D01*
X27968Y-16387D01*
X28003Y-16353D01*
X28026Y-16298D01*
X28026Y-16238D01*
X28026Y-16093D01*
X28076Y-16043D01*
X28076Y-16298D01*
X28098Y-16353D01*
X28133Y-16387D01*
X28099Y-16422D01*
X28076Y-16477D01*
X28076Y-16536D01*
X28076Y-16986D01*
X28098Y-17042D01*
X28141Y-17084D01*
X28196Y-17107D01*
X28255Y-17107D01*
X28505Y-17107D01*
X28561Y-17084D01*
X28603Y-17042D01*
X28626Y-16987D01*
X28626Y-16927D01*
X28626Y-16788D01*
X28964Y-16450D01*
X28973Y-16450D01*
X28973Y-16525D01*
X28996Y-16580D01*
X29038Y-16623D01*
X29074Y-16637D01*
X29074Y-16675D01*
X29074Y-16702D01*
X29081Y-16721D01*
X29095Y-16735D01*
X29114Y-16742D01*
X29133Y-16742D01*
X29366Y-16742D01*
X29379Y-16730D01*
X29379Y-16663D01*
X29371Y-16663D01*
X29371Y-16646D01*
X29424Y-16646D01*
X29429Y-16647D01*
X29433Y-16646D01*
X29487Y-16646D01*
X29487Y-16663D01*
X29479Y-16663D01*
X29479Y-16727D01*
X29457Y-16741D01*
X29457Y-16741D01*
X29379Y-16819D01*
X29285Y-16913D01*
X29239Y-16981D01*
X29223Y-17062D01*
X29223Y-17069D01*
X29181Y-17111D01*
X29158Y-17166D01*
X29158Y-17225D01*
X29158Y-17675D01*
X29181Y-17731D01*
X29223Y-17773D01*
X29278Y-17796D01*
X29338Y-17796D01*
X29588Y-17796D01*
X29643Y-17773D01*
X29666Y-17750D01*
X29666Y-17908D01*
X29685Y-18004D01*
X29739Y-18085D01*
X29941Y-18287D01*
X30022Y-18341D01*
X30022Y-18341D01*
X30118Y-18360D01*
X30624Y-18360D01*
X30664Y-18387D01*
X30779Y-18410D01*
X30894Y-18387D01*
X30925Y-18366D01*
X30956Y-18387D01*
X31070Y-18410D01*
X31185Y-18387D01*
X31226Y-18360D01*
X31397Y-18360D01*
X31493Y-18341D01*
X31574Y-18287D01*
X31775Y-18085D01*
X31830Y-18004D01*
X31830Y-18004D01*
X31849Y-17908D01*
X31849Y-17733D01*
X31851Y-17731D01*
X31874Y-17676D01*
X31874Y-17616D01*
X31874Y-17166D01*
X31851Y-17111D01*
X31809Y-17069D01*
X31809Y-17069D01*
X31809Y-17011D01*
X31976Y-16843D01*
X32381Y-16843D01*
X32386Y-16842D01*
X32716Y-16842D01*
X32745Y-16831D01*
X32745Y-17264D01*
X32784Y-17304D01*
X32784Y-17855D01*
X33020Y-18091D01*
X33020Y-18367D01*
X33178Y-18524D01*
X33178Y-19627D01*
X33443Y-19892D01*
X34115Y-19892D01*
X34863Y-19144D01*
X34981Y-19144D01*
X35060Y-19065D01*
X35060Y-19100D01*
X35060Y-19159D01*
X35082Y-19274D01*
X35099Y-19299D01*
X35099Y-19329D01*
X35086Y-19315D01*
X35086Y-19315D01*
X35051Y-19280D01*
X35005Y-19261D01*
X35005Y-19261D01*
X35005Y-19261D01*
X34959Y-19242D01*
X34909Y-19242D01*
X34909Y-19242D01*
X34859Y-19242D01*
X34813Y-19261D01*
X34813Y-19261D01*
X34813Y-19261D01*
X34768Y-19280D01*
X34732Y-19315D01*
X34732Y-19315D01*
X34732Y-19315D01*
X34697Y-19350D01*
X34678Y-19396D01*
X34678Y-19396D01*
X34678Y-19396D01*
X34659Y-19442D01*
X34659Y-19492D01*
X34659Y-19492D01*
X34659Y-19541D01*
X34678Y-19587D01*
X34678Y-19587D01*
X34678Y-19587D01*
X34697Y-19633D01*
X34732Y-19668D01*
X34732Y-19668D01*
X34732Y-19669D01*
X34767Y-19703D01*
X34767Y-19703D01*
X35085Y-20021D01*
X35099Y-20031D01*
X35099Y-20031D01*
X35120Y-20080D01*
X29008Y-20080D01*
X29008Y-17636D01*
X29008Y-17206D01*
X29008Y-17186D01*
X29001Y-17167D01*
X28987Y-17153D01*
X28968Y-17146D01*
X28896Y-17146D01*
X28883Y-17158D01*
X28883Y-17371D01*
X28996Y-17371D01*
X29008Y-17358D01*
X29008Y-17206D01*
X29008Y-17636D01*
X29008Y-17483D01*
X28996Y-17471D01*
X28883Y-17471D01*
X28883Y-17683D01*
X28896Y-17696D01*
X28968Y-17696D01*
X28987Y-17688D01*
X29001Y-17674D01*
X29008Y-17656D01*
X29008Y-17636D01*
X29008Y-20080D01*
X28850Y-20080D01*
X28850Y-19540D01*
X28850Y-18959D01*
X28849Y-18940D01*
X28842Y-18921D01*
X28828Y-18907D01*
X28809Y-18899D01*
X28783Y-18899D01*
X28783Y-17683D01*
X28783Y-17471D01*
X28783Y-17371D01*
X28783Y-17158D01*
X28771Y-17146D01*
X28698Y-17146D01*
X28680Y-17153D01*
X28666Y-17167D01*
X28658Y-17186D01*
X28658Y-17206D01*
X28658Y-17358D01*
X28671Y-17371D01*
X28783Y-17371D01*
X28783Y-17471D01*
X28671Y-17471D01*
X28658Y-17483D01*
X28658Y-17636D01*
X28658Y-17656D01*
X28666Y-17674D01*
X28680Y-17688D01*
X28698Y-17696D01*
X28771Y-17696D01*
X28783Y-17683D01*
X28783Y-18899D01*
X28562Y-18900D01*
X28550Y-18912D01*
X28550Y-19200D01*
X28837Y-19200D01*
X28850Y-19187D01*
X28850Y-18959D01*
X28850Y-19540D01*
X28850Y-19312D01*
X28837Y-19300D01*
X28550Y-19300D01*
X28550Y-19587D01*
X28562Y-19600D01*
X28809Y-19600D01*
X28828Y-19592D01*
X28842Y-19578D01*
X28849Y-19559D01*
X28850Y-19540D01*
X28850Y-20080D01*
X28526Y-20080D01*
X28526Y-17636D01*
X28526Y-17206D01*
X28526Y-17186D01*
X28518Y-17167D01*
X28504Y-17153D01*
X28486Y-17146D01*
X28413Y-17146D01*
X28401Y-17158D01*
X28401Y-17371D01*
X28513Y-17371D01*
X28526Y-17358D01*
X28526Y-17206D01*
X28526Y-17636D01*
X28526Y-17483D01*
X28513Y-17471D01*
X28401Y-17471D01*
X28401Y-17683D01*
X28413Y-17696D01*
X28486Y-17696D01*
X28504Y-17688D01*
X28518Y-17674D01*
X28526Y-17656D01*
X28526Y-17636D01*
X28526Y-20080D01*
X28450Y-20080D01*
X28450Y-19587D01*
X28450Y-19300D01*
X28450Y-19200D01*
X28450Y-18912D01*
X28437Y-18900D01*
X28301Y-18899D01*
X28301Y-17683D01*
X28301Y-17471D01*
X28301Y-17371D01*
X28301Y-17158D01*
X28288Y-17146D01*
X28216Y-17146D01*
X28197Y-17153D01*
X28183Y-17167D01*
X28176Y-17186D01*
X28176Y-17206D01*
X28176Y-17358D01*
X28188Y-17371D01*
X28301Y-17371D01*
X28301Y-17471D01*
X28188Y-17471D01*
X28176Y-17483D01*
X28176Y-17636D01*
X28176Y-17656D01*
X28183Y-17674D01*
X28197Y-17688D01*
X28216Y-17696D01*
X28288Y-17696D01*
X28301Y-17683D01*
X28301Y-18899D01*
X28190Y-18899D01*
X28171Y-18907D01*
X28157Y-18921D01*
X28150Y-18940D01*
X28149Y-18959D01*
X28150Y-19187D01*
X28162Y-19200D01*
X28450Y-19200D01*
X28450Y-19300D01*
X28162Y-19300D01*
X28150Y-19312D01*
X28149Y-19540D01*
X28150Y-19559D01*
X28157Y-19578D01*
X28171Y-19592D01*
X28190Y-19600D01*
X28437Y-19600D01*
X28450Y-19587D01*
X28450Y-20080D01*
X25169Y-20080D01*
X25169Y-20000D01*
X25169Y-19556D01*
X25244Y-19631D01*
X25410Y-19699D01*
X25589Y-19700D01*
X25754Y-19631D01*
X25881Y-19505D01*
X25949Y-19339D01*
X25950Y-19160D01*
X25881Y-18995D01*
X25755Y-18868D01*
X25589Y-18800D01*
X25410Y-18799D01*
X25245Y-18868D01*
X25169Y-18943D01*
X25169Y-17556D01*
X25244Y-17631D01*
X25410Y-17699D01*
X25589Y-17700D01*
X25754Y-17631D01*
X25881Y-17505D01*
X25949Y-17339D01*
X25950Y-17160D01*
X25881Y-16995D01*
X25755Y-16868D01*
X25589Y-16800D01*
X25410Y-16799D01*
X25245Y-16868D01*
X25169Y-16943D01*
X25169Y-16556D01*
X25244Y-16631D01*
X25410Y-16699D01*
X25589Y-16700D01*
X25754Y-16631D01*
X25881Y-16505D01*
X25949Y-16339D01*
X25950Y-16160D01*
X25881Y-15995D01*
X25755Y-15868D01*
X25589Y-15800D01*
X25410Y-15799D01*
X25245Y-15868D01*
X25169Y-15943D01*
X25169Y-15556D01*
X25244Y-15631D01*
X25410Y-15699D01*
X25589Y-15700D01*
X25754Y-15631D01*
X25881Y-15505D01*
X25949Y-15339D01*
X25950Y-15160D01*
X25881Y-14995D01*
X25855Y-14968D01*
X25855Y-14283D01*
X25841Y-14145D01*
X25815Y-14082D01*
X25776Y-14044D01*
X25705Y-14115D01*
X25705Y-13973D01*
X25667Y-13934D01*
X25533Y-13894D01*
X25395Y-13908D01*
X25332Y-13934D01*
X25294Y-13973D01*
X25500Y-14179D01*
X25705Y-13973D01*
X25705Y-14115D01*
X25570Y-14250D01*
X25776Y-14455D01*
X25815Y-14417D01*
X25855Y-14283D01*
X25855Y-14968D01*
X25755Y-14868D01*
X25705Y-14848D01*
X25705Y-14526D01*
X25500Y-14320D01*
X25294Y-14526D01*
X25332Y-14565D01*
X25466Y-14605D01*
X25604Y-14591D01*
X25667Y-14565D01*
X25705Y-14526D01*
X25705Y-14848D01*
X25589Y-14800D01*
X25410Y-14799D01*
X25245Y-14868D01*
X25169Y-14943D01*
X25169Y-14380D01*
X25184Y-14417D01*
X25223Y-14455D01*
X25429Y-14250D01*
X25223Y-14044D01*
X25184Y-14082D01*
X25169Y-14133D01*
X25169Y-13556D01*
X25244Y-13631D01*
X25410Y-13699D01*
X25589Y-13700D01*
X25754Y-13631D01*
X25881Y-13505D01*
X25949Y-13339D01*
X25950Y-13160D01*
X25881Y-12995D01*
X25755Y-12868D01*
X25589Y-12800D01*
X25410Y-12799D01*
X25245Y-12868D01*
X25169Y-12943D01*
X25169Y-12556D01*
X25244Y-12631D01*
X25410Y-12699D01*
X25589Y-12700D01*
X25754Y-12631D01*
X25881Y-12505D01*
X25949Y-12339D01*
X25950Y-12160D01*
X25881Y-11995D01*
X25755Y-11868D01*
X25589Y-11800D01*
X25410Y-11799D01*
X25245Y-11868D01*
X25169Y-11943D01*
X25169Y-11556D01*
X25244Y-11631D01*
X25410Y-11699D01*
X25589Y-11700D01*
X25754Y-11631D01*
X25881Y-11505D01*
X25949Y-11339D01*
X25950Y-11160D01*
X25881Y-10995D01*
X25755Y-10868D01*
X25589Y-10800D01*
X25410Y-10799D01*
X25245Y-10868D01*
X25169Y-10943D01*
X25169Y-10699D01*
X25170Y-10699D01*
X25229Y-10700D01*
X25829Y-10700D01*
X25884Y-10677D01*
X25927Y-10635D01*
X25949Y-10579D01*
X25950Y-10520D01*
X25950Y-9920D01*
X25927Y-9865D01*
X25885Y-9822D01*
X25829Y-9800D01*
X25770Y-9799D01*
X25170Y-9799D01*
X25169Y-9800D01*
X25169Y-9169D01*
X35000Y-9169D01*
X35934Y-9169D01*
X35934Y-10335D01*
X36010Y-10411D01*
X36010Y-10411D01*
G37*
G54D29*
X36010Y-10411D02*
X35994Y-10426D01*
X35972Y-10481D01*
X35972Y-10541D01*
X35972Y-11935D01*
X35967Y-11924D01*
X35925Y-11882D01*
X35874Y-11861D01*
X35882Y-11853D01*
X35890Y-11834D01*
X35890Y-11499D01*
X35890Y-11334D01*
X35890Y-10999D01*
X35890Y-10834D01*
X35890Y-10499D01*
X35882Y-10481D01*
X35868Y-10467D01*
X35850Y-10459D01*
X35830Y-10459D01*
X35822Y-10459D01*
X35822Y-10035D01*
X35822Y-9255D01*
X35822Y-9235D01*
X35814Y-9217D01*
X35800Y-9203D01*
X35781Y-9195D01*
X35534Y-9195D01*
X35522Y-9208D01*
X35522Y-9595D01*
X35809Y-9595D01*
X35822Y-9583D01*
X35822Y-9255D01*
X35822Y-10035D01*
X35822Y-9708D01*
X35809Y-9695D01*
X35522Y-9695D01*
X35522Y-10083D01*
X35534Y-10095D01*
X35781Y-10095D01*
X35800Y-10088D01*
X35814Y-10074D01*
X35822Y-10055D01*
X35822Y-10035D01*
X35822Y-10459D01*
X35607Y-10459D01*
X35595Y-10472D01*
X35595Y-10617D01*
X35878Y-10617D01*
X35890Y-10604D01*
X35890Y-10499D01*
X35890Y-10834D01*
X35890Y-10729D01*
X35878Y-10717D01*
X35595Y-10717D01*
X35595Y-10862D01*
X35607Y-10874D01*
X35830Y-10874D01*
X35850Y-10874D01*
X35868Y-10867D01*
X35882Y-10853D01*
X35890Y-10834D01*
X35890Y-10999D01*
X35882Y-10981D01*
X35868Y-10967D01*
X35850Y-10959D01*
X35830Y-10959D01*
X35607Y-10959D01*
X35595Y-10972D01*
X35595Y-11117D01*
X35878Y-11117D01*
X35890Y-11104D01*
X35890Y-10999D01*
X35890Y-11334D01*
X35890Y-11229D01*
X35878Y-11217D01*
X35595Y-11217D01*
X35595Y-11362D01*
X35607Y-11374D01*
X35830Y-11374D01*
X35850Y-11374D01*
X35868Y-11367D01*
X35882Y-11353D01*
X35890Y-11334D01*
X35890Y-11499D01*
X35882Y-11481D01*
X35868Y-11467D01*
X35850Y-11459D01*
X35830Y-11459D01*
X35607Y-11459D01*
X35595Y-11472D01*
X35595Y-11617D01*
X35878Y-11617D01*
X35890Y-11604D01*
X35890Y-11499D01*
X35890Y-11834D01*
X35890Y-11729D01*
X35878Y-11717D01*
X35595Y-11717D01*
X35595Y-11725D01*
X35495Y-11725D01*
X35495Y-11717D01*
X35495Y-11617D01*
X35495Y-11472D01*
X35495Y-11362D01*
X35495Y-11217D01*
X35495Y-11117D01*
X35495Y-10972D01*
X35495Y-10862D01*
X35495Y-10717D01*
X35495Y-10617D01*
X35495Y-10472D01*
X35482Y-10459D01*
X35422Y-10459D01*
X35422Y-10083D01*
X35422Y-9695D01*
X35422Y-9595D01*
X35422Y-9208D01*
X35409Y-9195D01*
X35162Y-9195D01*
X35143Y-9203D01*
X35129Y-9217D01*
X35122Y-9235D01*
X35122Y-9255D01*
X35122Y-9583D01*
X35134Y-9595D01*
X35422Y-9595D01*
X35422Y-9695D01*
X35134Y-9695D01*
X35122Y-9708D01*
X35122Y-10035D01*
X35122Y-10055D01*
X35129Y-10074D01*
X35143Y-10088D01*
X35162Y-10095D01*
X35409Y-10095D01*
X35422Y-10083D01*
X35422Y-10459D01*
X35259Y-10459D01*
X35240Y-10459D01*
X35221Y-10467D01*
X35207Y-10481D01*
X35199Y-10499D01*
X35200Y-10604D01*
X35212Y-10617D01*
X35495Y-10617D01*
X35495Y-10717D01*
X35212Y-10717D01*
X35200Y-10729D01*
X35199Y-10834D01*
X35207Y-10853D01*
X35221Y-10867D01*
X35240Y-10874D01*
X35259Y-10874D01*
X35482Y-10874D01*
X35495Y-10862D01*
X35495Y-10972D01*
X35482Y-10959D01*
X35259Y-10959D01*
X35240Y-10959D01*
X35221Y-10967D01*
X35207Y-10981D01*
X35199Y-10999D01*
X35200Y-11104D01*
X35212Y-11117D01*
X35495Y-11117D01*
X35495Y-11217D01*
X35212Y-11217D01*
X35200Y-11229D01*
X35199Y-11334D01*
X35207Y-11353D01*
X35221Y-11367D01*
X35240Y-11374D01*
X35259Y-11374D01*
X35482Y-11374D01*
X35495Y-11362D01*
X35495Y-11472D01*
X35482Y-11459D01*
X35259Y-11459D01*
X35240Y-11459D01*
X35221Y-11467D01*
X35207Y-11481D01*
X35199Y-11499D01*
X35200Y-11604D01*
X35212Y-11617D01*
X35495Y-11617D01*
X35495Y-11717D01*
X35212Y-11717D01*
X35200Y-11729D01*
X35199Y-11834D01*
X35207Y-11853D01*
X35216Y-11861D01*
X35165Y-11882D01*
X35130Y-11917D01*
X34892Y-11917D01*
X34797Y-11936D01*
X34715Y-11990D01*
X34609Y-12096D01*
X34607Y-12091D01*
X34572Y-12057D01*
X34607Y-12022D01*
X34630Y-11967D01*
X34630Y-11907D01*
X34630Y-11457D01*
X34607Y-11402D01*
X34572Y-11368D01*
X34607Y-11333D01*
X34630Y-11278D01*
X34630Y-11218D01*
X34630Y-10768D01*
X34607Y-10713D01*
X34565Y-10671D01*
X34510Y-10648D01*
X34450Y-10648D01*
X34200Y-10648D01*
X34145Y-10671D01*
X34103Y-10713D01*
X34080Y-10768D01*
X34080Y-10828D01*
X34080Y-11278D01*
X34102Y-11333D01*
X34137Y-11368D01*
X34103Y-11402D01*
X34080Y-11457D01*
X34080Y-11517D01*
X34080Y-11967D01*
X34102Y-12022D01*
X34137Y-12057D01*
X34103Y-12091D01*
X34080Y-12146D01*
X34080Y-12206D01*
X34080Y-12656D01*
X34102Y-12711D01*
X34137Y-12746D01*
X34103Y-12780D01*
X34080Y-12835D01*
X34080Y-12895D01*
X34080Y-13345D01*
X34102Y-13400D01*
X34137Y-13435D01*
X34103Y-13469D01*
X34080Y-13524D01*
X34080Y-13584D01*
X34080Y-14034D01*
X34096Y-14074D01*
X34080Y-14115D01*
X34080Y-14174D01*
X34080Y-14624D01*
X34102Y-14679D01*
X34137Y-14714D01*
X34103Y-14748D01*
X34080Y-14804D01*
X34080Y-14863D01*
X34080Y-15313D01*
X34102Y-15368D01*
X34137Y-15403D01*
X34103Y-15437D01*
X34080Y-15493D01*
X34080Y-15552D01*
X34080Y-16002D01*
X34102Y-16057D01*
X34137Y-16092D01*
X34103Y-16126D01*
X34080Y-16182D01*
X34080Y-16241D01*
X34080Y-16691D01*
X34102Y-16746D01*
X34137Y-16781D01*
X34103Y-16815D01*
X34080Y-16871D01*
X34080Y-16930D01*
X34080Y-17153D01*
X34030Y-17104D01*
X34030Y-16871D01*
X34007Y-16816D01*
X33972Y-16781D01*
X34007Y-16747D01*
X34030Y-16691D01*
X34030Y-16632D01*
X34030Y-16182D01*
X34007Y-16127D01*
X33972Y-16092D01*
X34007Y-16058D01*
X34030Y-16002D01*
X34030Y-15943D01*
X34030Y-15493D01*
X34007Y-15438D01*
X33972Y-15403D01*
X34007Y-15369D01*
X34030Y-15314D01*
X34030Y-15254D01*
X34030Y-14804D01*
X34007Y-14749D01*
X33972Y-14714D01*
X34007Y-14680D01*
X34030Y-14625D01*
X34030Y-14565D01*
X34030Y-14115D01*
X34013Y-14074D01*
X34030Y-14034D01*
X34030Y-13974D01*
X34030Y-13524D01*
X34007Y-13469D01*
X33972Y-13435D01*
X34007Y-13400D01*
X34030Y-13345D01*
X34030Y-13285D01*
X34030Y-12835D01*
X34007Y-12780D01*
X33972Y-12746D01*
X34007Y-12711D01*
X34030Y-12656D01*
X34030Y-12596D01*
X34030Y-12146D01*
X34007Y-12091D01*
X33972Y-12057D01*
X34007Y-12022D01*
X34030Y-11967D01*
X34030Y-11907D01*
X34030Y-11457D01*
X34007Y-11402D01*
X33972Y-11368D01*
X34007Y-11333D01*
X34030Y-11278D01*
X34030Y-11218D01*
X34030Y-10768D01*
X34007Y-10713D01*
X33965Y-10671D01*
X33910Y-10648D01*
X33850Y-10648D01*
X33600Y-10648D01*
X33545Y-10671D01*
X33503Y-10713D01*
X33480Y-10768D01*
X33480Y-10813D01*
X33316Y-10813D01*
X33236Y-10829D01*
X33167Y-10875D01*
X33167Y-10875D01*
X33041Y-11001D01*
X33041Y-11001D01*
X33040Y-11003D01*
X33040Y-10782D01*
X33024Y-10702D01*
X32978Y-10634D01*
X31742Y-9398D01*
X31674Y-9353D01*
X31594Y-9337D01*
X27755Y-9337D01*
X27755Y-9337D01*
X27739Y-9340D01*
X27675Y-9353D01*
X27607Y-9398D01*
X27607Y-9398D01*
X27351Y-9654D01*
X27305Y-9722D01*
X27290Y-9799D01*
X27170Y-9799D01*
X27115Y-9822D01*
X27072Y-9864D01*
X27050Y-9920D01*
X27049Y-9979D01*
X27049Y-10571D01*
X26911Y-10433D01*
X26949Y-10339D01*
X26950Y-10160D01*
X26881Y-9995D01*
X26755Y-9868D01*
X26589Y-9800D01*
X26410Y-9799D01*
X26245Y-9868D01*
X26118Y-9994D01*
X26050Y-10160D01*
X26049Y-10339D01*
X26118Y-10504D01*
X26244Y-10631D01*
X26410Y-10699D01*
X26584Y-10700D01*
X26751Y-10867D01*
X26589Y-10800D01*
X26410Y-10799D01*
X26245Y-10868D01*
X26118Y-10994D01*
X26050Y-11160D01*
X26049Y-11339D01*
X26118Y-11504D01*
X26244Y-11631D01*
X26410Y-11699D01*
X26589Y-11700D01*
X26754Y-11631D01*
X26881Y-11505D01*
X26949Y-11339D01*
X26950Y-11160D01*
X26883Y-10999D01*
X27034Y-11149D01*
X27034Y-12047D01*
X27050Y-12127D01*
X27095Y-12195D01*
X27292Y-12392D01*
X27360Y-12438D01*
X27440Y-12454D01*
X27521Y-12438D01*
X27542Y-12424D01*
X27576Y-12424D01*
X27576Y-12535D01*
X27588Y-12548D01*
X27701Y-12548D01*
X27701Y-12540D01*
X27801Y-12540D01*
X27801Y-12548D01*
X27913Y-12548D01*
X27926Y-12535D01*
X27926Y-12424D01*
X28076Y-12424D01*
X28076Y-12853D01*
X28098Y-12908D01*
X28133Y-12942D01*
X28099Y-12977D01*
X28076Y-13032D01*
X28076Y-13092D01*
X28076Y-13542D01*
X28098Y-13597D01*
X28133Y-13631D01*
X28099Y-13666D01*
X28076Y-13721D01*
X28076Y-13781D01*
X28076Y-14231D01*
X28098Y-14286D01*
X28133Y-14320D01*
X28099Y-14355D01*
X28076Y-14410D01*
X28076Y-14470D01*
X28076Y-14567D01*
X28026Y-14617D01*
X28026Y-14171D01*
X28026Y-13721D01*
X28003Y-13666D01*
X27961Y-13624D01*
X27926Y-13609D01*
X27926Y-13502D01*
X27926Y-13072D01*
X27926Y-12813D01*
X27926Y-12660D01*
X27913Y-12648D01*
X27801Y-12648D01*
X27801Y-12860D01*
X27813Y-12873D01*
X27886Y-12873D01*
X27904Y-12865D01*
X27918Y-12851D01*
X27926Y-12833D01*
X27926Y-12813D01*
X27926Y-13072D01*
X27926Y-13052D01*
X27918Y-13034D01*
X27904Y-13019D01*
X27886Y-13012D01*
X27813Y-13012D01*
X27801Y-13024D01*
X27801Y-13237D01*
X27913Y-13237D01*
X27926Y-13224D01*
X27926Y-13072D01*
X27926Y-13502D01*
X27926Y-13349D01*
X27913Y-13337D01*
X27801Y-13337D01*
X27801Y-13549D01*
X27813Y-13562D01*
X27886Y-13562D01*
X27904Y-13554D01*
X27918Y-13540D01*
X27926Y-13522D01*
X27926Y-13502D01*
X27926Y-13609D01*
X27906Y-13601D01*
X27846Y-13601D01*
X27701Y-13601D01*
X27701Y-13549D01*
X27701Y-13337D01*
X27701Y-13237D01*
X27701Y-13024D01*
X27701Y-12860D01*
X27701Y-12648D01*
X27588Y-12648D01*
X27576Y-12660D01*
X27576Y-12813D01*
X27576Y-12833D01*
X27583Y-12851D01*
X27597Y-12865D01*
X27616Y-12873D01*
X27688Y-12873D01*
X27701Y-12860D01*
X27701Y-13024D01*
X27688Y-13012D01*
X27616Y-13012D01*
X27597Y-13019D01*
X27583Y-13034D01*
X27576Y-13052D01*
X27576Y-13072D01*
X27576Y-13224D01*
X27588Y-13237D01*
X27701Y-13237D01*
X27701Y-13337D01*
X27588Y-13337D01*
X27576Y-13349D01*
X27576Y-13502D01*
X27576Y-13522D01*
X27583Y-13540D01*
X27597Y-13554D01*
X27616Y-13562D01*
X27688Y-13562D01*
X27701Y-13549D01*
X27701Y-13601D01*
X27596Y-13601D01*
X27541Y-13624D01*
X27499Y-13666D01*
X27476Y-13721D01*
X27476Y-13781D01*
X27476Y-14231D01*
X27498Y-14286D01*
X27541Y-14328D01*
X27596Y-14351D01*
X27655Y-14351D01*
X27905Y-14351D01*
X27961Y-14328D01*
X28003Y-14286D01*
X28026Y-14231D01*
X28026Y-14171D01*
X28026Y-14617D01*
X27926Y-14717D01*
X27926Y-14450D01*
X27926Y-14430D01*
X27918Y-14411D01*
X27904Y-14397D01*
X27886Y-14390D01*
X27813Y-14390D01*
X27801Y-14402D01*
X27801Y-14615D01*
X27913Y-14615D01*
X27926Y-14602D01*
X27926Y-14450D01*
X27926Y-14717D01*
X27921Y-14722D01*
X27913Y-14715D01*
X27801Y-14715D01*
X27801Y-14927D01*
X27813Y-14940D01*
X27841Y-14940D01*
X27841Y-15079D01*
X27813Y-15079D01*
X27801Y-15091D01*
X27801Y-15304D01*
X27809Y-15304D01*
X27809Y-15404D01*
X27801Y-15404D01*
X27801Y-15616D01*
X27813Y-15629D01*
X27841Y-15629D01*
X27841Y-15668D01*
X27701Y-15668D01*
X27701Y-15616D01*
X27701Y-15404D01*
X27701Y-15304D01*
X27701Y-15091D01*
X27701Y-14927D01*
X27701Y-14715D01*
X27701Y-14615D01*
X27701Y-14402D01*
X27688Y-14390D01*
X27616Y-14390D01*
X27597Y-14397D01*
X27583Y-14411D01*
X27576Y-14430D01*
X27576Y-14450D01*
X27576Y-14602D01*
X27588Y-14615D01*
X27701Y-14615D01*
X27701Y-14715D01*
X27588Y-14715D01*
X27576Y-14727D01*
X27576Y-14880D01*
X27576Y-14900D01*
X27583Y-14918D01*
X27597Y-14932D01*
X27616Y-14940D01*
X27688Y-14940D01*
X27701Y-14927D01*
X27701Y-15091D01*
X27688Y-15079D01*
X27616Y-15079D01*
X27597Y-15086D01*
X27583Y-15100D01*
X27576Y-15119D01*
X27576Y-15139D01*
X27576Y-15291D01*
X27588Y-15304D01*
X27701Y-15304D01*
X27701Y-15404D01*
X27588Y-15404D01*
X27576Y-15416D01*
X27576Y-15569D01*
X27576Y-15589D01*
X27583Y-15607D01*
X27597Y-15621D01*
X27616Y-15629D01*
X27688Y-15629D01*
X27701Y-15616D01*
X27701Y-15668D01*
X27596Y-15668D01*
X27541Y-15691D01*
X27499Y-15733D01*
X27476Y-15788D01*
X27476Y-15848D01*
X27476Y-15951D01*
X26950Y-16477D01*
X26950Y-16160D01*
X26950Y-15160D01*
X26950Y-14160D01*
X26950Y-12160D01*
X26881Y-11995D01*
X26755Y-11868D01*
X26589Y-11800D01*
X26410Y-11799D01*
X26245Y-11868D01*
X26118Y-11994D01*
X26050Y-12160D01*
X26049Y-12339D01*
X26118Y-12504D01*
X26244Y-12631D01*
X26410Y-12699D01*
X26589Y-12700D01*
X26754Y-12631D01*
X26881Y-12505D01*
X26949Y-12339D01*
X26950Y-12160D01*
X26950Y-14160D01*
X26881Y-13995D01*
X26855Y-13968D01*
X26855Y-13283D01*
X26841Y-13145D01*
X26815Y-13082D01*
X26776Y-13044D01*
X26705Y-13115D01*
X26705Y-12973D01*
X26667Y-12934D01*
X26533Y-12894D01*
X26395Y-12908D01*
X26332Y-12934D01*
X26294Y-12973D01*
X26500Y-13179D01*
X26705Y-12973D01*
X26705Y-13115D01*
X26570Y-13250D01*
X26776Y-13455D01*
X26815Y-13417D01*
X26855Y-13283D01*
X26855Y-13968D01*
X26755Y-13868D01*
X26705Y-13848D01*
X26705Y-13526D01*
X26500Y-13320D01*
X26429Y-13391D01*
X26429Y-13250D01*
X26223Y-13044D01*
X26184Y-13082D01*
X26144Y-13216D01*
X26158Y-13354D01*
X26184Y-13417D01*
X26223Y-13455D01*
X26429Y-13250D01*
X26429Y-13391D01*
X26294Y-13526D01*
X26332Y-13565D01*
X26466Y-13605D01*
X26604Y-13591D01*
X26667Y-13565D01*
X26705Y-13526D01*
X26705Y-13848D01*
X26589Y-13800D01*
X26410Y-13799D01*
X26245Y-13868D01*
X26118Y-13994D01*
X26050Y-14160D01*
X26049Y-14339D01*
X26118Y-14504D01*
X26244Y-14631D01*
X26410Y-14699D01*
X26589Y-14700D01*
X26754Y-14631D01*
X26881Y-14505D01*
X26949Y-14339D01*
X26950Y-14160D01*
X26950Y-15160D01*
X26881Y-14995D01*
X26755Y-14868D01*
X26589Y-14800D01*
X26410Y-14799D01*
X26245Y-14868D01*
X26118Y-14994D01*
X26050Y-15160D01*
X26049Y-15339D01*
X26118Y-15504D01*
X26244Y-15631D01*
X26410Y-15699D01*
X26589Y-15700D01*
X26754Y-15631D01*
X26881Y-15505D01*
X26949Y-15339D01*
X26950Y-15160D01*
X26950Y-16160D01*
X26881Y-15995D01*
X26755Y-15868D01*
X26589Y-15800D01*
X26410Y-15799D01*
X26245Y-15868D01*
X26118Y-15994D01*
X26050Y-16160D01*
X26049Y-16339D01*
X26118Y-16504D01*
X26244Y-16631D01*
X26410Y-16699D01*
X26589Y-16700D01*
X26754Y-16631D01*
X26881Y-16505D01*
X26949Y-16339D01*
X26950Y-16160D01*
X26950Y-16477D01*
X26934Y-16493D01*
X26888Y-16561D01*
X26872Y-16641D01*
X26872Y-16817D01*
X26829Y-16800D01*
X26770Y-16799D01*
X26170Y-16799D01*
X26115Y-16822D01*
X26072Y-16864D01*
X26050Y-16920D01*
X26049Y-16979D01*
X26049Y-17579D01*
X26072Y-17634D01*
X26114Y-17677D01*
X26170Y-17699D01*
X26229Y-17700D01*
X26829Y-17700D01*
X26872Y-17682D01*
X26872Y-18558D01*
X26619Y-18812D01*
X26589Y-18800D01*
X26410Y-18799D01*
X26245Y-18868D01*
X26118Y-18994D01*
X26050Y-19160D01*
X26049Y-19339D01*
X26118Y-19504D01*
X26244Y-19631D01*
X26410Y-19699D01*
X26589Y-19700D01*
X26754Y-19631D01*
X26881Y-19505D01*
X26949Y-19339D01*
X26950Y-19160D01*
X26925Y-19100D01*
X27231Y-18794D01*
X27231Y-18794D01*
X27231Y-18794D01*
X27276Y-18726D01*
X27276Y-18726D01*
X27289Y-18661D01*
X27292Y-18645D01*
X27292Y-18645D01*
X27292Y-18645D01*
X27292Y-16728D01*
X27476Y-16545D01*
X27476Y-16986D01*
X27498Y-17042D01*
X27533Y-17076D01*
X27499Y-17111D01*
X27476Y-17166D01*
X27476Y-17225D01*
X27476Y-17675D01*
X27498Y-17731D01*
X27541Y-17773D01*
X27541Y-17773D01*
X27541Y-18800D01*
X27410Y-18799D01*
X27245Y-18868D01*
X27118Y-18994D01*
X27050Y-19160D01*
X27049Y-19339D01*
X27118Y-19504D01*
X27244Y-19631D01*
X27410Y-19699D01*
X27589Y-19700D01*
X27754Y-19631D01*
X27881Y-19505D01*
X27949Y-19339D01*
X27950Y-19160D01*
X27927Y-19106D01*
X27945Y-19078D01*
X27945Y-19078D01*
X27961Y-18998D01*
X27961Y-17772D01*
X28003Y-17731D01*
X28026Y-17676D01*
X28026Y-17616D01*
X28026Y-17166D01*
X28003Y-17111D01*
X27968Y-17076D01*
X28003Y-17042D01*
X28026Y-16987D01*
X28026Y-16927D01*
X28026Y-16477D01*
X28003Y-16422D01*
X27968Y-16387D01*
X28003Y-16353D01*
X28026Y-16298D01*
X28026Y-16238D01*
X28026Y-16093D01*
X28076Y-16043D01*
X28076Y-16298D01*
X28098Y-16353D01*
X28133Y-16387D01*
X28099Y-16422D01*
X28076Y-16477D01*
X28076Y-16536D01*
X28076Y-16986D01*
X28098Y-17042D01*
X28141Y-17084D01*
X28196Y-17107D01*
X28255Y-17107D01*
X28505Y-17107D01*
X28561Y-17084D01*
X28603Y-17042D01*
X28626Y-16987D01*
X28626Y-16927D01*
X28626Y-16788D01*
X28964Y-16450D01*
X28973Y-16450D01*
X28973Y-16525D01*
X28996Y-16580D01*
X29038Y-16623D01*
X29074Y-16637D01*
X29074Y-16675D01*
X29074Y-16702D01*
X29081Y-16721D01*
X29095Y-16735D01*
X29114Y-16742D01*
X29133Y-16742D01*
X29366Y-16742D01*
X29379Y-16730D01*
X29379Y-16663D01*
X29371Y-16663D01*
X29371Y-16646D01*
X29424Y-16646D01*
X29429Y-16647D01*
X29433Y-16646D01*
X29487Y-16646D01*
X29487Y-16663D01*
X29479Y-16663D01*
X29479Y-16727D01*
X29457Y-16741D01*
X29457Y-16741D01*
X29379Y-16819D01*
X29285Y-16913D01*
X29239Y-16981D01*
X29223Y-17062D01*
X29223Y-17069D01*
X29181Y-17111D01*
X29158Y-17166D01*
X29158Y-17225D01*
X29158Y-17675D01*
X29181Y-17731D01*
X29223Y-17773D01*
X29278Y-17796D01*
X29338Y-17796D01*
X29588Y-17796D01*
X29643Y-17773D01*
X29666Y-17750D01*
X29666Y-17908D01*
X29685Y-18004D01*
X29739Y-18085D01*
X29941Y-18287D01*
X30022Y-18341D01*
X30022Y-18341D01*
X30118Y-18360D01*
X30624Y-18360D01*
X30664Y-18387D01*
X30779Y-18410D01*
X30894Y-18387D01*
X30925Y-18366D01*
X30956Y-18387D01*
X31070Y-18410D01*
X31185Y-18387D01*
X31226Y-18360D01*
X31397Y-18360D01*
X31493Y-18341D01*
X31574Y-18287D01*
X31775Y-18085D01*
X31830Y-18004D01*
X31830Y-18004D01*
X31849Y-17908D01*
X31849Y-17733D01*
X31851Y-17731D01*
X31874Y-17676D01*
X31874Y-17616D01*
X31874Y-17166D01*
X31851Y-17111D01*
X31809Y-17069D01*
X31809Y-17069D01*
X31809Y-17011D01*
X31976Y-16843D01*
X32381Y-16843D01*
X32386Y-16842D01*
X32716Y-16842D01*
X32745Y-16831D01*
X32745Y-17264D01*
X32784Y-17304D01*
X32784Y-17855D01*
X33020Y-18091D01*
X33020Y-18367D01*
X33178Y-18524D01*
X33178Y-19627D01*
X33443Y-19892D01*
X34115Y-19892D01*
X34863Y-19144D01*
X34981Y-19144D01*
X35060Y-19065D01*
X35060Y-19100D01*
X35060Y-19159D01*
X35082Y-19274D01*
X35099Y-19299D01*
X35099Y-19329D01*
X35086Y-19315D01*
X35086Y-19315D01*
X35051Y-19280D01*
X35005Y-19261D01*
X35005Y-19261D01*
X35005Y-19261D01*
X34959Y-19242D01*
X34909Y-19242D01*
X34909Y-19242D01*
X34859Y-19242D01*
X34813Y-19261D01*
X34813Y-19261D01*
X34813Y-19261D01*
X34768Y-19280D01*
X34732Y-19315D01*
X34732Y-19315D01*
X34732Y-19315D01*
X34697Y-19350D01*
X34678Y-19396D01*
X34678Y-19396D01*
X34678Y-19396D01*
X34659Y-19442D01*
X34659Y-19492D01*
X34659Y-19492D01*
X34659Y-19541D01*
X34678Y-19587D01*
X34678Y-19587D01*
X34678Y-19587D01*
X34697Y-19633D01*
X34732Y-19668D01*
X34732Y-19668D01*
X34732Y-19669D01*
X34767Y-19703D01*
X34767Y-19703D01*
X35085Y-20021D01*
X35099Y-20031D01*
X35099Y-20031D01*
X35120Y-20080D01*
X29008Y-20080D01*
X29008Y-17636D01*
X29008Y-17206D01*
X29008Y-17186D01*
X29001Y-17167D01*
X28987Y-17153D01*
X28968Y-17146D01*
X28896Y-17146D01*
X28883Y-17158D01*
X28883Y-17371D01*
X28996Y-17371D01*
X29008Y-17358D01*
X29008Y-17206D01*
X29008Y-17636D01*
X29008Y-17483D01*
X28996Y-17471D01*
X28883Y-17471D01*
X28883Y-17683D01*
X28896Y-17696D01*
X28968Y-17696D01*
X28987Y-17688D01*
X29001Y-17674D01*
X29008Y-17656D01*
X29008Y-17636D01*
X29008Y-20080D01*
X28850Y-20080D01*
X28850Y-19540D01*
X28850Y-18959D01*
X28849Y-18940D01*
X28842Y-18921D01*
X28828Y-18907D01*
X28809Y-18899D01*
X28783Y-18899D01*
X28783Y-17683D01*
X28783Y-17471D01*
X28783Y-17371D01*
X28783Y-17158D01*
X28771Y-17146D01*
X28698Y-17146D01*
X28680Y-17153D01*
X28666Y-17167D01*
X28658Y-17186D01*
X28658Y-17206D01*
X28658Y-17358D01*
X28671Y-17371D01*
X28783Y-17371D01*
X28783Y-17471D01*
X28671Y-17471D01*
X28658Y-17483D01*
X28658Y-17636D01*
X28658Y-17656D01*
X28666Y-17674D01*
X28680Y-17688D01*
X28698Y-17696D01*
X28771Y-17696D01*
X28783Y-17683D01*
X28783Y-18899D01*
X28562Y-18900D01*
X28550Y-18912D01*
X28550Y-19200D01*
X28837Y-19200D01*
X28850Y-19187D01*
X28850Y-18959D01*
X28850Y-19540D01*
X28850Y-19312D01*
X28837Y-19300D01*
X28550Y-19300D01*
X28550Y-19587D01*
X28562Y-19600D01*
X28809Y-19600D01*
X28828Y-19592D01*
X28842Y-19578D01*
X28849Y-19559D01*
X28850Y-19540D01*
X28850Y-20080D01*
X28526Y-20080D01*
X28526Y-17636D01*
X28526Y-17206D01*
X28526Y-17186D01*
X28518Y-17167D01*
X28504Y-17153D01*
X28486Y-17146D01*
X28413Y-17146D01*
X28401Y-17158D01*
X28401Y-17371D01*
X28513Y-17371D01*
X28526Y-17358D01*
X28526Y-17206D01*
X28526Y-17636D01*
X28526Y-17483D01*
X28513Y-17471D01*
X28401Y-17471D01*
X28401Y-17683D01*
X28413Y-17696D01*
X28486Y-17696D01*
X28504Y-17688D01*
X28518Y-17674D01*
X28526Y-17656D01*
X28526Y-17636D01*
X28526Y-20080D01*
X28450Y-20080D01*
X28450Y-19587D01*
X28450Y-19300D01*
X28450Y-19200D01*
X28450Y-18912D01*
X28437Y-18900D01*
X28301Y-18899D01*
X28301Y-17683D01*
X28301Y-17471D01*
X28301Y-17371D01*
X28301Y-17158D01*
X28288Y-17146D01*
X28216Y-17146D01*
X28197Y-17153D01*
X28183Y-17167D01*
X28176Y-17186D01*
X28176Y-17206D01*
X28176Y-17358D01*
X28188Y-17371D01*
X28301Y-17371D01*
X28301Y-17471D01*
X28188Y-17471D01*
X28176Y-17483D01*
X28176Y-17636D01*
X28176Y-17656D01*
X28183Y-17674D01*
X28197Y-17688D01*
X28216Y-17696D01*
X28288Y-17696D01*
X28301Y-17683D01*
X28301Y-18899D01*
X28190Y-18899D01*
X28171Y-18907D01*
X28157Y-18921D01*
X28150Y-18940D01*
X28149Y-18959D01*
X28150Y-19187D01*
X28162Y-19200D01*
X28450Y-19200D01*
X28450Y-19300D01*
X28162Y-19300D01*
X28150Y-19312D01*
X28149Y-19540D01*
X28150Y-19559D01*
X28157Y-19578D01*
X28171Y-19592D01*
X28190Y-19600D01*
X28437Y-19600D01*
X28450Y-19587D01*
X28450Y-20080D01*
X25169Y-20080D01*
X25169Y-20000D01*
X25169Y-19556D01*
X25244Y-19631D01*
X25410Y-19699D01*
X25589Y-19700D01*
X25754Y-19631D01*
X25881Y-19505D01*
X25949Y-19339D01*
X25950Y-19160D01*
X25881Y-18995D01*
X25755Y-18868D01*
X25589Y-18800D01*
X25410Y-18799D01*
X25245Y-18868D01*
X25169Y-18943D01*
X25169Y-17556D01*
X25244Y-17631D01*
X25410Y-17699D01*
X25589Y-17700D01*
X25754Y-17631D01*
X25881Y-17505D01*
X25949Y-17339D01*
X25950Y-17160D01*
X25881Y-16995D01*
X25755Y-16868D01*
X25589Y-16800D01*
X25410Y-16799D01*
X25245Y-16868D01*
X25169Y-16943D01*
X25169Y-16556D01*
X25244Y-16631D01*
X25410Y-16699D01*
X25589Y-16700D01*
X25754Y-16631D01*
X25881Y-16505D01*
X25949Y-16339D01*
X25950Y-16160D01*
X25881Y-15995D01*
X25755Y-15868D01*
X25589Y-15800D01*
X25410Y-15799D01*
X25245Y-15868D01*
X25169Y-15943D01*
X25169Y-15556D01*
X25244Y-15631D01*
X25410Y-15699D01*
X25589Y-15700D01*
X25754Y-15631D01*
X25881Y-15505D01*
X25949Y-15339D01*
X25950Y-15160D01*
X25881Y-14995D01*
X25855Y-14968D01*
X25855Y-14283D01*
X25841Y-14145D01*
X25815Y-14082D01*
X25776Y-14044D01*
X25705Y-14115D01*
X25705Y-13973D01*
X25667Y-13934D01*
X25533Y-13894D01*
X25395Y-13908D01*
X25332Y-13934D01*
X25294Y-13973D01*
X25500Y-14179D01*
X25705Y-13973D01*
X25705Y-14115D01*
X25570Y-14250D01*
X25776Y-14455D01*
X25815Y-14417D01*
X25855Y-14283D01*
X25855Y-14968D01*
X25755Y-14868D01*
X25705Y-14848D01*
X25705Y-14526D01*
X25500Y-14320D01*
X25294Y-14526D01*
X25332Y-14565D01*
X25466Y-14605D01*
X25604Y-14591D01*
X25667Y-14565D01*
X25705Y-14526D01*
X25705Y-14848D01*
X25589Y-14800D01*
X25410Y-14799D01*
X25245Y-14868D01*
X25169Y-14943D01*
X25169Y-14380D01*
X25184Y-14417D01*
X25223Y-14455D01*
X25429Y-14250D01*
X25223Y-14044D01*
X25184Y-14082D01*
X25169Y-14133D01*
X25169Y-13556D01*
X25244Y-13631D01*
X25410Y-13699D01*
X25589Y-13700D01*
X25754Y-13631D01*
X25881Y-13505D01*
X25949Y-13339D01*
X25950Y-13160D01*
X25881Y-12995D01*
X25755Y-12868D01*
X25589Y-12800D01*
X25410Y-12799D01*
X25245Y-12868D01*
X25169Y-12943D01*
X25169Y-12556D01*
X25244Y-12631D01*
X25410Y-12699D01*
X25589Y-12700D01*
X25754Y-12631D01*
X25881Y-12505D01*
X25949Y-12339D01*
X25950Y-12160D01*
X25881Y-11995D01*
X25755Y-11868D01*
X25589Y-11800D01*
X25410Y-11799D01*
X25245Y-11868D01*
X25169Y-11943D01*
X25169Y-11556D01*
X25244Y-11631D01*
X25410Y-11699D01*
X25589Y-11700D01*
X25754Y-11631D01*
X25881Y-11505D01*
X25949Y-11339D01*
X25950Y-11160D01*
X25881Y-10995D01*
X25755Y-10868D01*
X25589Y-10800D01*
X25410Y-10799D01*
X25245Y-10868D01*
X25169Y-10943D01*
X25169Y-10699D01*
X25170Y-10699D01*
X25229Y-10700D01*
X25829Y-10700D01*
X25884Y-10677D01*
X25927Y-10635D01*
X25949Y-10579D01*
X25950Y-10520D01*
X25950Y-9920D01*
X25927Y-9865D01*
X25885Y-9822D01*
X25829Y-9800D01*
X25770Y-9799D01*
X25170Y-9799D01*
X25169Y-9800D01*
X25169Y-9169D01*
X35000Y-9169D01*
X35934Y-9169D01*
X35934Y-10335D01*
X36010Y-10411D01*
G54D10*
G36*
X39044Y-14208D02*
X39020Y-14198D01*
X38960Y-14198D01*
X38873Y-14198D01*
X38873Y-13677D01*
X38873Y-12897D01*
X38873Y-12877D01*
X38865Y-12859D01*
X38851Y-12844D01*
X38833Y-12837D01*
X38585Y-12837D01*
X38573Y-12849D01*
X38573Y-13237D01*
X38860Y-13237D01*
X38873Y-13224D01*
X38873Y-12897D01*
X38873Y-13677D01*
X38873Y-13349D01*
X38860Y-13337D01*
X38573Y-13337D01*
X38573Y-13724D01*
X38585Y-13737D01*
X38833Y-13737D01*
X38851Y-13729D01*
X38865Y-13715D01*
X38873Y-13697D01*
X38873Y-13677D01*
X38873Y-14198D01*
X38473Y-14198D01*
X38473Y-13724D01*
X38473Y-13337D01*
X38473Y-13237D01*
X38473Y-12849D01*
X38460Y-12837D01*
X38213Y-12837D01*
X38194Y-12844D01*
X38180Y-12859D01*
X38173Y-12877D01*
X38173Y-12897D01*
X38173Y-13224D01*
X38185Y-13237D01*
X38473Y-13237D01*
X38473Y-13337D01*
X38185Y-13337D01*
X38173Y-13349D01*
X38173Y-13677D01*
X38173Y-13697D01*
X38180Y-13715D01*
X38194Y-13729D01*
X38213Y-13737D01*
X38460Y-13737D01*
X38473Y-13724D01*
X38473Y-14198D01*
X38369Y-14198D01*
X38351Y-14205D01*
X38289Y-14205D01*
X38064Y-14205D01*
X38064Y-14075D01*
X38064Y-12695D01*
X38064Y-12675D01*
X38056Y-12657D01*
X38042Y-12643D01*
X38024Y-12635D01*
X37676Y-12635D01*
X37664Y-12648D01*
X37664Y-13335D01*
X38051Y-13335D01*
X38064Y-13323D01*
X38064Y-12695D01*
X38064Y-14075D01*
X38064Y-13448D01*
X38051Y-13435D01*
X37664Y-13435D01*
X37664Y-14123D01*
X37676Y-14135D01*
X38024Y-14135D01*
X38042Y-14128D01*
X38056Y-14114D01*
X38064Y-14095D01*
X38064Y-14075D01*
X38064Y-14205D01*
X37976Y-14205D01*
X37963Y-14200D01*
X37903Y-14200D01*
X37564Y-14200D01*
X37564Y-14123D01*
X37564Y-13435D01*
X37564Y-13335D01*
X37564Y-12648D01*
X37551Y-12635D01*
X37204Y-12635D01*
X37185Y-12643D01*
X37171Y-12657D01*
X37164Y-12675D01*
X37164Y-12695D01*
X37164Y-13323D01*
X37176Y-13335D01*
X37564Y-13335D01*
X37564Y-13435D01*
X37176Y-13435D01*
X37164Y-13448D01*
X37164Y-14075D01*
X37164Y-14095D01*
X37171Y-14114D01*
X37185Y-14128D01*
X37204Y-14135D01*
X37551Y-14135D01*
X37564Y-14123D01*
X37564Y-14200D01*
X36111Y-14200D01*
X36141Y-14170D01*
X36164Y-14115D01*
X36164Y-14056D01*
X36164Y-12656D01*
X36141Y-12600D01*
X36099Y-12558D01*
X36044Y-12535D01*
X35984Y-12535D01*
X35184Y-12535D01*
X35129Y-12558D01*
X35126Y-12560D01*
X35089Y-12545D01*
X34989Y-12545D01*
X34897Y-12583D01*
X34827Y-12653D01*
X34789Y-12745D01*
X34789Y-12844D01*
X34827Y-12936D01*
X34897Y-13007D01*
X34989Y-13045D01*
X35034Y-13045D01*
X35064Y-13074D01*
X35064Y-13543D01*
X35062Y-13545D01*
X35040Y-13660D01*
X35040Y-14286D01*
X34946Y-14193D01*
X34865Y-14139D01*
X34770Y-14120D01*
X34630Y-14120D01*
X34630Y-14115D01*
X34613Y-14074D01*
X34630Y-14034D01*
X34630Y-13974D01*
X34630Y-13524D01*
X34607Y-13469D01*
X34572Y-13435D01*
X34607Y-13400D01*
X34630Y-13345D01*
X34630Y-13285D01*
X34630Y-12835D01*
X34607Y-12780D01*
X34572Y-12746D01*
X34607Y-12711D01*
X34630Y-12656D01*
X34630Y-12651D01*
X34658Y-12651D01*
X34754Y-12632D01*
X34835Y-12578D01*
X34996Y-12417D01*
X35130Y-12417D01*
X35164Y-12451D01*
X35220Y-12474D01*
X35279Y-12474D01*
X35870Y-12474D01*
X35925Y-12452D01*
X35967Y-12409D01*
X35981Y-12375D01*
X35994Y-12407D01*
X36036Y-12449D01*
X36092Y-12472D01*
X36151Y-12472D01*
X37962Y-12472D01*
X38017Y-12450D01*
X38060Y-12407D01*
X38083Y-12352D01*
X38083Y-12346D01*
X38128Y-12391D01*
X38220Y-12429D01*
X38292Y-12430D01*
X38314Y-12451D01*
X38369Y-12474D01*
X38429Y-12474D01*
X39019Y-12474D01*
X39044Y-12464D01*
X39044Y-14208D01*
X39044Y-14208D01*
G37*
G54D29*
X39044Y-14208D02*
X39020Y-14198D01*
X38960Y-14198D01*
X38873Y-14198D01*
X38873Y-13677D01*
X38873Y-12897D01*
X38873Y-12877D01*
X38865Y-12859D01*
X38851Y-12844D01*
X38833Y-12837D01*
X38585Y-12837D01*
X38573Y-12849D01*
X38573Y-13237D01*
X38860Y-13237D01*
X38873Y-13224D01*
X38873Y-12897D01*
X38873Y-13677D01*
X38873Y-13349D01*
X38860Y-13337D01*
X38573Y-13337D01*
X38573Y-13724D01*
X38585Y-13737D01*
X38833Y-13737D01*
X38851Y-13729D01*
X38865Y-13715D01*
X38873Y-13697D01*
X38873Y-13677D01*
X38873Y-14198D01*
X38473Y-14198D01*
X38473Y-13724D01*
X38473Y-13337D01*
X38473Y-13237D01*
X38473Y-12849D01*
X38460Y-12837D01*
X38213Y-12837D01*
X38194Y-12844D01*
X38180Y-12859D01*
X38173Y-12877D01*
X38173Y-12897D01*
X38173Y-13224D01*
X38185Y-13237D01*
X38473Y-13237D01*
X38473Y-13337D01*
X38185Y-13337D01*
X38173Y-13349D01*
X38173Y-13677D01*
X38173Y-13697D01*
X38180Y-13715D01*
X38194Y-13729D01*
X38213Y-13737D01*
X38460Y-13737D01*
X38473Y-13724D01*
X38473Y-14198D01*
X38369Y-14198D01*
X38351Y-14205D01*
X38289Y-14205D01*
X38064Y-14205D01*
X38064Y-14075D01*
X38064Y-12695D01*
X38064Y-12675D01*
X38056Y-12657D01*
X38042Y-12643D01*
X38024Y-12635D01*
X37676Y-12635D01*
X37664Y-12648D01*
X37664Y-13335D01*
X38051Y-13335D01*
X38064Y-13323D01*
X38064Y-12695D01*
X38064Y-14075D01*
X38064Y-13448D01*
X38051Y-13435D01*
X37664Y-13435D01*
X37664Y-14123D01*
X37676Y-14135D01*
X38024Y-14135D01*
X38042Y-14128D01*
X38056Y-14114D01*
X38064Y-14095D01*
X38064Y-14075D01*
X38064Y-14205D01*
X37976Y-14205D01*
X37963Y-14200D01*
X37903Y-14200D01*
X37564Y-14200D01*
X37564Y-14123D01*
X37564Y-13435D01*
X37564Y-13335D01*
X37564Y-12648D01*
X37551Y-12635D01*
X37204Y-12635D01*
X37185Y-12643D01*
X37171Y-12657D01*
X37164Y-12675D01*
X37164Y-12695D01*
X37164Y-13323D01*
X37176Y-13335D01*
X37564Y-13335D01*
X37564Y-13435D01*
X37176Y-13435D01*
X37164Y-13448D01*
X37164Y-14075D01*
X37164Y-14095D01*
X37171Y-14114D01*
X37185Y-14128D01*
X37204Y-14135D01*
X37551Y-14135D01*
X37564Y-14123D01*
X37564Y-14200D01*
X36111Y-14200D01*
X36141Y-14170D01*
X36164Y-14115D01*
X36164Y-14056D01*
X36164Y-12656D01*
X36141Y-12600D01*
X36099Y-12558D01*
X36044Y-12535D01*
X35984Y-12535D01*
X35184Y-12535D01*
X35129Y-12558D01*
X35126Y-12560D01*
X35089Y-12545D01*
X34989Y-12545D01*
X34897Y-12583D01*
X34827Y-12653D01*
X34789Y-12745D01*
X34789Y-12844D01*
X34827Y-12936D01*
X34897Y-13007D01*
X34989Y-13045D01*
X35034Y-13045D01*
X35064Y-13074D01*
X35064Y-13543D01*
X35062Y-13545D01*
X35040Y-13660D01*
X35040Y-14286D01*
X34946Y-14193D01*
X34865Y-14139D01*
X34770Y-14120D01*
X34630Y-14120D01*
X34630Y-14115D01*
X34613Y-14074D01*
X34630Y-14034D01*
X34630Y-13974D01*
X34630Y-13524D01*
X34607Y-13469D01*
X34572Y-13435D01*
X34607Y-13400D01*
X34630Y-13345D01*
X34630Y-13285D01*
X34630Y-12835D01*
X34607Y-12780D01*
X34572Y-12746D01*
X34607Y-12711D01*
X34630Y-12656D01*
X34630Y-12651D01*
X34658Y-12651D01*
X34754Y-12632D01*
X34835Y-12578D01*
X34996Y-12417D01*
X35130Y-12417D01*
X35164Y-12451D01*
X35220Y-12474D01*
X35279Y-12474D01*
X35870Y-12474D01*
X35925Y-12452D01*
X35967Y-12409D01*
X35981Y-12375D01*
X35994Y-12407D01*
X36036Y-12449D01*
X36092Y-12472D01*
X36151Y-12472D01*
X37962Y-12472D01*
X38017Y-12450D01*
X38060Y-12407D01*
X38083Y-12352D01*
X38083Y-12346D01*
X38128Y-12391D01*
X38220Y-12429D01*
X38292Y-12430D01*
X38314Y-12451D01*
X38369Y-12474D01*
X38429Y-12474D01*
X39019Y-12474D01*
X39044Y-12464D01*
X39044Y-14208D01*
G54D10*
G36*
X39044Y-18047D02*
X39020Y-18037D01*
X38960Y-18036D01*
X38873Y-18036D01*
X38873Y-17614D01*
X38873Y-16834D01*
X38873Y-16814D01*
X38865Y-16796D01*
X38851Y-16781D01*
X38833Y-16774D01*
X38585Y-16774D01*
X38573Y-16786D01*
X38573Y-17174D01*
X38860Y-17174D01*
X38873Y-17161D01*
X38873Y-16834D01*
X38873Y-17614D01*
X38873Y-17286D01*
X38860Y-17274D01*
X38573Y-17274D01*
X38573Y-17661D01*
X38585Y-17674D01*
X38833Y-17674D01*
X38851Y-17666D01*
X38865Y-17652D01*
X38873Y-17634D01*
X38873Y-17614D01*
X38873Y-18036D01*
X38473Y-18036D01*
X38473Y-17661D01*
X38473Y-17274D01*
X38473Y-17174D01*
X38473Y-16786D01*
X38460Y-16774D01*
X38213Y-16774D01*
X38194Y-16781D01*
X38180Y-16796D01*
X38173Y-16814D01*
X38173Y-16834D01*
X38173Y-17161D01*
X38185Y-17174D01*
X38473Y-17174D01*
X38473Y-17274D01*
X38185Y-17274D01*
X38173Y-17286D01*
X38173Y-17614D01*
X38173Y-17634D01*
X38180Y-17652D01*
X38194Y-17666D01*
X38213Y-17674D01*
X38460Y-17674D01*
X38473Y-17661D01*
X38473Y-18036D01*
X38369Y-18036D01*
X38351Y-18044D01*
X38064Y-18044D01*
X38064Y-17914D01*
X38064Y-16534D01*
X38064Y-16514D01*
X38056Y-16496D01*
X38042Y-16481D01*
X38024Y-16474D01*
X37676Y-16474D01*
X37664Y-16486D01*
X37664Y-17174D01*
X38051Y-17174D01*
X38064Y-17161D01*
X38064Y-16534D01*
X38064Y-17914D01*
X38064Y-17286D01*
X38051Y-17274D01*
X37664Y-17274D01*
X37664Y-17961D01*
X37676Y-17974D01*
X38024Y-17974D01*
X38042Y-17966D01*
X38056Y-17952D01*
X38064Y-17934D01*
X38064Y-17914D01*
X38064Y-18044D01*
X37976Y-18044D01*
X37963Y-18039D01*
X37903Y-18038D01*
X37564Y-18038D01*
X37564Y-17961D01*
X37564Y-17274D01*
X37564Y-17174D01*
X37564Y-16486D01*
X37551Y-16474D01*
X37204Y-16474D01*
X37185Y-16481D01*
X37171Y-16496D01*
X37164Y-16514D01*
X37164Y-16534D01*
X37164Y-17161D01*
X37176Y-17174D01*
X37564Y-17174D01*
X37564Y-17274D01*
X37176Y-17274D01*
X37164Y-17286D01*
X37164Y-17914D01*
X37164Y-17934D01*
X37171Y-17952D01*
X37185Y-17966D01*
X37204Y-17974D01*
X37551Y-17974D01*
X37564Y-17961D01*
X37564Y-18038D01*
X36923Y-18038D01*
X36900Y-18015D01*
X36900Y-16620D01*
X36877Y-16505D01*
X36812Y-16407D01*
X36714Y-16342D01*
X36600Y-16320D01*
X36485Y-16342D01*
X36387Y-16407D01*
X36322Y-16505D01*
X36300Y-16620D01*
X36300Y-18038D01*
X36111Y-18038D01*
X36141Y-18009D01*
X36164Y-17954D01*
X36164Y-17894D01*
X36164Y-16494D01*
X36141Y-16439D01*
X36099Y-16397D01*
X36044Y-16374D01*
X35984Y-16374D01*
X35184Y-16374D01*
X35129Y-16397D01*
X35087Y-16439D01*
X35064Y-16494D01*
X35064Y-16554D01*
X35064Y-17457D01*
X35060Y-17478D01*
X35060Y-17792D01*
X34622Y-18230D01*
X34607Y-18194D01*
X34572Y-18159D01*
X34607Y-18125D01*
X34630Y-18069D01*
X34630Y-18010D01*
X34630Y-17560D01*
X34607Y-17505D01*
X34572Y-17470D01*
X34607Y-17436D01*
X34630Y-17380D01*
X34630Y-17362D01*
X34688Y-17338D01*
X34759Y-17267D01*
X34797Y-17175D01*
X34797Y-17076D01*
X34759Y-16984D01*
X34689Y-16914D01*
X34630Y-16889D01*
X34630Y-16871D01*
X34607Y-16816D01*
X34572Y-16781D01*
X34607Y-16747D01*
X34630Y-16691D01*
X34630Y-16632D01*
X34630Y-16182D01*
X34607Y-16127D01*
X34572Y-16092D01*
X34607Y-16058D01*
X34630Y-16002D01*
X34630Y-15943D01*
X34630Y-15803D01*
X34696Y-15736D01*
X34696Y-15736D01*
X34731Y-15701D01*
X34750Y-15655D01*
X34750Y-15655D01*
X34750Y-15655D01*
X34760Y-15633D01*
X34760Y-15880D01*
X34779Y-15975D01*
X34833Y-16056D01*
X34959Y-16182D01*
X34959Y-16182D01*
X35007Y-16215D01*
X35040Y-16236D01*
X35040Y-16236D01*
X35129Y-16254D01*
X35164Y-16290D01*
X35220Y-16313D01*
X35279Y-16313D01*
X35870Y-16313D01*
X35925Y-16290D01*
X35967Y-16248D01*
X35981Y-16214D01*
X35994Y-16246D01*
X36036Y-16288D01*
X36092Y-16311D01*
X36151Y-16311D01*
X37962Y-16311D01*
X38017Y-16288D01*
X38060Y-16246D01*
X38083Y-16191D01*
X38083Y-16131D01*
X38083Y-15827D01*
X38097Y-15805D01*
X38254Y-15805D01*
X38249Y-15818D01*
X38249Y-15878D01*
X38249Y-16193D01*
X38272Y-16248D01*
X38314Y-16290D01*
X38369Y-16313D01*
X38429Y-16313D01*
X39019Y-16313D01*
X39044Y-16303D01*
X39044Y-18047D01*
X39044Y-18047D01*
G37*
G54D29*
X39044Y-18047D02*
X39020Y-18037D01*
X38960Y-18036D01*
X38873Y-18036D01*
X38873Y-17614D01*
X38873Y-16834D01*
X38873Y-16814D01*
X38865Y-16796D01*
X38851Y-16781D01*
X38833Y-16774D01*
X38585Y-16774D01*
X38573Y-16786D01*
X38573Y-17174D01*
X38860Y-17174D01*
X38873Y-17161D01*
X38873Y-16834D01*
X38873Y-17614D01*
X38873Y-17286D01*
X38860Y-17274D01*
X38573Y-17274D01*
X38573Y-17661D01*
X38585Y-17674D01*
X38833Y-17674D01*
X38851Y-17666D01*
X38865Y-17652D01*
X38873Y-17634D01*
X38873Y-17614D01*
X38873Y-18036D01*
X38473Y-18036D01*
X38473Y-17661D01*
X38473Y-17274D01*
X38473Y-17174D01*
X38473Y-16786D01*
X38460Y-16774D01*
X38213Y-16774D01*
X38194Y-16781D01*
X38180Y-16796D01*
X38173Y-16814D01*
X38173Y-16834D01*
X38173Y-17161D01*
X38185Y-17174D01*
X38473Y-17174D01*
X38473Y-17274D01*
X38185Y-17274D01*
X38173Y-17286D01*
X38173Y-17614D01*
X38173Y-17634D01*
X38180Y-17652D01*
X38194Y-17666D01*
X38213Y-17674D01*
X38460Y-17674D01*
X38473Y-17661D01*
X38473Y-18036D01*
X38369Y-18036D01*
X38351Y-18044D01*
X38064Y-18044D01*
X38064Y-17914D01*
X38064Y-16534D01*
X38064Y-16514D01*
X38056Y-16496D01*
X38042Y-16481D01*
X38024Y-16474D01*
X37676Y-16474D01*
X37664Y-16486D01*
X37664Y-17174D01*
X38051Y-17174D01*
X38064Y-17161D01*
X38064Y-16534D01*
X38064Y-17914D01*
X38064Y-17286D01*
X38051Y-17274D01*
X37664Y-17274D01*
X37664Y-17961D01*
X37676Y-17974D01*
X38024Y-17974D01*
X38042Y-17966D01*
X38056Y-17952D01*
X38064Y-17934D01*
X38064Y-17914D01*
X38064Y-18044D01*
X37976Y-18044D01*
X37963Y-18039D01*
X37903Y-18038D01*
X37564Y-18038D01*
X37564Y-17961D01*
X37564Y-17274D01*
X37564Y-17174D01*
X37564Y-16486D01*
X37551Y-16474D01*
X37204Y-16474D01*
X37185Y-16481D01*
X37171Y-16496D01*
X37164Y-16514D01*
X37164Y-16534D01*
X37164Y-17161D01*
X37176Y-17174D01*
X37564Y-17174D01*
X37564Y-17274D01*
X37176Y-17274D01*
X37164Y-17286D01*
X37164Y-17914D01*
X37164Y-17934D01*
X37171Y-17952D01*
X37185Y-17966D01*
X37204Y-17974D01*
X37551Y-17974D01*
X37564Y-17961D01*
X37564Y-18038D01*
X36923Y-18038D01*
X36900Y-18015D01*
X36900Y-16620D01*
X36877Y-16505D01*
X36812Y-16407D01*
X36714Y-16342D01*
X36600Y-16320D01*
X36485Y-16342D01*
X36387Y-16407D01*
X36322Y-16505D01*
X36300Y-16620D01*
X36300Y-18038D01*
X36111Y-18038D01*
X36141Y-18009D01*
X36164Y-17954D01*
X36164Y-17894D01*
X36164Y-16494D01*
X36141Y-16439D01*
X36099Y-16397D01*
X36044Y-16374D01*
X35984Y-16374D01*
X35184Y-16374D01*
X35129Y-16397D01*
X35087Y-16439D01*
X35064Y-16494D01*
X35064Y-16554D01*
X35064Y-17457D01*
X35060Y-17478D01*
X35060Y-17792D01*
X34622Y-18230D01*
X34607Y-18194D01*
X34572Y-18159D01*
X34607Y-18125D01*
X34630Y-18069D01*
X34630Y-18010D01*
X34630Y-17560D01*
X34607Y-17505D01*
X34572Y-17470D01*
X34607Y-17436D01*
X34630Y-17380D01*
X34630Y-17362D01*
X34688Y-17338D01*
X34759Y-17267D01*
X34797Y-17175D01*
X34797Y-17076D01*
X34759Y-16984D01*
X34689Y-16914D01*
X34630Y-16889D01*
X34630Y-16871D01*
X34607Y-16816D01*
X34572Y-16781D01*
X34607Y-16747D01*
X34630Y-16691D01*
X34630Y-16632D01*
X34630Y-16182D01*
X34607Y-16127D01*
X34572Y-16092D01*
X34607Y-16058D01*
X34630Y-16002D01*
X34630Y-15943D01*
X34630Y-15803D01*
X34696Y-15736D01*
X34696Y-15736D01*
X34731Y-15701D01*
X34750Y-15655D01*
X34750Y-15655D01*
X34750Y-15655D01*
X34760Y-15633D01*
X34760Y-15880D01*
X34779Y-15975D01*
X34833Y-16056D01*
X34959Y-16182D01*
X34959Y-16182D01*
X35007Y-16215D01*
X35040Y-16236D01*
X35040Y-16236D01*
X35129Y-16254D01*
X35164Y-16290D01*
X35220Y-16313D01*
X35279Y-16313D01*
X35870Y-16313D01*
X35925Y-16290D01*
X35967Y-16248D01*
X35981Y-16214D01*
X35994Y-16246D01*
X36036Y-16288D01*
X36092Y-16311D01*
X36151Y-16311D01*
X37962Y-16311D01*
X38017Y-16288D01*
X38060Y-16246D01*
X38083Y-16191D01*
X38083Y-16131D01*
X38083Y-15827D01*
X38097Y-15805D01*
X38254Y-15805D01*
X38249Y-15818D01*
X38249Y-15878D01*
X38249Y-16193D01*
X38272Y-16248D01*
X38314Y-16290D01*
X38369Y-16313D01*
X38429Y-16313D01*
X39019Y-16313D01*
X39044Y-16303D01*
X39044Y-18047D01*
G54D10*
G36*
X45080Y-20080D02*
X44449Y-20080D01*
X44449Y-18800D01*
X44449Y-16800D01*
X44449Y-14800D01*
X44449Y-14800D01*
X44449Y-10887D01*
X44449Y-9887D01*
X44426Y-9832D01*
X44384Y-9790D01*
X44329Y-9767D01*
X44269Y-9767D01*
X43269Y-9767D01*
X43214Y-9790D01*
X43172Y-9832D01*
X43161Y-9857D01*
X42328Y-9857D01*
X41905Y-9433D01*
X41807Y-9368D01*
X41692Y-9345D01*
X41647Y-9345D01*
X41587Y-9285D01*
X41431Y-9220D01*
X41262Y-9220D01*
X41106Y-9285D01*
X40986Y-9404D01*
X40921Y-9560D01*
X40921Y-9729D01*
X40985Y-9886D01*
X41105Y-10005D01*
X41261Y-10070D01*
X41347Y-10070D01*
X41905Y-10629D01*
X41905Y-10629D01*
X42003Y-10694D01*
X42118Y-10717D01*
X43149Y-10717D01*
X43149Y-10947D01*
X43171Y-11002D01*
X43214Y-11044D01*
X43269Y-11067D01*
X43328Y-11067D01*
X44328Y-11067D01*
X44384Y-11044D01*
X44426Y-11002D01*
X44449Y-10947D01*
X44449Y-10887D01*
X44449Y-14800D01*
X44353Y-14569D01*
X44353Y-12499D01*
X44343Y-12280D01*
X44280Y-12129D01*
X44220Y-12066D01*
X44149Y-12137D01*
X44149Y-11995D01*
X44087Y-11936D01*
X43880Y-11862D01*
X43662Y-11873D01*
X43511Y-11936D01*
X43448Y-11995D01*
X43799Y-12346D01*
X44149Y-11995D01*
X44149Y-12137D01*
X43869Y-12417D01*
X44220Y-12768D01*
X44280Y-12705D01*
X44353Y-12499D01*
X44353Y-14569D01*
X44350Y-14561D01*
X44167Y-14378D01*
X44149Y-14370D01*
X44149Y-12838D01*
X43799Y-12488D01*
X43728Y-12558D01*
X43728Y-12417D01*
X43377Y-12066D01*
X43317Y-12129D01*
X43244Y-12335D01*
X43255Y-12554D01*
X43317Y-12705D01*
X43377Y-12768D01*
X43728Y-12417D01*
X43728Y-12558D01*
X43448Y-12838D01*
X43511Y-12898D01*
X43717Y-12972D01*
X43935Y-12961D01*
X44087Y-12898D01*
X44149Y-12838D01*
X44149Y-14370D01*
X43929Y-14279D01*
X43670Y-14279D01*
X43431Y-14377D01*
X43248Y-14560D01*
X43149Y-14799D01*
X43149Y-15057D01*
X43247Y-15296D01*
X43430Y-15479D01*
X43669Y-15579D01*
X43927Y-15579D01*
X44166Y-15480D01*
X44349Y-15297D01*
X44449Y-15058D01*
X44449Y-14800D01*
X44449Y-16800D01*
X44350Y-16561D01*
X44167Y-16378D01*
X43929Y-16279D01*
X43670Y-16279D01*
X43431Y-16377D01*
X43248Y-16560D01*
X43149Y-16799D01*
X43149Y-17057D01*
X43247Y-17296D01*
X43430Y-17479D01*
X43669Y-17579D01*
X43927Y-17579D01*
X44166Y-17480D01*
X44349Y-17297D01*
X44449Y-17058D01*
X44449Y-16800D01*
X44449Y-18800D01*
X44350Y-18561D01*
X44167Y-18378D01*
X43929Y-18279D01*
X43670Y-18279D01*
X43431Y-18377D01*
X43248Y-18560D01*
X43149Y-18799D01*
X43149Y-19057D01*
X43247Y-19296D01*
X43430Y-19479D01*
X43669Y-19579D01*
X43927Y-19579D01*
X44166Y-19480D01*
X44349Y-19297D01*
X44449Y-19058D01*
X44449Y-18800D01*
X44449Y-20080D01*
X41271Y-20080D01*
X41271Y-13703D01*
X41206Y-13546D01*
X41171Y-13511D01*
X41171Y-13072D01*
X41171Y-12502D01*
X41163Y-12484D01*
X41149Y-12470D01*
X41132Y-12462D01*
X41132Y-12332D01*
X41132Y-10501D01*
X41125Y-10483D01*
X41111Y-10469D01*
X41092Y-10461D01*
X41072Y-10461D01*
X40671Y-10461D01*
X40671Y-9910D01*
X40671Y-9380D01*
X40671Y-9360D01*
X40663Y-9342D01*
X40649Y-9328D01*
X40631Y-9320D01*
X40408Y-9320D01*
X40396Y-9333D01*
X40396Y-9595D01*
X40658Y-9595D01*
X40671Y-9583D01*
X40671Y-9380D01*
X40671Y-9910D01*
X40671Y-9708D01*
X40658Y-9695D01*
X40396Y-9695D01*
X40396Y-9958D01*
X40408Y-9970D01*
X40631Y-9970D01*
X40649Y-9963D01*
X40663Y-9949D01*
X40671Y-9930D01*
X40671Y-9910D01*
X40671Y-10461D01*
X40296Y-10461D01*
X40296Y-9958D01*
X40296Y-9695D01*
X40296Y-9595D01*
X40296Y-9333D01*
X40283Y-9320D01*
X40061Y-9320D01*
X40043Y-9328D01*
X40029Y-9342D01*
X40021Y-9360D01*
X40021Y-9380D01*
X40021Y-9583D01*
X40033Y-9595D01*
X40296Y-9595D01*
X40296Y-9695D01*
X40033Y-9695D01*
X40021Y-9708D01*
X40021Y-9910D01*
X40021Y-9930D01*
X40029Y-9949D01*
X40043Y-9963D01*
X40061Y-9970D01*
X40283Y-9970D01*
X40296Y-9958D01*
X40296Y-10461D01*
X40239Y-10461D01*
X40227Y-10474D01*
X40227Y-11367D01*
X41120Y-11367D01*
X41132Y-11354D01*
X41132Y-10501D01*
X41132Y-12332D01*
X41132Y-11479D01*
X41120Y-11467D01*
X40227Y-11467D01*
X40227Y-12360D01*
X40239Y-12372D01*
X41072Y-12372D01*
X41092Y-12372D01*
X41111Y-12365D01*
X41125Y-12351D01*
X41132Y-12332D01*
X41132Y-12462D01*
X41131Y-12462D01*
X41111Y-12462D01*
X40908Y-12462D01*
X40896Y-12474D01*
X40896Y-12737D01*
X41158Y-12737D01*
X41171Y-12724D01*
X41171Y-12502D01*
X41171Y-13072D01*
X41171Y-12849D01*
X41158Y-12837D01*
X40896Y-12837D01*
X40896Y-13099D01*
X40908Y-13112D01*
X41111Y-13112D01*
X41131Y-13112D01*
X41149Y-13104D01*
X41163Y-13090D01*
X41171Y-13072D01*
X41171Y-13511D01*
X41087Y-13427D01*
X40931Y-13362D01*
X40796Y-13362D01*
X40796Y-13099D01*
X40796Y-12837D01*
X40796Y-12737D01*
X40796Y-12474D01*
X40783Y-12462D01*
X40581Y-12462D01*
X40561Y-12462D01*
X40543Y-12470D01*
X40529Y-12484D01*
X40521Y-12502D01*
X40521Y-12724D01*
X40533Y-12737D01*
X40796Y-12737D01*
X40796Y-12837D01*
X40533Y-12837D01*
X40521Y-12849D01*
X40521Y-13072D01*
X40529Y-13090D01*
X40543Y-13104D01*
X40561Y-13112D01*
X40581Y-13112D01*
X40783Y-13112D01*
X40796Y-13099D01*
X40796Y-13362D01*
X40762Y-13362D01*
X40606Y-13426D01*
X40486Y-13546D01*
X40421Y-13702D01*
X40421Y-13871D01*
X40485Y-14027D01*
X40605Y-14147D01*
X40761Y-14212D01*
X40930Y-14212D01*
X41086Y-14147D01*
X41206Y-14028D01*
X41271Y-13872D01*
X41271Y-13703D01*
X41271Y-20080D01*
X41173Y-20080D01*
X41173Y-17541D01*
X41132Y-17443D01*
X41132Y-16171D01*
X41132Y-14340D01*
X41125Y-14322D01*
X41111Y-14308D01*
X41092Y-14300D01*
X41072Y-14300D01*
X40239Y-14300D01*
X40227Y-14312D01*
X40227Y-15205D01*
X41120Y-15205D01*
X41132Y-15193D01*
X41132Y-14340D01*
X41132Y-16171D01*
X41132Y-15318D01*
X41120Y-15305D01*
X40227Y-15305D01*
X40227Y-16198D01*
X40239Y-16211D01*
X41072Y-16211D01*
X41092Y-16211D01*
X41111Y-16203D01*
X41125Y-16189D01*
X41132Y-16171D01*
X41132Y-17443D01*
X41108Y-17385D01*
X41073Y-17349D01*
X41073Y-16910D01*
X41073Y-16341D01*
X41065Y-16322D01*
X41051Y-16308D01*
X41033Y-16300D01*
X41013Y-16300D01*
X40810Y-16300D01*
X40798Y-16313D01*
X40798Y-16575D01*
X41060Y-16575D01*
X41073Y-16563D01*
X41073Y-16341D01*
X41073Y-16910D01*
X41073Y-16688D01*
X41060Y-16675D01*
X40798Y-16675D01*
X40798Y-16938D01*
X40810Y-16950D01*
X41013Y-16950D01*
X41033Y-16950D01*
X41051Y-16943D01*
X41065Y-16929D01*
X41073Y-16910D01*
X41073Y-17349D01*
X40989Y-17265D01*
X40832Y-17201D01*
X40698Y-17200D01*
X40698Y-16938D01*
X40698Y-16675D01*
X40698Y-16575D01*
X40698Y-16313D01*
X40685Y-16300D01*
X40482Y-16300D01*
X40463Y-16300D01*
X40444Y-16308D01*
X40430Y-16322D01*
X40423Y-16341D01*
X40423Y-16563D01*
X40435Y-16575D01*
X40698Y-16575D01*
X40698Y-16675D01*
X40435Y-16675D01*
X40423Y-16688D01*
X40423Y-16910D01*
X40430Y-16929D01*
X40444Y-16943D01*
X40463Y-16950D01*
X40482Y-16950D01*
X40685Y-16950D01*
X40698Y-16938D01*
X40698Y-17200D01*
X40663Y-17200D01*
X40507Y-17265D01*
X40387Y-17384D01*
X40323Y-17541D01*
X40322Y-17710D01*
X40387Y-17866D01*
X40506Y-17986D01*
X40663Y-18050D01*
X40832Y-18051D01*
X40988Y-17986D01*
X41108Y-17867D01*
X41172Y-17710D01*
X41173Y-17541D01*
X41173Y-20080D01*
X41132Y-20080D01*
X41132Y-20009D01*
X41132Y-18179D01*
X41125Y-18160D01*
X41111Y-18146D01*
X41092Y-18138D01*
X41072Y-18138D01*
X40239Y-18138D01*
X40227Y-18151D01*
X40227Y-19044D01*
X41120Y-19044D01*
X41132Y-19031D01*
X41132Y-18179D01*
X41132Y-20009D01*
X41132Y-19156D01*
X41120Y-19144D01*
X40227Y-19144D01*
X40227Y-20037D01*
X40239Y-20050D01*
X41072Y-20050D01*
X41092Y-20049D01*
X41111Y-20042D01*
X41125Y-20028D01*
X41132Y-20009D01*
X41132Y-20080D01*
X40173Y-20080D01*
X40173Y-17614D01*
X40173Y-16834D01*
X40173Y-13677D01*
X40173Y-12897D01*
X40173Y-12877D01*
X40165Y-12859D01*
X40151Y-12844D01*
X40133Y-12837D01*
X39885Y-12837D01*
X39873Y-12849D01*
X39873Y-13237D01*
X40160Y-13237D01*
X40173Y-13224D01*
X40173Y-12897D01*
X40173Y-13677D01*
X40173Y-13349D01*
X40160Y-13337D01*
X39873Y-13337D01*
X39873Y-13724D01*
X39885Y-13737D01*
X40133Y-13737D01*
X40151Y-13729D01*
X40165Y-13715D01*
X40173Y-13697D01*
X40173Y-13677D01*
X40173Y-16834D01*
X40173Y-16814D01*
X40165Y-16796D01*
X40151Y-16781D01*
X40133Y-16774D01*
X39885Y-16774D01*
X39873Y-16786D01*
X39873Y-17174D01*
X40160Y-17174D01*
X40173Y-17161D01*
X40173Y-16834D01*
X40173Y-17614D01*
X40173Y-17286D01*
X40160Y-17274D01*
X39873Y-17274D01*
X39873Y-17661D01*
X39885Y-17674D01*
X40133Y-17674D01*
X40151Y-17666D01*
X40165Y-17652D01*
X40173Y-17634D01*
X40173Y-17614D01*
X40173Y-20080D01*
X39301Y-20080D01*
X39301Y-20050D01*
X40114Y-20050D01*
X40127Y-20037D01*
X40127Y-19144D01*
X40119Y-19144D01*
X40119Y-19044D01*
X40127Y-19044D01*
X40127Y-18151D01*
X40114Y-18138D01*
X39773Y-18138D01*
X39773Y-17661D01*
X39773Y-17274D01*
X39773Y-17174D01*
X39773Y-16786D01*
X39760Y-16774D01*
X39513Y-16774D01*
X39494Y-16781D01*
X39480Y-16796D01*
X39473Y-16814D01*
X39473Y-16834D01*
X39473Y-17161D01*
X39485Y-17174D01*
X39773Y-17174D01*
X39773Y-17274D01*
X39485Y-17274D01*
X39473Y-17286D01*
X39473Y-17614D01*
X39473Y-17634D01*
X39480Y-17652D01*
X39494Y-17666D01*
X39513Y-17674D01*
X39760Y-17674D01*
X39773Y-17661D01*
X39773Y-18138D01*
X39301Y-18138D01*
X39301Y-16211D01*
X40114Y-16211D01*
X40127Y-16198D01*
X40127Y-15305D01*
X40119Y-15305D01*
X40119Y-15205D01*
X40127Y-15205D01*
X40127Y-14312D01*
X40114Y-14300D01*
X39773Y-14300D01*
X39773Y-13724D01*
X39773Y-13337D01*
X39773Y-13237D01*
X39773Y-12849D01*
X39760Y-12837D01*
X39513Y-12837D01*
X39494Y-12844D01*
X39480Y-12859D01*
X39473Y-12877D01*
X39473Y-12897D01*
X39473Y-13224D01*
X39485Y-13237D01*
X39773Y-13237D01*
X39773Y-13337D01*
X39485Y-13337D01*
X39473Y-13349D01*
X39473Y-13677D01*
X39473Y-13697D01*
X39480Y-13715D01*
X39494Y-13729D01*
X39513Y-13737D01*
X39760Y-13737D01*
X39773Y-13724D01*
X39773Y-14300D01*
X39301Y-14300D01*
X39301Y-12372D01*
X40114Y-12372D01*
X40127Y-12360D01*
X40127Y-11467D01*
X40119Y-11467D01*
X40119Y-11367D01*
X40127Y-11367D01*
X40127Y-10474D01*
X40114Y-10461D01*
X39301Y-10461D01*
X39301Y-10412D01*
X39241Y-10351D01*
X39241Y-9679D01*
X39226Y-9541D01*
X39201Y-9478D01*
X39162Y-9440D01*
X39091Y-9510D01*
X39091Y-9369D01*
X39053Y-9330D01*
X38919Y-9290D01*
X38781Y-9304D01*
X38718Y-9330D01*
X38680Y-9369D01*
X38885Y-9574D01*
X39091Y-9369D01*
X39091Y-9510D01*
X38956Y-9645D01*
X39162Y-9851D01*
X39201Y-9812D01*
X39241Y-9679D01*
X39241Y-10351D01*
X39154Y-10264D01*
X39091Y-10264D01*
X39091Y-9921D01*
X38885Y-9716D01*
X38815Y-9787D01*
X38815Y-9645D01*
X38609Y-9440D01*
X38570Y-9478D01*
X38530Y-9611D01*
X38544Y-9750D01*
X38570Y-9812D01*
X38609Y-9851D01*
X38815Y-9645D01*
X38815Y-9787D01*
X38680Y-9921D01*
X38718Y-9960D01*
X38851Y-10000D01*
X38990Y-9986D01*
X39053Y-9960D01*
X39091Y-9921D01*
X39091Y-10264D01*
X38740Y-10264D01*
X38335Y-10264D01*
X38335Y-9915D01*
X38335Y-9315D01*
X38313Y-9260D01*
X38270Y-9218D01*
X38215Y-9195D01*
X38156Y-9195D01*
X37556Y-9195D01*
X37500Y-9218D01*
X37458Y-9260D01*
X37435Y-9315D01*
X37435Y-9375D01*
X37435Y-9975D01*
X37458Y-10030D01*
X37500Y-10072D01*
X37555Y-10095D01*
X37615Y-10095D01*
X38215Y-10095D01*
X38270Y-10072D01*
X38312Y-10030D01*
X38335Y-9975D01*
X38335Y-9915D01*
X38335Y-10264D01*
X37122Y-10264D01*
X37122Y-10035D01*
X37122Y-9255D01*
X37122Y-9235D01*
X37114Y-9217D01*
X37100Y-9203D01*
X37081Y-9195D01*
X36834Y-9195D01*
X36822Y-9208D01*
X36822Y-9595D01*
X37109Y-9595D01*
X37122Y-9583D01*
X37122Y-9255D01*
X37122Y-10035D01*
X37122Y-9708D01*
X37109Y-9695D01*
X36822Y-9695D01*
X36822Y-10083D01*
X36834Y-10095D01*
X37081Y-10095D01*
X37100Y-10088D01*
X37114Y-10074D01*
X37122Y-10055D01*
X37122Y-10035D01*
X37122Y-10264D01*
X36722Y-10264D01*
X36722Y-10083D01*
X36722Y-9695D01*
X36722Y-9595D01*
X36722Y-9208D01*
X36709Y-9195D01*
X36462Y-9195D01*
X36443Y-9203D01*
X36429Y-9217D01*
X36422Y-9235D01*
X36422Y-9255D01*
X36422Y-9583D01*
X36434Y-9595D01*
X36722Y-9595D01*
X36722Y-9695D01*
X36434Y-9695D01*
X36422Y-9708D01*
X36422Y-10035D01*
X36422Y-10055D01*
X36429Y-10074D01*
X36443Y-10088D01*
X36462Y-10095D01*
X36709Y-10095D01*
X36722Y-10083D01*
X36722Y-10264D01*
X36496Y-10264D01*
X36241Y-10264D01*
X36191Y-10215D01*
X36191Y-9566D01*
X36191Y-9169D01*
X45080Y-9169D01*
X45080Y-20080D01*
X45080Y-20080D01*
G37*
G54D29*
X45080Y-20080D02*
X44449Y-20080D01*
X44449Y-18800D01*
X44449Y-16800D01*
X44449Y-14800D01*
X44449Y-14800D01*
X44449Y-10887D01*
X44449Y-9887D01*
X44426Y-9832D01*
X44384Y-9790D01*
X44329Y-9767D01*
X44269Y-9767D01*
X43269Y-9767D01*
X43214Y-9790D01*
X43172Y-9832D01*
X43161Y-9857D01*
X42328Y-9857D01*
X41905Y-9433D01*
X41807Y-9368D01*
X41692Y-9345D01*
X41647Y-9345D01*
X41587Y-9285D01*
X41431Y-9220D01*
X41262Y-9220D01*
X41106Y-9285D01*
X40986Y-9404D01*
X40921Y-9560D01*
X40921Y-9729D01*
X40985Y-9886D01*
X41105Y-10005D01*
X41261Y-10070D01*
X41347Y-10070D01*
X41905Y-10629D01*
X41905Y-10629D01*
X42003Y-10694D01*
X42118Y-10717D01*
X43149Y-10717D01*
X43149Y-10947D01*
X43171Y-11002D01*
X43214Y-11044D01*
X43269Y-11067D01*
X43328Y-11067D01*
X44328Y-11067D01*
X44384Y-11044D01*
X44426Y-11002D01*
X44449Y-10947D01*
X44449Y-10887D01*
X44449Y-14800D01*
X44353Y-14569D01*
X44353Y-12499D01*
X44343Y-12280D01*
X44280Y-12129D01*
X44220Y-12066D01*
X44149Y-12137D01*
X44149Y-11995D01*
X44087Y-11936D01*
X43880Y-11862D01*
X43662Y-11873D01*
X43511Y-11936D01*
X43448Y-11995D01*
X43799Y-12346D01*
X44149Y-11995D01*
X44149Y-12137D01*
X43869Y-12417D01*
X44220Y-12768D01*
X44280Y-12705D01*
X44353Y-12499D01*
X44353Y-14569D01*
X44350Y-14561D01*
X44167Y-14378D01*
X44149Y-14370D01*
X44149Y-12838D01*
X43799Y-12488D01*
X43728Y-12558D01*
X43728Y-12417D01*
X43377Y-12066D01*
X43317Y-12129D01*
X43244Y-12335D01*
X43255Y-12554D01*
X43317Y-12705D01*
X43377Y-12768D01*
X43728Y-12417D01*
X43728Y-12558D01*
X43448Y-12838D01*
X43511Y-12898D01*
X43717Y-12972D01*
X43935Y-12961D01*
X44087Y-12898D01*
X44149Y-12838D01*
X44149Y-14370D01*
X43929Y-14279D01*
X43670Y-14279D01*
X43431Y-14377D01*
X43248Y-14560D01*
X43149Y-14799D01*
X43149Y-15057D01*
X43247Y-15296D01*
X43430Y-15479D01*
X43669Y-15579D01*
X43927Y-15579D01*
X44166Y-15480D01*
X44349Y-15297D01*
X44449Y-15058D01*
X44449Y-14800D01*
X44449Y-16800D01*
X44350Y-16561D01*
X44167Y-16378D01*
X43929Y-16279D01*
X43670Y-16279D01*
X43431Y-16377D01*
X43248Y-16560D01*
X43149Y-16799D01*
X43149Y-17057D01*
X43247Y-17296D01*
X43430Y-17479D01*
X43669Y-17579D01*
X43927Y-17579D01*
X44166Y-17480D01*
X44349Y-17297D01*
X44449Y-17058D01*
X44449Y-16800D01*
X44449Y-18800D01*
X44350Y-18561D01*
X44167Y-18378D01*
X43929Y-18279D01*
X43670Y-18279D01*
X43431Y-18377D01*
X43248Y-18560D01*
X43149Y-18799D01*
X43149Y-19057D01*
X43247Y-19296D01*
X43430Y-19479D01*
X43669Y-19579D01*
X43927Y-19579D01*
X44166Y-19480D01*
X44349Y-19297D01*
X44449Y-19058D01*
X44449Y-18800D01*
X44449Y-20080D01*
X41271Y-20080D01*
X41271Y-13703D01*
X41206Y-13546D01*
X41171Y-13511D01*
X41171Y-13072D01*
X41171Y-12502D01*
X41163Y-12484D01*
X41149Y-12470D01*
X41132Y-12462D01*
X41132Y-12332D01*
X41132Y-10501D01*
X41125Y-10483D01*
X41111Y-10469D01*
X41092Y-10461D01*
X41072Y-10461D01*
X40671Y-10461D01*
X40671Y-9910D01*
X40671Y-9380D01*
X40671Y-9360D01*
X40663Y-9342D01*
X40649Y-9328D01*
X40631Y-9320D01*
X40408Y-9320D01*
X40396Y-9333D01*
X40396Y-9595D01*
X40658Y-9595D01*
X40671Y-9583D01*
X40671Y-9380D01*
X40671Y-9910D01*
X40671Y-9708D01*
X40658Y-9695D01*
X40396Y-9695D01*
X40396Y-9958D01*
X40408Y-9970D01*
X40631Y-9970D01*
X40649Y-9963D01*
X40663Y-9949D01*
X40671Y-9930D01*
X40671Y-9910D01*
X40671Y-10461D01*
X40296Y-10461D01*
X40296Y-9958D01*
X40296Y-9695D01*
X40296Y-9595D01*
X40296Y-9333D01*
X40283Y-9320D01*
X40061Y-9320D01*
X40043Y-9328D01*
X40029Y-9342D01*
X40021Y-9360D01*
X40021Y-9380D01*
X40021Y-9583D01*
X40033Y-9595D01*
X40296Y-9595D01*
X40296Y-9695D01*
X40033Y-9695D01*
X40021Y-9708D01*
X40021Y-9910D01*
X40021Y-9930D01*
X40029Y-9949D01*
X40043Y-9963D01*
X40061Y-9970D01*
X40283Y-9970D01*
X40296Y-9958D01*
X40296Y-10461D01*
X40239Y-10461D01*
X40227Y-10474D01*
X40227Y-11367D01*
X41120Y-11367D01*
X41132Y-11354D01*
X41132Y-10501D01*
X41132Y-12332D01*
X41132Y-11479D01*
X41120Y-11467D01*
X40227Y-11467D01*
X40227Y-12360D01*
X40239Y-12372D01*
X41072Y-12372D01*
X41092Y-12372D01*
X41111Y-12365D01*
X41125Y-12351D01*
X41132Y-12332D01*
X41132Y-12462D01*
X41131Y-12462D01*
X41111Y-12462D01*
X40908Y-12462D01*
X40896Y-12474D01*
X40896Y-12737D01*
X41158Y-12737D01*
X41171Y-12724D01*
X41171Y-12502D01*
X41171Y-13072D01*
X41171Y-12849D01*
X41158Y-12837D01*
X40896Y-12837D01*
X40896Y-13099D01*
X40908Y-13112D01*
X41111Y-13112D01*
X41131Y-13112D01*
X41149Y-13104D01*
X41163Y-13090D01*
X41171Y-13072D01*
X41171Y-13511D01*
X41087Y-13427D01*
X40931Y-13362D01*
X40796Y-13362D01*
X40796Y-13099D01*
X40796Y-12837D01*
X40796Y-12737D01*
X40796Y-12474D01*
X40783Y-12462D01*
X40581Y-12462D01*
X40561Y-12462D01*
X40543Y-12470D01*
X40529Y-12484D01*
X40521Y-12502D01*
X40521Y-12724D01*
X40533Y-12737D01*
X40796Y-12737D01*
X40796Y-12837D01*
X40533Y-12837D01*
X40521Y-12849D01*
X40521Y-13072D01*
X40529Y-13090D01*
X40543Y-13104D01*
X40561Y-13112D01*
X40581Y-13112D01*
X40783Y-13112D01*
X40796Y-13099D01*
X40796Y-13362D01*
X40762Y-13362D01*
X40606Y-13426D01*
X40486Y-13546D01*
X40421Y-13702D01*
X40421Y-13871D01*
X40485Y-14027D01*
X40605Y-14147D01*
X40761Y-14212D01*
X40930Y-14212D01*
X41086Y-14147D01*
X41206Y-14028D01*
X41271Y-13872D01*
X41271Y-13703D01*
X41271Y-20080D01*
X41173Y-20080D01*
X41173Y-17541D01*
X41132Y-17443D01*
X41132Y-16171D01*
X41132Y-14340D01*
X41125Y-14322D01*
X41111Y-14308D01*
X41092Y-14300D01*
X41072Y-14300D01*
X40239Y-14300D01*
X40227Y-14312D01*
X40227Y-15205D01*
X41120Y-15205D01*
X41132Y-15193D01*
X41132Y-14340D01*
X41132Y-16171D01*
X41132Y-15318D01*
X41120Y-15305D01*
X40227Y-15305D01*
X40227Y-16198D01*
X40239Y-16211D01*
X41072Y-16211D01*
X41092Y-16211D01*
X41111Y-16203D01*
X41125Y-16189D01*
X41132Y-16171D01*
X41132Y-17443D01*
X41108Y-17385D01*
X41073Y-17349D01*
X41073Y-16910D01*
X41073Y-16341D01*
X41065Y-16322D01*
X41051Y-16308D01*
X41033Y-16300D01*
X41013Y-16300D01*
X40810Y-16300D01*
X40798Y-16313D01*
X40798Y-16575D01*
X41060Y-16575D01*
X41073Y-16563D01*
X41073Y-16341D01*
X41073Y-16910D01*
X41073Y-16688D01*
X41060Y-16675D01*
X40798Y-16675D01*
X40798Y-16938D01*
X40810Y-16950D01*
X41013Y-16950D01*
X41033Y-16950D01*
X41051Y-16943D01*
X41065Y-16929D01*
X41073Y-16910D01*
X41073Y-17349D01*
X40989Y-17265D01*
X40832Y-17201D01*
X40698Y-17200D01*
X40698Y-16938D01*
X40698Y-16675D01*
X40698Y-16575D01*
X40698Y-16313D01*
X40685Y-16300D01*
X40482Y-16300D01*
X40463Y-16300D01*
X40444Y-16308D01*
X40430Y-16322D01*
X40423Y-16341D01*
X40423Y-16563D01*
X40435Y-16575D01*
X40698Y-16575D01*
X40698Y-16675D01*
X40435Y-16675D01*
X40423Y-16688D01*
X40423Y-16910D01*
X40430Y-16929D01*
X40444Y-16943D01*
X40463Y-16950D01*
X40482Y-16950D01*
X40685Y-16950D01*
X40698Y-16938D01*
X40698Y-17200D01*
X40663Y-17200D01*
X40507Y-17265D01*
X40387Y-17384D01*
X40323Y-17541D01*
X40322Y-17710D01*
X40387Y-17866D01*
X40506Y-17986D01*
X40663Y-18050D01*
X40832Y-18051D01*
X40988Y-17986D01*
X41108Y-17867D01*
X41172Y-17710D01*
X41173Y-17541D01*
X41173Y-20080D01*
X41132Y-20080D01*
X41132Y-20009D01*
X41132Y-18179D01*
X41125Y-18160D01*
X41111Y-18146D01*
X41092Y-18138D01*
X41072Y-18138D01*
X40239Y-18138D01*
X40227Y-18151D01*
X40227Y-19044D01*
X41120Y-19044D01*
X41132Y-19031D01*
X41132Y-18179D01*
X41132Y-20009D01*
X41132Y-19156D01*
X41120Y-19144D01*
X40227Y-19144D01*
X40227Y-20037D01*
X40239Y-20050D01*
X41072Y-20050D01*
X41092Y-20049D01*
X41111Y-20042D01*
X41125Y-20028D01*
X41132Y-20009D01*
X41132Y-20080D01*
X40173Y-20080D01*
X40173Y-17614D01*
X40173Y-16834D01*
X40173Y-13677D01*
X40173Y-12897D01*
X40173Y-12877D01*
X40165Y-12859D01*
X40151Y-12844D01*
X40133Y-12837D01*
X39885Y-12837D01*
X39873Y-12849D01*
X39873Y-13237D01*
X40160Y-13237D01*
X40173Y-13224D01*
X40173Y-12897D01*
X40173Y-13677D01*
X40173Y-13349D01*
X40160Y-13337D01*
X39873Y-13337D01*
X39873Y-13724D01*
X39885Y-13737D01*
X40133Y-13737D01*
X40151Y-13729D01*
X40165Y-13715D01*
X40173Y-13697D01*
X40173Y-13677D01*
X40173Y-16834D01*
X40173Y-16814D01*
X40165Y-16796D01*
X40151Y-16781D01*
X40133Y-16774D01*
X39885Y-16774D01*
X39873Y-16786D01*
X39873Y-17174D01*
X40160Y-17174D01*
X40173Y-17161D01*
X40173Y-16834D01*
X40173Y-17614D01*
X40173Y-17286D01*
X40160Y-17274D01*
X39873Y-17274D01*
X39873Y-17661D01*
X39885Y-17674D01*
X40133Y-17674D01*
X40151Y-17666D01*
X40165Y-17652D01*
X40173Y-17634D01*
X40173Y-17614D01*
X40173Y-20080D01*
X39301Y-20080D01*
X39301Y-20050D01*
X40114Y-20050D01*
X40127Y-20037D01*
X40127Y-19144D01*
X40119Y-19144D01*
X40119Y-19044D01*
X40127Y-19044D01*
X40127Y-18151D01*
X40114Y-18138D01*
X39773Y-18138D01*
X39773Y-17661D01*
X39773Y-17274D01*
X39773Y-17174D01*
X39773Y-16786D01*
X39760Y-16774D01*
X39513Y-16774D01*
X39494Y-16781D01*
X39480Y-16796D01*
X39473Y-16814D01*
X39473Y-16834D01*
X39473Y-17161D01*
X39485Y-17174D01*
X39773Y-17174D01*
X39773Y-17274D01*
X39485Y-17274D01*
X39473Y-17286D01*
X39473Y-17614D01*
X39473Y-17634D01*
X39480Y-17652D01*
X39494Y-17666D01*
X39513Y-17674D01*
X39760Y-17674D01*
X39773Y-17661D01*
X39773Y-18138D01*
X39301Y-18138D01*
X39301Y-16211D01*
X40114Y-16211D01*
X40127Y-16198D01*
X40127Y-15305D01*
X40119Y-15305D01*
X40119Y-15205D01*
X40127Y-15205D01*
X40127Y-14312D01*
X40114Y-14300D01*
X39773Y-14300D01*
X39773Y-13724D01*
X39773Y-13337D01*
X39773Y-13237D01*
X39773Y-12849D01*
X39760Y-12837D01*
X39513Y-12837D01*
X39494Y-12844D01*
X39480Y-12859D01*
X39473Y-12877D01*
X39473Y-12897D01*
X39473Y-13224D01*
X39485Y-13237D01*
X39773Y-13237D01*
X39773Y-13337D01*
X39485Y-13337D01*
X39473Y-13349D01*
X39473Y-13677D01*
X39473Y-13697D01*
X39480Y-13715D01*
X39494Y-13729D01*
X39513Y-13737D01*
X39760Y-13737D01*
X39773Y-13724D01*
X39773Y-14300D01*
X39301Y-14300D01*
X39301Y-12372D01*
X40114Y-12372D01*
X40127Y-12360D01*
X40127Y-11467D01*
X40119Y-11467D01*
X40119Y-11367D01*
X40127Y-11367D01*
X40127Y-10474D01*
X40114Y-10461D01*
X39301Y-10461D01*
X39301Y-10412D01*
X39241Y-10351D01*
X39241Y-9679D01*
X39226Y-9541D01*
X39201Y-9478D01*
X39162Y-9440D01*
X39091Y-9510D01*
X39091Y-9369D01*
X39053Y-9330D01*
X38919Y-9290D01*
X38781Y-9304D01*
X38718Y-9330D01*
X38680Y-9369D01*
X38885Y-9574D01*
X39091Y-9369D01*
X39091Y-9510D01*
X38956Y-9645D01*
X39162Y-9851D01*
X39201Y-9812D01*
X39241Y-9679D01*
X39241Y-10351D01*
X39154Y-10264D01*
X39091Y-10264D01*
X39091Y-9921D01*
X38885Y-9716D01*
X38815Y-9787D01*
X38815Y-9645D01*
X38609Y-9440D01*
X38570Y-9478D01*
X38530Y-9611D01*
X38544Y-9750D01*
X38570Y-9812D01*
X38609Y-9851D01*
X38815Y-9645D01*
X38815Y-9787D01*
X38680Y-9921D01*
X38718Y-9960D01*
X38851Y-10000D01*
X38990Y-9986D01*
X39053Y-9960D01*
X39091Y-9921D01*
X39091Y-10264D01*
X38740Y-10264D01*
X38335Y-10264D01*
X38335Y-9915D01*
X38335Y-9315D01*
X38313Y-9260D01*
X38270Y-9218D01*
X38215Y-9195D01*
X38156Y-9195D01*
X37556Y-9195D01*
X37500Y-9218D01*
X37458Y-9260D01*
X37435Y-9315D01*
X37435Y-9375D01*
X37435Y-9975D01*
X37458Y-10030D01*
X37500Y-10072D01*
X37555Y-10095D01*
X37615Y-10095D01*
X38215Y-10095D01*
X38270Y-10072D01*
X38312Y-10030D01*
X38335Y-9975D01*
X38335Y-9915D01*
X38335Y-10264D01*
X37122Y-10264D01*
X37122Y-10035D01*
X37122Y-9255D01*
X37122Y-9235D01*
X37114Y-9217D01*
X37100Y-9203D01*
X37081Y-9195D01*
X36834Y-9195D01*
X36822Y-9208D01*
X36822Y-9595D01*
X37109Y-9595D01*
X37122Y-9583D01*
X37122Y-9255D01*
X37122Y-10035D01*
X37122Y-9708D01*
X37109Y-9695D01*
X36822Y-9695D01*
X36822Y-10083D01*
X36834Y-10095D01*
X37081Y-10095D01*
X37100Y-10088D01*
X37114Y-10074D01*
X37122Y-10055D01*
X37122Y-10035D01*
X37122Y-10264D01*
X36722Y-10264D01*
X36722Y-10083D01*
X36722Y-9695D01*
X36722Y-9595D01*
X36722Y-9208D01*
X36709Y-9195D01*
X36462Y-9195D01*
X36443Y-9203D01*
X36429Y-9217D01*
X36422Y-9235D01*
X36422Y-9255D01*
X36422Y-9583D01*
X36434Y-9595D01*
X36722Y-9595D01*
X36722Y-9695D01*
X36434Y-9695D01*
X36422Y-9708D01*
X36422Y-10035D01*
X36422Y-10055D01*
X36429Y-10074D01*
X36443Y-10088D01*
X36462Y-10095D01*
X36709Y-10095D01*
X36722Y-10083D01*
X36722Y-10264D01*
X36496Y-10264D01*
X36241Y-10264D01*
X36191Y-10215D01*
X36191Y-9566D01*
X36191Y-9169D01*
X45080Y-9169D01*
X45080Y-20080D01*
M02*
