G04 (created by PCBNEW (2013-07-07 BZR 4022)-stable) date 15/08/2017 00:06:55*
%MOIN*%
G04 Gerber Fmt 3.4, Leading zero omitted, Abs format*
%FSLAX34Y34*%
G01*
G70*
G90*
G04 APERTURE LIST*
%ADD10C,0.00590551*%
%ADD11C,0.005*%
%ADD12C,0.012*%
%ADD13C,0.01*%
%ADD14C,0.006*%
%ADD15C,0.008*%
%ADD16C,0.0075*%
%ADD17C,0.0045*%
G04 APERTURE END LIST*
G54D10*
X30355Y-11417D02*
G75*
G03X30355Y-11417I-139J0D01*
G74*
G01*
X31889Y-16830D02*
X31889Y-11122D01*
X31889Y-11122D02*
X29921Y-11122D01*
X29921Y-11122D02*
X29921Y-16830D01*
X29921Y-16830D02*
X31889Y-16830D01*
X35236Y-16240D02*
X35137Y-16240D01*
X35137Y-16240D02*
X35137Y-14271D01*
X35137Y-14271D02*
X35236Y-14271D01*
X35236Y-14271D02*
X37992Y-14271D01*
X37992Y-14271D02*
X37992Y-16240D01*
X37992Y-16240D02*
X35236Y-16240D01*
X38385Y-16240D02*
X38287Y-16240D01*
X38287Y-16240D02*
X38287Y-14271D01*
X38287Y-14271D02*
X38385Y-14271D01*
X38385Y-14271D02*
X41141Y-14271D01*
X41141Y-14271D02*
X41141Y-16240D01*
X41141Y-16240D02*
X38385Y-16240D01*
X38385Y-20078D02*
X38287Y-20078D01*
X38287Y-20078D02*
X38287Y-18110D01*
X38287Y-18110D02*
X38385Y-18110D01*
X38385Y-18110D02*
X41141Y-18110D01*
X41141Y-18110D02*
X41141Y-20078D01*
X41141Y-20078D02*
X38385Y-20078D01*
X35236Y-20078D02*
X35137Y-20078D01*
X35137Y-20078D02*
X35137Y-18110D01*
X35137Y-18110D02*
X35236Y-18110D01*
X35236Y-18110D02*
X37992Y-18110D01*
X37992Y-18110D02*
X37992Y-20078D01*
X37992Y-20078D02*
X35236Y-20078D01*
X35236Y-12401D02*
X35137Y-12401D01*
X35137Y-12401D02*
X35137Y-10433D01*
X35137Y-10433D02*
X35236Y-10433D01*
X35236Y-10433D02*
X37992Y-10433D01*
X37992Y-10433D02*
X37992Y-12401D01*
X37992Y-12401D02*
X35236Y-12401D01*
X38385Y-12401D02*
X38287Y-12401D01*
X38287Y-12401D02*
X38287Y-10433D01*
X38287Y-10433D02*
X38385Y-10433D01*
X38385Y-10433D02*
X41141Y-10433D01*
X41141Y-10433D02*
X41141Y-12401D01*
X41141Y-12401D02*
X38385Y-12401D01*
G54D11*
X35184Y-14185D02*
G75*
G03X35184Y-14185I-70J0D01*
G74*
G01*
X37164Y-14135D02*
X38064Y-14135D01*
X38064Y-14135D02*
X38064Y-12635D01*
X38064Y-12635D02*
X37164Y-12635D01*
X36064Y-12635D02*
X35164Y-12635D01*
X35164Y-12635D02*
X35164Y-14135D01*
X35164Y-14135D02*
X36064Y-14135D01*
X35184Y-18024D02*
G75*
G03X35184Y-18024I-70J0D01*
G74*
G01*
X37164Y-17974D02*
X38064Y-17974D01*
X38064Y-17974D02*
X38064Y-16474D01*
X38064Y-16474D02*
X37164Y-16474D01*
X36064Y-16474D02*
X35164Y-16474D01*
X35164Y-16474D02*
X35164Y-17974D01*
X35164Y-17974D02*
X36064Y-17974D01*
X40173Y-17674D02*
X40173Y-16774D01*
X40173Y-16774D02*
X39523Y-16774D01*
X38823Y-17674D02*
X38173Y-17674D01*
X38173Y-17674D02*
X38173Y-16774D01*
X38173Y-16774D02*
X38823Y-16774D01*
X39523Y-17674D02*
X40173Y-17674D01*
X37122Y-10095D02*
X37122Y-9195D01*
X37122Y-9195D02*
X36472Y-9195D01*
X35772Y-10095D02*
X35122Y-10095D01*
X35122Y-10095D02*
X35122Y-9195D01*
X35122Y-9195D02*
X35772Y-9195D01*
X36472Y-10095D02*
X37122Y-10095D01*
X40173Y-13737D02*
X40173Y-12837D01*
X40173Y-12837D02*
X39523Y-12837D01*
X38823Y-13737D02*
X38173Y-13737D01*
X38173Y-13737D02*
X38173Y-12837D01*
X38173Y-12837D02*
X38823Y-12837D01*
X39523Y-13737D02*
X40173Y-13737D01*
G54D12*
X27000Y-9750D02*
X27000Y-13750D01*
X27000Y-13750D02*
X25000Y-13750D01*
X25000Y-13750D02*
X25000Y-9750D01*
X25000Y-9750D02*
X27000Y-9750D01*
X25000Y-17750D02*
X25000Y-13750D01*
X25000Y-13750D02*
X27000Y-13750D01*
X27000Y-13750D02*
X27000Y-17750D01*
X27000Y-17750D02*
X25000Y-17750D01*
G54D13*
X25000Y-18750D02*
X29000Y-18750D01*
X25000Y-19750D02*
X29000Y-19750D01*
X29000Y-19750D02*
X29000Y-18750D01*
X25000Y-18750D02*
X25000Y-19750D01*
G54D14*
X27000Y-10750D02*
X27000Y-9750D01*
X27000Y-9750D02*
X29000Y-9750D01*
X29000Y-9750D02*
X29000Y-10750D01*
X29000Y-10750D02*
X27000Y-10750D01*
X37385Y-10145D02*
X37385Y-9145D01*
X37385Y-9145D02*
X39385Y-9145D01*
X39385Y-9145D02*
X39385Y-10145D01*
X39385Y-10145D02*
X37385Y-10145D01*
G54D11*
X41847Y-13287D02*
G75*
G03X41847Y-13287I-1001J0D01*
G74*
G01*
X41847Y-9645D02*
G75*
G03X41847Y-9645I-1001J0D01*
G74*
G01*
X41749Y-17125D02*
G75*
G03X41749Y-17125I-1001J0D01*
G74*
G01*
G54D12*
X42299Y-13929D02*
X45299Y-13929D01*
X42299Y-19929D02*
X45299Y-19929D01*
X42799Y-13929D02*
X42799Y-19929D01*
X45299Y-13929D02*
X45299Y-19929D01*
X42299Y-13929D02*
X42299Y-19929D01*
X42799Y-13417D02*
X42799Y-9417D01*
X42299Y-13417D02*
X45299Y-13417D01*
X45299Y-13417D02*
X45299Y-9417D01*
X45299Y-9417D02*
X42299Y-9417D01*
X42299Y-9417D02*
X42299Y-13417D01*
G54D11*
X27601Y-17171D02*
X28501Y-17171D01*
X28501Y-17171D02*
X28501Y-17671D01*
X28501Y-17671D02*
X27601Y-17671D01*
X27601Y-17671D02*
X27601Y-17171D01*
X27601Y-13037D02*
X28501Y-13037D01*
X28501Y-13037D02*
X28501Y-13537D01*
X28501Y-13537D02*
X27601Y-13537D01*
X27601Y-13537D02*
X27601Y-13037D01*
X28501Y-14226D02*
X27601Y-14226D01*
X27601Y-14226D02*
X27601Y-13726D01*
X27601Y-13726D02*
X28501Y-13726D01*
X28501Y-13726D02*
X28501Y-14226D01*
X33605Y-14809D02*
X34505Y-14809D01*
X34505Y-14809D02*
X34505Y-15309D01*
X34505Y-15309D02*
X33605Y-15309D01*
X33605Y-15309D02*
X33605Y-14809D01*
X33605Y-12840D02*
X34505Y-12840D01*
X34505Y-12840D02*
X34505Y-13340D01*
X34505Y-13340D02*
X33605Y-13340D01*
X33605Y-13340D02*
X33605Y-12840D01*
X34505Y-18064D02*
X33605Y-18064D01*
X33605Y-18064D02*
X33605Y-17564D01*
X33605Y-17564D02*
X34505Y-17564D01*
X34505Y-17564D02*
X34505Y-18064D01*
X33605Y-18942D02*
X34505Y-18942D01*
X34505Y-18942D02*
X34505Y-19442D01*
X34505Y-19442D02*
X33605Y-19442D01*
X33605Y-19442D02*
X33605Y-18942D01*
X27601Y-15104D02*
X28501Y-15104D01*
X28501Y-15104D02*
X28501Y-15604D01*
X28501Y-15604D02*
X27601Y-15604D01*
X27601Y-15604D02*
X27601Y-15104D01*
X33605Y-10773D02*
X34505Y-10773D01*
X34505Y-10773D02*
X34505Y-11273D01*
X34505Y-11273D02*
X33605Y-11273D01*
X33605Y-11273D02*
X33605Y-10773D01*
X28501Y-14915D02*
X27601Y-14915D01*
X27601Y-14915D02*
X27601Y-14415D01*
X27601Y-14415D02*
X28501Y-14415D01*
X28501Y-14415D02*
X28501Y-14915D01*
X31749Y-17671D02*
X30849Y-17671D01*
X30849Y-17671D02*
X30849Y-17171D01*
X30849Y-17171D02*
X31749Y-17171D01*
X31749Y-17171D02*
X31749Y-17671D01*
X29766Y-17171D02*
X30666Y-17171D01*
X30666Y-17171D02*
X30666Y-17671D01*
X30666Y-17671D02*
X29766Y-17671D01*
X29766Y-17671D02*
X29766Y-17171D01*
X28683Y-17171D02*
X29583Y-17171D01*
X29583Y-17171D02*
X29583Y-17671D01*
X29583Y-17671D02*
X28683Y-17671D01*
X28683Y-17671D02*
X28683Y-17171D01*
X27601Y-10970D02*
X28501Y-10970D01*
X28501Y-10970D02*
X28501Y-11470D01*
X28501Y-11470D02*
X27601Y-11470D01*
X27601Y-11470D02*
X27601Y-10970D01*
X33605Y-14120D02*
X34505Y-14120D01*
X34505Y-14120D02*
X34505Y-14620D01*
X34505Y-14620D02*
X33605Y-14620D01*
X33605Y-14620D02*
X33605Y-14120D01*
X33605Y-15498D02*
X34505Y-15498D01*
X34505Y-15498D02*
X34505Y-15998D01*
X34505Y-15998D02*
X33605Y-15998D01*
X33605Y-15998D02*
X33605Y-15498D01*
X33605Y-16187D02*
X34505Y-16187D01*
X34505Y-16187D02*
X34505Y-16687D01*
X34505Y-16687D02*
X33605Y-16687D01*
X33605Y-16687D02*
X33605Y-16187D01*
X33605Y-16875D02*
X34505Y-16875D01*
X34505Y-16875D02*
X34505Y-17375D01*
X34505Y-17375D02*
X33605Y-17375D01*
X33605Y-17375D02*
X33605Y-16875D01*
X33605Y-12151D02*
X34505Y-12151D01*
X34505Y-12151D02*
X34505Y-12651D01*
X34505Y-12651D02*
X33605Y-12651D01*
X33605Y-12651D02*
X33605Y-12151D01*
X33605Y-11462D02*
X34505Y-11462D01*
X34505Y-11462D02*
X34505Y-11962D01*
X34505Y-11962D02*
X33605Y-11962D01*
X33605Y-11962D02*
X33605Y-11462D01*
X33605Y-18253D02*
X34505Y-18253D01*
X34505Y-18253D02*
X34505Y-18753D01*
X34505Y-18753D02*
X33605Y-18753D01*
X33605Y-18753D02*
X33605Y-18253D01*
X28501Y-16982D02*
X27601Y-16982D01*
X27601Y-16982D02*
X27601Y-16482D01*
X27601Y-16482D02*
X28501Y-16482D01*
X28501Y-16482D02*
X28501Y-16982D01*
X27601Y-11659D02*
X28501Y-11659D01*
X28501Y-11659D02*
X28501Y-12159D01*
X28501Y-12159D02*
X27601Y-12159D01*
X27601Y-12159D02*
X27601Y-11659D01*
X33605Y-13529D02*
X34505Y-13529D01*
X34505Y-13529D02*
X34505Y-14029D01*
X34505Y-14029D02*
X33605Y-14029D01*
X33605Y-14029D02*
X33605Y-13529D01*
X27601Y-12348D02*
X28501Y-12348D01*
X28501Y-12348D02*
X28501Y-12848D01*
X28501Y-12848D02*
X27601Y-12848D01*
X27601Y-12848D02*
X27601Y-12348D01*
X27601Y-15793D02*
X28501Y-15793D01*
X28501Y-15793D02*
X28501Y-16293D01*
X28501Y-16293D02*
X27601Y-16293D01*
X27601Y-16293D02*
X27601Y-15793D01*
G54D10*
X28407Y-14276D02*
X28726Y-14276D01*
X28763Y-14257D01*
X28782Y-14238D01*
X28801Y-14201D01*
X28801Y-14126D01*
X28782Y-14088D01*
X28763Y-14070D01*
X28726Y-14051D01*
X28407Y-14051D01*
X28801Y-13657D02*
X28801Y-13882D01*
X28801Y-13770D02*
X28407Y-13770D01*
X28463Y-13807D01*
X28501Y-13845D01*
X28519Y-13882D01*
X28801Y-10887D02*
X28801Y-10494D01*
X28894Y-10494D01*
X28951Y-10512D01*
X28988Y-10550D01*
X29007Y-10587D01*
X29026Y-10662D01*
X29026Y-10718D01*
X29007Y-10793D01*
X28988Y-10831D01*
X28951Y-10868D01*
X28894Y-10887D01*
X28801Y-10887D01*
X29419Y-10887D02*
X29288Y-10700D01*
X29194Y-10887D02*
X29194Y-10494D01*
X29344Y-10494D01*
X29382Y-10512D01*
X29401Y-10531D01*
X29419Y-10568D01*
X29419Y-10625D01*
X29401Y-10662D01*
X29382Y-10681D01*
X29344Y-10700D01*
X29194Y-10700D01*
X29532Y-10494D02*
X29663Y-10887D01*
X29794Y-10494D01*
X29982Y-10662D02*
X29944Y-10643D01*
X29925Y-10625D01*
X29907Y-10587D01*
X29907Y-10568D01*
X29925Y-10531D01*
X29944Y-10512D01*
X29982Y-10494D01*
X30057Y-10494D01*
X30094Y-10512D01*
X30113Y-10531D01*
X30132Y-10568D01*
X30132Y-10587D01*
X30113Y-10625D01*
X30094Y-10643D01*
X30057Y-10662D01*
X29982Y-10662D01*
X29944Y-10681D01*
X29925Y-10700D01*
X29907Y-10737D01*
X29907Y-10812D01*
X29925Y-10850D01*
X29944Y-10868D01*
X29982Y-10887D01*
X30057Y-10887D01*
X30094Y-10868D01*
X30113Y-10850D01*
X30132Y-10812D01*
X30132Y-10737D01*
X30113Y-10700D01*
X30094Y-10681D01*
X30057Y-10662D01*
X30263Y-10494D02*
X30507Y-10494D01*
X30375Y-10643D01*
X30432Y-10643D01*
X30469Y-10662D01*
X30488Y-10681D01*
X30507Y-10718D01*
X30507Y-10812D01*
X30488Y-10850D01*
X30469Y-10868D01*
X30432Y-10887D01*
X30319Y-10887D01*
X30282Y-10868D01*
X30263Y-10850D01*
X30750Y-10494D02*
X30788Y-10494D01*
X30825Y-10512D01*
X30844Y-10531D01*
X30863Y-10568D01*
X30882Y-10643D01*
X30882Y-10737D01*
X30863Y-10812D01*
X30844Y-10850D01*
X30825Y-10868D01*
X30788Y-10887D01*
X30750Y-10887D01*
X30713Y-10868D01*
X30694Y-10850D01*
X30675Y-10812D01*
X30657Y-10737D01*
X30657Y-10643D01*
X30675Y-10568D01*
X30694Y-10531D01*
X30713Y-10512D01*
X30750Y-10494D01*
X31257Y-10887D02*
X31032Y-10887D01*
X31144Y-10887D02*
X31144Y-10494D01*
X31107Y-10550D01*
X31069Y-10587D01*
X31032Y-10606D01*
X39074Y-15293D02*
X39056Y-15330D01*
X39018Y-15368D01*
X38962Y-15424D01*
X38943Y-15462D01*
X38943Y-15499D01*
X39037Y-15480D02*
X39018Y-15518D01*
X38981Y-15555D01*
X38906Y-15574D01*
X38774Y-15574D01*
X38699Y-15555D01*
X38662Y-15518D01*
X38643Y-15480D01*
X38643Y-15405D01*
X38662Y-15368D01*
X38699Y-15330D01*
X38774Y-15312D01*
X38906Y-15312D01*
X38981Y-15330D01*
X39018Y-15368D01*
X39037Y-15405D01*
X39037Y-15480D01*
X38774Y-14974D02*
X39037Y-14974D01*
X38624Y-15068D02*
X38906Y-15162D01*
X38906Y-14918D01*
X38545Y-17055D02*
X38151Y-17055D01*
X38545Y-16830D01*
X38151Y-16830D01*
X38151Y-16699D02*
X38151Y-16474D01*
X38545Y-16586D02*
X38151Y-16586D01*
X38545Y-16343D02*
X38151Y-16343D01*
X38432Y-16212D01*
X38151Y-16080D01*
X38545Y-16080D01*
X38338Y-15762D02*
X38338Y-15893D01*
X38545Y-15893D02*
X38151Y-15893D01*
X38151Y-15705D01*
X38526Y-15574D02*
X38545Y-15518D01*
X38545Y-15424D01*
X38526Y-15387D01*
X38507Y-15368D01*
X38470Y-15349D01*
X38432Y-15349D01*
X38395Y-15368D01*
X38376Y-15387D01*
X38357Y-15424D01*
X38338Y-15499D01*
X38320Y-15537D01*
X38301Y-15555D01*
X38263Y-15574D01*
X38226Y-15574D01*
X38188Y-15555D01*
X38170Y-15537D01*
X38151Y-15499D01*
X38151Y-15405D01*
X38170Y-15349D01*
X38545Y-14974D02*
X38545Y-15199D01*
X38545Y-15087D02*
X38151Y-15087D01*
X38207Y-15124D01*
X38245Y-15162D01*
X38263Y-15199D01*
X38545Y-14787D02*
X38545Y-14712D01*
X38526Y-14674D01*
X38507Y-14655D01*
X38451Y-14618D01*
X38376Y-14599D01*
X38226Y-14599D01*
X38188Y-14618D01*
X38170Y-14637D01*
X38151Y-14674D01*
X38151Y-14749D01*
X38170Y-14787D01*
X38188Y-14805D01*
X38226Y-14824D01*
X38320Y-14824D01*
X38357Y-14805D01*
X38376Y-14787D01*
X38395Y-14749D01*
X38395Y-14674D01*
X38376Y-14637D01*
X38357Y-14618D01*
X38320Y-14599D01*
X38151Y-14468D02*
X38151Y-14224D01*
X38301Y-14356D01*
X38301Y-14299D01*
X38320Y-14262D01*
X38338Y-14243D01*
X38376Y-14224D01*
X38470Y-14224D01*
X38507Y-14243D01*
X38526Y-14262D01*
X38545Y-14299D01*
X38545Y-14412D01*
X38526Y-14449D01*
X38507Y-14468D01*
X38151Y-13868D02*
X38151Y-14056D01*
X38338Y-14074D01*
X38320Y-14056D01*
X38301Y-14018D01*
X38301Y-13924D01*
X38320Y-13887D01*
X38338Y-13868D01*
X38376Y-13849D01*
X38470Y-13849D01*
X38507Y-13868D01*
X38526Y-13887D01*
X38545Y-13924D01*
X38545Y-14018D01*
X38526Y-14056D01*
X38507Y-14074D01*
X38545Y-13681D02*
X38151Y-13681D01*
X38545Y-13456D01*
X38151Y-13456D01*
X42224Y-15293D02*
X42205Y-15330D01*
X42168Y-15368D01*
X42111Y-15424D01*
X42093Y-15462D01*
X42093Y-15499D01*
X42186Y-15480D02*
X42168Y-15518D01*
X42130Y-15555D01*
X42055Y-15574D01*
X41924Y-15574D01*
X41849Y-15555D01*
X41811Y-15518D01*
X41793Y-15480D01*
X41793Y-15405D01*
X41811Y-15368D01*
X41849Y-15330D01*
X41924Y-15312D01*
X42055Y-15312D01*
X42130Y-15330D01*
X42168Y-15368D01*
X42186Y-15405D01*
X42186Y-15480D01*
X41793Y-15180D02*
X41793Y-14937D01*
X41943Y-15068D01*
X41943Y-15012D01*
X41961Y-14974D01*
X41980Y-14955D01*
X42018Y-14937D01*
X42111Y-14937D01*
X42149Y-14955D01*
X42168Y-14974D01*
X42186Y-15012D01*
X42186Y-15124D01*
X42168Y-15162D01*
X42149Y-15180D01*
X41694Y-17055D02*
X41301Y-17055D01*
X41694Y-16830D01*
X41301Y-16830D01*
X41301Y-16699D02*
X41301Y-16474D01*
X41694Y-16586D02*
X41301Y-16586D01*
X41694Y-16343D02*
X41301Y-16343D01*
X41582Y-16212D01*
X41301Y-16080D01*
X41694Y-16080D01*
X41488Y-15762D02*
X41488Y-15893D01*
X41694Y-15893D02*
X41301Y-15893D01*
X41301Y-15705D01*
X41676Y-15574D02*
X41694Y-15518D01*
X41694Y-15424D01*
X41676Y-15387D01*
X41657Y-15368D01*
X41619Y-15349D01*
X41582Y-15349D01*
X41544Y-15368D01*
X41526Y-15387D01*
X41507Y-15424D01*
X41488Y-15499D01*
X41469Y-15537D01*
X41451Y-15555D01*
X41413Y-15574D01*
X41376Y-15574D01*
X41338Y-15555D01*
X41319Y-15537D01*
X41301Y-15499D01*
X41301Y-15405D01*
X41319Y-15349D01*
X41694Y-14974D02*
X41694Y-15199D01*
X41694Y-15087D02*
X41301Y-15087D01*
X41357Y-15124D01*
X41394Y-15162D01*
X41413Y-15199D01*
X41694Y-14787D02*
X41694Y-14712D01*
X41676Y-14674D01*
X41657Y-14655D01*
X41601Y-14618D01*
X41526Y-14599D01*
X41376Y-14599D01*
X41338Y-14618D01*
X41319Y-14637D01*
X41301Y-14674D01*
X41301Y-14749D01*
X41319Y-14787D01*
X41338Y-14805D01*
X41376Y-14824D01*
X41469Y-14824D01*
X41507Y-14805D01*
X41526Y-14787D01*
X41544Y-14749D01*
X41544Y-14674D01*
X41526Y-14637D01*
X41507Y-14618D01*
X41469Y-14599D01*
X41301Y-14468D02*
X41301Y-14224D01*
X41451Y-14356D01*
X41451Y-14299D01*
X41469Y-14262D01*
X41488Y-14243D01*
X41526Y-14224D01*
X41619Y-14224D01*
X41657Y-14243D01*
X41676Y-14262D01*
X41694Y-14299D01*
X41694Y-14412D01*
X41676Y-14449D01*
X41657Y-14468D01*
X41301Y-13868D02*
X41301Y-14056D01*
X41488Y-14074D01*
X41469Y-14056D01*
X41451Y-14018D01*
X41451Y-13924D01*
X41469Y-13887D01*
X41488Y-13868D01*
X41526Y-13849D01*
X41619Y-13849D01*
X41657Y-13868D01*
X41676Y-13887D01*
X41694Y-13924D01*
X41694Y-14018D01*
X41676Y-14056D01*
X41657Y-14074D01*
X41694Y-13681D02*
X41301Y-13681D01*
X41694Y-13456D01*
X41301Y-13456D01*
X42224Y-19131D02*
X42205Y-19169D01*
X42168Y-19206D01*
X42111Y-19263D01*
X42093Y-19300D01*
X42093Y-19338D01*
X42186Y-19319D02*
X42168Y-19356D01*
X42130Y-19394D01*
X42055Y-19413D01*
X41924Y-19413D01*
X41849Y-19394D01*
X41811Y-19356D01*
X41793Y-19319D01*
X41793Y-19244D01*
X41811Y-19206D01*
X41849Y-19169D01*
X41924Y-19150D01*
X42055Y-19150D01*
X42130Y-19169D01*
X42168Y-19206D01*
X42186Y-19244D01*
X42186Y-19319D01*
X41793Y-18794D02*
X41793Y-18982D01*
X41980Y-19000D01*
X41961Y-18982D01*
X41943Y-18944D01*
X41943Y-18850D01*
X41961Y-18813D01*
X41980Y-18794D01*
X42018Y-18775D01*
X42111Y-18775D01*
X42149Y-18794D01*
X42168Y-18813D01*
X42186Y-18850D01*
X42186Y-18944D01*
X42168Y-18982D01*
X42149Y-19000D01*
X41694Y-20894D02*
X41301Y-20894D01*
X41694Y-20669D01*
X41301Y-20669D01*
X41301Y-20538D02*
X41301Y-20313D01*
X41694Y-20425D02*
X41301Y-20425D01*
X41694Y-20181D02*
X41301Y-20181D01*
X41582Y-20050D01*
X41301Y-19919D01*
X41694Y-19919D01*
X41488Y-19600D02*
X41488Y-19731D01*
X41694Y-19731D02*
X41301Y-19731D01*
X41301Y-19544D01*
X41676Y-19413D02*
X41694Y-19356D01*
X41694Y-19263D01*
X41676Y-19225D01*
X41657Y-19206D01*
X41619Y-19188D01*
X41582Y-19188D01*
X41544Y-19206D01*
X41526Y-19225D01*
X41507Y-19263D01*
X41488Y-19338D01*
X41469Y-19375D01*
X41451Y-19394D01*
X41413Y-19413D01*
X41376Y-19413D01*
X41338Y-19394D01*
X41319Y-19375D01*
X41301Y-19338D01*
X41301Y-19244D01*
X41319Y-19188D01*
X41694Y-18813D02*
X41694Y-19038D01*
X41694Y-18925D02*
X41301Y-18925D01*
X41357Y-18963D01*
X41394Y-19000D01*
X41413Y-19038D01*
X41694Y-18625D02*
X41694Y-18550D01*
X41676Y-18513D01*
X41657Y-18494D01*
X41601Y-18457D01*
X41526Y-18438D01*
X41376Y-18438D01*
X41338Y-18457D01*
X41319Y-18475D01*
X41301Y-18513D01*
X41301Y-18588D01*
X41319Y-18625D01*
X41338Y-18644D01*
X41376Y-18663D01*
X41469Y-18663D01*
X41507Y-18644D01*
X41526Y-18625D01*
X41544Y-18588D01*
X41544Y-18513D01*
X41526Y-18475D01*
X41507Y-18457D01*
X41469Y-18438D01*
X41301Y-18307D02*
X41301Y-18063D01*
X41451Y-18194D01*
X41451Y-18138D01*
X41469Y-18100D01*
X41488Y-18082D01*
X41526Y-18063D01*
X41619Y-18063D01*
X41657Y-18082D01*
X41676Y-18100D01*
X41694Y-18138D01*
X41694Y-18250D01*
X41676Y-18288D01*
X41657Y-18307D01*
X41301Y-17707D02*
X41301Y-17894D01*
X41488Y-17913D01*
X41469Y-17894D01*
X41451Y-17857D01*
X41451Y-17763D01*
X41469Y-17725D01*
X41488Y-17707D01*
X41526Y-17688D01*
X41619Y-17688D01*
X41657Y-17707D01*
X41676Y-17725D01*
X41694Y-17763D01*
X41694Y-17857D01*
X41676Y-17894D01*
X41657Y-17913D01*
X41694Y-17519D02*
X41301Y-17519D01*
X41694Y-17294D01*
X41301Y-17294D01*
X39074Y-19131D02*
X39056Y-19169D01*
X39018Y-19206D01*
X38962Y-19263D01*
X38943Y-19300D01*
X38943Y-19338D01*
X39037Y-19319D02*
X39018Y-19356D01*
X38981Y-19394D01*
X38906Y-19413D01*
X38774Y-19413D01*
X38699Y-19394D01*
X38662Y-19356D01*
X38643Y-19319D01*
X38643Y-19244D01*
X38662Y-19206D01*
X38699Y-19169D01*
X38774Y-19150D01*
X38906Y-19150D01*
X38981Y-19169D01*
X39018Y-19206D01*
X39037Y-19244D01*
X39037Y-19319D01*
X38643Y-18813D02*
X38643Y-18888D01*
X38662Y-18925D01*
X38681Y-18944D01*
X38737Y-18982D01*
X38812Y-19000D01*
X38962Y-19000D01*
X38999Y-18982D01*
X39018Y-18963D01*
X39037Y-18925D01*
X39037Y-18850D01*
X39018Y-18813D01*
X38999Y-18794D01*
X38962Y-18775D01*
X38868Y-18775D01*
X38831Y-18794D01*
X38812Y-18813D01*
X38793Y-18850D01*
X38793Y-18925D01*
X38812Y-18963D01*
X38831Y-18982D01*
X38868Y-19000D01*
X38545Y-20894D02*
X38151Y-20894D01*
X38545Y-20669D01*
X38151Y-20669D01*
X38151Y-20538D02*
X38151Y-20313D01*
X38545Y-20425D02*
X38151Y-20425D01*
X38545Y-20181D02*
X38151Y-20181D01*
X38432Y-20050D01*
X38151Y-19919D01*
X38545Y-19919D01*
X38338Y-19600D02*
X38338Y-19731D01*
X38545Y-19731D02*
X38151Y-19731D01*
X38151Y-19544D01*
X38526Y-19413D02*
X38545Y-19356D01*
X38545Y-19263D01*
X38526Y-19225D01*
X38507Y-19206D01*
X38470Y-19188D01*
X38432Y-19188D01*
X38395Y-19206D01*
X38376Y-19225D01*
X38357Y-19263D01*
X38338Y-19338D01*
X38320Y-19375D01*
X38301Y-19394D01*
X38263Y-19413D01*
X38226Y-19413D01*
X38188Y-19394D01*
X38170Y-19375D01*
X38151Y-19338D01*
X38151Y-19244D01*
X38170Y-19188D01*
X38545Y-18813D02*
X38545Y-19038D01*
X38545Y-18925D02*
X38151Y-18925D01*
X38207Y-18963D01*
X38245Y-19000D01*
X38263Y-19038D01*
X38545Y-18625D02*
X38545Y-18550D01*
X38526Y-18513D01*
X38507Y-18494D01*
X38451Y-18457D01*
X38376Y-18438D01*
X38226Y-18438D01*
X38188Y-18457D01*
X38170Y-18475D01*
X38151Y-18513D01*
X38151Y-18588D01*
X38170Y-18625D01*
X38188Y-18644D01*
X38226Y-18663D01*
X38320Y-18663D01*
X38357Y-18644D01*
X38376Y-18625D01*
X38395Y-18588D01*
X38395Y-18513D01*
X38376Y-18475D01*
X38357Y-18457D01*
X38320Y-18438D01*
X38151Y-18307D02*
X38151Y-18063D01*
X38301Y-18194D01*
X38301Y-18138D01*
X38320Y-18100D01*
X38338Y-18082D01*
X38376Y-18063D01*
X38470Y-18063D01*
X38507Y-18082D01*
X38526Y-18100D01*
X38545Y-18138D01*
X38545Y-18250D01*
X38526Y-18288D01*
X38507Y-18307D01*
X38151Y-17707D02*
X38151Y-17894D01*
X38338Y-17913D01*
X38320Y-17894D01*
X38301Y-17857D01*
X38301Y-17763D01*
X38320Y-17725D01*
X38338Y-17707D01*
X38376Y-17688D01*
X38470Y-17688D01*
X38507Y-17707D01*
X38526Y-17725D01*
X38545Y-17763D01*
X38545Y-17857D01*
X38526Y-17894D01*
X38507Y-17913D01*
X38545Y-17519D02*
X38151Y-17519D01*
X38545Y-17294D01*
X38151Y-17294D01*
X39074Y-11454D02*
X39056Y-11492D01*
X39018Y-11529D01*
X38962Y-11586D01*
X38943Y-11623D01*
X38943Y-11661D01*
X39037Y-11642D02*
X39018Y-11679D01*
X38981Y-11717D01*
X38906Y-11736D01*
X38774Y-11736D01*
X38699Y-11717D01*
X38662Y-11679D01*
X38643Y-11642D01*
X38643Y-11567D01*
X38662Y-11529D01*
X38699Y-11492D01*
X38774Y-11473D01*
X38906Y-11473D01*
X38981Y-11492D01*
X39018Y-11529D01*
X39037Y-11567D01*
X39037Y-11642D01*
X38681Y-11323D02*
X38662Y-11304D01*
X38643Y-11267D01*
X38643Y-11173D01*
X38662Y-11136D01*
X38681Y-11117D01*
X38718Y-11098D01*
X38756Y-11098D01*
X38812Y-11117D01*
X39037Y-11342D01*
X39037Y-11098D01*
X38545Y-13217D02*
X38151Y-13217D01*
X38545Y-12992D01*
X38151Y-12992D01*
X38151Y-12860D02*
X38151Y-12635D01*
X38545Y-12748D02*
X38151Y-12748D01*
X38545Y-12504D02*
X38151Y-12504D01*
X38432Y-12373D01*
X38151Y-12242D01*
X38545Y-12242D01*
X38338Y-11923D02*
X38338Y-12054D01*
X38545Y-12054D02*
X38151Y-12054D01*
X38151Y-11867D01*
X38526Y-11736D02*
X38545Y-11679D01*
X38545Y-11586D01*
X38526Y-11548D01*
X38507Y-11529D01*
X38470Y-11511D01*
X38432Y-11511D01*
X38395Y-11529D01*
X38376Y-11548D01*
X38357Y-11586D01*
X38338Y-11661D01*
X38320Y-11698D01*
X38301Y-11717D01*
X38263Y-11736D01*
X38226Y-11736D01*
X38188Y-11717D01*
X38170Y-11698D01*
X38151Y-11661D01*
X38151Y-11567D01*
X38170Y-11511D01*
X38545Y-11136D02*
X38545Y-11361D01*
X38545Y-11248D02*
X38151Y-11248D01*
X38207Y-11286D01*
X38245Y-11323D01*
X38263Y-11361D01*
X38545Y-10948D02*
X38545Y-10873D01*
X38526Y-10836D01*
X38507Y-10817D01*
X38451Y-10779D01*
X38376Y-10761D01*
X38226Y-10761D01*
X38188Y-10779D01*
X38170Y-10798D01*
X38151Y-10836D01*
X38151Y-10911D01*
X38170Y-10948D01*
X38188Y-10967D01*
X38226Y-10986D01*
X38320Y-10986D01*
X38357Y-10967D01*
X38376Y-10948D01*
X38395Y-10911D01*
X38395Y-10836D01*
X38376Y-10798D01*
X38357Y-10779D01*
X38320Y-10761D01*
X38151Y-10629D02*
X38151Y-10386D01*
X38301Y-10517D01*
X38301Y-10461D01*
X38320Y-10423D01*
X38338Y-10404D01*
X38376Y-10386D01*
X38470Y-10386D01*
X38507Y-10404D01*
X38526Y-10423D01*
X38545Y-10461D01*
X38545Y-10573D01*
X38526Y-10611D01*
X38507Y-10629D01*
X38151Y-10029D02*
X38151Y-10217D01*
X38338Y-10236D01*
X38320Y-10217D01*
X38301Y-10179D01*
X38301Y-10086D01*
X38320Y-10048D01*
X38338Y-10029D01*
X38376Y-10011D01*
X38470Y-10011D01*
X38507Y-10029D01*
X38526Y-10048D01*
X38545Y-10086D01*
X38545Y-10179D01*
X38526Y-10217D01*
X38507Y-10236D01*
X38545Y-9842D02*
X38151Y-9842D01*
X38545Y-9617D01*
X38151Y-9617D01*
X42224Y-11454D02*
X42205Y-11492D01*
X42168Y-11529D01*
X42111Y-11586D01*
X42093Y-11623D01*
X42093Y-11661D01*
X42186Y-11642D02*
X42168Y-11679D01*
X42130Y-11717D01*
X42055Y-11736D01*
X41924Y-11736D01*
X41849Y-11717D01*
X41811Y-11679D01*
X41793Y-11642D01*
X41793Y-11567D01*
X41811Y-11529D01*
X41849Y-11492D01*
X41924Y-11473D01*
X42055Y-11473D01*
X42130Y-11492D01*
X42168Y-11529D01*
X42186Y-11567D01*
X42186Y-11642D01*
X42186Y-11098D02*
X42186Y-11323D01*
X42186Y-11211D02*
X41793Y-11211D01*
X41849Y-11248D01*
X41886Y-11286D01*
X41905Y-11323D01*
X41694Y-13217D02*
X41301Y-13217D01*
X41694Y-12992D01*
X41301Y-12992D01*
X41301Y-12860D02*
X41301Y-12635D01*
X41694Y-12748D02*
X41301Y-12748D01*
X41694Y-12504D02*
X41301Y-12504D01*
X41582Y-12373D01*
X41301Y-12242D01*
X41694Y-12242D01*
X41488Y-11923D02*
X41488Y-12054D01*
X41694Y-12054D02*
X41301Y-12054D01*
X41301Y-11867D01*
X41676Y-11736D02*
X41694Y-11679D01*
X41694Y-11586D01*
X41676Y-11548D01*
X41657Y-11529D01*
X41619Y-11511D01*
X41582Y-11511D01*
X41544Y-11529D01*
X41526Y-11548D01*
X41507Y-11586D01*
X41488Y-11661D01*
X41469Y-11698D01*
X41451Y-11717D01*
X41413Y-11736D01*
X41376Y-11736D01*
X41338Y-11717D01*
X41319Y-11698D01*
X41301Y-11661D01*
X41301Y-11567D01*
X41319Y-11511D01*
X41694Y-11136D02*
X41694Y-11361D01*
X41694Y-11248D02*
X41301Y-11248D01*
X41357Y-11286D01*
X41394Y-11323D01*
X41413Y-11361D01*
X41694Y-10948D02*
X41694Y-10873D01*
X41676Y-10836D01*
X41657Y-10817D01*
X41601Y-10779D01*
X41526Y-10761D01*
X41376Y-10761D01*
X41338Y-10779D01*
X41319Y-10798D01*
X41301Y-10836D01*
X41301Y-10911D01*
X41319Y-10948D01*
X41338Y-10967D01*
X41376Y-10986D01*
X41469Y-10986D01*
X41507Y-10967D01*
X41526Y-10948D01*
X41544Y-10911D01*
X41544Y-10836D01*
X41526Y-10798D01*
X41507Y-10779D01*
X41469Y-10761D01*
X41301Y-10629D02*
X41301Y-10386D01*
X41451Y-10517D01*
X41451Y-10461D01*
X41469Y-10423D01*
X41488Y-10404D01*
X41526Y-10386D01*
X41619Y-10386D01*
X41657Y-10404D01*
X41676Y-10423D01*
X41694Y-10461D01*
X41694Y-10573D01*
X41676Y-10611D01*
X41657Y-10629D01*
X41301Y-10029D02*
X41301Y-10217D01*
X41488Y-10236D01*
X41469Y-10217D01*
X41451Y-10179D01*
X41451Y-10086D01*
X41469Y-10048D01*
X41488Y-10029D01*
X41526Y-10011D01*
X41619Y-10011D01*
X41657Y-10029D01*
X41676Y-10048D01*
X41694Y-10086D01*
X41694Y-10179D01*
X41676Y-10217D01*
X41657Y-10236D01*
X41694Y-9842D02*
X41301Y-9842D01*
X41694Y-9617D01*
X41301Y-9617D01*
G54D11*
X36507Y-13578D02*
X36341Y-13678D01*
X36507Y-13750D02*
X36157Y-13750D01*
X36157Y-13635D01*
X36174Y-13607D01*
X36191Y-13592D01*
X36224Y-13578D01*
X36274Y-13578D01*
X36307Y-13592D01*
X36324Y-13607D01*
X36341Y-13635D01*
X36341Y-13750D01*
X36507Y-13292D02*
X36507Y-13464D01*
X36507Y-13378D02*
X36157Y-13378D01*
X36207Y-13407D01*
X36241Y-13435D01*
X36257Y-13464D01*
X36157Y-13192D02*
X36157Y-13007D01*
X36291Y-13107D01*
X36291Y-13064D01*
X36307Y-13035D01*
X36324Y-13021D01*
X36357Y-13007D01*
X36441Y-13007D01*
X36474Y-13021D01*
X36491Y-13035D01*
X36507Y-13064D01*
X36507Y-13150D01*
X36491Y-13178D01*
X36474Y-13192D01*
X37005Y-13642D02*
X37005Y-13814D01*
X37005Y-13728D02*
X36655Y-13728D01*
X36705Y-13757D01*
X36739Y-13785D01*
X36755Y-13814D01*
X36655Y-13457D02*
X36655Y-13428D01*
X36672Y-13400D01*
X36689Y-13385D01*
X36722Y-13371D01*
X36789Y-13357D01*
X36872Y-13357D01*
X36939Y-13371D01*
X36972Y-13385D01*
X36989Y-13400D01*
X37005Y-13428D01*
X37005Y-13457D01*
X36989Y-13485D01*
X36972Y-13500D01*
X36939Y-13514D01*
X36872Y-13528D01*
X36789Y-13528D01*
X36722Y-13514D01*
X36689Y-13500D01*
X36672Y-13485D01*
X36655Y-13457D01*
X37005Y-13228D02*
X36772Y-13228D01*
X36805Y-13228D02*
X36789Y-13214D01*
X36772Y-13185D01*
X36772Y-13142D01*
X36789Y-13114D01*
X36822Y-13100D01*
X37005Y-13100D01*
X36822Y-13100D02*
X36789Y-13085D01*
X36772Y-13057D01*
X36772Y-13014D01*
X36789Y-12985D01*
X36822Y-12971D01*
X37005Y-12971D01*
X36507Y-17274D02*
X36341Y-17374D01*
X36507Y-17445D02*
X36157Y-17445D01*
X36157Y-17331D01*
X36174Y-17302D01*
X36191Y-17288D01*
X36224Y-17274D01*
X36274Y-17274D01*
X36307Y-17288D01*
X36324Y-17302D01*
X36341Y-17331D01*
X36341Y-17445D01*
X36507Y-17131D02*
X36507Y-17074D01*
X36491Y-17045D01*
X36474Y-17031D01*
X36424Y-17002D01*
X36357Y-16988D01*
X36224Y-16988D01*
X36191Y-17002D01*
X36174Y-17017D01*
X36157Y-17045D01*
X36157Y-17102D01*
X36174Y-17131D01*
X36191Y-17145D01*
X36224Y-17160D01*
X36307Y-17160D01*
X36341Y-17145D01*
X36357Y-17131D01*
X36374Y-17102D01*
X36374Y-17045D01*
X36357Y-17017D01*
X36341Y-17002D01*
X36307Y-16988D01*
X37005Y-17481D02*
X37005Y-17652D01*
X37005Y-17567D02*
X36655Y-17567D01*
X36705Y-17595D01*
X36739Y-17624D01*
X36755Y-17652D01*
X36655Y-17295D02*
X36655Y-17267D01*
X36672Y-17238D01*
X36689Y-17224D01*
X36722Y-17210D01*
X36789Y-17195D01*
X36872Y-17195D01*
X36939Y-17210D01*
X36972Y-17224D01*
X36989Y-17238D01*
X37005Y-17267D01*
X37005Y-17295D01*
X36989Y-17324D01*
X36972Y-17338D01*
X36939Y-17352D01*
X36872Y-17367D01*
X36789Y-17367D01*
X36722Y-17352D01*
X36689Y-17338D01*
X36672Y-17324D01*
X36655Y-17295D01*
X37005Y-17067D02*
X36772Y-17067D01*
X36805Y-17067D02*
X36789Y-17052D01*
X36772Y-17024D01*
X36772Y-16981D01*
X36789Y-16952D01*
X36822Y-16938D01*
X37005Y-16938D01*
X36822Y-16938D02*
X36789Y-16924D01*
X36772Y-16895D01*
X36772Y-16852D01*
X36789Y-16824D01*
X36822Y-16810D01*
X37005Y-16810D01*
X38980Y-17317D02*
X38966Y-17331D01*
X38923Y-17345D01*
X38894Y-17345D01*
X38851Y-17331D01*
X38823Y-17302D01*
X38808Y-17274D01*
X38794Y-17217D01*
X38794Y-17174D01*
X38808Y-17117D01*
X38823Y-17088D01*
X38851Y-17060D01*
X38894Y-17045D01*
X38923Y-17045D01*
X38966Y-17060D01*
X38980Y-17074D01*
X39266Y-17345D02*
X39094Y-17345D01*
X39180Y-17345D02*
X39180Y-17045D01*
X39151Y-17088D01*
X39123Y-17117D01*
X39094Y-17131D01*
X39523Y-17045D02*
X39466Y-17045D01*
X39437Y-17060D01*
X39423Y-17074D01*
X39394Y-17117D01*
X39380Y-17174D01*
X39380Y-17288D01*
X39394Y-17317D01*
X39408Y-17331D01*
X39437Y-17345D01*
X39494Y-17345D01*
X39523Y-17331D01*
X39537Y-17317D01*
X39551Y-17288D01*
X39551Y-17217D01*
X39537Y-17188D01*
X39523Y-17174D01*
X39494Y-17160D01*
X39437Y-17160D01*
X39408Y-17174D01*
X39394Y-17188D01*
X39380Y-17217D01*
X35929Y-9738D02*
X35914Y-9752D01*
X35872Y-9767D01*
X35843Y-9767D01*
X35800Y-9752D01*
X35772Y-9724D01*
X35757Y-9695D01*
X35743Y-9638D01*
X35743Y-9595D01*
X35757Y-9538D01*
X35772Y-9509D01*
X35800Y-9481D01*
X35843Y-9467D01*
X35872Y-9467D01*
X35914Y-9481D01*
X35929Y-9495D01*
X36214Y-9767D02*
X36043Y-9767D01*
X36129Y-9767D02*
X36129Y-9467D01*
X36100Y-9509D01*
X36072Y-9538D01*
X36043Y-9552D01*
X36486Y-9467D02*
X36343Y-9467D01*
X36329Y-9609D01*
X36343Y-9595D01*
X36372Y-9581D01*
X36443Y-9581D01*
X36472Y-9595D01*
X36486Y-9609D01*
X36500Y-9638D01*
X36500Y-9709D01*
X36486Y-9738D01*
X36472Y-9752D01*
X36443Y-9767D01*
X36372Y-9767D01*
X36343Y-9752D01*
X36329Y-9738D01*
X38980Y-13380D02*
X38966Y-13394D01*
X38923Y-13408D01*
X38894Y-13408D01*
X38851Y-13394D01*
X38823Y-13365D01*
X38808Y-13337D01*
X38794Y-13280D01*
X38794Y-13237D01*
X38808Y-13180D01*
X38823Y-13151D01*
X38851Y-13123D01*
X38894Y-13108D01*
X38923Y-13108D01*
X38966Y-13123D01*
X38980Y-13137D01*
X39266Y-13408D02*
X39094Y-13408D01*
X39180Y-13408D02*
X39180Y-13108D01*
X39151Y-13151D01*
X39123Y-13180D01*
X39094Y-13194D01*
X39523Y-13208D02*
X39523Y-13408D01*
X39451Y-13094D02*
X39380Y-13308D01*
X39566Y-13308D01*
G54D15*
X27661Y-12045D02*
X27261Y-12045D01*
X27261Y-11892D01*
X27280Y-11854D01*
X27300Y-11835D01*
X27338Y-11816D01*
X27395Y-11816D01*
X27433Y-11835D01*
X27452Y-11854D01*
X27471Y-11892D01*
X27471Y-12045D01*
X27661Y-11435D02*
X27661Y-11664D01*
X27661Y-11549D02*
X27261Y-11549D01*
X27319Y-11588D01*
X27357Y-11626D01*
X27376Y-11664D01*
X24661Y-16045D02*
X24261Y-16045D01*
X24261Y-15892D01*
X24280Y-15854D01*
X24300Y-15835D01*
X24338Y-15816D01*
X24395Y-15816D01*
X24433Y-15835D01*
X24452Y-15854D01*
X24471Y-15892D01*
X24471Y-16045D01*
X24300Y-15664D02*
X24280Y-15645D01*
X24261Y-15607D01*
X24261Y-15511D01*
X24280Y-15473D01*
X24300Y-15454D01*
X24338Y-15435D01*
X24376Y-15435D01*
X24433Y-15454D01*
X24661Y-15683D01*
X24661Y-15435D01*
X26704Y-20411D02*
X26704Y-20011D01*
X26857Y-20011D01*
X26895Y-20030D01*
X26914Y-20050D01*
X26933Y-20088D01*
X26933Y-20145D01*
X26914Y-20183D01*
X26895Y-20202D01*
X26857Y-20221D01*
X26704Y-20221D01*
X27066Y-20011D02*
X27314Y-20011D01*
X27180Y-20164D01*
X27238Y-20164D01*
X27276Y-20183D01*
X27295Y-20202D01*
X27314Y-20240D01*
X27314Y-20335D01*
X27295Y-20373D01*
X27276Y-20392D01*
X27238Y-20411D01*
X27123Y-20411D01*
X27085Y-20392D01*
X27066Y-20373D01*
G54D14*
X27778Y-9621D02*
X27778Y-9321D01*
X27892Y-9321D01*
X27921Y-9335D01*
X27935Y-9350D01*
X27950Y-9378D01*
X27950Y-9421D01*
X27935Y-9450D01*
X27921Y-9464D01*
X27892Y-9478D01*
X27778Y-9478D01*
X28221Y-9321D02*
X28078Y-9321D01*
X28064Y-9464D01*
X28078Y-9450D01*
X28107Y-9435D01*
X28178Y-9435D01*
X28207Y-9450D01*
X28221Y-9464D01*
X28235Y-9492D01*
X28235Y-9564D01*
X28221Y-9592D01*
X28207Y-9607D01*
X28178Y-9621D01*
X28107Y-9621D01*
X28078Y-9607D01*
X28064Y-9592D01*
X38164Y-9017D02*
X38164Y-8717D01*
X38278Y-8717D01*
X38307Y-8731D01*
X38321Y-8745D01*
X38335Y-8774D01*
X38335Y-8817D01*
X38321Y-8845D01*
X38307Y-8859D01*
X38278Y-8874D01*
X38164Y-8874D01*
X38592Y-8817D02*
X38592Y-9017D01*
X38521Y-8702D02*
X38450Y-8917D01*
X38635Y-8917D01*
G54D11*
X41438Y-13480D02*
X41452Y-13494D01*
X41466Y-13537D01*
X41466Y-13565D01*
X41452Y-13608D01*
X41424Y-13637D01*
X41395Y-13651D01*
X41338Y-13665D01*
X41295Y-13665D01*
X41238Y-13651D01*
X41209Y-13637D01*
X41181Y-13608D01*
X41166Y-13565D01*
X41166Y-13537D01*
X41181Y-13494D01*
X41195Y-13480D01*
X41466Y-13194D02*
X41466Y-13365D01*
X41466Y-13280D02*
X41166Y-13280D01*
X41209Y-13308D01*
X41238Y-13337D01*
X41252Y-13365D01*
X41166Y-13094D02*
X41166Y-12894D01*
X41466Y-13023D01*
X40439Y-13906D02*
X40453Y-13918D01*
X40467Y-13954D01*
X40467Y-13977D01*
X40453Y-14013D01*
X40425Y-14037D01*
X40396Y-14049D01*
X40339Y-14061D01*
X40296Y-14061D01*
X40239Y-14049D01*
X40210Y-14037D01*
X40182Y-14013D01*
X40167Y-13977D01*
X40167Y-13954D01*
X40182Y-13918D01*
X40196Y-13906D01*
X40382Y-13811D02*
X40382Y-13692D01*
X40467Y-13835D02*
X40167Y-13751D01*
X40467Y-13668D01*
X40467Y-13585D02*
X40167Y-13585D01*
X40167Y-13489D01*
X40182Y-13465D01*
X40196Y-13454D01*
X40225Y-13442D01*
X40267Y-13442D01*
X40296Y-13454D01*
X40310Y-13465D01*
X40325Y-13489D01*
X40325Y-13585D01*
X40382Y-13346D02*
X40382Y-13227D01*
X40467Y-13370D02*
X40167Y-13287D01*
X40467Y-13204D01*
X40467Y-13120D02*
X40167Y-13120D01*
X40167Y-13025D01*
X40182Y-13001D01*
X40196Y-12989D01*
X40225Y-12977D01*
X40267Y-12977D01*
X40296Y-12989D01*
X40310Y-13001D01*
X40325Y-13025D01*
X40325Y-13120D01*
X40167Y-12823D02*
X40167Y-12775D01*
X40182Y-12751D01*
X40210Y-12727D01*
X40267Y-12715D01*
X40367Y-12715D01*
X40425Y-12727D01*
X40453Y-12751D01*
X40467Y-12775D01*
X40467Y-12823D01*
X40453Y-12846D01*
X40425Y-12870D01*
X40367Y-12882D01*
X40267Y-12882D01*
X40210Y-12870D01*
X40182Y-12846D01*
X40167Y-12823D01*
X40467Y-12489D02*
X40467Y-12608D01*
X40167Y-12608D01*
G54D16*
X40853Y-12501D02*
X40853Y-12273D01*
X40967Y-12387D02*
X40739Y-12387D01*
G54D15*
G54D11*
X40653Y-9239D02*
X40639Y-9253D01*
X40596Y-9268D01*
X40567Y-9268D01*
X40525Y-9253D01*
X40496Y-9225D01*
X40482Y-9196D01*
X40467Y-9139D01*
X40467Y-9096D01*
X40482Y-9039D01*
X40496Y-9010D01*
X40525Y-8982D01*
X40567Y-8968D01*
X40596Y-8968D01*
X40639Y-8982D01*
X40653Y-8996D01*
X40939Y-9268D02*
X40767Y-9268D01*
X40853Y-9268D02*
X40853Y-8968D01*
X40825Y-9010D01*
X40796Y-9039D01*
X40767Y-9053D01*
X41110Y-9096D02*
X41082Y-9082D01*
X41067Y-9068D01*
X41053Y-9039D01*
X41053Y-9025D01*
X41067Y-8996D01*
X41082Y-8982D01*
X41110Y-8968D01*
X41167Y-8968D01*
X41196Y-8982D01*
X41210Y-8996D01*
X41225Y-9025D01*
X41225Y-9039D01*
X41210Y-9068D01*
X41196Y-9082D01*
X41167Y-9096D01*
X41110Y-9096D01*
X41082Y-9110D01*
X41067Y-9125D01*
X41053Y-9153D01*
X41053Y-9210D01*
X41067Y-9239D01*
X41082Y-9253D01*
X41110Y-9268D01*
X41167Y-9268D01*
X41196Y-9253D01*
X41210Y-9239D01*
X41225Y-9210D01*
X41225Y-9153D01*
X41210Y-9125D01*
X41196Y-9110D01*
X41167Y-9096D01*
X40227Y-10238D02*
X40215Y-10252D01*
X40179Y-10267D01*
X40155Y-10267D01*
X40120Y-10252D01*
X40096Y-10224D01*
X40084Y-10195D01*
X40072Y-10138D01*
X40072Y-10095D01*
X40084Y-10038D01*
X40096Y-10009D01*
X40120Y-9981D01*
X40155Y-9967D01*
X40179Y-9967D01*
X40215Y-9981D01*
X40227Y-9995D01*
X40322Y-10181D02*
X40441Y-10181D01*
X40298Y-10267D02*
X40382Y-9967D01*
X40465Y-10267D01*
X40548Y-10267D02*
X40548Y-9967D01*
X40644Y-9967D01*
X40667Y-9981D01*
X40679Y-9995D01*
X40691Y-10024D01*
X40691Y-10067D01*
X40679Y-10095D01*
X40667Y-10109D01*
X40644Y-10124D01*
X40548Y-10124D01*
X40786Y-10181D02*
X40905Y-10181D01*
X40763Y-10267D02*
X40846Y-9967D01*
X40929Y-10267D01*
X41013Y-10267D02*
X41013Y-9967D01*
X41108Y-9967D01*
X41132Y-9981D01*
X41144Y-9995D01*
X41155Y-10024D01*
X41155Y-10067D01*
X41144Y-10095D01*
X41132Y-10109D01*
X41108Y-10124D01*
X41013Y-10124D01*
X41310Y-9967D02*
X41358Y-9967D01*
X41382Y-9981D01*
X41405Y-10009D01*
X41417Y-10067D01*
X41417Y-10167D01*
X41405Y-10224D01*
X41382Y-10252D01*
X41358Y-10267D01*
X41310Y-10267D01*
X41286Y-10252D01*
X41263Y-10224D01*
X41251Y-10167D01*
X41251Y-10067D01*
X41263Y-10009D01*
X41286Y-9981D01*
X41310Y-9967D01*
X41644Y-10267D02*
X41525Y-10267D01*
X41525Y-9967D01*
G54D16*
X39832Y-9652D02*
X40060Y-9652D01*
X39946Y-9767D02*
X39946Y-9538D01*
G54D15*
G54D11*
X41339Y-17318D02*
X41354Y-17333D01*
X41368Y-17375D01*
X41368Y-17404D01*
X41354Y-17447D01*
X41325Y-17475D01*
X41297Y-17490D01*
X41239Y-17504D01*
X41197Y-17504D01*
X41139Y-17490D01*
X41111Y-17475D01*
X41082Y-17447D01*
X41068Y-17404D01*
X41068Y-17375D01*
X41082Y-17333D01*
X41097Y-17318D01*
X41368Y-17033D02*
X41368Y-17204D01*
X41368Y-17118D02*
X41068Y-17118D01*
X41111Y-17147D01*
X41139Y-17175D01*
X41154Y-17204D01*
X41368Y-16890D02*
X41368Y-16833D01*
X41354Y-16804D01*
X41339Y-16790D01*
X41297Y-16761D01*
X41239Y-16747D01*
X41125Y-16747D01*
X41097Y-16761D01*
X41082Y-16775D01*
X41068Y-16804D01*
X41068Y-16861D01*
X41082Y-16890D01*
X41097Y-16904D01*
X41125Y-16918D01*
X41197Y-16918D01*
X41225Y-16904D01*
X41239Y-16890D01*
X41254Y-16861D01*
X41254Y-16804D01*
X41239Y-16775D01*
X41225Y-16761D01*
X41197Y-16747D01*
X40340Y-17745D02*
X40355Y-17756D01*
X40369Y-17792D01*
X40369Y-17816D01*
X40355Y-17852D01*
X40326Y-17875D01*
X40298Y-17887D01*
X40240Y-17899D01*
X40198Y-17899D01*
X40140Y-17887D01*
X40112Y-17875D01*
X40083Y-17852D01*
X40069Y-17816D01*
X40069Y-17792D01*
X40083Y-17756D01*
X40098Y-17745D01*
X40283Y-17649D02*
X40283Y-17530D01*
X40369Y-17673D02*
X40069Y-17590D01*
X40369Y-17506D01*
X40369Y-17423D02*
X40069Y-17423D01*
X40069Y-17328D01*
X40083Y-17304D01*
X40098Y-17292D01*
X40126Y-17280D01*
X40169Y-17280D01*
X40198Y-17292D01*
X40212Y-17304D01*
X40226Y-17328D01*
X40226Y-17423D01*
X40283Y-17185D02*
X40283Y-17066D01*
X40369Y-17209D02*
X40069Y-17125D01*
X40369Y-17042D01*
X40369Y-16959D02*
X40069Y-16959D01*
X40069Y-16864D01*
X40083Y-16840D01*
X40098Y-16828D01*
X40126Y-16816D01*
X40169Y-16816D01*
X40198Y-16828D01*
X40212Y-16840D01*
X40226Y-16864D01*
X40226Y-16959D01*
X40069Y-16661D02*
X40069Y-16614D01*
X40083Y-16590D01*
X40112Y-16566D01*
X40169Y-16554D01*
X40269Y-16554D01*
X40326Y-16566D01*
X40355Y-16590D01*
X40369Y-16614D01*
X40369Y-16661D01*
X40355Y-16685D01*
X40326Y-16709D01*
X40269Y-16721D01*
X40169Y-16721D01*
X40112Y-16709D01*
X40083Y-16685D01*
X40069Y-16661D01*
X40369Y-16328D02*
X40369Y-16447D01*
X40069Y-16447D01*
G54D16*
X40755Y-16340D02*
X40755Y-16111D01*
X40869Y-16225D02*
X40640Y-16225D01*
G54D15*
G54D12*
X46042Y-17371D02*
X45442Y-17371D01*
X46042Y-17029D02*
X45699Y-17286D01*
X45442Y-17029D02*
X45784Y-17371D01*
X46042Y-16457D02*
X46042Y-16800D01*
X46042Y-16629D02*
X45442Y-16629D01*
X45527Y-16686D01*
X45584Y-16743D01*
X45613Y-16800D01*
X41984Y-18200D02*
X42013Y-18229D01*
X42042Y-18314D01*
X42042Y-18371D01*
X42013Y-18457D01*
X41956Y-18514D01*
X41899Y-18543D01*
X41784Y-18571D01*
X41699Y-18571D01*
X41584Y-18543D01*
X41527Y-18514D01*
X41470Y-18457D01*
X41442Y-18371D01*
X41442Y-18314D01*
X41470Y-18229D01*
X41499Y-18200D01*
X41442Y-17829D02*
X41442Y-17714D01*
X41470Y-17657D01*
X41527Y-17600D01*
X41642Y-17571D01*
X41842Y-17571D01*
X41956Y-17600D01*
X42013Y-17657D01*
X42042Y-17714D01*
X42042Y-17829D01*
X42013Y-17886D01*
X41956Y-17943D01*
X41842Y-17971D01*
X41642Y-17971D01*
X41527Y-17943D01*
X41470Y-17886D01*
X41442Y-17829D01*
X42042Y-17314D02*
X41442Y-17314D01*
X42042Y-16971D01*
X41442Y-16971D01*
X42042Y-16686D02*
X41442Y-16686D01*
X42042Y-16343D01*
X41442Y-16343D01*
X42099Y-16200D02*
X42099Y-15743D01*
X41442Y-15657D02*
X41442Y-15286D01*
X41670Y-15486D01*
X41670Y-15400D01*
X41699Y-15343D01*
X41727Y-15314D01*
X41784Y-15286D01*
X41927Y-15286D01*
X41984Y-15314D01*
X42013Y-15343D01*
X42042Y-15400D01*
X42042Y-15571D01*
X42013Y-15629D01*
X41984Y-15657D01*
X46042Y-11860D02*
X45442Y-11860D01*
X45442Y-11631D01*
X45470Y-11574D01*
X45499Y-11545D01*
X45556Y-11517D01*
X45642Y-11517D01*
X45699Y-11545D01*
X45727Y-11574D01*
X45756Y-11631D01*
X45756Y-11860D01*
X45442Y-11003D02*
X45442Y-11117D01*
X45470Y-11174D01*
X45499Y-11203D01*
X45584Y-11260D01*
X45699Y-11288D01*
X45927Y-11288D01*
X45984Y-11260D01*
X46013Y-11231D01*
X46042Y-11174D01*
X46042Y-11060D01*
X46013Y-11003D01*
X45984Y-10974D01*
X45927Y-10945D01*
X45784Y-10945D01*
X45727Y-10974D01*
X45699Y-11003D01*
X45670Y-11060D01*
X45670Y-11174D01*
X45699Y-11231D01*
X45727Y-11260D01*
X45784Y-11288D01*
X41984Y-12688D02*
X42013Y-12717D01*
X42042Y-12803D01*
X42042Y-12860D01*
X42013Y-12945D01*
X41956Y-13003D01*
X41899Y-13031D01*
X41784Y-13060D01*
X41699Y-13060D01*
X41584Y-13031D01*
X41527Y-13003D01*
X41470Y-12945D01*
X41442Y-12860D01*
X41442Y-12803D01*
X41470Y-12717D01*
X41499Y-12688D01*
X41442Y-12317D02*
X41442Y-12203D01*
X41470Y-12145D01*
X41527Y-12088D01*
X41642Y-12060D01*
X41842Y-12060D01*
X41956Y-12088D01*
X42013Y-12145D01*
X42042Y-12203D01*
X42042Y-12317D01*
X42013Y-12374D01*
X41956Y-12431D01*
X41842Y-12460D01*
X41642Y-12460D01*
X41527Y-12431D01*
X41470Y-12374D01*
X41442Y-12317D01*
X42042Y-11803D02*
X41442Y-11803D01*
X42042Y-11460D01*
X41442Y-11460D01*
X42042Y-11174D02*
X41442Y-11174D01*
X42042Y-10831D01*
X41442Y-10831D01*
X42099Y-10688D02*
X42099Y-10231D01*
X41499Y-10117D02*
X41470Y-10088D01*
X41442Y-10031D01*
X41442Y-9888D01*
X41470Y-9831D01*
X41499Y-9803D01*
X41556Y-9774D01*
X41613Y-9774D01*
X41699Y-9803D01*
X42042Y-10145D01*
X42042Y-9774D01*
G54D17*
X28021Y-17483D02*
X28012Y-17492D01*
X27986Y-17502D01*
X27969Y-17502D01*
X27944Y-17492D01*
X27926Y-17473D01*
X27918Y-17454D01*
X27909Y-17416D01*
X27909Y-17387D01*
X27918Y-17349D01*
X27926Y-17330D01*
X27944Y-17311D01*
X27969Y-17302D01*
X27986Y-17302D01*
X28012Y-17311D01*
X28021Y-17321D01*
X28089Y-17321D02*
X28098Y-17311D01*
X28115Y-17302D01*
X28158Y-17302D01*
X28175Y-17311D01*
X28184Y-17321D01*
X28192Y-17340D01*
X28192Y-17359D01*
X28184Y-17387D01*
X28081Y-17502D01*
X28192Y-17502D01*
X28021Y-13349D02*
X28012Y-13358D01*
X27986Y-13368D01*
X27969Y-13368D01*
X27944Y-13358D01*
X27926Y-13339D01*
X27918Y-13320D01*
X27909Y-13282D01*
X27909Y-13254D01*
X27918Y-13215D01*
X27926Y-13196D01*
X27944Y-13177D01*
X27969Y-13168D01*
X27986Y-13168D01*
X28012Y-13177D01*
X28021Y-13187D01*
X28081Y-13168D02*
X28192Y-13168D01*
X28132Y-13244D01*
X28158Y-13244D01*
X28175Y-13254D01*
X28184Y-13263D01*
X28192Y-13282D01*
X28192Y-13330D01*
X28184Y-13349D01*
X28175Y-13358D01*
X28158Y-13368D01*
X28106Y-13368D01*
X28089Y-13358D01*
X28081Y-13349D01*
X28021Y-14038D02*
X28012Y-14047D01*
X27986Y-14057D01*
X27969Y-14057D01*
X27944Y-14047D01*
X27926Y-14028D01*
X27918Y-14009D01*
X27909Y-13971D01*
X27909Y-13943D01*
X27918Y-13904D01*
X27926Y-13885D01*
X27944Y-13866D01*
X27969Y-13857D01*
X27986Y-13857D01*
X28012Y-13866D01*
X28021Y-13876D01*
X28175Y-13923D02*
X28175Y-14057D01*
X28132Y-13847D02*
X28089Y-13990D01*
X28201Y-13990D01*
X33939Y-15120D02*
X33930Y-15130D01*
X33905Y-15140D01*
X33887Y-15140D01*
X33862Y-15130D01*
X33845Y-15111D01*
X33836Y-15092D01*
X33827Y-15054D01*
X33827Y-15025D01*
X33836Y-14987D01*
X33845Y-14968D01*
X33862Y-14949D01*
X33887Y-14940D01*
X33905Y-14940D01*
X33930Y-14949D01*
X33939Y-14959D01*
X34110Y-15140D02*
X34007Y-15140D01*
X34059Y-15140D02*
X34059Y-14940D01*
X34042Y-14968D01*
X34025Y-14987D01*
X34007Y-14997D01*
X34222Y-14940D02*
X34239Y-14940D01*
X34256Y-14949D01*
X34265Y-14959D01*
X34273Y-14978D01*
X34282Y-15016D01*
X34282Y-15063D01*
X34273Y-15101D01*
X34265Y-15120D01*
X34256Y-15130D01*
X34239Y-15140D01*
X34222Y-15140D01*
X34205Y-15130D01*
X34196Y-15120D01*
X34187Y-15101D01*
X34179Y-15063D01*
X34179Y-15016D01*
X34187Y-14978D01*
X34196Y-14959D01*
X34205Y-14949D01*
X34222Y-14940D01*
X34025Y-13152D02*
X34016Y-13161D01*
X33990Y-13171D01*
X33973Y-13171D01*
X33947Y-13161D01*
X33930Y-13142D01*
X33922Y-13123D01*
X33913Y-13085D01*
X33913Y-13057D01*
X33922Y-13019D01*
X33930Y-13000D01*
X33947Y-12981D01*
X33973Y-12971D01*
X33990Y-12971D01*
X34016Y-12981D01*
X34025Y-12990D01*
X34110Y-13171D02*
X34145Y-13171D01*
X34162Y-13161D01*
X34170Y-13152D01*
X34187Y-13123D01*
X34196Y-13085D01*
X34196Y-13009D01*
X34187Y-12990D01*
X34179Y-12981D01*
X34162Y-12971D01*
X34127Y-12971D01*
X34110Y-12981D01*
X34102Y-12990D01*
X34093Y-13009D01*
X34093Y-13057D01*
X34102Y-13076D01*
X34110Y-13085D01*
X34127Y-13095D01*
X34162Y-13095D01*
X34179Y-13085D01*
X34187Y-13076D01*
X34196Y-13057D01*
X33939Y-17876D02*
X33930Y-17886D01*
X33905Y-17895D01*
X33887Y-17895D01*
X33862Y-17886D01*
X33845Y-17867D01*
X33836Y-17848D01*
X33827Y-17810D01*
X33827Y-17781D01*
X33836Y-17743D01*
X33845Y-17724D01*
X33862Y-17705D01*
X33887Y-17695D01*
X33905Y-17695D01*
X33930Y-17705D01*
X33939Y-17714D01*
X34110Y-17895D02*
X34007Y-17895D01*
X34059Y-17895D02*
X34059Y-17695D01*
X34042Y-17724D01*
X34025Y-17743D01*
X34007Y-17753D01*
X34170Y-17695D02*
X34282Y-17695D01*
X34222Y-17772D01*
X34247Y-17772D01*
X34265Y-17781D01*
X34273Y-17791D01*
X34282Y-17810D01*
X34282Y-17857D01*
X34273Y-17876D01*
X34265Y-17886D01*
X34247Y-17895D01*
X34196Y-17895D01*
X34179Y-17886D01*
X34170Y-17876D01*
X33939Y-19254D02*
X33930Y-19264D01*
X33905Y-19273D01*
X33887Y-19273D01*
X33862Y-19264D01*
X33845Y-19245D01*
X33836Y-19226D01*
X33827Y-19188D01*
X33827Y-19159D01*
X33836Y-19121D01*
X33845Y-19102D01*
X33862Y-19083D01*
X33887Y-19073D01*
X33905Y-19073D01*
X33930Y-19083D01*
X33939Y-19092D01*
X34110Y-19273D02*
X34007Y-19273D01*
X34059Y-19273D02*
X34059Y-19073D01*
X34042Y-19102D01*
X34025Y-19121D01*
X34007Y-19131D01*
X34179Y-19092D02*
X34187Y-19083D01*
X34205Y-19073D01*
X34247Y-19073D01*
X34265Y-19083D01*
X34273Y-19092D01*
X34282Y-19111D01*
X34282Y-19131D01*
X34273Y-19159D01*
X34170Y-19273D01*
X34282Y-19273D01*
X28021Y-15416D02*
X28012Y-15425D01*
X27986Y-15435D01*
X27969Y-15435D01*
X27944Y-15425D01*
X27926Y-15406D01*
X27918Y-15387D01*
X27909Y-15349D01*
X27909Y-15320D01*
X27918Y-15282D01*
X27926Y-15263D01*
X27944Y-15244D01*
X27969Y-15235D01*
X27986Y-15235D01*
X28012Y-15244D01*
X28021Y-15254D01*
X28184Y-15235D02*
X28098Y-15235D01*
X28089Y-15330D01*
X28098Y-15320D01*
X28115Y-15311D01*
X28158Y-15311D01*
X28175Y-15320D01*
X28184Y-15330D01*
X28192Y-15349D01*
X28192Y-15397D01*
X28184Y-15416D01*
X28175Y-15425D01*
X28158Y-15435D01*
X28115Y-15435D01*
X28098Y-15425D01*
X28089Y-15416D01*
X34025Y-11085D02*
X34016Y-11095D01*
X33990Y-11104D01*
X33973Y-11104D01*
X33947Y-11095D01*
X33930Y-11076D01*
X33922Y-11056D01*
X33913Y-11018D01*
X33913Y-10990D01*
X33922Y-10952D01*
X33930Y-10933D01*
X33947Y-10914D01*
X33973Y-10904D01*
X33990Y-10904D01*
X34016Y-10914D01*
X34025Y-10923D01*
X34127Y-10990D02*
X34110Y-10980D01*
X34102Y-10971D01*
X34093Y-10952D01*
X34093Y-10942D01*
X34102Y-10923D01*
X34110Y-10914D01*
X34127Y-10904D01*
X34162Y-10904D01*
X34179Y-10914D01*
X34187Y-10923D01*
X34196Y-10942D01*
X34196Y-10952D01*
X34187Y-10971D01*
X34179Y-10980D01*
X34162Y-10990D01*
X34127Y-10990D01*
X34110Y-10999D01*
X34102Y-11009D01*
X34093Y-11028D01*
X34093Y-11066D01*
X34102Y-11085D01*
X34110Y-11095D01*
X34127Y-11104D01*
X34162Y-11104D01*
X34179Y-11095D01*
X34187Y-11085D01*
X34196Y-11066D01*
X34196Y-11028D01*
X34187Y-11009D01*
X34179Y-10999D01*
X34162Y-10990D01*
X28021Y-14727D02*
X28012Y-14736D01*
X27986Y-14746D01*
X27969Y-14746D01*
X27944Y-14736D01*
X27926Y-14717D01*
X27918Y-14698D01*
X27909Y-14660D01*
X27909Y-14632D01*
X27918Y-14593D01*
X27926Y-14574D01*
X27944Y-14555D01*
X27969Y-14546D01*
X27986Y-14546D01*
X28012Y-14555D01*
X28021Y-14565D01*
X28192Y-14746D02*
X28089Y-14746D01*
X28141Y-14746D02*
X28141Y-14546D01*
X28124Y-14574D01*
X28106Y-14593D01*
X28089Y-14603D01*
X31183Y-17483D02*
X31174Y-17492D01*
X31149Y-17502D01*
X31132Y-17502D01*
X31106Y-17492D01*
X31089Y-17473D01*
X31080Y-17454D01*
X31072Y-17416D01*
X31072Y-17387D01*
X31080Y-17349D01*
X31089Y-17330D01*
X31106Y-17311D01*
X31132Y-17302D01*
X31149Y-17302D01*
X31174Y-17311D01*
X31183Y-17321D01*
X31354Y-17502D02*
X31252Y-17502D01*
X31303Y-17502D02*
X31303Y-17302D01*
X31286Y-17330D01*
X31269Y-17349D01*
X31252Y-17359D01*
X31526Y-17502D02*
X31423Y-17502D01*
X31474Y-17502D02*
X31474Y-17302D01*
X31457Y-17330D01*
X31440Y-17349D01*
X31423Y-17359D01*
X30186Y-17483D02*
X30177Y-17492D01*
X30152Y-17502D01*
X30135Y-17502D01*
X30109Y-17492D01*
X30092Y-17473D01*
X30083Y-17454D01*
X30075Y-17416D01*
X30075Y-17387D01*
X30083Y-17349D01*
X30092Y-17330D01*
X30109Y-17311D01*
X30135Y-17302D01*
X30152Y-17302D01*
X30177Y-17311D01*
X30186Y-17321D01*
X30246Y-17302D02*
X30366Y-17302D01*
X30289Y-17502D01*
X29103Y-17483D02*
X29095Y-17492D01*
X29069Y-17502D01*
X29052Y-17502D01*
X29026Y-17492D01*
X29009Y-17473D01*
X29001Y-17454D01*
X28992Y-17416D01*
X28992Y-17387D01*
X29001Y-17349D01*
X29009Y-17330D01*
X29026Y-17311D01*
X29052Y-17302D01*
X29069Y-17302D01*
X29095Y-17311D01*
X29103Y-17321D01*
X29258Y-17302D02*
X29223Y-17302D01*
X29206Y-17311D01*
X29198Y-17321D01*
X29181Y-17349D01*
X29172Y-17387D01*
X29172Y-17464D01*
X29181Y-17483D01*
X29189Y-17492D01*
X29206Y-17502D01*
X29241Y-17502D01*
X29258Y-17492D01*
X29266Y-17483D01*
X29275Y-17464D01*
X29275Y-17416D01*
X29266Y-17397D01*
X29258Y-17387D01*
X29241Y-17378D01*
X29206Y-17378D01*
X29189Y-17387D01*
X29181Y-17397D01*
X29172Y-17416D01*
X28021Y-11301D02*
X27961Y-11206D01*
X27918Y-11301D02*
X27918Y-11101D01*
X27986Y-11101D01*
X28004Y-11110D01*
X28012Y-11120D01*
X28021Y-11139D01*
X28021Y-11168D01*
X28012Y-11187D01*
X28004Y-11196D01*
X27986Y-11206D01*
X27918Y-11206D01*
X28089Y-11120D02*
X28098Y-11110D01*
X28115Y-11101D01*
X28158Y-11101D01*
X28175Y-11110D01*
X28184Y-11120D01*
X28192Y-11139D01*
X28192Y-11158D01*
X28184Y-11187D01*
X28081Y-11301D01*
X28192Y-11301D01*
X33939Y-14451D02*
X33879Y-14355D01*
X33836Y-14451D02*
X33836Y-14251D01*
X33905Y-14251D01*
X33922Y-14260D01*
X33930Y-14270D01*
X33939Y-14289D01*
X33939Y-14317D01*
X33930Y-14336D01*
X33922Y-14346D01*
X33905Y-14355D01*
X33836Y-14355D01*
X34110Y-14451D02*
X34007Y-14451D01*
X34059Y-14451D02*
X34059Y-14251D01*
X34042Y-14279D01*
X34025Y-14298D01*
X34007Y-14308D01*
X34282Y-14451D02*
X34179Y-14451D01*
X34230Y-14451D02*
X34230Y-14251D01*
X34213Y-14279D01*
X34196Y-14298D01*
X34179Y-14308D01*
X33939Y-15828D02*
X33879Y-15733D01*
X33836Y-15828D02*
X33836Y-15628D01*
X33905Y-15628D01*
X33922Y-15638D01*
X33930Y-15648D01*
X33939Y-15667D01*
X33939Y-15695D01*
X33930Y-15714D01*
X33922Y-15724D01*
X33905Y-15733D01*
X33836Y-15733D01*
X34110Y-15828D02*
X34007Y-15828D01*
X34059Y-15828D02*
X34059Y-15628D01*
X34042Y-15657D01*
X34025Y-15676D01*
X34007Y-15686D01*
X34265Y-15695D02*
X34265Y-15828D01*
X34222Y-15619D02*
X34179Y-15762D01*
X34290Y-15762D01*
X33939Y-16517D02*
X33879Y-16422D01*
X33836Y-16517D02*
X33836Y-16317D01*
X33905Y-16317D01*
X33922Y-16327D01*
X33930Y-16337D01*
X33939Y-16356D01*
X33939Y-16384D01*
X33930Y-16403D01*
X33922Y-16413D01*
X33905Y-16422D01*
X33836Y-16422D01*
X34110Y-16517D02*
X34007Y-16517D01*
X34059Y-16517D02*
X34059Y-16317D01*
X34042Y-16346D01*
X34025Y-16365D01*
X34007Y-16375D01*
X34273Y-16317D02*
X34187Y-16317D01*
X34179Y-16413D01*
X34187Y-16403D01*
X34205Y-16394D01*
X34247Y-16394D01*
X34265Y-16403D01*
X34273Y-16413D01*
X34282Y-16432D01*
X34282Y-16479D01*
X34273Y-16498D01*
X34265Y-16508D01*
X34247Y-16517D01*
X34205Y-16517D01*
X34187Y-16508D01*
X34179Y-16498D01*
X33939Y-17206D02*
X33879Y-17111D01*
X33836Y-17206D02*
X33836Y-17006D01*
X33905Y-17006D01*
X33922Y-17016D01*
X33930Y-17025D01*
X33939Y-17045D01*
X33939Y-17073D01*
X33930Y-17092D01*
X33922Y-17102D01*
X33905Y-17111D01*
X33836Y-17111D01*
X34110Y-17206D02*
X34007Y-17206D01*
X34059Y-17206D02*
X34059Y-17006D01*
X34042Y-17035D01*
X34025Y-17054D01*
X34007Y-17064D01*
X34179Y-17025D02*
X34187Y-17016D01*
X34205Y-17006D01*
X34247Y-17006D01*
X34265Y-17016D01*
X34273Y-17025D01*
X34282Y-17045D01*
X34282Y-17064D01*
X34273Y-17092D01*
X34170Y-17206D01*
X34282Y-17206D01*
X34025Y-12482D02*
X33965Y-12387D01*
X33922Y-12482D02*
X33922Y-12282D01*
X33990Y-12282D01*
X34007Y-12292D01*
X34016Y-12301D01*
X34025Y-12320D01*
X34025Y-12349D01*
X34016Y-12368D01*
X34007Y-12377D01*
X33990Y-12387D01*
X33922Y-12387D01*
X34085Y-12282D02*
X34205Y-12282D01*
X34127Y-12482D01*
X34025Y-11793D02*
X33965Y-11698D01*
X33922Y-11793D02*
X33922Y-11593D01*
X33990Y-11593D01*
X34007Y-11603D01*
X34016Y-11612D01*
X34025Y-11631D01*
X34025Y-11660D01*
X34016Y-11679D01*
X34007Y-11688D01*
X33990Y-11698D01*
X33922Y-11698D01*
X34179Y-11593D02*
X34145Y-11593D01*
X34127Y-11603D01*
X34119Y-11612D01*
X34102Y-11641D01*
X34093Y-11679D01*
X34093Y-11755D01*
X34102Y-11774D01*
X34110Y-11784D01*
X34127Y-11793D01*
X34162Y-11793D01*
X34179Y-11784D01*
X34187Y-11774D01*
X34196Y-11755D01*
X34196Y-11707D01*
X34187Y-11688D01*
X34179Y-11679D01*
X34162Y-11669D01*
X34127Y-11669D01*
X34110Y-11679D01*
X34102Y-11688D01*
X34093Y-11707D01*
X34025Y-18584D02*
X33965Y-18489D01*
X33922Y-18584D02*
X33922Y-18384D01*
X33990Y-18384D01*
X34007Y-18394D01*
X34016Y-18403D01*
X34025Y-18422D01*
X34025Y-18451D01*
X34016Y-18470D01*
X34007Y-18480D01*
X33990Y-18489D01*
X33922Y-18489D01*
X34127Y-18470D02*
X34110Y-18461D01*
X34102Y-18451D01*
X34093Y-18432D01*
X34093Y-18422D01*
X34102Y-18403D01*
X34110Y-18394D01*
X34127Y-18384D01*
X34162Y-18384D01*
X34179Y-18394D01*
X34187Y-18403D01*
X34196Y-18422D01*
X34196Y-18432D01*
X34187Y-18451D01*
X34179Y-18461D01*
X34162Y-18470D01*
X34127Y-18470D01*
X34110Y-18480D01*
X34102Y-18489D01*
X34093Y-18508D01*
X34093Y-18546D01*
X34102Y-18565D01*
X34110Y-18575D01*
X34127Y-18584D01*
X34162Y-18584D01*
X34179Y-18575D01*
X34187Y-18565D01*
X34196Y-18546D01*
X34196Y-18508D01*
X34187Y-18489D01*
X34179Y-18480D01*
X34162Y-18470D01*
X28021Y-16813D02*
X27961Y-16717D01*
X27918Y-16813D02*
X27918Y-16613D01*
X27986Y-16613D01*
X28004Y-16622D01*
X28012Y-16632D01*
X28021Y-16651D01*
X28021Y-16679D01*
X28012Y-16698D01*
X28004Y-16708D01*
X27986Y-16717D01*
X27918Y-16717D01*
X28175Y-16679D02*
X28175Y-16813D01*
X28132Y-16603D02*
X28089Y-16746D01*
X28201Y-16746D01*
X28021Y-11990D02*
X27961Y-11895D01*
X27918Y-11990D02*
X27918Y-11790D01*
X27986Y-11790D01*
X28004Y-11799D01*
X28012Y-11809D01*
X28021Y-11828D01*
X28021Y-11857D01*
X28012Y-11876D01*
X28004Y-11885D01*
X27986Y-11895D01*
X27918Y-11895D01*
X28192Y-11990D02*
X28089Y-11990D01*
X28141Y-11990D02*
X28141Y-11790D01*
X28124Y-11818D01*
X28106Y-11838D01*
X28089Y-11847D01*
X33939Y-13860D02*
X33879Y-13765D01*
X33836Y-13860D02*
X33836Y-13660D01*
X33905Y-13660D01*
X33922Y-13670D01*
X33930Y-13679D01*
X33939Y-13698D01*
X33939Y-13727D01*
X33930Y-13746D01*
X33922Y-13755D01*
X33905Y-13765D01*
X33836Y-13765D01*
X34110Y-13860D02*
X34007Y-13860D01*
X34059Y-13860D02*
X34059Y-13660D01*
X34042Y-13689D01*
X34025Y-13708D01*
X34007Y-13717D01*
X34222Y-13660D02*
X34239Y-13660D01*
X34256Y-13670D01*
X34265Y-13679D01*
X34273Y-13698D01*
X34282Y-13736D01*
X34282Y-13784D01*
X34273Y-13822D01*
X34265Y-13841D01*
X34256Y-13850D01*
X34239Y-13860D01*
X34222Y-13860D01*
X34205Y-13850D01*
X34196Y-13841D01*
X34187Y-13822D01*
X34179Y-13784D01*
X34179Y-13736D01*
X34187Y-13698D01*
X34196Y-13679D01*
X34205Y-13670D01*
X34222Y-13660D01*
X28021Y-12679D02*
X27961Y-12584D01*
X27918Y-12679D02*
X27918Y-12479D01*
X27986Y-12479D01*
X28004Y-12488D01*
X28012Y-12498D01*
X28021Y-12517D01*
X28021Y-12546D01*
X28012Y-12565D01*
X28004Y-12574D01*
X27986Y-12584D01*
X27918Y-12584D01*
X28184Y-12479D02*
X28098Y-12479D01*
X28089Y-12574D01*
X28098Y-12565D01*
X28115Y-12555D01*
X28158Y-12555D01*
X28175Y-12565D01*
X28184Y-12574D01*
X28192Y-12593D01*
X28192Y-12641D01*
X28184Y-12660D01*
X28175Y-12669D01*
X28158Y-12679D01*
X28115Y-12679D01*
X28098Y-12669D01*
X28089Y-12660D01*
X28021Y-16124D02*
X27961Y-16029D01*
X27918Y-16124D02*
X27918Y-15924D01*
X27986Y-15924D01*
X28004Y-15933D01*
X28012Y-15943D01*
X28021Y-15962D01*
X28021Y-15990D01*
X28012Y-16009D01*
X28004Y-16019D01*
X27986Y-16029D01*
X27918Y-16029D01*
X28081Y-15924D02*
X28192Y-15924D01*
X28132Y-16000D01*
X28158Y-16000D01*
X28175Y-16009D01*
X28184Y-16019D01*
X28192Y-16038D01*
X28192Y-16086D01*
X28184Y-16105D01*
X28175Y-16114D01*
X28158Y-16124D01*
X28106Y-16124D01*
X28089Y-16114D01*
X28081Y-16105D01*
M02*
