M48
;DRILL file {Pcbnew (2013-07-07 BZR 4022)-stable} date 15/08/2017 00:06:57
;FORMAT={-:-/ absolute / inch / decimal}
FMAT,2
INCH,TZ
T1C0.010
T2C0.032
T3C0.040
T4C0.060
%
G90
G05
M72
T1
X2.7751Y-1.3976
X2.7776Y-1.3276
X2.8661Y-1.122
X2.8701Y-1.3307
X2.874Y-1.2598
X2.876Y-1.4488
X2.876Y-1.4803
X2.876Y-1.5138
X2.8799Y-1.3563
X2.8937Y-1.3071
X2.9213Y-1.7992
X2.9921Y-1.3878
X2.9921Y-1.4213
X2.9941Y-1.2894
X2.9941Y-1.4961
X2.9941Y-1.5551
X2.998Y-1.5256
X2.9988Y-1.589
X3.0315Y-1.2992
X3.0315Y-1.3386
X3.0315Y-1.378
X3.0315Y-1.4173
X3.0315Y-1.4567
X3.0315Y-1.4961
X3.0709Y-1.2992
X3.0709Y-1.3386
X3.0709Y-1.378
X3.0709Y-1.4173
X3.0709Y-1.4567
X3.0709Y-1.4961
X3.0748Y-1.7421
X3.078Y-1.8098
X3.1071Y-1.8094
X3.1102Y-1.2992
X3.1102Y-1.3386
X3.1102Y-1.378
X3.1102Y-1.4173
X3.1102Y-1.4567
X3.1102Y-1.4961
X3.1496Y-1.2992
X3.1496Y-1.3386
X3.1496Y-1.378
X3.189Y-1.3287
X3.316Y-1.54
X3.318Y-1.588
X3.321Y-1.427
X3.322Y-1.3339
X3.325Y-1.476
X3.3445Y-1.7579
X3.4355Y-1.1024
X3.4355Y-1.1713
X3.4355Y-1.6437
X3.436Y-1.506
X3.437Y-1.379
X3.438Y-1.31
X3.452Y-1.556
X3.4547Y-1.7126
X3.4843Y-1.8898
X3.487Y-0.934
X3.487Y-0.964
X3.487Y-0.992
X3.4909Y-1.9492
X3.5039Y-1.2795
X3.554Y-1.476
X3.5545Y-0.9876
X3.5545Y-1.0276
X3.562Y-1.722
X3.626Y-1.4921
X3.6299Y-1.0669
X3.6299Y-1.4528
X3.6299Y-1.8386
X3.6299Y-1.878
X3.6339Y-1.9291
X3.6339Y-1.9685
X3.6378Y-1.5276
X3.6417Y-1.1024
X3.66Y-1.662
X3.6668Y-1.4868
X3.6732Y-1.0669
X3.6811Y-1.1024
X3.6811Y-1.5551
X3.6811Y-1.9685
X3.685Y-1.8386
X3.685Y-1.878
X3.685Y-1.9291
X3.705Y-1.525
X3.7087Y-1.126
X3.7087Y-1.5945
X3.7106Y-1.7815
X3.7205Y-1.9016
X3.7244Y-1.0984
X3.7244Y-1.9685
X3.7283Y-1.0669
X3.7362Y-1.374
X3.7362Y-1.6693
X3.7362Y-1.6949
X3.748Y-1.5506
X3.7573Y-1.1167
X3.7598Y-1.3858
X3.7598Y-1.5945
X3.7598Y-1.6693
X3.7598Y-1.6969
X3.7598Y-1.8386
X3.7598Y-1.878
X3.7598Y-1.9252
X3.7614Y-1.3386
X3.7614Y-1.7224
X3.7638Y-1.9685
X3.7717Y-1.1535
X3.7778Y-1.4506
X3.7795Y-1.2913
X3.7797Y-1.0667
X3.7835Y-1.5669
X3.7835Y-1.6693
X3.7835Y-1.6969
X3.7835Y-1.7244
X3.7913Y-1.3858
X3.7992Y-1.1181
X3.8031Y-1.4764
X3.8071Y-1.3189
X3.8071Y-1.3543
X3.8118Y-1.9681
X3.8268Y-1.4528
X3.8268Y-1.5
X3.827Y-1.218
X3.8346Y-1.8346
X3.8346Y-1.8701
X3.8346Y-1.9016
X3.8504Y-1.3287
X3.8695Y-1.4506
X3.8695Y-1.6006
X3.874Y-1.8346
X3.937Y-1.1142
X3.9449Y-1.5433
X3.9449Y-1.5827
X3.9488Y-1.1417
X3.9488Y-1.9213
X3.9488Y-1.9528
X3.9488Y-1.9882
X3.9646Y-1.1142
X3.9843Y-1.5433
X3.9843Y-1.5827
X3.9843Y-1.9204
X3.9843Y-1.9528
X3.9843Y-1.9882
X3.9882Y-1.1378
X3.9961Y-1.1142
X4.0197Y-1.5433
X4.0197Y-1.5827
X4.0197Y-1.9213
X4.0197Y-1.9528
X4.0197Y-1.9882
X4.0236Y-1.1378
X4.0276Y-1.0945
X4.0512Y-1.0709
X4.0551Y-1.1378
X4.0551Y-1.5433
X4.0551Y-1.5827
X4.0551Y-1.9204
X4.0551Y-1.9528
X4.0551Y-1.9882
X4.0748Y-1.1063
X4.0866Y-1.0709
X4.0906Y-1.1378
X4.0906Y-1.5433
X4.0906Y-1.5866
X4.0906Y-1.9528
X4.0906Y-1.9882
T2
X4.0346Y-0.9646
X4.0748Y-1.6626
X4.0748Y-1.7626
X4.0846Y-1.2787
X4.0846Y-1.3787
X4.1346Y-0.9646
T3
X2.55Y-1.025
X2.55Y-1.125
X2.55Y-1.225
X2.55Y-1.325
X2.55Y-1.425
X2.55Y-1.525
X2.55Y-1.625
X2.55Y-1.725
X2.55Y-1.925
X2.65Y-1.025
X2.65Y-1.125
X2.65Y-1.225
X2.65Y-1.325
X2.65Y-1.425
X2.65Y-1.525
X2.65Y-1.625
X2.65Y-1.725
X2.65Y-1.925
X2.75Y-1.025
X2.75Y-1.925
X2.85Y-1.025
X2.85Y-1.925
X3.7886Y-0.9646
X3.8886Y-0.9646
T4
X4.3799Y-1.0417
X4.3799Y-1.2417
X4.3799Y-1.4929
X4.3799Y-1.6929
X4.3799Y-1.8929
T0
M30
